# https://github.com/mikedh/trimesh
v -0.03308640 0.03175491 -0.04741931 0.69411765 0.05882353 0.66666667
v -0.03308640 0.03092321 -0.04280552 0.69411765 0.05882353 0.66666667
v -0.00694203 0.03100946 -0.04280552 0.69411765 0.05882353 0.66666667
v -0.01614869 0.03173027 -0.04741931 0.69411765 0.05882353 0.66666667
v -0.04995350 0.03152696 -0.04741931 0.69411765 0.05882353 0.66666667
v -0.04925453 0.03127437 -0.04552727 0.69411765 0.05882353 0.66666667
v -0.05003117 0.03080615 -0.04280552 0.69411765 0.05882353 0.66666667
v -0.00526167 0.03036874 -0.04280552 0.69411765 0.05882353 0.66666667
v -0.00610185 0.03131134 -0.04532718 0.69411765 0.05882353 0.66666667
v -0.00694203 0.03170562 -0.04741931 0.69411765 0.05882353 0.66666667
v -0.05711267 0.03134214 -0.04741931 0.69411765 0.05882353 0.66666667
v -0.05699264 0.03129901 -0.04695725 0.69411765 0.05882353 0.66666667
v -0.05779046 0.03014079 -0.04280552 0.69411765 0.05882353 0.66666667
v -0.00579120 0.03148383 -0.04741931 0.69411765 0.05882353 0.66666667
v -0.00594652 0.03139142 -0.04631046 0.69411765 0.05882353 0.66666667
v -0.00279056 0.02840962 -0.04280552 0.69411765 0.05882353 0.66666667
v -0.00279056 0.02870534 -0.04309413 0.69411765 0.05882353 0.66666667
v -0.00279056 0.02890864 -0.04424679 0.69411765 0.05882353 0.66666667
v -0.06497081 0.02979579 -0.04741931 0.69411765 0.05882353 0.66666667
v -0.06468839 0.02975883 -0.04696583 0.69411765 0.05882353 0.66666667
v -0.06382704 0.02899489 -0.04280552 0.69411765 0.05882353 0.66666667
v -0.00279056 0.02924748 -0.04719889 0.69411765 0.05882353 0.66666667
v -0.00279056 0.02925980 -0.04741931 0.69411765 0.05882353 0.66666667
v -0.00279056 -0.02815840 -0.04280552 0.69411765 0.05882353 0.66666667
v -0.06571921 0.02957400 -0.04741931 0.69411765 0.05882353 0.66666667
v -0.06515438 0.02861292 -0.04280552 0.69411765 0.05882353 0.66666667
v -0.00279056 -0.02877448 -0.04741931 0.69411765 0.05882353 0.66666667
v -0.00279762 -0.02890385 -0.04741931 0.69411765 0.05882353 0.66666667
v -0.00502162 -0.02961234 -0.04280552 0.69411765 0.05882353 0.66666667
v -0.00531815 -0.03078288 -0.04741931 0.69411765 0.05882353 0.66666667
v -0.00496514 -0.03053645 -0.04741931 0.69411765 0.05882353 0.66666667
v -0.06646054 0.02888400 -0.04741931 0.69411765 0.05882353 0.66666667
v -0.07129686 0.02413406 -0.04741931 0.69411765 0.05882353 0.66666667
v -0.07109917 0.02394924 -0.04631046 0.69411765 0.05882353 0.66666667
v -0.07089442 0.02373361 -0.04510767 0.69411765 0.05882353 0.66666667
v -0.07030135 0.02348102 -0.04280552 0.69411765 0.05882353 0.66666667
v -0.00547348 -0.02977252 -0.04280552 0.69411765 0.05882353 0.66666667
v -0.00610185 -0.03026538 -0.04386242 0.69411765 0.05882353 0.66666667
v -0.00586886 -0.03040092 -0.04477344 0.69411765 0.05882353 0.66666667
v -0.00554408 -0.03063502 -0.04631046 0.69411765 0.05882353 0.66666667
v -0.00655371 -0.03112172 -0.04741931 0.69411765 0.05882353 0.66666667
v -0.07172754 0.02312986 -0.04741931 0.69411765 0.05882353 0.66666667
v -0.07099326 0.02253842 -0.04280552 0.69411765 0.05882353 0.66666667
v -0.07066849 0.02308673 -0.04280552 0.69411765 0.05882353 0.66666667
v -0.00627130 -0.02989573 -0.04280552 0.69411765 0.05882353 0.66666667
v -0.00694203 -0.03117101 -0.04741931 0.69411765 0.05882353 0.66666667
v -0.00690673 -0.02994502 -0.04280552 0.69411765 0.05882353 0.66666667
v -0.04533605 -0.03006207 -0.04280552 0.69411765 0.05882353 0.66666667
v -0.05514990 -0.03030850 -0.04365014 0.69411765 0.05882353 0.66666667
v -0.07185462 0.02281566 -0.04741931 0.69411765 0.05882353 0.66666667
v -0.07336553 0.01823206 -0.04741931 0.69411765 0.05882353 0.66666667
v -0.07249711 0.01779464 -0.04280552 0.69411765 0.05882353 0.66666667
v -0.05551704 -0.03030850 -0.04365014 0.69411765 0.05882353 0.66666667
v -0.04537841 -0.03112172 -0.04741931 0.69411765 0.05882353 0.66666667
v -0.05462038 -0.02998198 -0.04280552 0.69411765 0.05882353 0.66666667
v -0.07361264 0.01658714 -0.04741931 0.69411765 0.05882353 0.66666667
v -0.07404332 0.00886156 -0.04280552 0.69411765 0.05882353 0.66666667
v -0.05574297 -0.03045636 -0.04477344 0.69411765 0.05882353 0.66666667
v -0.05457095 -0.03089378 -0.04741931 0.69411765 0.05882353 0.66666667
v -0.06547915 -0.02779492 -0.04280552 0.69411765 0.05882353 0.66666667
v -0.06488609 -0.02883608 -0.04509683 0.69411765 0.05882353 0.66666667
v -0.06537325 -0.02929814 -0.04741931 0.69411765 0.05882353 0.66666667
v -0.07472111 0.00897861 -0.04741931 0.69411765 0.05882353 0.66666667
v -0.07491880 0.00123454 -0.04741931 0.69411765 0.05882353 0.66666667
v -0.07409274 0.00130847 -0.04280552 0.69411765 0.05882353 0.66666667
v -0.05600420 -0.03065351 -0.04631046 0.69411765 0.05882353 0.66666667
v -0.05622307 -0.03076440 -0.04741931 0.69411765 0.05882353 0.66666667
v -0.06615694 -0.02871903 -0.04700016 0.69411765 0.05882353 0.66666667
v -0.06538737 -0.02897778 -0.04641660 0.69411765 0.05882353 0.66666667
v -0.06992716 -0.02284783 -0.04280552 0.69411765 0.05882353 0.66666667
v -0.07076733 -0.02255212 -0.04396901 0.69411765 0.05882353 0.66666667
v -0.07092266 -0.02272462 -0.04477344 0.69411765 0.05882353 0.66666667
v -0.06620636 -0.02878680 -0.04741931 0.69411765 0.05882353 0.66666667
v -0.07487644 -0.00793265 -0.04741931 0.69411765 0.05882353 0.66666667
v -0.07409274 0.00056302 -0.04280552 0.69411765 0.05882353 0.66666667
v -0.07119801 -0.02301417 -0.04631046 0.69411765 0.05882353 0.66666667
v -0.07138864 -0.02318051 -0.04741931 0.69411765 0.05882353 0.66666667
v -0.07047080 -0.02176970 -0.04280552 0.69411765 0.05882353 0.66666667
v -0.07277952 -0.01487582 -0.04280552 0.69411765 0.05882353 0.66666667
v -0.07397272 -0.01509761 -0.04664469 0.69411765 0.05882353 0.66666667
v -0.07409274 -0.01529475 -0.04741931 0.69411765 0.05882353 0.66666667
v -0.07394447 -0.00793265 -0.04348708 0.69411765 0.05882353 0.66666667
v -0.07378209 -0.00793265 -0.04280552 0.69411765 0.05882353 0.66666667
v -0.07299839 -0.01408108 -0.04280552 0.69411765 0.05882353 0.66666667
v -0.07377503 -0.00799426 -0.04280552 0.69411765 0.05882353 0.66666667
f 1 2 3
f 1 3 4
f 1 4 10
f 1 10 14
f 1 14 23
f 1 23 27
f 1 27 28
f 1 28 31
f 1 31 30
f 1 30 41
f 1 41 46
f 1 46 54
f 1 54 59
f 1 59 67
f 1 67 62
f 1 62 73
f 1 73 77
f 1 77 81
f 1 81 74
f 1 74 64
f 1 64 63
f 1 63 56
f 1 56 51
f 1 51 50
f 1 50 42
f 1 42 33
f 1 33 32
f 1 32 25
f 1 25 19
f 1 19 11
f 1 11 5
f 1 5 6
f 1 6 7
f 1 7 2
f 2 7 13
f 2 13 21
f 2 21 26
f 2 26 36
f 2 36 44
f 2 44 43
f 2 43 52
f 2 52 57
f 2 57 65
f 2 65 75
f 2 75 83
f 2 83 85
f 2 85 84
f 2 84 79
f 2 79 78
f 2 78 70
f 2 70 60
f 2 60 55
f 2 55 48
f 2 48 47
f 2 47 45
f 2 45 37
f 2 37 29
f 2 29 24
f 2 24 16
f 2 16 8
f 2 8 3
f 3 8 9
f 3 9 10
f 3 10 4
f 5 11 12
f 5 12 6
f 6 12 7
f 7 12 13
f 8 14 15
f 8 15 9
f 8 16 17
f 8 17 18
f 8 18 14
f 9 15 10
f 10 15 14
f 11 19 12
f 12 19 20
f 12 20 21
f 12 21 13
f 14 18 22
f 14 22 23
f 16 24 27
f 16 27 23
f 16 23 22
f 16 22 18
f 16 18 17
f 19 25 26
f 19 26 21
f 19 21 20
f 24 28 27
f 24 29 30
f 24 30 31
f 24 31 28
f 25 32 26
f 26 32 33
f 26 33 34
f 26 34 35
f 26 35 36
f 29 37 38
f 29 38 39
f 29 39 40
f 29 40 30
f 30 40 41
f 33 42 43
f 33 43 44
f 33 44 34
f 34 44 35
f 35 44 36
f 37 45 38
f 38 46 41
f 38 41 39
f 38 45 47
f 38 47 48
f 38 48 49
f 38 49 46
f 39 41 40
f 42 50 43
f 43 50 51
f 43 51 52
f 46 49 53
f 46 53 54
f 48 55 53
f 48 53 49
f 51 56 57
f 51 57 52
f 53 58 59
f 53 59 54
f 53 55 60
f 53 60 61
f 53 61 62
f 53 62 58
f 56 63 57
f 57 63 64
f 57 64 65
f 58 66 59
f 58 62 66
f 59 66 67
f 60 68 69
f 60 69 61
f 60 70 71
f 60 71 72
f 60 72 68
f 61 69 62
f 62 67 66
f 62 69 68
f 62 68 73
f 64 74 75
f 64 75 65
f 68 72 76
f 68 76 77
f 68 77 73
f 70 78 71
f 71 78 79
f 71 79 80
f 71 80 72
f 72 80 76
f 74 81 80
f 74 80 82
f 74 82 75
f 75 82 83
f 76 80 81
f 76 81 77
f 79 84 80
f 80 85 83
f 80 83 82
f 80 84 85

