# https://github.com/mikedh/trimesh
v 0.04841758 0.01305571 -0.00599487 0.38039216 0.78823529 0.52549020
v 0.04835234 0.01498384 -0.03211321 0.38039216 0.78823529 0.52549020
v 0.04811032 0.01304156 -0.00599487 0.38039216 0.78823529 0.52549020
v 0.04972448 0.01289999 -0.00599487 0.38039216 0.78823529 0.52549020
v 0.04953507 0.01483661 -0.03211321 0.38039216 0.78823529 0.52549020
v 0.04711068 0.01488758 -0.03211321 0.38039216 0.78823529 0.52549020
v 0.04697809 0.01297644 -0.00599487 0.38039216 0.78823529 0.52549020
v 0.05049052 0.01278674 -0.00599487 0.38039216 0.78823529 0.52549020
v 0.05055155 0.01458462 -0.03211321 0.38039216 0.78823529 0.52549020
v 0.04534078 0.01409764 -0.03211321 0.38039216 0.78823529 0.52549020
v 0.04534078 0.01254324 -0.00599487 0.38039216 0.78823529 0.52549020
v 0.04601212 0.01274427 -0.00599487 0.38039216 0.78823529 0.52549020
v 0.04620994 0.01279806 -0.00599487 0.38039216 0.78823529 0.52549020
v 0.05148806 0.01246114 -0.00599487 0.38039216 0.78823529 0.52549020
v 0.05168588 0.01417125 -0.03211321 0.38039216 0.78823529 0.52549020
v 0.04393286 0.01345493 -0.03211321 0.38039216 0.78823529 0.52549020
v 0.04500406 0.01239035 -0.00599487 0.38039216 0.78823529 0.52549020
v 0.05412080 0.01317463 -0.03211321 0.38039216 0.78823529 0.52549020
v 0.05314431 0.01359933 -0.03211321 0.38039216 0.78823529 0.52549020
v 0.05289177 0.01178445 -0.00599487 0.38039216 0.78823529 0.52549020
v 0.04244918 0.01188072 -0.03211321 0.38039216 0.78823529 0.52549020
v 0.04304897 0.01126915 -0.00599487 0.38039216 0.78823529 0.52549020
v 0.04342147 0.01153813 -0.00599487 0.38039216 0.78823529 0.52549020
v 0.04357299 0.01164289 -0.00599487 0.38039216 0.78823529 0.52549020
v 0.04370768 0.01172499 -0.00599487 0.38039216 0.78823529 0.52549020
v 0.05314010 0.01166271 -0.00599487 0.38039216 0.78823529 0.52549020
v 0.05379881 0.01128897 -0.00599487 0.38039216 0.78823529 0.52549020
v 0.05485317 0.01267349 -0.03211321 0.38039216 0.78823529 0.52549020
v 0.04097813 0.00873795 -0.03211321 0.38039216 0.78823529 0.52549020
v 0.04044569 0.00747235 -0.00599487 0.38039216 0.78823529 0.52549020
v 0.04113597 0.00887102 -0.00599487 0.38039216 0.78823529 0.52549020
v 0.04146006 0.00946277 -0.00599487 0.38039216 0.78823529 0.52549020
v 0.04157160 0.00962132 -0.00599487 0.38039216 0.78823529 0.52549020
v 0.04242393 0.01059530 -0.00599487 0.38039216 0.78823529 0.52549020
v 0.05445121 0.01070006 -0.00599487 0.38039216 0.78823529 0.52549020
v 0.05593279 0.01188355 -0.03211321 0.38039216 0.78823529 0.52549020
v 0.05582967 0.01195999 -0.03211321 0.38039216 0.78823529 0.52549020
v 0.04066876 0.00744970 -0.03211321 0.38039216 0.78823529 0.52549020
v 0.03936818 0.00436357 -0.00599487 0.38039216 0.78823529 0.52549020
v 0.03967123 0.00561501 -0.00599487 0.38039216 0.78823529 0.52549020
v 0.03989220 0.00621525 -0.00599487 0.38039216 0.78823529 0.52549020
v 0.05539824 0.00982235 -0.00599487 0.38039216 0.78823529 0.52549020
v 0.05734492 0.01037445 -0.03211321 0.38039216 0.78823529 0.52549020
v 0.04006056 0.00282899 -0.03211321 0.38039216 0.78823529 0.52549020
v 0.03921455 0.00320556 -0.00599487 0.38039216 0.78823529 0.52549020
v 0.05607379 0.00897861 -0.00599487 0.38039216 0.78823529 0.52549020
v 0.05677670 0.00804145 -0.00599487 0.38039216 0.78823529 0.52549020
v 0.05746277 0.01021307 -0.03211321 0.38039216 0.78823529 0.52549020
v 0.03988168 0.00129159 -0.03211321 0.38039216 0.78823529 0.52549020
v 0.03973226 -0.00024299 -0.03211321 0.38039216 0.78823529 0.52549020
v 0.03907776 0.00169646 -0.00599487 0.38039216 0.78823529 0.52549020
v 0.05716393 0.00727416 -0.00599487 0.38039216 0.78823529 0.52549020
v 0.05904957 0.00735344 -0.03211321 0.38039216 0.78823529 0.52549020
v 0.03974489 -0.00087437 -0.03211321 0.38039216 0.78823529 0.52549020
v 0.03898937 -0.00024299 -0.00599487 0.38039216 0.78823529 0.52549020
v 0.03900199 0.00019303 -0.00599487 0.38039216 0.78823529 0.52549020
v 0.03904829 0.00128875 -0.00599487 0.38039216 0.78823529 0.52549020
v 0.05776161 0.00590097 -0.00599487 0.38039216 0.78823529 0.52549020
v 0.05907483 0.00729115 -0.03211321 0.38039216 0.78823529 0.52549020
v 0.03902514 -0.00178040 -0.00599487 0.38039216 0.78823529 0.52549020
v 0.03977224 -0.00178040 -0.03211321 0.38039216 0.78823529 0.52549020
v 0.05823723 0.00455326 -0.00599487 0.38039216 0.78823529 0.52549020
v 0.05845820 0.00378598 -0.00599487 0.38039216 0.78823529 0.52549020
v 0.05980509 0.00460140 -0.03211321 0.38039216 0.78823529 0.52549020
v 0.03912195 -0.00331780 -0.00599487 0.38039216 0.78823529 0.52549020
v 0.03981644 -0.00231268 -0.03211321 0.38039216 0.78823529 0.52549020
v 0.05861393 0.00282616 -0.00599487 0.38039216 0.78823529 0.52549020
v 0.06033332 0.00213532 -0.03211321 0.38039216 0.78823529 0.52549020
v 0.06009761 0.00336694 -0.03211321 0.38039216 0.78823529 0.52549020
v 0.03997428 -0.00366605 -0.03211321 0.38039216 0.78823529 0.52549020
v 0.03931977 -0.00486087 -0.00599487 0.38039216 0.78823529 0.52549020
v 0.05865602 0.00248923 -0.00599487 0.38039216 0.78823529 0.52549020
v 0.06045118 0.00129159 -0.03211321 0.38039216 0.78823529 0.52549020
v 0.04014895 -0.00485804 -0.03211321 0.38039216 0.78823529 0.52549020
v 0.04017210 -0.00500810 -0.03211321 0.38039216 0.78823529 0.52549020
v 0.04041833 -0.00634448 -0.03211321 0.38039216 0.78823529 0.52549020
v 0.04042885 -0.00639544 -0.03211321 0.38039216 0.78823529 0.52549020
v 0.04079504 -0.00804044 -0.03211321 0.38039216 0.78823529 0.52549020
v 0.03965650 -0.00615761 -0.00599487 0.38039216 0.78823529 0.52549020
v 0.05880334 0.00128875 -0.00599487 0.38039216 0.78823529 0.52549020
v 0.06046380 0.00082725 -0.03211321 0.38039216 0.78823529 0.52549020
v 0.04110861 -0.00906538 -0.03211321 0.38039216 0.78823529 0.52549020
v 0.03973226 -0.00638695 -0.00599487 0.38039216 0.78823529 0.52549020
v 0.05882649 -0.00024299 -0.00599487 0.38039216 0.78823529 0.52549020
v 0.06048695 -0.00024299 -0.03211321 0.38039216 0.78823529 0.52549020
v 0.04091079 -0.00912200 -0.00599487 0.38039216 0.78823529 0.52549020
v 0.04029206 -0.00786490 -0.00599487 0.38039216 0.78823529 0.52549020
v 0.04016789 -0.00755628 -0.00599487 0.38039216 0.78823529 0.52549020
v 0.04151899 -0.00981851 -0.03211321 0.38039216 0.78823529 0.52549020
v 0.05866024 -0.00178040 -0.00599487 0.38039216 0.78823529 0.52549020
v 0.05862656 -0.00198991 -0.00599487 0.38039216 0.78823529 0.52549020
v 0.05848556 -0.00283648 -0.00599487 0.38039216 0.78823529 0.52549020
v 0.06021758 -0.00178040 -0.03211321 0.38039216 0.78823529 0.52549020
v 0.04108967 -0.00942779 -0.00599487 0.38039216 0.78823529 0.52549020
v 0.04233975 -0.01095387 -0.03211321 0.38039216 0.78823529 0.52549020
v 0.04154424 -0.01017242 -0.00599487 0.38039216 0.78823529 0.52549020
v 0.05986191 -0.00331780 -0.03211321 0.38039216 0.78823529 0.52549020
v 0.05827300 -0.00360376 -0.00599487 0.38039216 0.78823529 0.52549020
v 0.05907061 -0.00633316 -0.03211321 0.38039216 0.78823529 0.52549020
v 0.05946626 -0.00486087 -0.03211321 0.38039216 0.78823529 0.52549020
v 0.04311211 -0.01175230 -0.03211321 0.38039216 0.78823529 0.52549020
v 0.04200724 -0.01063393 -0.00599487 0.38039216 0.78823529 0.52549020
v 0.05817620 -0.00390105 -0.00599487 0.38039216 0.78823529 0.52549020
v 0.05785421 -0.00485521 -0.00599487 0.38039216 0.78823529 0.52549020
v 0.05772373 -0.00517798 -0.00599487 0.38039216 0.78823529 0.52549020
v 0.05717235 -0.00650020 -0.00599487 0.38039216 0.78823529 0.52549020
v 0.05701451 -0.00684279 -0.00599487 0.38039216 0.78823529 0.52549020
v 0.05688613 -0.00718821 -0.00674651 0.38039216 0.78823529 0.52549020
v 0.05745014 -0.00928339 -0.03211321 0.38039216 0.78823529 0.52549020
v 0.04391603 -0.01240067 -0.03211321 0.38039216 0.78823529 0.52549020
v 0.04317734 -0.01169567 -0.00599487 0.38039216 0.78823529 0.52549020
v 0.04256283 -0.01115206 -0.00599487 0.38039216 0.78823529 0.52549020
v 0.04232081 -0.01093405 -0.00599487 0.38039216 0.78823529 0.52549020
v 0.05665253 -0.00746851 -0.00599487 0.38039216 0.78823529 0.52549020
v 0.05641261 -0.00781677 -0.00599487 0.38039216 0.78823529 0.52549020
v 0.05556450 -0.00897761 -0.00599487 0.38039216 0.78823529 0.52549020
v 0.05499628 -0.00957785 -0.00599487 0.38039216 0.78823529 0.52549020
v 0.05594962 -0.01085194 -0.03211321 0.38039216 0.78823529 0.52549020
v 0.04402546 -0.01245163 -0.03211321 0.38039216 0.78823529 0.52549020
v 0.04372031 -0.01194483 -0.00599487 0.38039216 0.78823529 0.52549020
v 0.05483634 -0.00974489 -0.00599487 0.38039216 0.78823529 0.52549020
v 0.05466587 -0.00990345 -0.00599487 0.38039216 0.78823529 0.52549020
v 0.05406609 -0.01045272 -0.00599487 0.38039216 0.78823529 0.52549020
v 0.05456275 -0.01186555 -0.03211321 0.38039216 0.78823529 0.52549020
v 0.04641829 -0.01342278 -0.03211321 0.38039216 0.78823529 0.52549020
v 0.04391603 -0.01202127 -0.00599487 0.38039216 0.78823529 0.52549020
v 0.05302646 -0.01114923 -0.00599487 0.38039216 0.78823529 0.52549020
v 0.05315273 -0.01274043 -0.03211321 0.38039216 0.78823529 0.52549020
v 0.04735270 -0.01372573 -0.03211321 0.38039216 0.78823529 0.52549020
v 0.04534078 -0.01241483 -0.00599487 0.38039216 0.78823529 0.52549020
v 0.05209206 -0.01170417 -0.00599487 0.38039216 0.78823529 0.52549020
v 0.05132180 -0.01200712 -0.00599487 0.38039216 0.78823529 0.52549020
v 0.04978551 -0.01388428 -0.03211321 0.38039216 0.78823529 0.52549020
v 0.04844704 -0.01394091 -0.03211321 0.38039216 0.78823529 0.52549020
v 0.04687918 -0.01263850 -0.00599487 0.38039216 0.78823529 0.52549020
v 0.05024008 -0.01231007 -0.00599487 0.38039216 0.78823529 0.52549020
v 0.04994966 -0.01238935 -0.00599487 0.38039216 0.78823529 0.52549020
v 0.04841758 -0.01263850 -0.00599487 0.38039216 0.78823529 0.52549020
f 1 2 3
f 1 3 7
f 1 7 13
f 1 13 12
f 1 12 11
f 1 11 17
f 1 17 25
f 1 25 24
f 1 24 23
f 1 23 22
f 1 22 34
f 1 34 33
f 1 33 32
f 1 32 31
f 1 31 30
f 1 30 41
f 1 41 40
f 1 40 39
f 1 39 45
f 1 45 51
f 1 51 57
f 1 57 56
f 1 56 55
f 1 55 60
f 1 60 65
f 1 65 71
f 1 71 79
f 1 79 83
f 1 83 88
f 1 88 87
f 1 87 86
f 1 86 94
f 1 94 96
f 1 96 102
f 1 102 113
f 1 113 112
f 1 112 111
f 1 111 120
f 1 120 126
f 1 126 130
f 1 130 135
f 1 135 138
f 1 138 137
f 1 137 136
f 1 136 132
f 1 132 131
f 1 131 127
f 1 127 123
f 1 123 122
f 1 122 121
f 1 121 117
f 1 117 116
f 1 116 115
f 1 115 114
f 1 114 107
f 1 107 106
f 1 106 105
f 1 105 104
f 1 104 103
f 1 103 98
f 1 98 92
f 1 92 91
f 1 91 90
f 1 90 84
f 1 84 80
f 1 80 72
f 1 72 67
f 1 67 63
f 1 63 62
f 1 62 58
f 1 58 52
f 1 52 47
f 1 47 46
f 1 46 42
f 1 42 35
f 1 35 27
f 1 27 26
f 1 26 20
f 1 20 14
f 1 14 8
f 1 8 4
f 1 4 2
f 2 5 9
f 2 9 15
f 2 15 19
f 2 19 18
f 2 18 28
f 2 28 37
f 2 37 36
f 2 36 43
f 2 43 48
f 2 48 53
f 2 53 59
f 2 59 64
f 2 64 69
f 2 69 68
f 2 68 73
f 2 73 81
f 2 81 85
f 2 85 93
f 2 93 97
f 2 97 100
f 2 100 99
f 2 99 109
f 2 109 118
f 2 118 124
f 2 124 128
f 2 128 133
f 2 133 134
f 2 134 129
f 2 129 125
f 2 125 119
f 2 119 110
f 2 110 101
f 2 101 95
f 2 95 89
f 2 89 82
f 2 82 78
f 2 78 77
f 2 77 76
f 2 76 75
f 2 75 74
f 2 74 70
f 2 70 66
f 2 66 61
f 2 61 54
f 2 54 50
f 2 50 49
f 2 49 44
f 2 44 38
f 2 38 29
f 2 29 21
f 2 21 16
f 2 16 10
f 2 10 6
f 2 6 7
f 2 7 3
f 2 4 5
f 4 8 5
f 5 8 9
f 6 10 11
f 6 11 12
f 6 12 13
f 6 13 7
f 8 14 9
f 9 14 15
f 10 16 17
f 10 17 11
f 14 18 19
f 14 19 15
f 14 20 18
f 16 21 22
f 16 22 23
f 16 23 24
f 16 24 25
f 16 25 17
f 18 20 26
f 18 26 27
f 18 27 28
f 21 29 30
f 21 30 31
f 21 31 32
f 21 32 33
f 21 33 34
f 21 34 22
f 27 35 36
f 27 36 37
f 27 37 28
f 29 38 39
f 29 39 40
f 29 40 41
f 29 41 30
f 35 42 36
f 36 42 43
f 38 44 45
f 38 45 39
f 42 46 43
f 43 46 47
f 43 47 48
f 44 49 45
f 45 49 50
f 45 50 51
f 47 52 53
f 47 53 48
f 50 54 55
f 50 55 56
f 50 56 57
f 50 57 51
f 52 58 53
f 53 58 59
f 54 60 55
f 54 61 60
f 58 62 59
f 59 62 63
f 59 63 64
f 60 61 65
f 61 66 65
f 63 67 68
f 63 68 69
f 63 69 64
f 65 66 70
f 65 70 71
f 67 72 73
f 67 73 68
f 70 74 71
f 71 74 75
f 71 75 76
f 71 76 77
f 71 77 78
f 71 78 79
f 72 80 73
f 73 80 81
f 78 82 79
f 79 82 83
f 80 84 85
f 80 85 81
f 82 86 87
f 82 87 88
f 82 88 83
f 82 89 86
f 84 90 85
f 85 90 91
f 85 91 92
f 85 92 93
f 86 89 94
f 89 95 96
f 89 96 94
f 92 97 93
f 92 98 99
f 92 99 100
f 92 100 97
f 95 101 96
f 96 101 102
f 98 103 99
f 99 103 104
f 99 104 105
f 99 105 106
f 99 106 107
f 99 107 108
f 99 108 109
f 101 110 111
f 101 111 112
f 101 112 113
f 101 113 102
f 107 114 108
f 108 114 109
f 109 114 115
f 109 115 116
f 109 116 117
f 109 117 118
f 110 119 111
f 111 119 120
f 117 121 118
f 118 121 122
f 118 122 123
f 118 123 124
f 119 125 120
f 120 125 126
f 123 127 124
f 124 127 128
f 125 129 126
f 126 129 130
f 127 131 128
f 128 131 132
f 128 132 133
f 129 134 130
f 130 134 135
f 132 136 133
f 133 136 137
f 133 137 138
f 133 138 134
f 134 138 135

