# https://github.com/mikedh/trimesh
v -0.00279056 -0.03242889 -0.05866746 0.15686275 0.10980392 0.65490196
v -0.00279056 -0.03221985 -0.05980360 0.15686275 0.10980392 0.65490196
v 0.00228585 -0.03408097 -0.05861192 0.15686275 0.10980392 0.65490196
v 0.00299912 -0.03332573 -0.05467821 0.15686275 0.10980392 0.65490196
v 0.00240445 -0.03210522 -0.05144094 0.15686275 0.10980392 0.65490196
v -0.00279056 -0.03034524 -0.05241139 0.15686275 0.10980392 0.65490196
v 0.00228585 -0.03253004 -0.06046908 0.15686275 0.10980392 0.65490196
v 0.00228585 -0.03379776 -0.05988462 0.15686275 0.10980392 0.65490196
v 0.00123849 -0.03352129 -0.05967159 0.15686275 0.10980392 0.65490196
v -0.00279056 -0.03099259 -0.06036075 0.15686275 0.10980392 0.65490196
v 0.00382430 -0.03426304 -0.05861192 0.15686275 0.10980392 0.65490196
v 0.00316115 -0.03332573 -0.05467821 0.15686275 0.10980392 0.65490196
v 0.00388110 -0.03221985 -0.05144094 0.15686275 0.10980392 0.65490196
v -0.00278555 -0.02988670 -0.05144094 0.15686275 0.10980392 0.65490196
v -0.00279056 -0.02989345 -0.05144640 0.15686275 0.10980392 0.65490196
v 0.00382430 -0.03253004 -0.06051915 0.15686275 0.10980392 0.65490196
v 0.00382430 -0.03388542 -0.05993742 0.15686275 0.10980392 0.65490196
v -0.00279056 -0.02945514 -0.06054464 0.15686275 0.10980392 0.65490196
v 0.01304836 -0.03389891 -0.05996929 0.15686275 0.10980392 0.65490196
v 0.01304836 -0.03425630 -0.05861192 0.15686275 0.10980392 0.65490196
v 0.01304836 -0.03377753 -0.05707431 0.15686275 0.10980392 0.65490196
v 0.01304836 -0.03341340 -0.05594181 0.15686275 0.10980392 0.65490196
v 0.01304836 -0.03193664 -0.05144094 0.15686275 0.10980392 0.65490196
v -0.00279056 -0.02934725 -0.05144094 0.15686275 0.10980392 0.65490196
v 0.01304836 -0.03253004 -0.06058652 0.15686275 0.10980392 0.65490196
v 0.01304836 -0.03099259 -0.06061383 0.15686275 0.10980392 0.65490196
v 0.01150991 -0.03099259 -0.06060564 0.15686275 0.10980392 0.65490196
v -0.00279056 0.00589944 -0.06066390 0.15686275 0.10980392 0.65490196
v 0.01427445 -0.03365615 -0.05974898 0.15686275 0.10980392 0.65490196
v 0.01427445 -0.03253004 -0.06036712 0.15686275 0.10980392 0.65490196
v 0.01427445 -0.03377753 -0.05871389 0.15686275 0.10980392 0.65490196
v 0.01427445 -0.03354826 -0.05774889 0.15686275 0.10980392 0.65490196
v 0.01405229 -0.03347408 -0.05707431 0.15686275 0.10980392 0.65490196
v 0.01385351 -0.03332573 -0.05622493 0.15686275 0.10980392 0.65490196
v 0.01338579 -0.03184223 -0.05144094 0.15686275 0.10980392 0.65490196
v -0.00279056 0.02946017 -0.05144094 0.15686275 0.10980392 0.65490196
v 0.01427445 -0.03099259 -0.06061747 0.15686275 0.10980392 0.65490196
v -0.00279056 0.01051179 -0.06067756 0.15686275 0.10980392 0.65490196
v -0.00279056 0.01205598 -0.06068211 0.15686275 0.10980392 0.65490196
v 0.01427445 0.01236616 -0.06073764 0.15686275 0.10980392 0.65490196
v 0.01406732 -0.03151856 -0.05144094 0.15686275 0.10980392 0.65490196
v 0.01383680 -0.03178154 -0.05164304 0.15686275 0.10980392 0.65490196
v 0.01427445 -0.03134324 -0.05144094 0.15686275 0.10980392 0.65490196
v -0.00133563 0.03097064 -0.05144094 0.15686275 0.10980392 0.65490196
v -0.00279056 0.03324310 -0.05864015 0.15686275 0.10980392 0.65490196
v -0.00279056 0.01405196 -0.06068757 0.15686275 0.10980392 0.65490196
v -0.00279056 0.01513087 -0.06069030 0.15686275 0.10980392 0.65490196
v 0.01427445 0.01390361 -0.06074128 0.15686275 0.10980392 0.65490196
v 0.01427445 0.02879259 -0.05144094 0.15686275 0.10980392 0.65490196
v -0.00056556 0.03175960 -0.05144094 0.15686275 0.10980392 0.65490196
v -0.00013793 0.03198887 -0.05144094 0.15686275 0.10980392 0.65490196
v 0.00009091 0.03279131 -0.05328353 0.15686275 0.10980392 0.65490196
v 0.00007922 0.03433550 -0.05788090 0.15686275 0.10980392 0.65490196
v -0.00024818 0.03450408 -0.05890597 0.15686275 0.10980392 0.65490196
v -0.00024818 0.03450408 -0.05963336 0.15686275 0.10980392 0.65490196
v -0.00279056 0.03322962 -0.05938028 0.15686275 0.10980392 0.65490196
v -0.00279056 0.01666832 -0.06069394 0.15686275 0.10980392 0.65490196
v -0.00279056 0.01820577 -0.06069576 0.15686275 0.10980392 0.65490196
v -0.00279056 0.01866431 -0.06069576 0.15686275 0.10980392 0.65490196
v 0.01427445 0.01544106 -0.06074037 0.15686275 0.10980392 0.65490196
v 0.01427445 0.02898814 -0.05214192 0.15686275 0.10980392 0.65490196
v 0.01097871 0.03449733 -0.05897425 0.15686275 0.10980392 0.65490196
v 0.01104720 0.03157753 -0.05144094 0.15686275 0.10980392 0.65490196
v 0.00072066 0.03231254 -0.05144094 0.15686275 0.10980392 0.65490196
v 0.00110486 0.03440293 -0.05768699 0.15686275 0.10980392 0.65490196
v 0.00065384 0.03459848 -0.05848083 0.15686275 0.10980392 0.65490196
v 0.00074906 0.03462546 -0.05979085 0.15686275 0.10980392 0.65490196
v 0.00074906 0.03358026 -0.06040262 0.15686275 0.10980392 0.65490196
v -0.00279056 0.03246089 -0.06019415 0.15686275 0.10980392 0.65490196
v -0.00279056 0.03318916 -0.05975262 0.15686275 0.10980392 0.65490196
v -0.00279056 0.02020176 -0.06069485 0.15686275 0.10980392 0.65490196
v -0.00279056 0.02481411 -0.06069030 0.15686275 0.10980392 0.65490196
v -0.00279056 0.02743046 -0.06068757 0.15686275 0.10980392 0.65490196
v 0.01427445 0.02005341 -0.06073491 0.15686275 0.10980392 0.65490196
v 0.01427445 0.03053234 -0.05850996 0.15686275 0.10980392 0.65490196
v 0.01234178 0.03294640 -0.05911536 0.15686275 0.10980392 0.65490196
v 0.01097871 0.03449733 -0.05962972 0.15686275 0.10980392 0.65490196
v 0.00997312 0.03455128 -0.05877670 0.15686275 0.10980392 0.65490196
v 0.00997312 0.03206304 -0.05144094 0.15686275 0.10980392 0.65490196
v 0.00165276 0.03286548 -0.05307596 0.15686275 0.10980392 0.65490196
v 0.00111488 0.03286548 -0.05307596 0.15686275 0.10980392 0.65490196
v 0.00169786 0.03440293 -0.05768699 0.15686275 0.10980392 0.65490196
v 0.00997312 0.03455128 -0.05974624 0.15686275 0.10980392 0.65490196
v 0.00997312 0.03358026 -0.06036985 0.15686275 0.10980392 0.65490196
v -0.00279056 0.03204281 -0.06036439 0.15686275 0.10980392 0.65490196
v 0.00997312 0.03204281 -0.06064114 0.15686275 0.10980392 0.65490196
v 0.00074906 0.03204281 -0.06063112 0.15686275 0.10980392 0.65490196
v -0.00279056 0.03050536 -0.06065662 0.15686275 0.10980392 0.65490196
v -0.00279056 0.03097064 -0.06058652 0.15686275 0.10980392 0.65490196
v -0.00279056 0.02896792 -0.06068575 0.15686275 0.10980392 0.65490196
v 0.01427445 0.02589302 -0.06072762 0.15686275 0.10980392 0.65490196
v 0.01427445 0.03046490 -0.05998294 0.15686275 0.10980392 0.65490196
v 0.01234178 0.03294640 -0.05951319 0.15686275 0.10980392 0.65490196
v 0.01149821 0.03350609 -0.05985731 0.15686275 0.10980392 0.65490196
v 0.01427445 0.02927136 -0.06044086 0.15686275 0.10980392 0.65490196
v 0.01427445 0.02896792 -0.06055283 0.15686275 0.10980392 0.65490196
v 0.01427445 0.02774065 -0.06069121 0.15686275 0.10980392 0.65490196
v 0.01427445 0.02743046 -0.06072307 0.15686275 0.10980392 0.65490196
v 0.00997312 0.03050536 -0.06067300 0.15686275 0.10980392 0.65490196
v 0.00843466 0.03050536 -0.06067482 0.15686275 0.10980392 0.65490196
v 0.00074906 0.03050536 -0.06066754 0.15686275 0.10980392 0.65490196
v -0.00078940 0.03050536 -0.06066299 0.15686275 0.10980392 0.65490196
v -0.00279056 0.02942645 -0.06067847 0.15686275 0.10980392 0.65490196
v -0.00232618 0.02896792 -0.06068666 0.15686275 0.10980392 0.65490196
v 0.01427445 0.02620320 -0.06072671 0.15686275 0.10980392 0.65490196
f 1 2 3
f 1 3 4
f 1 4 5
f 1 5 6
f 1 6 15
f 1 15 24
f 1 24 36
f 1 36 45
f 1 45 56
f 1 56 70
f 1 70 69
f 1 69 85
f 1 85 89
f 1 89 88
f 1 88 103
f 1 103 90
f 1 90 73
f 1 73 72
f 1 72 71
f 1 71 59
f 1 59 58
f 1 58 57
f 1 57 47
f 1 47 46
f 1 46 39
f 1 39 38
f 1 38 28
f 1 28 18
f 1 18 10
f 1 10 2
f 2 7 8
f 2 8 9
f 2 9 3
f 2 10 7
f 3 9 8
f 3 8 11
f 3 11 4
f 4 11 12
f 4 12 13
f 4 13 5
f 5 13 23
f 5 23 35
f 5 35 41
f 5 41 43
f 5 43 49
f 5 49 63
f 5 63 79
f 5 79 64
f 5 64 51
f 5 51 50
f 5 50 44
f 5 44 36
f 5 36 24
f 5 24 14
f 5 14 15
f 5 15 6
f 7 16 17
f 7 17 8
f 7 10 18
f 7 18 16
f 8 17 11
f 11 17 19
f 11 19 20
f 11 20 12
f 12 20 21
f 12 21 22
f 12 22 23
f 12 23 13
f 14 24 15
f 16 25 17
f 16 18 25
f 17 25 19
f 18 26 27
f 18 27 25
f 18 28 26
f 19 29 20
f 19 25 30
f 19 30 29
f 20 29 31
f 20 31 32
f 20 32 33
f 20 33 34
f 20 34 21
f 21 34 22
f 22 34 23
f 23 34 35
f 25 27 26
f 25 26 37
f 25 37 30
f 26 28 38
f 26 38 39
f 26 39 40
f 26 40 37
f 29 30 37
f 29 37 40
f 29 40 48
f 29 48 60
f 29 60 74
f 29 74 91
f 29 91 105
f 29 105 98
f 29 98 97
f 29 97 96
f 29 96 95
f 29 95 92
f 29 92 75
f 29 75 61
f 29 61 49
f 29 49 43
f 29 43 32
f 29 32 31
f 32 41 42
f 32 42 34
f 32 34 33
f 32 43 41
f 34 42 35
f 35 42 41
f 36 44 45
f 39 46 40
f 40 46 47
f 40 47 57
f 40 57 48
f 44 50 45
f 45 50 51
f 45 51 52
f 45 52 53
f 45 53 54
f 45 54 55
f 45 55 56
f 48 57 58
f 48 58 59
f 48 59 71
f 48 71 60
f 49 61 62
f 49 62 63
f 51 64 52
f 52 64 53
f 53 65 66
f 53 66 54
f 53 64 65
f 54 66 67
f 54 67 55
f 55 67 68
f 55 68 69
f 55 69 70
f 55 70 56
f 60 71 72
f 60 72 73
f 60 73 90
f 60 90 74
f 61 75 76
f 61 76 62
f 62 76 93
f 62 93 77
f 62 77 83
f 62 83 78
f 62 78 79
f 62 79 63
f 64 79 80
f 64 80 81
f 64 81 65
f 65 82 66
f 65 81 80
f 65 80 82
f 66 78 67
f 66 82 78
f 67 78 83
f 67 83 84
f 67 84 68
f 68 85 69
f 68 84 86
f 68 86 87
f 68 87 88
f 68 88 89
f 68 89 85
f 74 90 91
f 75 92 93
f 75 93 76
f 77 93 92
f 77 92 94
f 77 94 84
f 77 84 83
f 78 82 80
f 78 80 79
f 84 94 95
f 84 95 96
f 84 96 86
f 86 96 97
f 86 97 98
f 86 98 99
f 86 99 100
f 86 100 101
f 86 101 87
f 87 101 102
f 87 102 88
f 88 102 103
f 90 103 104
f 90 104 91
f 91 104 105
f 92 95 94
f 98 105 104
f 98 104 100
f 98 100 99
f 100 104 101
f 101 104 103
f 101 103 102

