# https://github.com/mikedh/trimesh
v 0.00690341 -0.03290562 -0.03554811 0.31372549 0.36078431 0.56862745
v 0.00690341 -0.03288845 -0.03708540 0.31372549 0.36078431 0.56862745
v 0.01305008 -0.03285984 -0.03708540 0.31372549 0.36078431 0.56862745
v 0.01766329 -0.03283695 -0.03708540 0.31372549 0.36078431 0.56862745
v 0.01151150 -0.03288273 -0.03554811 0.31372549 0.36078431 0.56862745
v 0.01766329 -0.03245355 -0.03400983 0.31372549 0.36078431 0.56862745
v 0.00843688 -0.03248502 -0.03400983 0.31372549 0.36078431 0.56862745
v 0.00690341 -0.03248788 -0.03400983 0.31372549 0.36078431 0.56862745
v 0.00690341 -0.03285698 -0.03862170 0.31372549 0.36078431 0.56862745
v 0.01458867 -0.03282837 -0.03862170 0.31372549 0.36078431 0.56862745
v 0.01766329 -0.03281406 -0.03862170 0.31372549 0.36078431 0.56862745
v 0.02073534 -0.03279976 -0.03862170 0.31372549 0.36078431 0.56862745
v 0.01766329 -0.03285126 -0.03554811 0.31372549 0.36078431 0.56862745
v 0.01920188 -0.03282837 -0.03708540 0.31372549 0.36078431 0.56862745
v 0.01920188 -0.03244496 -0.03400983 0.31372549 0.36078431 0.56862745
v 0.02842317 -0.03189847 -0.03314195 0.31372549 0.36078431 0.56862745
v 0.02688714 -0.03190133 -0.03313899 0.31372549 0.36078431 0.56862745
v 0.02380996 -0.03190420 -0.03313504 0.31372549 0.36078431 0.56862745
v 0.00690341 -0.03191850 -0.03312813 0.31372549 0.36078431 0.56862745
v 0.00690341 -0.03236199 -0.04015998 0.31372549 0.36078431 0.56862745
v 0.01151150 -0.03236485 -0.04015998 0.31372549 0.36078431 0.56862745
v 0.01458867 -0.03235913 -0.04015998 0.31372549 0.36078431 0.56862745
v 0.01920188 -0.03233624 -0.04015998 0.31372549 0.36078431 0.56862745
v 0.02227393 -0.03279117 -0.03862170 0.31372549 0.36078431 0.56862745
v 0.02073534 -0.03281978 -0.03708540 0.31372549 0.36078431 0.56862745
v 0.01920188 -0.03283981 -0.03554811 0.31372549 0.36078431 0.56862745
v 0.02688714 -0.03239918 -0.03400983 0.31372549 0.36078431 0.56862745
v 0.02073534 -0.03243638 -0.03400983 0.31372549 0.36078431 0.56862745
v 0.02996175 -0.03187845 -0.03315676 0.31372549 0.36078431 0.56862745
v 0.02996175 -0.03099719 -0.03293955 0.31372549 0.36078431 0.56862745
v 0.02842317 -0.03099719 -0.03292178 0.31372549 0.36078431 0.56862745
v 0.02688714 -0.03099719 -0.03291684 0.31372549 0.36078431 0.56862745
v 0.02227393 -0.03099719 -0.03290499 0.31372549 0.36078431 0.56862745
v 0.02073534 -0.03099719 -0.03290104 0.31372549 0.36078431 0.56862745
v 0.02842317 -0.03238488 -0.03400983 0.31372549 0.36078431 0.56862745
v 0.01612470 -0.03099719 -0.03289314 0.31372549 0.36078431 0.56862745
v 0.01151150 -0.03099719 -0.03288821 0.31372549 0.36078431 0.56862745
v 0.00843688 -0.03099719 -0.03288524 0.31372549 0.36078431 0.56862745
v 0.00997547 -0.03191564 -0.03312912 0.31372549 0.36078431 0.56862745
v 0.00690341 -0.03099719 -0.03288426 0.31372549 0.36078431 0.56862745
v 0.00690341 -0.03182694 -0.04096466 0.31372549 0.36078431 0.56862745
v 0.01305008 -0.03183553 -0.04097552 0.31372549 0.36078431 0.56862745
v 0.01458867 -0.03183267 -0.04097355 0.31372549 0.36078431 0.56862745
v 0.02227393 -0.03181264 -0.04096367 0.31372549 0.36078431 0.56862745
v 0.02227393 -0.03231907 -0.04015998 0.31372549 0.36078431 0.56862745
v 0.02380996 -0.03277687 -0.03862170 0.31372549 0.36078431 0.56862745
v 0.02688714 -0.03276542 -0.03708540 0.31372549 0.36078431 0.56862745
v 0.02227393 -0.03280834 -0.03708540 0.31372549 0.36078431 0.56862745
v 0.02380996 -0.03230763 -0.04015998 0.31372549 0.36078431 0.56862745
v 0.02073534 -0.03282837 -0.03554811 0.31372549 0.36078431 0.56862745
v 0.03150034 -0.03184125 -0.03318441 0.31372549 0.36078431 0.56862745
v 0.03303637 -0.03099719 -0.03300175 0.31372549 0.36078431 0.56862745
v 0.03150034 -0.03099719 -0.03296917 0.31372549 0.36078431 0.56862745
v 0.02996175 -0.03234769 -0.03400983 0.31372549 0.36078431 0.56862745
v 0.03305429 -0.02945786 -0.03281416 0.31372549 0.36078431 0.56862745
v 0.02227393 -0.02945786 -0.03278157 0.31372549 0.36078431 0.56862745
v 0.01766329 -0.02945786 -0.03276874 0.31372549 0.36078431 0.56862745
v 0.01458867 -0.02945786 -0.03276084 0.31372549 0.36078431 0.56862745
v 0.00997547 -0.02945786 -0.03274998 0.31372549 0.36078431 0.56862745
v 0.00690341 -0.02945786 -0.03274405 0.31372549 0.36078431 0.56862745
v 0.02688714 -0.03276542 -0.03554811 0.31372549 0.36078431 0.56862745
v 0.02842317 -0.03274825 -0.03554811 0.31372549 0.36078431 0.56862745
v 0.00690341 -0.02834485 -0.04280507 0.31372549 0.36078431 0.56862745
v 0.01305008 -0.02966959 -0.04280507 0.31372549 0.36078431 0.56862745
v 0.02109119 -0.03052223 -0.04280507 0.31372549 0.36078431 0.56862745
v 0.02534855 -0.03180119 -0.04095084 0.31372549 0.36078431 0.56862745
v 0.02190273 -0.03051937 -0.04280507 0.31372549 0.36078431 0.56862745
v 0.02688714 -0.03179261 -0.04094689 0.31372549 0.36078431 0.56862745
v 0.02534855 -0.03275970 -0.03862170 0.31372549 0.36078431 0.56862745
v 0.02842317 -0.03275111 -0.03708540 0.31372549 0.36078431 0.56862745
v 0.02842317 -0.03178402 -0.04094097 0.31372549 0.36078431 0.56862745
v 0.02959567 -0.03177544 -0.04093504 0.31372549 0.36078431 0.56862745
v 0.02534855 -0.03229046 -0.04015998 0.31372549 0.36078431 0.56862745
v 0.03305429 -0.03179833 -0.03321502 0.31372549 0.36078431 0.56862745
v 0.03305429 -0.03099719 -0.03300274 0.31372549 0.36078431 0.56862745
v 0.02996175 -0.03271106 -0.03554811 0.31372549 0.36078431 0.56862745
v 0.03150034 -0.03227329 -0.03400983 0.31372549 0.36078431 0.56862745
v 0.03305429 -0.00486006 -0.03277565 0.31372549 0.36078431 0.56862745
v 0.00690341 -0.02792140 -0.03273616 0.31372549 0.36078431 0.56862745
v 0.00690341 -0.01869686 -0.03272233 0.31372549 0.36078431 0.56862745
v 0.02996175 -0.03271678 -0.03708540 0.31372549 0.36078431 0.56862745
v 0.00690341 -0.00367552 -0.04280507 0.31372549 0.36078431 0.56862745
v 0.03162323 -0.02914599 -0.04280507 0.31372549 0.36078431 0.56862745
v 0.03062225 -0.03175541 -0.04092517 0.31372549 0.36078431 0.56862745
v 0.02688714 -0.03273967 -0.03862170 0.31372549 0.36078431 0.56862745
v 0.02842317 -0.03271964 -0.03862170 0.31372549 0.36078431 0.56862745
v 0.03150034 -0.03219318 -0.04014319 0.31372549 0.36078431 0.56862745
v 0.03005136 -0.03212737 -0.04031104 0.31372549 0.36078431 0.56862745
v 0.02842317 -0.03224468 -0.04015998 0.31372549 0.36078431 0.56862745
v 0.02688714 -0.03226757 -0.04015998 0.31372549 0.36078431 0.56862745
v 0.03305429 -0.03217887 -0.03399699 0.31372549 0.36078431 0.56862745
v 0.03150034 -0.03263667 -0.03554811 0.31372549 0.36078431 0.56862745
v 0.03305429 -0.03218460 -0.03400884 0.31372549 0.36078431 0.56862745
v 0.03305429 -0.00367552 -0.03277466 0.31372549 0.36078431 0.56862745
v 0.03268308 -0.00367552 -0.03277368 0.31372549 0.36078431 0.56862745
v 0.03114450 -0.00367552 -0.03276973 0.31372549 0.36078431 0.56862745
v 0.00690341 -0.01562392 -0.03271838 0.31372549 0.36078431 0.56862745
v 0.02996175 -0.03268531 -0.03862170 0.31372549 0.36078431 0.56862745
v 0.03150034 -0.03263094 -0.03862170 0.31372549 0.36078431 0.56862745
v 0.03150034 -0.03264239 -0.03708540 0.31372549 0.36078431 0.56862745
v 0.00690341 -0.00367552 -0.03273912 0.31372549 0.36078431 0.56862745
v 0.03305429 -0.00367552 -0.04280507 0.31372549 0.36078431 0.56862745
v 0.03305429 -0.02840780 -0.04280507 0.31372549 0.36078431 0.56862745
v 0.03305429 -0.03135198 -0.04087481 0.31372549 0.36078431 0.56862745
v 0.03305429 -0.03136343 -0.04086692 0.31372549 0.36078431 0.56862745
v 0.03150034 -0.03164097 -0.04091233 0.31372549 0.36078431 0.56862745
v 0.03305429 -0.03214740 -0.04010567 0.31372549 0.36078431 0.56862745
v 0.03303637 -0.03254511 -0.03554811 0.31372549 0.36078431 0.56862745
v 0.03305429 -0.03253939 -0.03552935 0.31372549 0.36078431 0.56862745
v 0.02960591 -0.00367552 -0.03276676 0.31372549 0.36078431 0.56862745
v 0.02842317 -0.00367552 -0.03276479 0.31372549 0.36078431 0.56862745
v 0.01458867 -0.00367552 -0.03274603 0.31372549 0.36078431 0.56862745
v 0.01305008 -0.00367552 -0.03274405 0.31372549 0.36078431 0.56862745
v 0.01115821 -0.00367552 -0.03274208 0.31372549 0.36078431 0.56862745
v 0.00997547 -0.00367552 -0.03274109 0.31372549 0.36078431 0.56862745
v 0.03305429 -0.03253939 -0.03862170 0.31372549 0.36078431 0.56862745
v 0.03305429 -0.03254797 -0.03708540 0.31372549 0.36078431 0.56862745
v 0.03305429 -0.03254797 -0.03706960 0.31372549 0.36078431 0.56862745
v 0.03305429 -0.03254225 -0.03554811 0.31372549 0.36078431 0.56862745
f 1 2 3
f 1 3 4
f 1 4 5
f 1 5 6
f 1 6 7
f 1 7 8
f 1 8 19
f 1 19 40
f 1 40 60
f 1 60 79
f 1 79 80
f 1 80 97
f 1 97 101
f 1 101 82
f 1 82 63
f 1 63 41
f 1 41 20
f 1 20 9
f 1 9 2
f 2 9 10
f 2 10 11
f 2 11 3
f 3 11 12
f 3 12 4
f 4 13 5
f 4 12 24
f 4 24 14
f 4 14 13
f 5 13 6
f 6 15 16
f 6 16 7
f 6 13 15
f 7 16 17
f 7 17 8
f 8 17 18
f 8 18 19
f 9 20 21
f 9 21 22
f 9 22 10
f 10 22 11
f 11 22 12
f 12 22 23
f 12 23 24
f 13 14 25
f 13 25 48
f 13 48 26
f 13 26 27
f 13 27 28
f 13 28 15
f 14 24 25
f 15 28 16
f 16 29 30
f 16 30 31
f 16 31 32
f 16 32 33
f 16 33 34
f 16 34 17
f 16 28 27
f 16 27 35
f 16 35 29
f 17 34 36
f 17 36 18
f 18 36 37
f 18 37 38
f 18 38 39
f 18 39 19
f 19 39 40
f 20 41 42
f 20 42 21
f 21 42 22
f 22 42 43
f 22 43 44
f 22 44 23
f 23 44 45
f 23 45 24
f 24 46 70
f 24 70 47
f 24 47 48
f 24 48 25
f 24 45 49
f 24 49 46
f 26 48 50
f 26 50 27
f 27 50 35
f 29 51 52
f 29 52 53
f 29 53 30
f 29 35 54
f 29 54 51
f 30 53 55
f 30 55 31
f 31 55 32
f 32 55 56
f 32 56 57
f 32 57 58
f 32 58 33
f 33 58 34
f 34 58 59
f 34 59 60
f 34 60 36
f 35 50 61
f 35 61 62
f 35 62 76
f 35 76 54
f 36 60 37
f 37 60 38
f 38 60 40
f 38 40 39
f 41 63 64
f 41 64 65
f 41 65 42
f 42 65 43
f 43 65 44
f 44 66 45
f 44 65 67
f 44 67 66
f 45 66 68
f 45 68 49
f 46 69 70
f 46 49 73
f 46 73 69
f 47 70 50
f 47 50 48
f 49 68 71
f 49 71 72
f 49 72 73
f 50 70 61
f 51 74 52
f 51 54 74
f 52 75 55
f 52 55 53
f 52 74 75
f 54 76 92
f 54 92 77
f 54 77 74
f 55 75 74
f 55 74 91
f 55 91 93
f 55 93 109
f 55 109 119
f 55 119 118
f 55 118 117
f 55 117 116
f 55 116 107
f 55 107 105
f 55 105 104
f 55 104 103
f 55 103 102
f 55 102 94
f 55 94 78
f 55 78 56
f 56 79 57
f 56 78 80
f 56 80 79
f 57 79 58
f 58 79 59
f 59 79 60
f 61 70 62
f 62 70 81
f 62 81 76
f 63 82 102
f 63 102 103
f 63 103 83
f 63 83 67
f 63 67 65
f 63 65 64
f 66 67 68
f 67 83 84
f 67 84 72
f 67 72 71
f 67 71 68
f 69 85 70
f 69 73 85
f 70 85 86
f 70 86 98
f 70 98 81
f 72 84 87
f 72 87 88
f 72 88 89
f 72 89 90
f 72 90 73
f 73 90 86
f 73 86 85
f 74 77 91
f 76 81 100
f 76 100 92
f 77 93 91
f 77 92 93
f 78 94 95
f 78 95 96
f 78 96 97
f 78 97 80
f 81 98 99
f 81 99 100
f 82 101 115
f 82 115 114
f 82 114 113
f 82 113 112
f 82 112 111
f 82 111 110
f 82 110 96
f 82 96 95
f 82 95 94
f 82 94 102
f 83 103 104
f 83 104 105
f 83 105 106
f 83 106 84
f 84 106 107
f 84 107 87
f 86 90 89
f 86 89 87
f 86 87 98
f 87 89 88
f 87 107 99
f 87 99 98
f 92 100 108
f 92 108 93
f 93 108 109
f 96 110 97
f 97 110 111
f 97 111 112
f 97 112 113
f 97 113 114
f 97 114 115
f 97 115 101
f 99 116 100
f 99 107 116
f 100 116 117
f 100 117 118
f 100 118 108
f 105 107 106
f 108 118 119
f 108 119 109

