# https://github.com/mikedh/trimesh
v 0.03720791 0.03280586 -0.05144009 0.77647059 0.86666667 0.97647059
v 0.00072205 0.03231573 -0.05144009 0.77647059 0.86666667 0.97647059
v 0.00075227 0.03069257 -0.04280507 0.77647059 0.86666667 0.97647059
v 0.03611258 0.03063528 -0.04280507 0.77647059 0.86666667 0.97647059
v 0.03715503 0.03057163 -0.04280507 0.77647059 0.86666667 0.97647059
v 0.03764605 0.03053980 -0.04280507 0.77647059 0.86666667 0.97647059
v 0.04692236 0.03176195 -0.05144009 0.77647059 0.86666667 0.97647059
v -0.00013155 0.03199110 -0.05144009 0.77647059 0.86666667 0.97647059
v -0.00003335 0.03127818 -0.04704101 0.77647059 0.86666667 0.97647059
v 0.00026881 0.03057163 -0.04280507 0.77647059 0.86666667 0.97647059
v 0.04698280 0.02885299 -0.04280507 0.77647059 0.86666667 0.97647059
v 0.04646157 0.02985235 -0.04514409 0.77647059 0.86666667 0.97647059
v 0.04751158 0.03125272 -0.05020845 0.77647059 0.86666667 0.97647059
v 0.04780619 0.03143732 -0.05123383 0.77647059 0.86666667 0.97647059
v 0.04784396 0.03147551 -0.05144009 0.77647059 0.86666667 0.97647059
v -0.00056213 0.03176195 -0.05144009 0.77647059 0.86666667 0.97647059
v -0.00060745 0.03027246 -0.04280507 0.77647059 0.86666667 0.97647059
v -0.00015421 0.03136093 -0.04784829 0.77647059 0.86666667 0.97647059
v 0.05454436 0.02602678 -0.04280507 0.77647059 0.86666667 0.97647059
v 0.05551127 0.02682244 -0.04515423 0.77647059 0.86666667 0.97647059
v 0.05541307 0.02824828 -0.04845524 0.77647059 0.86666667 0.97647059
v 0.05502782 0.02909487 -0.05144009 0.77647059 0.86666667 0.97647059
v -0.00133264 0.03097265 -0.05144009 0.77647059 0.86666667 0.97647059
v -0.00279056 0.02924764 -0.04719908 0.77647059 0.86666667 0.97647059
v -0.00279056 0.02891028 -0.04424720 0.77647059 0.86666667 0.97647059
v -0.00279056 0.02870659 -0.04309417 0.77647059 0.86666667 0.97647059
v -0.00247329 0.02873205 -0.04280507 0.77647059 0.86666667 0.97647059
v 0.05532242 0.02572124 -0.04280507 0.77647059 0.86666667 0.97647059
v 0.05566235 0.02555574 -0.04280507 0.77647059 0.86666667 0.97647059
v 0.06170556 0.02218211 -0.04363264 0.77647059 0.86666667 0.97647059
v 0.05610049 0.02872568 -0.05144009 0.77647059 0.86666667 0.97647059
v 0.06301995 0.02358248 -0.05015435 0.77647059 0.86666667 0.97647059
v -0.00279056 0.02945770 -0.05144009 0.77647059 0.86666667 0.97647059
v -0.00279056 0.02927947 -0.04780011 0.77647059 0.86666667 0.97647059
v -0.00279056 0.02840741 -0.04280507 0.77647059 0.86666667 0.97647059
v 0.06229477 0.02129733 -0.04280507 0.77647059 0.86666667 0.97647059
v 0.06298974 0.02196569 -0.04561409 0.77647059 0.86666667 0.97647059
v 0.06327679 0.02376708 -0.05144009 0.77647059 0.86666667 0.97647059
v 0.06314082 0.02220121 -0.04663948 0.77647059 0.86666667 0.97647059
v -0.00279056 -0.02934533 -0.05144009 0.77647059 0.86666667 0.97647059
v -0.00279056 -0.02816138 -0.04280507 0.77647059 0.86666667 0.97647059
v 0.06805848 0.01477922 -0.04280507 0.77647059 0.86666667 0.97647059
v 0.06925957 0.01599500 -0.04835465 0.77647059 0.86666667 0.97647059
v 0.06980346 0.01654242 -0.05144009 0.77647059 0.86666667 0.97647059
v -0.00279056 -0.02977817 -0.05092360 0.77647059 0.86666667 0.97647059
v -0.00278301 -0.02988639 -0.05144009 0.77647059 0.86666667 0.97647059
v 0.00240660 -0.03210789 -0.05144009 0.77647059 0.86666667 0.97647059
v 0.00253502 -0.03205060 -0.05092360 0.77647059 0.86666667 0.97647059
v 0.00281451 -0.03189147 -0.04968773 0.77647059 0.86666667 0.97647059
v 0.00234616 -0.02981000 -0.04280507 0.77647059 0.86666667 0.97647059
v 0.07271175 0.00758002 -0.04280507 0.77647059 0.86666667 0.97647059
v 0.07382219 0.00826747 -0.04994048 0.77647059 0.86666667 0.97647059
v 0.07396571 0.00850299 -0.05144009 0.77647059 0.86666667 0.97647059
v 0.00388718 -0.03222246 -0.05144009 0.77647059 0.86666667 0.97647059
v 0.00296560 -0.03027467 -0.04378987 0.77647059 0.86666667 0.97647059
v 0.02148047 -0.03177689 -0.04856344 0.77647059 0.86666667 0.97647059
v 0.02109521 -0.03052292 -0.04280507 0.77647059 0.86666667 0.97647059
v 0.00381164 -0.03002006 -0.04280507 0.77647059 0.86666667 0.97647059
v 0.07299125 0.00589957 -0.04280507 0.77647059 0.86666667 0.97647059
v 0.07385240 0.00697531 -0.04816276 0.77647059 0.86666667 0.97647059
v 0.07372399 0.00800013 -0.04891510 0.77647059 0.86666667 0.97647059
v 0.07429054 0.00743998 -0.05144009 0.77647059 0.86666667 0.97647059
v 0.02231141 -0.03215245 -0.05144009 0.77647059 0.86666667 0.97647059
v 0.02154090 -0.03177689 -0.04856344 0.77647059 0.86666667 0.97647059
v 0.02190349 -0.03051655 -0.04280507 0.77647059 0.86666667 0.97647059
v 0.07305168 -0.00177704 -0.04280507 0.77647059 0.86666667 0.97647059
v 0.07438118 -0.00177704 -0.05144009 0.77647059 0.86666667 0.97647059
v 0.03966296 -0.03164322 -0.05144009 0.77647059 0.86666667 0.97647059
v 0.03910397 -0.02896341 -0.04280507 0.77647059 0.86666667 0.97647059
v 0.07291571 -0.00217805 -0.04280507 0.77647059 0.86666667 0.97647059
v 0.07379197 -0.00255997 -0.04856767 0.77647059 0.86666667 0.97647059
v 0.07419234 -0.00248995 -0.05144009 0.77647059 0.86666667 0.97647059
v 0.04942274 -0.03002642 -0.05144009 0.77647059 0.86666667 0.97647059
v 0.04943785 -0.02884883 -0.04828786 0.77647059 0.86666667 0.97647059
v 0.04884864 -0.02644273 -0.04280507 0.77647059 0.86666667 0.97647059
v 0.07260599 -0.00299918 -0.04280507 0.77647059 0.86666667 0.97647059
v 0.07404881 -0.00292280 -0.05144009 0.77647059 0.86666667 0.97647059
v 0.07089879 -0.01049119 -0.05144009 0.77647059 0.86666667 0.97647059
v 0.05673502 -0.02641091 -0.05144009 0.77647059 0.86666667 0.97647059
v 0.05701452 -0.02574255 -0.04981960 0.77647059 0.86666667 0.97647059
v 0.05664437 -0.02552613 -0.04879421 0.77647059 0.86666667 0.97647059
v 0.05613826 -0.02343193 -0.04280507 0.77647059 0.86666667 0.97647059
v 0.04983822 -0.02616266 -0.04280507 0.77647059 0.86666667 0.97647059
v 0.06969770 -0.00934543 -0.04280507 0.77647059 0.86666667 0.97647059
v 0.07073260 -0.01027477 -0.05003685 0.77647059 0.86666667 0.97647059
v 0.06466673 -0.01912896 -0.05144009 0.77647059 0.86666667 0.97647059
v 0.05727136 -0.02611174 -0.05144009 0.77647059 0.86666667 0.97647059
v 0.05709006 -0.02282086 -0.04280507 0.77647059 0.86666667 0.97647059
v 0.05688610 -0.02410029 -0.04548645 0.77647059 0.86666667 0.97647059
v 0.06447788 -0.01938357 -0.05144009 0.77647059 0.86666667 0.97647059
v 0.06326924 -0.01677378 -0.04280507 0.77647059 0.86666667 0.97647059
f 1 2 3
f 1 3 4
f 1 4 5
f 1 5 6
f 1 6 7
f 1 7 15
f 1 15 22
f 1 22 31
f 1 31 38
f 1 38 44
f 1 44 53
f 1 53 62
f 1 62 67
f 1 67 72
f 1 72 77
f 1 77 78
f 1 78 86
f 1 86 90
f 1 90 87
f 1 87 79
f 1 79 73
f 1 73 68
f 1 68 63
f 1 63 54
f 1 54 47
f 1 47 46
f 1 46 40
f 1 40 33
f 1 33 23
f 1 23 16
f 1 16 8
f 1 8 2
f 2 8 9
f 2 9 10
f 2 10 3
f 3 10 17
f 3 17 27
f 3 27 35
f 3 35 41
f 3 41 50
f 3 50 58
f 3 58 57
f 3 57 65
f 3 65 69
f 3 69 75
f 3 75 83
f 3 83 82
f 3 82 88
f 3 88 91
f 3 91 84
f 3 84 76
f 3 76 70
f 3 70 66
f 3 66 59
f 3 59 51
f 3 51 42
f 3 42 36
f 3 36 29
f 3 29 28
f 3 28 19
f 3 19 11
f 3 11 6
f 3 6 5
f 3 5 4
f 6 11 12
f 6 12 7
f 7 12 13
f 7 13 14
f 7 14 15
f 8 16 17
f 8 17 18
f 8 18 9
f 9 18 17
f 9 17 10
f 11 19 20
f 11 20 21
f 11 21 12
f 12 21 13
f 13 21 14
f 14 21 15
f 15 21 22
f 16 23 24
f 16 24 25
f 16 25 17
f 17 25 26
f 17 26 27
f 19 28 20
f 20 28 29
f 20 29 30
f 20 30 21
f 21 31 22
f 21 30 32
f 21 32 31
f 23 33 34
f 23 34 24
f 24 34 33
f 24 33 40
f 24 40 45
f 24 45 41
f 24 41 35
f 24 35 26
f 24 26 25
f 26 35 27
f 29 36 30
f 30 36 37
f 30 37 32
f 31 32 38
f 32 37 39
f 32 39 38
f 36 42 37
f 37 42 43
f 37 43 39
f 38 39 44
f 39 43 44
f 40 46 45
f 41 45 46
f 41 46 47
f 41 47 48
f 41 48 49
f 41 49 50
f 42 51 43
f 43 51 44
f 44 51 52
f 44 52 53
f 47 54 48
f 48 54 49
f 49 55 50
f 49 54 56
f 49 56 57
f 49 57 55
f 50 55 58
f 51 59 60
f 51 60 61
f 51 61 52
f 52 61 62
f 52 62 53
f 54 63 64
f 54 64 56
f 55 57 58
f 56 64 57
f 57 64 65
f 59 66 60
f 60 67 62
f 60 62 61
f 60 66 67
f 63 68 64
f 64 68 65
f 65 68 69
f 66 70 71
f 66 71 67
f 67 71 72
f 68 73 69
f 69 73 74
f 69 74 75
f 70 76 71
f 71 77 72
f 71 76 78
f 71 78 77
f 73 79 80
f 73 80 74
f 74 80 81
f 74 81 82
f 74 82 83
f 74 83 75
f 76 84 85
f 76 85 78
f 78 85 86
f 79 87 80
f 80 88 89
f 80 89 82
f 80 82 81
f 80 87 90
f 80 90 88
f 82 89 88
f 84 91 90
f 84 90 86
f 84 86 85
f 88 90 91

