# https://github.com/mikedh/trimesh
v -0.00859440 -0.01562231 -0.03211321 0.94117647 0.52156863 0.41176471
v -0.00789958 -0.01562231 -0.03145422 0.94117647 0.52156863 0.41176471
v -0.00859304 -0.01408573 -0.03211321 0.94117647 0.52156863 0.41176471
v -0.00855233 -0.02006091 -0.03211321 0.94117647 0.52156863 0.41176471
v -0.00694015 -0.01562231 -0.03088340 0.94117647 0.52156863 0.41176471
v -0.00789823 -0.01408573 -0.03145719 0.94117647 0.52156863 0.41176471
v -0.00853061 -0.02159551 -0.03211321 0.94117647 0.52156863 0.41176471
v -0.00789008 -0.01715890 -0.03146694 0.94117647 0.52156863 0.41176471
v -0.00694015 -0.01715890 -0.03089287 0.94117647 0.52156863 0.41176471
v -0.00857133 -0.01254714 -0.03211321 0.94117647 0.52156863 0.41176471
v -0.00540261 -0.00947197 -0.03070452 0.94117647 0.52156863 0.41176471
v -0.00694015 -0.01408573 -0.03089937 0.94117647 0.52156863 0.41176471
v -0.00540261 -0.01869549 -0.03068079 0.94117647 0.52156863 0.41176471
v -0.00788466 -0.01254714 -0.03147909 0.94117647 0.52156863 0.41176471
v -0.00786837 -0.02023407 -0.03149972 0.94117647 0.52156863 0.41176471
v -0.00852519 -0.02177066 -0.03211321 0.94117647 0.52156863 0.41176471
v -0.00694015 -0.01869549 -0.03091519 0.94117647 0.52156863 0.41176471
v -0.00540261 -0.02330925 -0.03072332 0.94117647 0.52156863 0.41176471
v -0.00852383 -0.01101055 -0.03211321 0.94117647 0.52156863 0.41176471
v 0.00228510 -0.01101055 -0.03068997 0.94117647 0.52156863 0.41176471
v 0.00228510 -0.00947197 -0.03070481 0.94117647 0.52156863 0.41176471
v -0.00079134 -0.00793538 -0.03083607 0.94117647 0.52156863 0.41176471
v -0.00386506 -0.00793538 -0.03086517 0.94117647 0.52156863 0.41176471
v -0.00540261 -0.00793538 -0.03089174 0.94117647 0.52156863 0.41176471
v -0.00694015 -0.00947197 -0.03110481 0.94117647 0.52156863 0.41176471
v -0.00694015 -0.01101055 -0.03099615 0.94117647 0.52156863 0.41176471
v -0.00694015 -0.01254714 -0.03093455 0.94117647 0.52156863 0.41176471
v 0.00228510 -0.01869549 -0.03066991 0.94117647 0.52156863 0.41176471
v -0.00784937 -0.01101055 -0.03152784 0.94117647 0.52156863 0.41176471
v -0.00843833 -0.00947197 -0.03211321 0.94117647 0.52156863 0.41176471
v -0.00784802 -0.02177066 -0.03152897 0.94117647 0.52156863 0.41176471
v -0.00694015 -0.02177066 -0.03097976 0.94117647 0.52156863 0.41176471
v -0.00694015 -0.02023407 -0.03093992 0.94117647 0.52156863 0.41176471
v -0.00845869 -0.02312016 -0.03211321 0.94117647 0.52156863 0.41176471
v -0.00694015 -0.02330925 -0.03108404 0.94117647 0.52156863 0.41176471
v -0.00540261 -0.02484584 -0.03109802 0.94117647 0.52156863 0.41176471
v -0.00232752 -0.02484584 -0.03096648 0.94117647 0.52156863 0.41176471
v -0.00079134 -0.02484584 -0.03095673 0.94117647 0.52156863 0.41176471
v 0.00228510 -0.02177066 -0.03075228 0.94117647 0.52156863 0.41176471
v 0.00228510 -0.02023407 -0.03069520 0.94117647 0.52156863 0.41176471
v 0.00382265 -0.01562231 -0.03111484 0.94117647 0.52156863 0.41176471
v 0.00382265 -0.01408573 -0.03112543 0.94117647 0.52156863 0.41176471
v 0.00372629 -0.00947197 -0.03119566 0.94117647 0.52156863 0.41176471
v 0.00353766 -0.00793538 -0.03130304 0.94117647 0.52156863 0.41176471
v 0.00228510 -0.00793538 -0.03088156 0.94117647 0.52156863 0.41176471
v 0.00074756 -0.00793538 -0.03085034 0.94117647 0.52156863 0.41176471
v 0.00379008 -0.01101055 -0.03116966 0.94117647 0.52156863 0.41176471
v 0.00074756 -0.00687649 -0.03135645 0.94117647 0.52156863 0.41176471
v -0.00079134 -0.00688246 -0.03135193 0.94117647 0.52156863 0.41176471
v -0.00232752 -0.00688644 -0.03135108 0.94117647 0.52156863 0.41176471
v -0.00386506 -0.00689440 -0.03136478 0.94117647 0.52156863 0.41176471
v -0.00694422 -0.00805680 -0.03137595 0.94117647 0.52156863 0.41176471
v -0.00540261 -0.00691033 -0.03139657 0.94117647 0.52156863 0.41176471
v -0.00643532 -0.00700388 -0.03151159 0.94117647 0.52156863 0.41176471
v -0.00773131 -0.00864994 -0.03167732 0.94117647 0.52156863 0.41176471
v -0.00778288 -0.00947197 -0.03161346 0.94117647 0.52156863 0.41176471
v 0.00382265 -0.01869549 -0.03113349 0.94117647 0.52156863 0.41176471
v 0.00382265 -0.01715890 -0.03111371 0.94117647 0.52156863 0.41176471
v -0.00824699 -0.00814637 -0.03211321 0.94117647 0.52156863 0.41176471
v -0.00843562 -0.02330925 -0.03211321 0.94117647 0.52156863 0.41176471
v -0.00777609 -0.02330925 -0.03161996 0.94117647 0.52156863 0.41176471
v -0.00771638 -0.02408749 -0.03169428 0.94117647 0.52156863 0.41176471
v -0.00680173 -0.02469855 -0.03147429 0.94117647 0.52156863 0.41176471
v -0.00619648 -0.02563404 -0.03168283 0.94117647 0.52156863 0.41176471
v -0.00540261 -0.02568977 -0.03161897 0.94117647 0.52156863 0.41176471
v -0.00386506 -0.02576739 -0.03152049 0.94117647 0.52156863 0.41176471
v -0.00232752 -0.02581516 -0.03145267 0.94117647 0.52156863 0.41176471
v 0.00074756 -0.02484584 -0.03106637 0.94117647 0.52156863 0.41176471
v 0.00228510 -0.02330925 -0.03089329 0.94117647 0.52156863 0.41176471
v -0.00079134 -0.02581715 -0.03144857 0.94117647 0.52156863 0.41176471
v 0.00365437 -0.02177066 -0.03120343 0.94117647 0.52156863 0.41176471
v 0.00462331 -0.01562231 -0.03166658 0.94117647 0.52156863 0.41176471
v 0.00526112 -0.01433851 -0.03211321 0.94117647 0.52156863 0.41176471
v 0.00523398 -0.01241578 -0.03211321 0.94117647 0.52156863 0.41176471
v 0.00397464 -0.01243170 -0.03125797 0.94117647 0.52156863 0.41176471
v 0.00509556 -0.00997953 -0.03211321 0.94117647 0.52156863 0.41176471
v 0.00504128 -0.00947197 -0.03211321 0.94117647 0.52156863 0.41176471
v 0.00492050 -0.00871562 -0.03211321 0.94117647 0.52156863 0.41176471
v 0.00517834 -0.01120561 -0.03211321 0.94117647 0.52156863 0.41176471
v 0.00457445 -0.00754327 -0.03211321 0.94117647 0.52156863 0.41176471
v 0.00327440 -0.00698994 -0.03149590 0.94117647 0.52156863 0.41176471
v 0.00228510 -0.00688644 -0.03137552 0.94117647 0.52156863 0.41176471
v 0.00215076 -0.00618383 -0.03211321 0.94117647 0.52156863 0.41176471
v 0.00074756 -0.00617189 -0.03211321 0.94117647 0.52156863 0.41176471
v 0.00062136 -0.00617189 -0.03211321 0.94117647 0.52156863 0.41176471
v -0.00232752 -0.00617786 -0.03211321 0.94117647 0.52156863 0.41176471
v -0.00386506 -0.00618980 -0.03211321 0.94117647 0.52156863 0.41176471
v -0.00540261 -0.00621170 -0.03211321 0.94117647 0.52156863 0.41176471
v -0.00745990 -0.00762488 -0.03184687 0.94117647 0.52156863 0.41176471
v -0.00814114 -0.00795927 -0.03211321 0.94117647 0.52156863 0.41176471
v -0.00551253 -0.00623359 -0.03211321 0.94117647 0.52156863 0.41176471
v -0.00688994 -0.00651225 -0.03211321 0.94117647 0.52156863 0.41176471
v -0.00705414 -0.00670133 -0.03211321 0.94117647 0.52156863 0.41176471
v 0.00524619 -0.01869549 -0.03211321 0.94117647 0.52156863 0.41176471
v 0.00396378 -0.02010868 -0.03126517 0.94117647 0.52156863 0.41176471
v 0.00520684 -0.02011067 -0.03211321 0.94117647 0.52156863 0.41176471
v 0.00462331 -0.01715890 -0.03166602 0.94117647 0.52156863 0.41176471
v -0.00817371 -0.02454529 -0.03211321 0.94117647 0.52156863 0.41176471
v -0.00750468 -0.02540116 -0.03211321 0.94117647 0.52156863 0.41176471
v -0.00664567 -0.02608586 -0.03211321 0.94117647 0.52156863 0.41176471
v -0.00540261 -0.02633864 -0.03211321 0.94117647 0.52156863 0.41176471
v -0.00519905 -0.02636650 -0.03211321 0.94117647 0.52156863 0.41176471
v -0.00368729 -0.02645408 -0.03211321 0.94117647 0.52156863 0.41176471
v -0.00232752 -0.02649986 -0.03211321 0.94117647 0.52156863 0.41176471
v 0.00074756 -0.02573953 -0.03155016 0.94117647 0.52156863 0.41176471
v 0.00156994 -0.02565394 -0.03165613 0.94117647 0.52156863 0.41176471
v 0.00216297 -0.02476821 -0.03139573 0.94117647 0.52156863 0.41176471
v 0.00315090 -0.02420095 -0.03158308 0.94117647 0.52156863 0.41176471
v 0.00335853 -0.02330925 -0.03138456 0.94117647 0.52156863 0.41176471
v -0.00079134 -0.02650384 -0.03211321 0.94117647 0.52156863 0.41176471
v 0.00074756 -0.02640830 -0.03211321 0.94117647 0.52156863 0.41176471
v 0.00491372 -0.02177066 -0.03211321 0.94117647 0.52156863 0.41176471
v 0.00526926 -0.01586912 -0.03211321 0.94117647 0.52156863 0.41176471
v 0.00371137 -0.00653812 -0.03211321 0.94117647 0.52156863 0.41176471
v 0.00228510 -0.00618781 -0.03211321 0.94117647 0.52156863 0.41176471
v 0.00526791 -0.01715890 -0.03211321 0.94117647 0.52156863 0.41176471
v 0.00202591 -0.02611571 -0.03211321 0.94117647 0.52156863 0.41176471
v 0.00361366 -0.02465675 -0.03211321 0.94117647 0.52156863 0.41176471
f 1 2 3
f 1 3 10
f 1 10 19
f 1 19 30
f 1 30 59
f 1 59 90
f 1 90 93
f 1 93 92
f 1 92 91
f 1 91 88
f 1 88 87
f 1 87 86
f 1 86 85
f 1 85 84
f 1 84 83
f 1 83 115
f 1 115 114
f 1 114 80
f 1 80 78
f 1 78 77
f 1 77 76
f 1 76 79
f 1 79 74
f 1 74 73
f 1 73 113
f 1 113 116
f 1 116 94
f 1 94 96
f 1 96 112
f 1 112 118
f 1 118 117
f 1 117 111
f 1 111 110
f 1 110 104
f 1 104 103
f 1 103 102
f 1 102 101
f 1 101 100
f 1 100 99
f 1 99 98
f 1 98 60
f 1 60 34
f 1 34 16
f 1 16 7
f 1 7 4
f 1 4 2
f 2 5 6
f 2 6 3
f 2 4 7
f 2 7 8
f 2 8 9
f 2 9 5
f 3 6 10
f 5 11 12
f 5 12 6
f 5 9 13
f 5 13 11
f 6 12 14
f 6 14 10
f 7 15 8
f 7 16 15
f 8 15 17
f 8 17 9
f 9 17 18
f 9 18 13
f 10 14 19
f 11 20 21
f 11 21 22
f 11 22 23
f 11 23 24
f 11 24 25
f 11 25 26
f 11 26 27
f 11 27 12
f 11 13 28
f 11 28 20
f 12 27 14
f 13 18 28
f 14 27 26
f 14 26 29
f 14 29 30
f 14 30 19
f 15 16 31
f 15 31 32
f 15 32 33
f 15 33 17
f 16 34 31
f 17 33 18
f 18 35 36
f 18 36 37
f 18 37 38
f 18 38 39
f 18 39 40
f 18 40 28
f 18 33 32
f 18 32 35
f 20 41 42
f 20 42 21
f 20 28 41
f 21 43 44
f 21 44 45
f 21 45 46
f 21 46 22
f 21 42 47
f 21 47 43
f 22 46 48
f 22 48 49
f 22 49 50
f 22 50 23
f 23 50 51
f 23 51 24
f 24 52 25
f 24 51 53
f 24 53 54
f 24 54 52
f 25 52 55
f 25 55 56
f 25 56 29
f 25 29 26
f 28 40 57
f 28 57 58
f 28 58 41
f 29 56 30
f 30 56 59
f 31 34 60
f 31 60 61
f 31 61 35
f 31 35 32
f 35 61 62
f 35 62 63
f 35 63 36
f 36 64 65
f 36 65 66
f 36 66 67
f 36 67 37
f 36 63 64
f 37 67 38
f 38 68 69
f 38 69 39
f 38 67 70
f 38 70 68
f 39 71 57
f 39 57 40
f 39 69 71
f 41 72 73
f 41 73 42
f 41 58 72
f 42 73 74
f 42 74 75
f 42 75 47
f 43 76 77
f 43 77 78
f 43 78 44
f 43 47 79
f 43 79 76
f 44 80 81
f 44 81 45
f 44 78 80
f 45 81 82
f 45 82 46
f 46 82 48
f 47 75 74
f 47 74 79
f 48 82 83
f 48 83 84
f 48 84 85
f 48 85 49
f 49 85 86
f 49 86 50
f 50 86 87
f 50 87 51
f 51 87 88
f 51 88 53
f 52 54 89
f 52 89 90
f 52 90 59
f 52 59 55
f 53 88 54
f 54 88 91
f 54 91 92
f 54 92 93
f 54 93 90
f 54 90 89
f 55 59 56
f 57 94 58
f 57 71 95
f 57 95 96
f 57 96 94
f 58 94 97
f 58 97 72
f 60 98 62
f 60 62 61
f 62 98 99
f 62 99 63
f 63 99 64
f 64 99 100
f 64 100 101
f 64 101 65
f 65 101 102
f 65 102 66
f 66 102 67
f 67 102 103
f 67 103 104
f 67 104 70
f 68 70 105
f 68 105 106
f 68 106 107
f 68 107 69
f 69 107 108
f 69 108 109
f 69 109 71
f 70 104 110
f 70 110 111
f 70 111 105
f 71 109 112
f 71 112 96
f 71 96 95
f 72 97 113
f 72 113 73
f 80 114 81
f 81 114 115
f 81 115 82
f 82 115 83
f 94 116 97
f 97 116 113
f 105 111 117
f 105 117 106
f 106 117 107
f 107 117 108
f 108 117 118
f 108 118 109
f 109 118 112

