# https://github.com/mikedh/trimesh
v -0.00162693 -0.00617689 -0.03211440 0.26274510 0.77254902 0.45490196
v -0.00162693 -0.00367664 -0.03271199 0.26274510 0.77254902 0.45490196
v -0.00232833 -0.00367664 -0.03271199 0.26274510 0.77254902 0.45490196
v -0.00232833 -0.00617801 -0.03211440 0.26274510 0.77254902 0.45490196
v -0.00162693 -0.01043704 -0.03211440 0.26274510 0.77254902 0.45490196
v -0.00162693 -0.00367664 -0.04280507 0.26274510 0.77254902 0.45490196
v -0.01002731 -0.00367664 -0.03271617 0.26274510 0.77254902 0.45490196
v -0.00386599 -0.00618917 -0.03211440 0.26274510 0.77254902 0.45490196
v -0.00409869 -0.01508356 -0.03211440 0.26274510 0.77254902 0.45490196
v -0.00162693 -0.01508356 -0.03836972 0.26274510 0.77254902 0.45490196
v -0.01002731 -0.00367664 -0.04280507 0.26274510 0.77254902 0.45490196
v -0.00162693 -0.01508356 -0.04280507 0.26274510 0.77254902 0.45490196
v -0.00852419 -0.01100878 -0.03211440 0.26274510 0.77254902 0.45490196
v -0.00843867 -0.00947111 -0.03211440 0.26274510 0.77254902 0.45490196
v -0.00824708 -0.00814560 -0.03211440 0.26274510 0.77254902 0.45490196
v -0.00814100 -0.00795912 -0.03211440 0.26274510 0.77254902 0.45490196
v -0.00689032 -0.00651078 -0.03211440 0.26274510 0.77254902 0.45490196
v -0.00540365 -0.00621151 -0.03211440 0.26274510 0.77254902 0.45490196
v -0.01002731 -0.01408301 -0.03269943 0.26274510 0.77254902 0.45490196
v -0.00859326 -0.01408301 -0.03211440 0.26274510 0.77254902 0.45490196
v -0.00857188 -0.01254534 -0.03211440 0.26274510 0.77254902 0.45490196
v -0.00859326 -0.01508356 -0.03211440 0.26274510 0.77254902 0.45490196
v -0.01002731 -0.01508356 -0.04280507 0.26274510 0.77254902 0.45490196
v -0.01002731 -0.01508356 -0.03269943 0.26274510 0.77254902 0.45490196
f 1 2 3
f 1 3 4
f 1 4 8
f 1 8 18
f 1 18 17
f 1 17 16
f 1 16 15
f 1 15 14
f 1 14 13
f 1 13 21
f 1 21 20
f 1 20 22
f 1 22 9
f 1 9 5
f 1 5 10
f 1 10 12
f 1 12 6
f 1 6 2
f 2 6 11
f 2 11 7
f 2 7 3
f 3 7 4
f 4 7 8
f 5 9 10
f 6 12 23
f 6 23 11
f 7 13 14
f 7 14 15
f 7 15 16
f 7 16 17
f 7 17 18
f 7 18 8
f 7 11 23
f 7 23 24
f 7 24 19
f 7 19 20
f 7 20 21
f 7 21 13
f 9 22 24
f 9 24 23
f 9 23 12
f 9 12 10
f 19 24 22
f 19 22 20

