# https://github.com/mikedh/trimesh
v 0.03573173 -0.01265264 0.00596875 0.08627451 0.01960784 0.83137255
v 0.03573173 -0.01253686 0.00443075 0.08627451 0.01960784 0.83137255
v 0.04687883 -0.01264006 -0.00599487 0.08627451 0.01960784 0.83137255
v 0.03919117 -0.01265264 0.00596875 0.08627451 0.01960784 0.83137255
v 0.03573173 -0.01250414 0.00750676 0.08627451 0.01960784 0.83137255
v 0.04534130 -0.01241605 -0.00599487 0.08627451 0.01960784 0.83137255
v 0.03573173 -0.01224741 0.00289451 0.08627451 0.01960784 0.83137255
v 0.04841410 -0.01264006 -0.00599487 0.08627451 0.01960784 0.83137255
v 0.04072870 -0.01265012 0.00596875 0.08627451 0.01960784 0.83137255
v 0.03919117 -0.01249911 0.00750676 0.08627451 0.01960784 0.83137255
v 0.03765139 -0.01250162 0.00750676 0.08627451 0.01960784 0.83137255
v 0.03611386 -0.01204858 0.00876785 0.08627451 0.01960784 0.83137255
v 0.03573173 -0.01204858 0.00876785 0.08627451 0.01960784 0.83137255
v 0.04391456 -0.01202341 -0.00599487 0.08627451 0.01960784 0.83137255
v 0.03573173 -0.01190762 0.00196148 0.08627451 0.01960784 0.83137255
v 0.04841410 -0.01262244 -0.00479375 0.08627451 0.01960784 0.83137255
v 0.04534130 -0.01258972 0.00596875 0.08627451 0.01960784 0.83137255
v 0.04380377 -0.01262244 0.00596875 0.08627451 0.01960784 0.83137255
v 0.04226624 -0.01264006 0.00596875 0.08627451 0.01960784 0.83137255
v 0.04995163 -0.01239088 -0.00599487 0.08627451 0.01960784 0.83137255
v 0.04072870 -0.01249156 0.00750676 0.08627451 0.01960784 0.83137255
v 0.04226624 -0.01203851 0.00876785 0.08627451 0.01960784 0.83137255
v 0.03919117 -0.01204354 0.00876785 0.08627451 0.01960784 0.83137255
v 0.04226624 -0.01158797 0.00953685 0.08627451 0.01960784 0.83137255
v 0.04072870 -0.01158797 0.00953685 0.08627451 0.01960784 0.83137255
v 0.03573173 -0.01169872 0.00934460 0.08627451 0.01960784 0.83137255
v 0.04372011 -0.01194538 -0.00599487 0.08627451 0.01960784 0.83137255
v 0.04317519 -0.01169620 -0.00599487 0.08627451 0.01960784 0.83137255
v 0.03573173 -0.01110472 0.00116249 0.08627451 0.01960784 0.83137255
v 0.04154269 -0.01017345 -0.00599487 0.08627451 0.01960784 0.83137255
v 0.04200395 -0.01063657 -0.00599487 0.08627451 0.01960784 0.83137255
v 0.04231824 -0.01093608 -0.00599487 0.08627451 0.01960784 0.83137255
v 0.04841410 -0.01259224 -0.00325574 0.08627451 0.01960784 0.83137255
v 0.04687883 -0.01252176 0.00596875 0.08627451 0.01960784 0.83137255
v 0.04687883 -0.01254945 0.00443075 0.08627451 0.01960784 0.83137255
v 0.04534130 -0.01240850 0.00750676 0.08627451 0.01960784 0.83137255
v 0.04380377 -0.01244877 0.00750676 0.08627451 0.01960784 0.83137255
v 0.04226624 -0.01247394 0.00750676 0.08627451 0.01960784 0.83137255
v 0.05024104 -0.01231034 -0.00599487 0.08627451 0.01960784 0.83137255
v 0.04995163 -0.01235816 -0.00479375 0.08627451 0.01960784 0.83137255
v 0.04841410 -0.01255448 -0.00171774 0.08627451 0.01960784 0.83137255
v 0.04380377 -0.01202844 0.00876256 0.08627451 0.01960784 0.83137255
v 0.04380377 -0.01158797 0.00953156 0.08627451 0.01960784 0.83137255
v 0.04380377 -0.01082031 0.01025823 0.08627451 0.01960784 0.83137255
v 0.04226624 -0.01082031 0.01025823 0.08627451 0.01960784 0.83137255
v 0.03765139 -0.01158294 0.00953685 0.08627451 0.01960784 0.83137255
v 0.03611386 -0.01158042 0.00953685 0.08627451 0.01960784 0.83137255
v 0.03573173 -0.01158042 0.00953509 0.08627451 0.01960784 0.83137255
v 0.03573173 -0.01036977 0.00046228 0.08627451 0.01960784 0.83137255
v 0.03573173 -0.00943598 -0.00028027 0.08627451 0.01960784 0.83137255
v 0.04109048 -0.00942844 -0.00599487 0.08627451 0.01960784 0.83137255
v 0.04841410 -0.01251169 -0.00017973 0.08627451 0.01960784 0.83137255
v 0.04841410 -0.01246639 0.00135827 0.08627451 0.01960784 0.83137255
v 0.04841410 -0.01242108 0.00289451 0.08627451 0.01960784 0.83137255
v 0.04841410 -0.01232796 0.00596875 0.08627451 0.01960784 0.83137255
v 0.04687883 -0.01231537 0.00750676 0.08627451 0.01960784 0.83137255
v 0.04687883 -0.01195041 0.00864439 0.08627451 0.01960784 0.83137255
v 0.04534130 -0.01200579 0.00873434 0.08627451 0.01960784 0.83137255
v 0.05132410 -0.01200830 -0.00599487 0.08627451 0.01960784 0.83137255
v 0.05126983 -0.01198817 -0.00479375 0.08627451 0.01960784 0.83137255
v 0.04995163 -0.01231285 -0.00325574 0.08627451 0.01960784 0.83137255
v 0.04534130 -0.01157539 0.00950334 0.08627451 0.01960784 0.83137255
v 0.04534130 -0.01080772 0.01024941 0.08627451 0.01960784 0.83137255
v 0.04534130 -0.00946871 0.01100078 0.08627451 0.01960784 0.83137255
v 0.04380377 -0.00946871 0.01100783 0.08627451 0.01960784 0.83137255
v 0.03765139 -0.01081527 0.01025294 0.08627451 0.01960784 0.83137255
v 0.03611386 -0.01081276 0.01024941 0.08627451 0.01960784 0.83137255
v 0.03573173 -0.01081024 0.01024941 0.08627451 0.01960784 0.83137255
v 0.03573173 -0.00849716 -0.00087818 0.08627451 0.01960784 0.83137255
v 0.04090733 -0.00912137 -0.00599487 0.08627451 0.01960784 0.83137255
v 0.04995163 -0.01221721 -0.00017973 0.08627451 0.01960784 0.83137255
v 0.04995163 -0.01216687 0.00135827 0.08627451 0.01960784 0.83137255
v 0.04995163 -0.01211150 0.00289451 0.08627451 0.01960784 0.83137255
v 0.04995163 -0.01204858 0.00443075 0.08627451 0.01960784 0.83137255
v 0.05007824 -0.01194790 0.00597757 0.08627451 0.01960784 0.83137255
v 0.05067291 -0.01176164 0.00649612 0.08627451 0.01960784 0.83137255
v 0.04964864 -0.01190511 0.00720162 0.08627451 0.01960784 0.83137255
v 0.04852489 -0.01204102 0.00763198 0.08627451 0.01960784 0.83137255
v 0.04808624 -0.01186736 0.00847683 0.08627451 0.01960784 0.83137255
v 0.04687883 -0.01153260 0.00941339 0.08627451 0.01960784 0.83137255
v 0.05192328 -0.01177171 -0.00599487 0.08627451 0.01960784 0.83137255
v 0.05098041 -0.01188749 0.00135827 0.08627451 0.01960784 0.83137255
v 0.04687883 -0.01076242 0.01021414 0.08627451 0.01960784 0.83137255
v 0.04687883 -0.00946871 0.01095492 0.08627451 0.01960784 0.83137255
v 0.04687883 -0.00858526 0.01132002 0.08627451 0.01960784 0.83137255
v 0.04534130 -0.00862805 0.01133413 0.08627451 0.01960784 0.83137255
v 0.04226624 -0.00946871 0.01100430 0.08627451 0.01960784 0.83137255
v 0.03919117 -0.00946871 0.01099372 0.08627451 0.01960784 0.83137255
v 0.03573173 -0.00980346 0.01079618 0.08627451 0.01960784 0.83137255
v 0.03573173 -0.00834363 -0.00094521 0.08627451 0.01960784 0.83137255
v 0.04029006 -0.00786541 -0.00599487 0.08627451 0.01960784 0.83137255
v 0.05090353 -0.01185729 0.00289451 0.08627451 0.01960784 0.83137255
v 0.05081535 -0.01181953 0.00443075 0.08627451 0.01960784 0.83137255
v 0.05075430 -0.01179185 0.00547137 0.08627451 0.01960784 0.83137255
v 0.05007824 -0.01167607 0.00763198 0.08627451 0.01960784 0.83137255
v 0.05135575 -0.01146213 0.00597757 0.08627451 0.01960784 0.83137255
v 0.05286615 -0.01062398 0.00596875 0.08627451 0.01960784 0.83137255
v 0.05148915 -0.01113492 0.00750676 0.08627451 0.01960784 0.83137255
v 0.04911276 -0.01176164 0.00822637 0.08627451 0.01960784 0.83137255
v 0.04852489 -0.01149233 0.00901125 0.08627451 0.01960784 0.83137255
v 0.04995163 -0.01048555 0.01003952 0.08627451 0.01960784 0.83137255
v 0.04841410 -0.01066174 0.01015946 0.08627451 0.01960784 0.83137255
v 0.05209286 -0.01170375 -0.00599487 0.08627451 0.01960784 0.83137255
v 0.05203860 -0.01168110 -0.00479375 0.08627451 0.01960784 0.83137255
v 0.04841410 -0.00946871 0.01086320 0.08627451 0.01960784 0.83137255
v 0.04841410 -0.00846193 0.01128474 0.08627451 0.01960784 0.83137255
v 0.04841410 -0.00769174 0.01148581 0.08627451 0.01960784 0.83137255
v 0.04687883 -0.00781759 0.01150522 0.08627451 0.01960784 0.83137255
v 0.04534130 -0.00786038 0.01150698 0.08627451 0.01960784 0.83137255
v 0.04072870 -0.00859029 0.01132531 0.08627451 0.01960784 0.83137255
v 0.04380377 -0.00861798 0.01133060 0.08627451 0.01960784 0.83137255
v 0.03573173 -0.00946871 0.01097785 0.08627451 0.01960784 0.83137255
v 0.03611386 -0.00946871 0.01097961 0.08627451 0.01960784 0.83137255
v 0.03765139 -0.00946871 0.01098667 0.08627451 0.01960784 0.83137255
v 0.04016796 -0.00756086 -0.00599487 0.08627451 0.01960784 0.83137255
v 0.03573173 -0.00631749 -0.00174772 0.08627451 0.01960784 0.83137255
v 0.03973157 -0.00638796 -0.00599487 0.08627451 0.01960784 0.83137255
v 0.05196624 -0.01164586 -0.00325574 0.08627451 0.01960784 0.83137255
v 0.05189162 -0.01160811 -0.00171774 0.08627451 0.01960784 0.83137255
v 0.05174918 -0.01152505 0.00135827 0.08627451 0.01960784 0.83137255
v 0.05167230 -0.01148226 0.00289451 0.08627451 0.01960784 0.83137255
v 0.05158412 -0.01143947 0.00443075 0.08627451 0.01960784 0.83137255
v 0.05145750 -0.01056861 0.00899890 0.08627451 0.01960784 0.83137255
v 0.04995163 -0.01113996 0.00904476 0.08627451 0.01960784 0.83137255
v 0.05264230 -0.01048052 0.00750676 0.08627451 0.01960784 0.83137255
v 0.05293172 -0.01066929 0.00443075 0.08627451 0.01960784 0.83137255
v 0.05375475 -0.01020869 0.00316260 0.08627451 0.01960784 0.83137255
v 0.05370048 -0.01016842 0.00443075 0.08627451 0.01960784 0.83137255
v 0.05363491 -0.01011808 0.00596875 0.08627451 0.01960784 0.83137255
v 0.05238906 -0.01031943 0.00845566 0.08627451 0.01960784 0.83137255
v 0.05092389 -0.01033202 0.00990548 0.08627451 0.01960784 0.83137255
v 0.04995163 -0.00946871 0.01064626 0.08627451 0.01960784 0.83137255
v 0.05230992 -0.01157791 -0.00599487 0.08627451 0.01960784 0.83137255
v 0.05302668 -0.01102418 -0.00325574 0.08627451 0.01960784 0.83137255
v 0.04995163 -0.00820772 0.01118773 0.08627451 0.01960784 0.83137255
v 0.04995163 -0.00743753 0.01142585 0.08627451 0.01960784 0.83137255
v 0.04995163 -0.00639552 0.01163573 0.08627451 0.01960784 0.83137255
v 0.04841410 -0.00639552 0.01173627 0.08627451 0.01960784 0.83137255
v 0.04687883 -0.00639552 0.01175567 0.08627451 0.01960784 0.83137255
v 0.04534130 -0.00639552 0.01175390 0.08627451 0.01960784 0.83137255
v 0.04072870 -0.00639552 0.01173803 0.08627451 0.01960784 0.83137255
v 0.04072870 -0.00782262 0.01149639 0.08627451 0.01960784 0.83137255
v 0.03765139 -0.00855002 0.01131649 0.08627451 0.01960784 0.83137255
v 0.03573173 -0.00876144 0.01122654 0.08627451 0.01960784 0.83137255
v 0.03573173 -0.00581410 -0.00188353 0.08627451 0.01960784 0.83137255
v 0.03932006 -0.00486270 -0.00599487 0.08627451 0.01960784 0.83137255
v 0.03965696 -0.00615641 -0.00599487 0.08627451 0.01960784 0.83137255
v 0.05302668 -0.01094615 -0.00171774 0.08627451 0.01960784 0.83137255
v 0.05195041 -0.01003754 0.00948041 0.08627451 0.01960784 0.83137255
v 0.05341107 -0.00996203 0.00750676 0.08627451 0.01960784 0.83137255
v 0.05302668 -0.01077752 0.00135827 0.08627451 0.01960784 0.83137255
v 0.05315556 -0.01061895 0.00274988 0.08627451 0.01960784 0.83137255
v 0.05469762 -0.00960210 -0.00171774 0.08627451 0.01960784 0.83137255
v 0.05438559 -0.00960462 0.00274988 0.08627451 0.01960784 0.83137255
v 0.05446699 -0.00940075 0.00443075 0.08627451 0.01960784 0.83137255
v 0.05379545 -0.01023889 0.00213962 0.08627451 0.01960784 0.83137255
v 0.05439463 -0.00934789 0.00596875 0.08627451 0.01960784 0.83137255
v 0.05424766 -0.00919184 0.00750676 0.08627451 0.01960784 0.83137255
v 0.05402608 -0.00894266 0.00866202 0.08627451 0.01960784 0.83137255
v 0.05303347 -0.00949136 0.00907122 0.08627451 0.01960784 0.83137255
v 0.05265361 -0.00901314 0.01002541 0.08627451 0.01960784 0.83137255
v 0.05145750 -0.00950394 0.01020885 0.08627451 0.01960784 0.83137255
v 0.05140323 -0.00781759 0.01102723 0.08627451 0.01960784 0.83137255
v 0.05302668 -0.01115003 -0.00599487 0.08627451 0.01960784 0.83137255
v 0.05302668 -0.01109717 -0.00479375 0.08627451 0.01960784 0.83137255
v 0.05397859 -0.01038487 -0.00325574 0.08627451 0.01960784 0.83137255
v 0.05392659 -0.01034460 -0.00171774 0.08627451 0.01960784 0.83137255
v 0.05382258 -0.01026154 0.00135827 0.08627451 0.01960784 0.83137255
v 0.05083570 -0.00722611 0.01137117 0.08627451 0.01960784 0.83137255
v 0.05140323 -0.00633763 0.01145230 0.08627451 0.01960784 0.83137255
v 0.05148915 -0.00485766 0.01169923 0.08627451 0.01960784 0.83137255
v 0.04995163 -0.00485766 0.01185620 0.08627451 0.01960784 0.83137255
v 0.04841410 -0.00485766 0.01190912 0.08627451 0.01960784 0.83137255
v 0.04687883 -0.00485766 0.01190912 0.08627451 0.01960784 0.83137255
v 0.04534130 -0.00485766 0.01190735 0.08627451 0.01960784 0.83137255
v 0.04380377 -0.00485766 0.01190206 0.08627451 0.01960784 0.83137255
v 0.03919117 -0.00639552 0.01173098 0.08627451 0.01960784 0.83137255
v 0.03573173 -0.00639552 0.01171158 0.08627451 0.01960784 0.83137255
v 0.03919117 -0.00780249 0.01149110 0.08627451 0.01960784 0.83137255
v 0.03611386 -0.00775718 0.01148052 0.08627451 0.01960784 0.83137255
v 0.03611386 -0.00852737 0.01131120 0.08627451 0.01960784 0.83137255
v 0.03573173 -0.00852233 0.01130944 0.08627451 0.01960784 0.83137255
v 0.03573173 -0.00485766 -0.00214104 0.08627451 0.01960784 0.83137255
v 0.03912108 -0.00331981 -0.00599487 0.08627451 0.01960784 0.83137255
v 0.05368014 -0.00858777 0.00968677 0.08627451 0.01960784 0.83137255
v 0.05483780 -0.00974809 -0.00599487 0.08627451 0.01960784 0.83137255
v 0.05536237 -0.00873627 0.00107254 0.08627451 0.01960784 0.83137255
v 0.05533072 -0.00869852 0.00209729 0.08627451 0.01960784 0.83137255
v 0.05473831 -0.00933782 0.00149408 0.08627451 0.01960784 0.83137255
v 0.05529906 -0.00866077 0.00289451 0.08627451 0.01960784 0.83137255
v 0.05523575 -0.00858022 0.00443075 0.08627451 0.01960784 0.83137255
v 0.05516340 -0.00848710 0.00596875 0.08627451 0.01960784 0.83137255
v 0.05501643 -0.00829833 0.00750676 0.08627451 0.01960784 0.83137255
v 0.05543925 -0.00731672 0.00846448 0.08627451 0.01960784 0.83137255
v 0.05456647 -0.00795099 0.00907651 0.08627451 0.01960784 0.83137255
v 0.05311034 -0.00801894 0.01033407 0.08627451 0.01960784 0.83137255
v 0.05185997 -0.00681333 0.01127063 0.08627451 0.01960784 0.83137255
v 0.05324601 -0.01100404 -0.00599487 0.08627451 0.01960784 0.83137255
v 0.05406904 -0.01045283 -0.00599487 0.08627451 0.01960784 0.83137255
v 0.05466822 -0.00990414 -0.00599487 0.08627451 0.01960784 0.83137255
v 0.05236419 -0.00578641 0.01138351 0.08627451 0.01960784 0.83137255
v 0.05266265 -0.00485766 0.01147170 0.08627451 0.01960784 0.83137255
v 0.05313295 -0.00336260 0.01155460 0.08627451 0.01960784 0.83137255
v 0.05148915 -0.00331981 0.01187384 0.08627451 0.01960784 0.83137255
v 0.04995163 -0.00331981 0.01196379 0.08627451 0.01960784 0.83137255
v 0.04841410 -0.00331981 0.01197790 0.08627451 0.01960784 0.83137255
v 0.04687883 -0.00331981 0.01197967 0.08627451 0.01960784 0.83137255
v 0.04534130 -0.00331981 0.01197967 0.08627451 0.01960784 0.83137255
v 0.04380377 -0.00331981 0.01197438 0.08627451 0.01960784 0.83137255
v 0.03573173 -0.00485766 0.01185973 0.08627451 0.01960784 0.83137255
v 0.03573173 -0.00775215 0.01147876 0.08627451 0.01960784 0.83137255
v 0.03573173 -0.00794595 0.01143643 0.08627451 0.01960784 0.83137255
v 0.03573173 -0.00465379 -0.00216750 0.08627451 0.01960784 0.83137255
v 0.03573173 -0.00331981 -0.00233858 0.08627451 0.01960784 0.83137255
v 0.03902386 -0.00178195 -0.00599487 0.08627451 0.01960784 0.83137255
v 0.05510913 -0.00682843 0.00948923 0.08627451 0.01960784 0.83137255
v 0.05408487 -0.00756338 0.01003600 0.08627451 0.01960784 0.83137255
v 0.05499834 -0.00957945 -0.00599487 0.08627451 0.01960784 0.83137255
v 0.05540081 -0.00878158 -0.00017973 0.08627451 0.01960784 0.83137255
v 0.05611079 -0.00793337 -0.00171774 0.08627451 0.01960784 0.83137255
v 0.05602261 -0.00793337 -0.00017973 0.08627451 0.01960784 0.83137255
v 0.05581233 -0.00808439 0.00149408 0.08627451 0.01960784 0.83137255
v 0.05586433 -0.00789310 0.00289451 0.08627451 0.01960784 0.83137255
v 0.05580780 -0.00781256 0.00443075 0.08627451 0.01960784 0.83137255
v 0.05574223 -0.00771943 0.00596875 0.08627451 0.01960784 0.83137255
v 0.05559979 -0.00753066 0.00750676 0.08627451 0.01960784 0.83137255
v 0.05566762 -0.00634769 0.00900419 0.08627451 0.01960784 0.83137255
v 0.05622836 -0.00639552 0.00750676 0.08627451 0.01960784 0.83137255
v 0.05692704 -0.00422087 0.00840804 0.08627451 0.01960784 0.83137255
v 0.05293624 -0.00633763 0.01104487 0.08627451 0.01960784 0.83137255
v 0.05343142 -0.00485766 0.01122830 0.08627451 0.01960784 0.83137255
v 0.05371631 -0.00390374 0.01132531 0.08627451 0.01960784 0.83137255
v 0.05391076 -0.00287934 0.01139233 0.08627451 0.01960784 0.83137255
v 0.05302668 -0.00178195 0.01170452 0.08627451 0.01960784 0.83137255
v 0.05148915 -0.00178195 0.01194615 0.08627451 0.01960784 0.83137255
v 0.04995163 -0.00178195 0.01200083 0.08627451 0.01960784 0.83137255
v 0.04841410 -0.00178195 0.01200260 0.08627451 0.01960784 0.83137255
v 0.04380377 -0.00178195 0.01199907 0.08627451 0.01960784 0.83137255
v 0.04226624 -0.00178195 0.01199378 0.08627451 0.01960784 0.83137255
v 0.03573173 -0.00178195 0.01195674 0.08627451 0.01960784 0.83137255
v 0.04226624 -0.00331981 0.01196556 0.08627451 0.01960784 0.83137255
v 0.03573173 -0.00331981 0.01192323 0.08627451 0.01960784 0.83137255
v 0.03573173 -0.00178195 -0.00243912 0.08627451 0.01960784 0.83137255
v 0.03573173 -0.00024410 -0.00253436 0.08627451 0.01960784 0.83137255
v 0.03898542 -0.00024410 -0.00599487 0.08627451 0.01960784 0.83137255
v 0.05543247 -0.00580403 0.00991077 0.08627451 0.01960784 0.83137255
v 0.05458456 -0.00634769 0.01022825 0.08627451 0.01960784 0.83137255
v 0.05556587 -0.00897790 -0.00599487 0.08627451 0.01960784 0.83137255
v 0.05553195 -0.00893763 -0.00479375 0.08627451 0.01960784 0.83137255
v 0.05544603 -0.00883192 -0.00171774 0.08627451 0.01960784 0.83137255
v 0.05619445 -0.00793337 -0.00325574 0.08627451 0.01960784 0.83137255
v 0.05686372 -0.00714808 -0.00571796 0.08627451 0.01960784 0.83137255
v 0.05680720 -0.00702979 -0.00325574 0.08627451 0.01960784 0.83137255
v 0.05676650 -0.00694421 -0.00171774 0.08627451 0.01960784 0.83137255
v 0.05672354 -0.00685108 -0.00017973 0.08627451 0.01960784 0.83137255
v 0.05667832 -0.00674537 0.00135827 0.08627451 0.01960784 0.83137255
v 0.05663310 -0.00663211 0.00289451 0.08627451 0.01960784 0.83137255
v 0.05657657 -0.00650878 0.00443075 0.08627451 0.01960784 0.83137255
v 0.05656752 -0.00626212 0.00593171 0.08627451 0.01960784 0.83137255
v 0.05640473 -0.00478467 0.00896892 0.08627451 0.01960784 0.83137255
v 0.05684789 -0.00556996 0.00641851 0.08627451 0.01960784 0.83137255
v 0.05673258 -0.00529813 0.00750676 0.08627451 0.01960784 0.83137255
v 0.05705818 -0.00453046 0.00750676 0.08627451 0.01960784 0.83137255
v 0.05743577 -0.00331981 0.00750676 0.08627451 0.01960784 0.83137255
v 0.05704687 -0.00331981 0.00865850 0.08627451 0.01960784 0.83137255
v 0.05665797 -0.00331981 0.00942750 0.08627451 0.01960784 0.83137255
v 0.05456421 -0.00485766 0.01072386 0.08627451 0.01960784 0.83137255
v 0.05447829 -0.00336260 0.01108367 0.08627451 0.01960784 0.83137255
v 0.05479032 -0.00178195 0.01113130 0.08627451 0.01960784 0.83137255
v 0.05401930 -0.00178195 0.01143290 0.08627451 0.01960784 0.83137255
v 0.05412104 -0.00024410 0.01146641 0.08627451 0.01960784 0.83137255
v 0.05302668 -0.00024410 0.01175919 0.08627451 0.01960784 0.83137255
v 0.05148915 -0.00024410 0.01197967 0.08627451 0.01960784 0.83137255
v 0.04995163 -0.00024410 0.01202376 0.08627451 0.01960784 0.83137255
v 0.04380377 -0.00024410 0.01201318 0.08627451 0.01960784 0.83137255
v 0.04226624 -0.00024410 0.01200965 0.08627451 0.01960784 0.83137255
v 0.04072870 -0.00024410 0.01200436 0.08627451 0.01960784 0.83137255
v 0.03765139 -0.00024410 0.01199025 0.08627451 0.01960784 0.83137255
v 0.03573173 -0.00062919 0.01197438 0.08627451 0.01960784 0.83137255
v 0.03573173 0.00082812 -0.00254318 0.08627451 0.01960784 0.83137255
v 0.03573173 0.00129124 -0.00254318 0.08627451 0.01960784 0.83137255
v 0.03900124 0.00019385 -0.00599487 0.08627451 0.01960784 0.83137255
v 0.05564274 -0.00485766 0.01007656 0.08627451 0.01960784 0.83137255
v 0.05641377 -0.00782011 -0.00599487 0.08627451 0.01960784 0.83137255
v 0.05627358 -0.00793337 -0.00479375 0.08627451 0.01960784 0.83137255
v 0.05665571 -0.00747025 -0.00599487 0.08627451 0.01960784 0.83137255
v 0.05701522 -0.00684605 -0.00599487 0.08627451 0.01960784 0.83137255
v 0.05717349 -0.00650123 -0.00599487 0.08627451 0.01960784 0.83137255
v 0.05715314 -0.00625960 -0.00325574 0.08627451 0.01960784 0.83137255
v 0.05711471 -0.00617654 -0.00171774 0.08627451 0.01960784 0.83137255
v 0.05707174 -0.00608090 -0.00017973 0.08627451 0.01960784 0.83137255
v 0.05702200 -0.00597770 0.00135827 0.08627451 0.01960784 0.83137255
v 0.05696999 -0.00586192 0.00289451 0.08627451 0.01960784 0.83137255
v 0.05691799 -0.00574111 0.00443075 0.08627451 0.01960784 0.83137255
v 0.05688633 -0.00566057 0.00539377 0.08627451 0.01960784 0.83137255
v 0.05713053 -0.00497596 0.00593171 0.08627451 0.01960784 0.83137255
v 0.05770258 -0.00331981 0.00596875 0.08627451 0.01960784 0.83137255
v 0.05801009 -0.00178195 0.00596875 0.08627451 0.01960784 0.83137255
v 0.05774102 -0.00178195 0.00750676 0.08627451 0.01960784 0.83137255
v 0.05719836 -0.00178195 0.00894070 0.08627451 0.01960784 0.83137255
v 0.05588920 -0.00331981 0.01026529 0.08627451 0.01960784 0.83137255
v 0.05680720 -0.00178195 0.00970970 0.08627451 0.01960784 0.83137255
v 0.05603843 -0.00178195 0.01036229 0.08627451 0.01960784 0.83137255
v 0.05625550 -0.00039008 0.01033407 0.08627451 0.01960784 0.83137255
v 0.05488981 -0.00024410 0.01117892 0.08627451 0.01960784 0.83137255
v 0.05488529 0.00129124 0.01118068 0.08627451 0.01960784 0.83137255
v 0.05411652 0.00129124 0.01146112 0.08627451 0.01960784 0.83137255
v 0.05302668 0.00129124 0.01173627 0.08627451 0.01960784 0.83137255
v 0.05148915 0.00129124 0.01195850 0.08627451 0.01960784 0.83137255
v 0.04995163 0.00129124 0.01201494 0.08627451 0.01960784 0.83137255
v 0.04841410 0.00129124 0.01201318 0.08627451 0.01960784 0.83137255
v 0.04226624 0.00129124 0.01199907 0.08627451 0.01960784 0.83137255
v 0.04072870 0.00129124 0.01199378 0.08627451 0.01960784 0.83137255
v 0.03611386 0.00129124 0.01197438 0.08627451 0.01960784 0.83137255
v 0.03573173 -0.00024410 0.01197967 0.08627451 0.01960784 0.83137255
v 0.03573173 0.00129124 0.01197261 0.08627451 0.01960784 0.83137255
v 0.03573173 0.00245658 -0.00249203 0.08627451 0.01960784 0.83137255
v 0.03904873 0.00129124 -0.00599487 0.08627451 0.01960784 0.83137255
v 0.05772293 -0.00517983 -0.00599487 0.08627451 0.01960784 0.83137255
v 0.05719158 -0.00633511 -0.00479375 0.08627451 0.01960784 0.83137255
v 0.05785633 -0.00485766 -0.00599487 0.08627451 0.01960784 0.83137255
v 0.05765058 -0.00485766 -0.00171774 0.08627451 0.01960784 0.83137255
v 0.05757370 -0.00485766 -0.00017973 0.08627451 0.01960784 0.83137255
v 0.05748326 -0.00485766 0.00135827 0.08627451 0.01960784 0.83137255
v 0.05738377 -0.00485766 0.00289451 0.08627451 0.01960784 0.83137255
v 0.05728202 -0.00485766 0.00443075 0.08627451 0.01960784 0.83137255
v 0.05780433 -0.00331981 0.00443075 0.08627451 0.01960784 0.83137255
v 0.05821585 -0.00178195 0.00289451 0.08627451 0.01960784 0.83137255
v 0.05811410 -0.00178195 0.00443075 0.08627451 0.01960784 0.83137255
v 0.05840126 -0.00093878 0.00196501 0.08627451 0.01960784 0.83137255
v 0.05820228 -0.00024410 0.00596875 0.08627451 0.01960784 0.83137255
v 0.05795130 -0.00024410 0.00750676 0.08627451 0.01960784 0.83137255
v 0.05726394 -0.00039008 0.00919644 0.08627451 0.01960784 0.83137255
v 0.05686825 -0.00100170 0.00981024 0.08627451 0.01960784 0.83137255
v 0.05693834 0.00002270 0.00988608 0.08627451 0.01960784 0.83137255
v 0.05610174 0.00129124 0.01048929 0.08627451 0.01960784 0.83137255
v 0.05474510 0.00282909 0.01111189 0.08627451 0.01960784 0.83137255
v 0.05397633 0.00282909 0.01141350 0.08627451 0.01960784 0.83137255
v 0.05302668 0.00282909 0.01163573 0.08627451 0.01960784 0.83137255
v 0.05148915 0.00436694 0.01178565 0.08627451 0.01960784 0.83137255
v 0.05148915 0.00282909 0.01187913 0.08627451 0.01960784 0.83137255
v 0.04995163 0.00436694 0.01191088 0.08627451 0.01960784 0.83137255
v 0.04995163 0.00282909 0.01197261 0.08627451 0.01960784 0.83137255
v 0.04841410 0.00436694 0.01194086 0.08627451 0.01960784 0.83137255
v 0.04841410 0.00282909 0.01198143 0.08627451 0.01960784 0.83137255
v 0.04534130 0.00436694 0.01194615 0.08627451 0.01960784 0.83137255
v 0.04380377 0.00436694 0.01194263 0.08627451 0.01960784 0.83137255
v 0.04226624 0.00282909 0.01196909 0.08627451 0.01960784 0.83137255
v 0.03573173 0.00436694 0.01191793 0.08627451 0.01960784 0.83137255
v 0.03573173 0.00398185 0.01192499 0.08627451 0.01960784 0.83137255
v 0.03573173 0.00415049 -0.00240561 0.08627451 0.01960784 0.83137255
v 0.03907586 0.00169898 -0.00599487 0.08627451 0.01960784 0.83137255
v 0.03573173 0.00436694 -0.00239326 0.08627451 0.01960784 0.83137255
v 0.05827464 -0.00360674 -0.00599487 0.08627451 0.01960784 0.83137255
v 0.05807340 -0.00331981 -0.00017973 0.08627451 0.01960784 0.83137255
v 0.05799426 -0.00331981 0.00135827 0.08627451 0.01960784 0.83137255
v 0.05790156 -0.00331981 0.00289451 0.08627451 0.01960784 0.83137255
v 0.05831760 -0.00170141 0.00141471 0.08627451 0.01960784 0.83137255
v 0.05834021 -0.00208902 -0.00017973 0.08627451 0.01960784 0.83137255
v 0.05842613 -0.00113510 0.00094026 0.08627451 0.01960784 0.83137255
v 0.05864545 -0.00024410 -0.00171774 0.08627451 0.01960784 0.83137255
v 0.05857536 -0.00024410 -0.00017973 0.08627451 0.01960784 0.83137255
v 0.05848943 -0.00035233 0.00141471 0.08627451 0.01960784 0.83137255
v 0.05845326 0.00010827 0.00289451 0.08627451 0.01960784 0.83137255
v 0.05842160 0.00040527 0.00386105 0.08627451 0.01960784 0.83137255
v 0.05821132 0.00129124 0.00596875 0.08627451 0.01960784 0.83137255
v 0.05795130 0.00129124 0.00750676 0.08627451 0.01960784 0.83137255
v 0.05737473 0.00129124 0.00904476 0.08627451 0.01960784 0.83137255
v 0.05694060 0.00129124 0.00988960 0.08627451 0.01960784 0.83137255
v 0.05689538 0.00222251 0.00984198 0.08627451 0.01960784 0.83137255
v 0.05621254 0.00277372 0.01025470 0.08627451 0.01960784 0.83137255
v 0.05587338 0.00436694 0.01022472 0.08627451 0.01960784 0.83137255
v 0.05444890 0.00432919 0.01103782 0.08627451 0.01960784 0.83137255
v 0.05386102 0.00379308 0.01137469 0.08627451 0.01960784 0.83137255
v 0.05308999 0.00432919 0.01149992 0.08627451 0.01960784 0.83137255
v 0.05148915 0.00590480 0.01161986 0.08627451 0.01960784 0.83137255
v 0.04995163 0.00590480 0.01178389 0.08627451 0.01960784 0.83137255
v 0.04841410 0.00590480 0.01183856 0.08627451 0.01960784 0.83137255
v 0.04687883 0.00436694 0.01194615 0.08627451 0.01960784 0.83137255
v 0.04687883 0.00590480 0.01185091 0.08627451 0.01960784 0.83137255
v 0.04534130 0.00590480 0.01185091 0.08627451 0.01960784 0.83137255
v 0.03611386 0.00590480 0.01181740 0.08627451 0.01960784 0.83137255
v 0.03573173 0.00590480 0.01181564 0.08627451 0.01960784 0.83137255
v 0.03921379 0.00320663 -0.00599487 0.08627451 0.01960784 0.83137255
v 0.03936754 0.00436694 -0.00599487 0.08627451 0.01960784 0.83137255
v 0.03573173 0.00600044 -0.00213399 0.08627451 0.01960784 0.83137255
v 0.05848492 -0.00283655 -0.00599487 0.08627451 0.01960784 0.83137255
v 0.05845552 -0.00273084 -0.00479375 0.08627451 0.01960784 0.83137255
v 0.05842839 -0.00262261 -0.00364730 0.08627451 0.01960784 0.83137255
v 0.05840126 -0.00250432 -0.00262255 0.08627451 0.01960784 0.83137255
v 0.05845326 -0.00132135 -0.00017973 0.08627451 0.01960784 0.83137255
v 0.05860701 -0.00178195 -0.00479375 0.08627451 0.01960784 0.83137255
v 0.05866128 -0.00178195 -0.00599487 0.08627451 0.01960784 0.83137255
v 0.05871328 -0.00024410 -0.00325574 0.08627451 0.01960784 0.83137255
v 0.05882860 -0.00024410 -0.00599487 0.08627451 0.01960784 0.83137255
v 0.05842160 0.00064438 0.00386105 0.08627451 0.01960784 0.83137255
v 0.05832438 0.00121069 0.00439724 0.08627451 0.01960784 0.83137255
v 0.05836734 0.00169395 0.00289451 0.08627451 0.01960784 0.83137255
v 0.05801913 0.00282909 0.00596875 0.08627451 0.01960784 0.83137255
v 0.05773650 0.00282909 0.00750676 0.08627451 0.01960784 0.83137255
v 0.05713958 0.00277372 0.00912766 0.08627451 0.01960784 0.83137255
v 0.05679816 0.00324942 0.00969559 0.08627451 0.01960784 0.83137255
v 0.05555908 0.00590480 0.00999719 0.08627451 0.01960784 0.83137255
v 0.05456421 0.00590480 0.01059511 0.08627451 0.01960784 0.83137255
v 0.05364396 0.00481748 0.01130591 0.08627451 0.01960784 0.83137255
v 0.05254282 0.00590480 0.01142585 0.08627451 0.01960784 0.83137255
v 0.05227827 0.00670015 0.01135706 0.08627451 0.01960784 0.83137255
v 0.05148915 0.00698960 0.01142761 0.08627451 0.01960784 0.83137255
v 0.04997197 0.00752571 0.01150874 0.08627451 0.01960784 0.83137255
v 0.04841410 0.00744265 0.01161457 0.08627451 0.01960784 0.83137255
v 0.04687883 0.00744265 0.01162691 0.08627451 0.01960784 0.83137255
v 0.04534130 0.00744265 0.01162339 0.08627451 0.01960784 0.83137255
v 0.03573173 0.00744265 0.01156518 0.08627451 0.01960784 0.83137255
v 0.03967052 0.00561787 -0.00599487 0.08627451 0.01960784 0.83137255
v 0.03573173 0.00637798 -0.00201229 0.08627451 0.01960784 0.83137255
v 0.05862962 -0.00198834 -0.00599487 0.08627451 0.01960784 0.83137255
v 0.05880373 0.00129124 -0.00599487 0.08627451 0.01960784 0.83137255
v 0.05875624 0.00129124 -0.00479375 0.08627451 0.01960784 0.83137255
v 0.05845326 0.00092628 0.00289451 0.08627451 0.01960784 0.83137255
v 0.05839673 0.00196326 0.00188564 0.08627451 0.01960784 0.83137255
v 0.05811636 0.00282909 0.00443075 0.08627451 0.01960784 0.83137255
v 0.05779981 0.00436694 0.00443075 0.08627451 0.01960784 0.83137255
v 0.05770032 0.00436694 0.00596875 0.08627451 0.01960784 0.83137255
v 0.05742673 0.00436694 0.00750676 0.08627451 0.01960784 0.83137255
v 0.05703783 0.00436694 0.00865144 0.08627451 0.01960784 0.83137255
v 0.05664214 0.00436694 0.00942044 0.08627451 0.01960784 0.83137255
v 0.05535107 0.00671022 0.00983140 0.08627451 0.01960784 0.83137255
v 0.05453934 0.00731177 0.01011537 0.08627451 0.01960784 0.83137255
v 0.05288650 0.00730422 0.01094610 0.08627451 0.01960784 0.83137255
v 0.05331158 0.00590480 0.01118068 0.08627451 0.01960784 0.83137255
v 0.05148915 0.00775979 0.01122654 0.08627451 0.01960784 0.83137255
v 0.05049880 0.00809454 0.01132002 0.08627451 0.01960784 0.83137255
v 0.04947227 0.00831351 0.01138704 0.08627451 0.01960784 0.83137255
v 0.04841410 0.00838651 0.01140997 0.08627451 0.01960784 0.83137255
v 0.04687883 0.00841168 0.01141526 0.08627451 0.01960784 0.83137255
v 0.04534130 0.00840664 0.01141174 0.08627451 0.01960784 0.83137255
v 0.04380377 0.00838902 0.01140644 0.08627451 0.01960784 0.83137255
v 0.03573173 0.00808951 0.01142408 0.08627451 0.01960784 0.83137255
v 0.03989211 0.00621690 -0.00599487 0.08627451 0.01960784 0.83137255
v 0.03573173 0.00745020 -0.00162249 0.08627451 0.01960784 0.83137255
v 0.05865675 0.00249182 -0.00599487 0.08627451 0.01960784 0.83137255
v 0.05842160 0.00213945 0.00086089 0.08627451 0.01960784 0.83137255
v 0.05862962 0.00129124 -0.00171774 0.08627451 0.01960784 0.83137255
v 0.05856405 0.00129124 -0.00017973 0.08627451 0.01960784 0.83137255
v 0.05848718 0.00138688 0.00136709 0.08627451 0.01960784 0.83137255
v 0.05830177 0.00272338 0.00136709 0.08627451 0.01960784 0.83137255
v 0.05820454 0.00282909 0.00289451 0.08627451 0.01960784 0.83137255
v 0.05788573 0.00436694 0.00289451 0.08627451 0.01960784 0.83137255
v 0.05736794 0.00590480 0.00289451 0.08627451 0.01960784 0.83137255
v 0.05718254 0.00580915 0.00596875 0.08627451 0.01960784 0.83137255
v 0.05704913 0.00551467 0.00750676 0.08627451 0.01960784 0.83137255
v 0.05692251 0.00524284 0.00838335 0.08627451 0.01960784 0.83137255
v 0.05631655 0.00581419 0.00895481 0.08627451 0.01960784 0.83137255
v 0.05556361 0.00731177 0.00894952 0.08627451 0.01960784 0.83137255
v 0.05538498 0.00827828 0.00837453 0.08627451 0.01960784 0.83137255
v 0.05503678 0.00773713 0.00939928 0.08627451 0.01960784 0.83137255
v 0.05401025 0.00845195 0.00996897 0.08627451 0.01960784 0.83137255
v 0.05301086 0.00897044 0.01021237 0.08627451 0.01960784 0.83137255
v 0.05148915 0.00898050 0.01075032 0.08627451 0.01960784 0.83137255
v 0.04997197 0.00888738 0.01108015 0.08627451 0.01960784 0.83137255
v 0.04841410 0.00915417 0.01112777 0.08627451 0.01960784 0.83137255
v 0.04687883 0.00917934 0.01115775 0.08627451 0.01960784 0.83137255
v 0.04534130 0.00917431 0.01116657 0.08627451 0.01960784 0.83137255
v 0.04380377 0.00915921 0.01116657 0.08627451 0.01960784 0.83137255
v 0.03573173 0.00830596 0.01137646 0.08627451 0.01960784 0.83137255
v 0.04226624 0.00914159 0.01116657 0.08627451 0.01960784 0.83137255
v 0.03919117 0.00910132 0.01116657 0.08627451 0.01960784 0.83137255
v 0.03611386 0.00907615 0.01116128 0.08627451 0.01960784 0.83137255
v 0.03573173 0.00907615 0.01115952 0.08627451 0.01960784 0.83137255
v 0.03573173 0.00888234 0.01121419 0.08627451 0.01960784 0.83137255
v 0.04044607 0.00747285 -0.00599487 0.08627451 0.01960784 0.83137255
v 0.03573173 0.00778999 -0.00146905 0.08627451 0.01960784 0.83137255
v 0.05861380 0.00282909 -0.00599487 0.08627451 0.01960784 0.83137255
v 0.05841482 0.00361941 -0.00390304 0.08627451 0.01960784 0.83137255
v 0.05796260 0.00436694 0.00135827 0.08627451 0.01960784 0.83137255
v 0.05744708 0.00590480 0.00135827 0.08627451 0.01960784 0.83137255
v 0.05695869 0.00684362 0.00289451 0.08627451 0.01960784 0.83137255
v 0.05718706 0.00605078 0.00454716 0.08627451 0.01960784 0.83137255
v 0.05691121 0.00675301 0.00411327 0.08627451 0.01960784 0.83137255
v 0.05686599 0.00665988 0.00513802 0.08627451 0.01960784 0.83137255
v 0.05682755 0.00657934 0.00596875 0.08627451 0.01960784 0.83137255
v 0.05668284 0.00628486 0.00750676 0.08627451 0.01960784 0.83137255
v 0.05609948 0.00744265 0.00750676 0.08627451 0.01960784 0.83137255
v 0.05551839 0.00845446 0.00750676 0.08627451 0.01960784 0.83137255
v 0.05487398 0.00922213 0.00750676 0.08627451 0.01960784 0.83137255
v 0.05391754 0.00986144 0.00846624 0.08627451 0.01960784 0.83137255
v 0.05447603 0.00887731 0.00893188 0.08627451 0.01960784 0.83137255
v 0.05351281 0.00947634 0.00949099 0.08627451 0.01960784 0.83137255
v 0.05248855 0.00991429 0.00994604 0.08627451 0.01960784 0.83137255
v 0.05148915 0.01013327 0.01010478 0.08627451 0.01960784 0.83137255
v 0.04995163 0.01038748 0.01026705 0.08627451 0.01960784 0.83137255
v 0.04853393 0.01066686 0.01027587 0.08627451 0.01960784 0.83137255
v 0.04687883 0.01051836 0.01045577 0.08627451 0.01960784 0.83137255
v 0.04534130 0.01051836 0.01046636 0.08627451 0.01960784 0.83137255
v 0.03919117 0.01051836 0.01046636 0.08627451 0.01960784 0.83137255
v 0.03765139 0.01051836 0.01046459 0.08627451 0.01960784 0.83137255
v 0.03611386 0.01051836 0.01046106 0.08627451 0.01960784 0.83137255
v 0.03573173 0.01051836 0.01045930 0.08627451 0.01960784 0.83137255
v 0.04113570 0.00887228 -0.00599487 0.08627451 0.01960784 0.83137255
v 0.03573173 0.00870364 -0.00103516 0.08627451 0.01960784 0.83137255
v 0.05846004 0.00378553 -0.00599487 0.08627451 0.01960784 0.83137255
v 0.05843517 0.00368989 -0.00479375 0.08627451 0.01960784 0.83137255
v 0.05810279 0.00436694 -0.00171774 0.08627451 0.01960784 0.83137255
v 0.05823846 0.00455571 -0.00599487 0.08627451 0.01960784 0.83137255
v 0.05751492 0.00590480 -0.00017973 0.08627451 0.01960784 0.83137255
v 0.05699939 0.00692668 0.00135827 0.08627451 0.01960784 0.83137255
v 0.05658335 0.00769435 0.00135827 0.08627451 0.01960784 0.83137255
v 0.05654039 0.00761129 0.00289451 0.08627451 0.01960784 0.83137255
v 0.05656074 0.00733694 0.00454716 0.08627451 0.01960784 0.83137255
v 0.05638212 0.00744265 0.00596875 0.08627451 0.01960784 0.83137255
v 0.05565857 0.00863568 0.00596875 0.08627451 0.01960784 0.83137255
v 0.05503452 0.00940335 0.00596875 0.08627451 0.01960784 0.83137255
v 0.05410521 0.01003762 0.00750676 0.08627451 0.01960784 0.83137255
v 0.05294755 0.01086570 0.00752087 0.08627451 0.01960784 0.83137255
v 0.05211547 0.01122310 0.00804294 0.08627451 0.01960784 0.83137255
v 0.05301086 0.01018612 0.00900419 0.08627451 0.01960784 0.83137255
v 0.05155699 0.01094120 0.00905711 0.08627451 0.01960784 0.83137255
v 0.04995163 0.01115514 0.00963033 0.08627451 0.01960784 0.83137255
v 0.04912633 0.01127848 0.00980494 0.08627451 0.01960784 0.83137255
v 0.04809980 0.01132630 0.00985609 0.08627451 0.01960784 0.83137255
v 0.04687883 0.01134643 0.00987902 0.08627451 0.01960784 0.83137255
v 0.04380377 0.01134643 0.00988255 0.08627451 0.01960784 0.83137255
v 0.03919117 0.01134643 0.00988255 0.08627451 0.01960784 0.83137255
v 0.03573173 0.01134643 0.00988079 0.08627451 0.01960784 0.83137255
v 0.04145903 0.00946376 -0.00599487 0.08627451 0.01960784 0.83137255
v 0.03573173 0.00927750 -0.00073179 0.08627451 0.01960784 0.83137255
v 0.05841256 0.00395416 -0.00599487 0.08627451 0.01960784 0.83137255
v 0.05776363 0.00590480 -0.00599487 0.08627451 0.01960784 0.83137255
v 0.05716445 0.00727402 -0.00599487 0.08627451 0.01960784 0.83137255
v 0.05703556 0.00699715 -0.00017973 0.08627451 0.01960784 0.83137255
v 0.05677780 0.00804168 -0.00599487 0.08627451 0.01960784 0.83137255
v 0.05662405 0.00776734 -0.00017973 0.08627451 0.01960784 0.83137255
v 0.05577163 0.00876908 0.00289451 0.08627451 0.01960784 0.83137255
v 0.05571962 0.00870867 0.00443075 0.08627451 0.01960784 0.83137255
v 0.05509104 0.00947634 0.00443075 0.08627451 0.01960784 0.83137255
v 0.05426575 0.01018360 0.00596875 0.08627451 0.01960784 0.83137255
v 0.05326410 0.01095127 0.00596875 0.08627451 0.01960784 0.83137255
v 0.05238454 0.01135398 0.00701643 0.08627451 0.01960784 0.83137255
v 0.05155699 0.01157548 0.00752087 0.08627451 0.01960784 0.83137255
v 0.05108895 0.01143704 0.00855443 0.08627451 0.01960784 0.83137255
v 0.04995163 0.01159309 0.00886133 0.08627451 0.01960784 0.83137255
v 0.04853393 0.01166357 0.00919292 0.08627451 0.01960784 0.83137255
v 0.04687883 0.01184227 0.00904476 0.08627451 0.01960784 0.83137255
v 0.04380377 0.01184227 0.00904476 0.08627451 0.01960784 0.83137255
v 0.03573173 0.01183975 0.00904476 0.08627451 0.01960784 0.83137255
v 0.03573173 0.00960974 -0.00053249 0.08627451 0.01960784 0.83137255
v 0.04156982 0.00962233 -0.00599487 0.08627451 0.01960784 0.83137255
v 0.05581459 0.00882445 0.00135827 0.08627451 0.01960784 0.83137255
v 0.05607461 0.00898050 -0.00599487 0.08627451 0.01960784 0.83137255
v 0.05519279 0.00959212 0.00135827 0.08627451 0.01960784 0.83137255
v 0.05514305 0.00953927 0.00289451 0.08627451 0.01960784 0.83137255
v 0.05432228 0.01023143 0.00443075 0.08627451 0.01960784 0.83137255
v 0.05378640 0.01128099 -0.00566152 0.08627451 0.01960784 0.83137255
v 0.05348794 0.01109222 0.00135827 0.08627451 0.01960784 0.83137255
v 0.05342237 0.01104692 0.00289451 0.08627451 0.01960784 0.83137255
v 0.05335228 0.01100161 0.00443075 0.08627451 0.01960784 0.83137255
v 0.05249533 0.01141943 0.00596875 0.08627451 0.01960784 0.83137255
v 0.05148915 0.01184982 0.00596875 0.08627451 0.01960784 0.83137255
v 0.04995163 0.01205873 0.00750676 0.08627451 0.01960784 0.83137255
v 0.04841410 0.01233308 0.00750676 0.08627451 0.01960784 0.83137255
v 0.04687883 0.01246396 0.00750676 0.08627451 0.01960784 0.83137255
v 0.03573173 0.01245137 0.00750676 0.08627451 0.01960784 0.83137255
v 0.03573173 0.01035476 0.00004426 0.08627451 0.01960784 0.83137255
v 0.04242451 0.01059638 -0.00599487 0.08627451 0.01960784 0.83137255
v 0.05539855 0.00982368 -0.00599487 0.08627451 0.01960784 0.83137255
v 0.05523801 0.00963994 -0.00017973 0.08627451 0.01960784 0.83137255
v 0.05442403 0.01032455 0.00135827 0.08627451 0.01960784 0.83137255
v 0.05437428 0.01027925 0.00289451 0.08627451 0.01960784 0.83137255
v 0.05379997 0.01128854 -0.00599487 0.08627451 0.01960784 0.83137255
v 0.05343368 0.01149997 -0.00599487 0.08627451 0.01960784 0.83137255
v 0.05265361 0.01151003 0.00289451 0.08627451 0.01960784 0.83137255
v 0.05355125 0.01113501 -0.00017973 0.08627451 0.01960784 0.83137255
v 0.05258351 0.01146976 0.00443075 0.08627451 0.01960784 0.83137255
v 0.05148915 0.01195302 0.00443075 0.08627451 0.01960784 0.83137255
v 0.04995163 0.01228525 0.00596875 0.08627451 0.01960784 0.83137255
v 0.04841410 0.01255708 0.00596875 0.08627451 0.01960784 0.83137255
v 0.04687883 0.01268545 0.00596875 0.08627451 0.01960784 0.83137255
v 0.03573173 0.01260239 0.00596875 0.08627451 0.01960784 0.83137255
v 0.03573173 0.01054856 0.00021535 0.08627451 0.01960784 0.83137255
v 0.04304857 0.01127093 -0.00599487 0.08627451 0.01960784 0.83137255
v 0.04270489 0.01090093 -0.00599487 0.08627451 0.01960784 0.83137255
v 0.05522445 0.00998477 -0.00599487 0.08627451 0.01960784 0.83137255
v 0.05445116 0.01069958 -0.00599487 0.08627451 0.01960784 0.83137255
v 0.05415948 0.01096637 -0.00599487 0.08627451 0.01960784 0.83137255
v 0.05314200 0.01166608 -0.00599487 0.08627451 0.01960784 0.83137255
v 0.05297694 0.01169881 -0.00479375 0.08627451 0.01960784 0.83137255
v 0.05148915 0.01246144 -0.00599487 0.08627451 0.01960784 0.83137255
v 0.05148915 0.01240607 -0.00479375 0.08627451 0.01960784 0.83137255
v 0.05148915 0.01203104 0.00289451 0.08627451 0.01960784 0.83137255
v 0.05049202 0.01278864 -0.00599487 0.08627451 0.01960784 0.83137255
v 0.04995163 0.01238845 0.00443075 0.08627451 0.01960784 0.83137255
v 0.04841410 0.01264769 0.00443075 0.08627451 0.01960784 0.83137255
v 0.04771994 0.01283395 0.00242182 0.08627451 0.01960784 0.83137255
v 0.04687883 0.01275341 0.00443075 0.08627451 0.01960784 0.83137255
v 0.04739209 0.01283395 0.00242182 0.08627451 0.01960784 0.83137255
v 0.04841410 0.01305544 -0.00599487 0.08627451 0.01960784 0.83137255
v 0.04810659 0.01304286 -0.00599487 0.08627451 0.01960784 0.83137255
v 0.04697831 0.01297741 -0.00599487 0.08627451 0.01960784 0.83137255
v 0.03573173 0.01255457 0.00481525 0.08627451 0.01960784 0.83137255
v 0.03573173 0.01112494 0.00076741 0.08627451 0.01960784 0.83137255
v 0.03573173 0.01128854 0.00095966 0.08627451 0.01960784 0.83137255
v 0.04341938 0.01154024 -0.00599487 0.08627451 0.01960784 0.83137255
v 0.04972326 0.01290190 -0.00599487 0.08627451 0.01960784 0.83137255
v 0.04925069 0.01283647 -0.00224510 0.08627451 0.01960784 0.83137255
v 0.05033375 0.01276347 -0.00479375 0.08627451 0.01960784 0.83137255
v 0.04995163 0.01246396 0.00289451 0.08627451 0.01960784 0.83137255
v 0.04841410 0.01296231 -0.00325574 0.08627451 0.01960784 0.83137255
v 0.04841410 0.01301517 -0.00479375 0.08627451 0.01960784 0.83137255
v 0.04947227 0.01293211 -0.00599487 0.08627451 0.01960784 0.83137255
v 0.04620955 0.01280123 -0.00599487 0.08627451 0.01960784 0.83137255
v 0.03573173 0.01230036 0.00289451 0.08627451 0.01960784 0.83137255
v 0.03573173 0.01237083 0.00327725 0.08627451 0.01960784 0.83137255
v 0.03573173 0.01253443 0.00443075 0.08627451 0.01960784 0.83137255
v 0.03573173 0.01169629 0.00153641 0.08627451 0.01960784 0.83137255
v 0.04357314 0.01164091 -0.00599487 0.08627451 0.01960784 0.83137255
v 0.04983857 0.01270810 -0.00172656 0.08627451 0.01960784 0.83137255
v 0.05014155 0.01272572 -0.00325574 0.08627451 0.01960784 0.83137255
v 0.04995163 0.01261246 -0.00017973 0.08627451 0.01960784 0.83137255
v 0.04601057 0.01274585 -0.00599487 0.08627451 0.01960784 0.83137255
v 0.03573173 0.01184479 0.00184683 0.08627451 0.01960784 0.83137255
v 0.04534130 0.01254702 -0.00599487 0.08627451 0.01960784 0.83137255
v 0.04500439 0.01239348 -0.00599487 0.08627451 0.01960784 0.83137255
v 0.04370654 0.01172649 -0.00599487 0.08627451 0.01960784 0.83137255
f 1 2 3
f 1 3 8
f 1 8 4
f 1 4 5
f 1 5 13
f 1 13 26
f 1 26 48
f 1 48 68
f 1 68 89
f 1 89 112
f 1 112 144
f 1 144 182
f 1 182 212
f 1 212 211
f 1 211 178
f 1 178 210
f 1 210 242
f 1 242 240
f 1 240 279
f 1 279 315
f 1 315 316
f 1 316 350
f 1 350 349
f 1 349 383
f 1 383 413
f 1 413 438
f 1 438 465
f 1 465 470
f 1 470 469
f 1 469 498
f 1 498 524
f 1 524 545
f 1 545 562
f 1 562 578
f 1 578 599
f 1 599 613
f 1 613 612
f 1 612 611
f 1 611 620
f 1 620 614
f 1 614 601
f 1 601 600
f 1 600 579
f 1 579 563
f 1 563 546
f 1 546 526
f 1 526 500
f 1 500 472
f 1 472 440
f 1 440 415
f 1 415 386
f 1 386 353
f 1 353 351
f 1 351 317
f 1 317 281
f 1 281 280
f 1 280 244
f 1 244 243
f 1 243 214
f 1 214 213
f 1 213 183
f 1 183 145
f 1 145 116
f 1 116 90
f 1 90 69
f 1 69 50
f 1 50 49
f 1 49 29
f 1 29 15
f 1 15 7
f 1 7 2
f 2 6 3
f 2 7 6
f 3 6 14
f 3 14 27
f 3 27 28
f 3 28 32
f 3 32 31
f 3 31 30
f 3 30 51
f 3 51 70
f 3 70 91
f 3 91 115
f 3 115 117
f 3 117 147
f 3 147 146
f 3 146 184
f 3 184 215
f 3 215 245
f 3 245 282
f 3 282 318
f 3 318 352
f 3 352 384
f 3 384 385
f 3 385 414
f 3 414 439
f 3 439 471
f 3 471 499
f 3 499 525
f 3 525 547
f 3 547 564
f 3 564 581
f 3 581 580
f 3 580 602
f 3 602 615
f 3 615 623
f 3 623 622
f 3 622 621
f 3 621 619
f 3 619 610
f 3 610 598
f 3 598 597
f 3 597 596
f 3 596 609
f 3 609 603
f 3 603 590
f 3 590 587
f 3 587 585
f 3 585 570
f 3 570 569
f 3 569 584
f 3 584 583
f 3 583 582
f 3 582 565
f 3 565 549
f 3 549 531
f 3 531 529
f 3 529 528
f 3 528 504
f 3 504 527
f 3 527 501
f 3 501 473
f 3 473 441
f 3 441 417
f 3 417 395
f 3 395 393
f 3 393 416
f 3 416 387
f 3 387 354
f 3 354 321
f 3 321 319
f 3 319 288
f 3 288 287
f 3 287 286
f 3 286 284
f 3 284 248
f 3 248 218
f 3 218 186
f 3 186 200
f 3 200 199
f 3 199 198
f 3 198 164
f 3 164 133
f 3 133 103
f 3 103 81
f 3 81 59
f 3 59 39
f 3 39 20
f 3 20 8
f 4 8 9
f 4 9 10
f 4 10 11
f 4 11 5
f 5 11 12
f 5 12 13
f 6 7 14
f 7 15 14
f 8 16 17
f 8 17 18
f 8 18 19
f 8 19 9
f 8 20 16
f 9 19 21
f 9 21 10
f 10 21 22
f 10 22 23
f 10 23 12
f 10 12 11
f 12 23 24
f 12 24 25
f 12 25 13
f 13 25 26
f 14 15 27
f 15 28 27
f 15 29 30
f 15 30 31
f 15 31 32
f 15 32 28
f 16 33 34
f 16 34 35
f 16 35 17
f 16 20 33
f 17 35 34
f 17 34 36
f 17 36 37
f 17 37 18
f 18 37 38
f 18 38 21
f 18 21 19
f 20 39 40
f 20 40 41
f 20 41 33
f 21 38 42
f 21 42 22
f 22 42 43
f 22 43 24
f 22 24 23
f 24 43 44
f 24 44 45
f 24 45 25
f 25 45 46
f 25 46 26
f 26 46 47
f 26 47 48
f 29 49 30
f 30 50 51
f 30 49 50
f 33 41 34
f 34 52 53
f 34 53 54
f 34 54 55
f 34 55 56
f 34 56 36
f 34 41 52
f 36 56 57
f 36 57 58
f 36 58 37
f 37 58 42
f 37 42 38
f 39 59 40
f 40 59 60
f 40 60 61
f 40 61 53
f 40 53 52
f 40 52 41
f 42 58 62
f 42 62 43
f 43 62 63
f 43 63 44
f 44 63 64
f 44 64 65
f 44 65 45
f 45 66 47
f 45 47 46
f 45 65 66
f 47 66 67
f 47 67 48
f 48 67 68
f 50 69 51
f 51 69 70
f 53 61 54
f 54 61 55
f 55 61 71
f 55 71 72
f 55 72 73
f 55 73 74
f 55 74 75
f 55 75 76
f 55 76 77
f 55 77 78
f 55 78 56
f 56 78 79
f 56 79 57
f 57 79 80
f 57 80 58
f 58 80 62
f 59 81 60
f 60 81 82
f 60 82 61
f 61 82 71
f 62 80 83
f 62 83 63
f 63 83 84
f 63 84 64
f 64 84 85
f 64 85 86
f 64 86 65
f 65 86 87
f 65 87 66
f 66 87 67
f 67 87 88
f 67 88 68
f 68 88 89
f 69 90 91
f 69 91 70
f 71 82 72
f 72 82 92
f 72 92 73
f 73 92 93
f 73 93 74
f 74 93 94
f 74 94 75
f 75 94 76
f 76 95 77
f 76 94 96
f 76 96 97
f 76 97 98
f 76 98 95
f 77 95 99
f 77 99 78
f 78 99 79
f 79 99 100
f 79 100 80
f 80 100 101
f 80 101 102
f 80 102 83
f 81 103 82
f 82 103 104
f 82 104 92
f 83 102 105
f 83 105 84
f 84 105 106
f 84 106 85
f 85 106 107
f 85 107 108
f 85 108 86
f 86 108 109
f 86 109 110
f 86 110 111
f 86 111 112
f 86 112 113
f 86 113 114
f 86 114 88
f 86 88 87
f 88 114 89
f 89 114 113
f 89 113 112
f 90 115 91
f 90 116 117
f 90 117 115
f 92 104 118
f 92 118 119
f 92 119 120
f 92 120 121
f 92 121 93
f 93 121 94
f 94 121 122
f 94 122 96
f 95 98 123
f 95 123 124
f 95 124 99
f 96 122 97
f 97 125 98
f 97 122 121
f 97 121 120
f 97 120 126
f 97 126 127
f 97 127 128
f 97 128 129
f 97 129 125
f 98 125 130
f 98 130 123
f 99 124 100
f 100 124 101
f 101 124 131
f 101 131 132
f 101 132 102
f 102 132 105
f 103 133 104
f 104 133 134
f 104 134 118
f 105 132 135
f 105 135 106
f 106 135 136
f 106 136 107
f 107 136 137
f 107 137 138
f 107 138 108
f 108 138 139
f 108 139 109
f 109 139 140
f 109 140 141
f 109 141 142
f 109 142 110
f 110 112 111
f 110 142 143
f 110 143 112
f 112 143 144
f 116 145 146
f 116 146 147
f 116 147 117
f 118 134 148
f 118 148 119
f 119 148 120
f 120 148 126
f 123 130 149
f 123 149 131
f 123 131 124
f 125 129 150
f 125 150 130
f 126 148 151
f 126 151 152
f 126 152 127
f 127 153 154
f 127 154 155
f 127 155 128
f 127 152 156
f 127 156 153
f 128 155 129
f 129 155 157
f 129 157 158
f 129 158 150
f 130 150 159
f 130 159 160
f 130 160 149
f 131 149 161
f 131 161 162
f 131 162 132
f 132 162 163
f 132 163 135
f 133 164 165
f 133 165 134
f 134 165 166
f 134 166 167
f 134 167 168
f 134 168 148
f 135 163 169
f 135 169 136
f 136 169 137
f 137 170 171
f 137 171 172
f 137 172 138
f 137 169 170
f 138 172 173
f 138 173 139
f 139 173 174
f 139 174 175
f 139 175 140
f 140 175 176
f 140 176 141
f 141 176 177
f 141 177 142
f 142 177 178
f 142 178 179
f 142 179 143
f 143 179 180
f 143 180 181
f 143 181 144
f 144 181 182
f 145 183 146
f 146 183 184
f 148 168 156
f 148 156 152
f 148 152 151
f 149 160 185
f 149 185 161
f 150 158 159
f 153 156 186
f 153 186 187
f 153 187 188
f 153 188 189
f 153 189 154
f 154 189 188
f 154 188 155
f 155 188 157
f 156 168 186
f 157 188 190
f 157 190 191
f 157 191 192
f 157 192 158
f 158 192 193
f 158 193 159
f 159 185 160
f 159 193 194
f 159 194 195
f 159 195 185
f 161 185 196
f 161 196 163
f 161 163 162
f 163 197 169
f 163 196 197
f 164 198 165
f 165 198 199
f 165 199 166
f 166 199 200
f 166 200 186
f 166 186 167
f 167 186 168
f 169 197 170
f 170 201 171
f 170 197 201
f 171 202 203
f 171 203 204
f 171 204 172
f 171 201 202
f 172 204 205
f 172 205 173
f 173 205 206
f 173 206 207
f 173 207 208
f 173 208 174
f 174 208 175
f 175 208 209
f 175 209 176
f 176 209 210
f 176 210 177
f 177 210 178
f 178 211 180
f 178 180 179
f 180 211 212
f 180 212 181
f 181 212 182
f 183 213 184
f 184 213 214
f 184 214 215
f 185 195 216
f 185 216 217
f 185 217 196
f 186 218 219
f 186 219 187
f 187 219 220
f 187 220 221
f 187 221 188
f 188 221 222
f 188 222 223
f 188 223 190
f 190 223 224
f 190 224 191
f 191 224 225
f 191 225 192
f 192 225 226
f 192 226 193
f 193 226 194
f 194 227 216
f 194 216 195
f 194 226 228
f 194 228 229
f 194 229 227
f 196 217 230
f 196 230 197
f 197 230 201
f 201 231 202
f 201 230 231
f 202 231 232
f 202 232 203
f 203 232 233
f 203 233 234
f 203 234 204
f 204 234 235
f 204 235 205
f 205 235 236
f 205 236 206
f 206 236 207
f 207 236 237
f 207 237 208
f 208 237 238
f 208 238 239
f 208 239 209
f 209 239 240
f 209 240 241
f 209 241 210
f 210 241 242
f 214 243 215
f 215 244 245
f 215 243 244
f 216 227 246
f 216 246 217
f 217 246 247
f 217 247 230
f 218 248 249
f 218 249 219
f 219 249 250
f 219 250 251
f 219 251 220
f 220 251 252
f 220 252 253
f 220 253 221
f 221 223 222
f 221 253 223
f 223 253 254
f 223 254 255
f 223 255 224
f 224 255 256
f 224 256 257
f 224 257 225
f 225 257 258
f 225 258 259
f 225 259 226
f 226 259 228
f 227 229 260
f 227 260 246
f 228 259 261
f 228 261 262
f 228 262 229
f 229 262 263
f 229 263 264
f 229 264 265
f 229 265 266
f 229 266 260
f 230 247 267
f 230 267 231
f 231 267 232
f 232 268 233
f 232 267 268
f 233 268 269
f 233 269 270
f 233 270 234
f 234 270 271
f 234 271 272
f 234 272 235
f 235 272 273
f 235 273 236
f 236 273 274
f 236 274 237
f 237 274 238
f 238 274 275
f 238 275 276
f 238 276 277
f 238 277 239
f 239 277 278
f 239 278 279
f 239 279 240
f 240 242 241
f 244 280 245
f 245 280 281
f 245 281 282
f 246 283 267
f 246 267 247
f 246 260 266
f 246 266 283
f 248 284 285
f 248 285 251
f 248 251 249
f 249 251 250
f 251 285 284
f 251 284 286
f 251 286 252
f 252 286 287
f 252 287 253
f 253 287 288
f 253 288 289
f 253 289 290
f 253 290 254
f 254 290 255
f 255 290 291
f 255 291 256
f 256 291 292
f 256 292 257
f 257 292 293
f 257 293 294
f 257 294 295
f 257 295 258
f 258 295 261
f 258 261 259
f 261 295 296
f 261 296 263
f 261 263 262
f 263 297 264
f 263 296 297
f 264 297 298
f 264 298 299
f 264 299 265
f 265 299 300
f 265 300 266
f 266 301 283
f 266 300 302
f 266 302 301
f 267 283 301
f 267 301 268
f 268 301 269
f 269 301 303
f 269 303 304
f 269 304 305
f 269 305 270
f 270 305 271
f 271 305 306
f 271 306 307
f 271 307 272
f 272 307 308
f 272 308 309
f 272 309 273
f 273 309 310
f 273 310 274
f 274 310 311
f 274 311 275
f 275 311 276
f 276 311 312
f 276 312 313
f 276 313 277
f 277 313 314
f 277 314 278
f 278 315 279
f 278 314 316
f 278 316 315
f 281 317 282
f 282 317 318
f 288 319 320
f 288 320 289
f 289 320 321
f 289 321 290
f 290 321 322
f 290 322 323
f 290 323 291
f 291 323 324
f 291 324 292
f 292 324 325
f 292 325 293
f 293 325 326
f 293 326 294
f 294 326 295
f 295 326 296
f 296 326 297
f 297 327 328
f 297 328 329
f 297 329 298
f 297 326 325
f 297 325 327
f 298 329 330
f 298 330 331
f 298 331 332
f 298 332 299
f 299 332 300
f 300 332 333
f 300 333 334
f 300 334 302
f 301 302 334
f 301 334 303
f 303 334 335
f 303 335 304
f 304 335 336
f 304 336 305
f 305 336 306
f 306 336 337
f 306 337 338
f 306 338 307
f 307 338 308
f 308 338 339
f 308 339 340
f 308 340 341
f 308 341 309
f 309 341 342
f 309 342 343
f 309 343 310
f 310 343 344
f 310 344 345
f 310 345 311
f 311 345 346
f 311 346 347
f 311 347 348
f 311 348 312
f 312 348 349
f 312 349 313
f 313 349 350
f 313 350 314
f 314 350 316
f 317 351 318
f 318 351 353
f 318 353 352
f 319 321 320
f 321 354 322
f 322 354 323
f 323 354 355
f 323 355 356
f 323 356 324
f 324 356 357
f 324 357 327
f 324 327 325
f 327 357 328
f 328 358 330
f 328 330 329
f 328 357 359
f 328 359 358
f 330 358 360
f 330 360 361
f 330 361 362
f 330 362 363
f 330 363 364
f 330 364 365
f 330 365 331
f 331 365 366
f 331 366 332
f 332 366 367
f 332 367 368
f 332 368 333
f 333 368 335
f 333 335 334
f 335 368 369
f 335 369 336
f 336 369 370
f 336 370 371
f 336 371 337
f 337 372 373
f 337 373 374
f 337 374 338
f 337 371 372
f 338 374 339
f 339 374 375
f 339 375 340
f 340 342 341
f 340 375 376
f 340 376 377
f 340 377 342
f 342 344 343
f 342 377 378
f 342 378 344
f 344 379 345
f 344 378 380
f 344 380 379
f 345 379 346
f 346 379 380
f 346 380 381
f 346 381 347
f 347 349 348
f 347 381 349
f 349 381 382
f 349 382 383
f 352 353 384
f 353 385 384
f 353 386 385
f 354 387 355
f 355 387 388
f 355 388 389
f 355 389 356
f 356 389 390
f 356 390 359
f 356 359 357
f 358 359 360
f 359 390 360
f 360 391 392
f 360 392 393
f 360 393 361
f 360 390 391
f 361 394 365
f 361 365 364
f 361 364 362
f 361 393 394
f 362 364 363
f 365 394 395
f 365 395 396
f 365 396 366
f 366 396 397
f 366 397 398
f 366 398 399
f 366 399 367
f 367 399 400
f 367 400 401
f 367 401 368
f 368 401 370
f 368 370 369
f 370 401 402
f 370 402 372
f 370 372 371
f 372 402 403
f 372 403 404
f 372 404 373
f 373 404 405
f 373 405 374
f 374 405 375
f 375 405 406
f 375 406 376
f 376 406 407
f 376 407 408
f 376 408 409
f 376 409 377
f 377 409 410
f 377 410 378
f 378 410 411
f 378 411 380
f 380 411 381
f 381 411 412
f 381 412 382
f 382 412 383
f 383 412 413
f 385 386 414
f 386 415 414
f 387 416 388
f 388 416 389
f 389 416 390
f 390 416 393
f 390 393 392
f 390 392 391
f 393 395 394
f 395 417 418
f 395 418 396
f 396 419 397
f 396 418 419
f 397 419 398
f 398 420 399
f 398 419 420
f 399 420 421
f 399 421 422
f 399 422 423
f 399 423 424
f 399 424 400
f 400 424 425
f 400 425 401
f 401 425 402
f 402 425 426
f 402 426 403
f 403 427 428
f 403 428 404
f 403 426 427
f 404 428 429
f 404 429 430
f 404 430 405
f 405 430 407
f 405 407 406
f 407 429 431
f 407 431 408
f 407 430 429
f 408 431 432
f 408 432 409
f 409 432 433
f 409 433 410
f 410 433 434
f 410 434 411
f 411 434 435
f 411 435 412
f 412 435 436
f 412 436 437
f 412 437 438
f 412 438 413
f 414 415 439
f 415 440 439
f 417 441 418
f 418 442 443
f 418 443 419
f 418 441 442
f 419 443 444
f 419 444 445
f 419 445 420
f 420 445 442
f 420 442 446
f 420 446 447
f 420 447 421
f 421 447 422
f 422 447 448
f 422 448 449
f 422 449 423
f 423 449 450
f 423 450 451
f 423 451 424
f 424 451 452
f 424 452 425
f 425 452 426
f 426 452 453
f 426 453 427
f 427 454 455
f 427 455 456
f 427 456 457
f 427 457 428
f 427 453 454
f 428 457 429
f 429 457 458
f 429 458 459
f 429 459 431
f 431 459 432
f 432 459 460
f 432 460 433
f 433 460 461
f 433 461 434
f 434 461 462
f 434 462 435
f 435 462 463
f 435 463 464
f 435 464 436
f 436 465 437
f 436 464 466
f 436 466 467
f 436 467 468
f 436 468 469
f 436 469 470
f 436 470 465
f 437 465 438
f 439 440 471
f 440 472 471
f 441 473 442
f 442 445 443
f 442 473 474
f 442 474 446
f 443 445 444
f 446 474 447
f 447 474 448
f 448 474 475
f 448 475 476
f 448 476 449
f 449 476 477
f 449 477 478
f 449 478 450
f 450 478 479
f 450 479 480
f 450 480 481
f 450 481 451
f 451 481 482
f 451 482 452
f 452 482 483
f 452 483 455
f 452 455 454
f 452 454 453
f 455 484 485
f 455 485 486
f 455 486 487
f 455 487 456
f 455 483 484
f 456 487 457
f 457 487 488
f 457 488 489
f 457 489 458
f 458 489 459
f 459 489 490
f 459 490 491
f 459 491 460
f 460 491 461
f 461 491 492
f 461 492 493
f 461 493 462
f 462 493 494
f 462 494 463
f 463 494 495
f 463 495 496
f 463 496 497
f 463 497 498
f 463 498 464
f 464 498 466
f 466 498 469
f 466 469 468
f 466 468 467
f 471 472 499
f 472 500 499
f 473 501 502
f 473 502 474
f 474 502 503
f 474 503 475
f 475 503 504
f 475 504 476
f 476 505 506
f 476 506 477
f 476 504 505
f 477 506 507
f 477 507 508
f 477 508 509
f 477 509 479
f 477 479 478
f 479 509 510
f 479 510 480
f 480 510 481
f 481 510 483
f 481 483 482
f 483 510 484
f 484 510 511
f 484 511 512
f 484 512 485
f 485 512 513
f 485 513 486
f 486 513 514
f 486 514 515
f 486 515 516
f 486 516 488
f 486 488 487
f 488 516 489
f 489 516 517
f 489 517 518
f 489 518 490
f 490 518 519
f 490 519 491
f 491 519 492
f 492 519 520
f 492 520 493
f 493 520 521
f 493 521 494
f 494 521 522
f 494 522 523
f 494 523 495
f 495 523 524
f 495 524 496
f 496 524 497
f 497 524 498
f 499 500 525
f 500 526 525
f 501 527 502
f 502 527 503
f 503 527 504
f 504 528 505
f 505 528 529
f 505 529 530
f 505 530 506
f 506 530 531
f 506 531 532
f 506 532 507
f 507 532 533
f 507 533 534
f 507 534 508
f 508 534 511
f 508 511 510
f 508 510 509
f 511 534 512
f 512 535 536
f 512 536 513
f 512 534 535
f 513 536 537
f 513 537 514
f 514 537 538
f 514 538 515
f 515 517 516
f 515 538 539
f 515 539 540
f 515 540 517
f 517 540 518
f 518 540 541
f 518 541 519
f 519 541 542
f 519 542 520
f 520 542 543
f 520 543 521
f 521 543 522
f 522 543 544
f 522 544 523
f 523 544 524
f 524 544 545
f 525 526 546
f 525 546 547
f 529 531 530
f 531 548 533
f 531 533 532
f 531 549 548
f 533 548 550
f 533 550 551
f 533 551 534
f 534 551 535
f 535 551 536
f 536 551 552
f 536 552 553
f 536 553 554
f 536 554 555
f 536 555 556
f 536 556 537
f 537 556 573
f 537 573 557
f 537 557 538
f 538 557 558
f 538 558 539
f 539 558 559
f 539 559 540
f 540 559 541
f 541 559 560
f 541 560 542
f 542 560 561
f 542 561 543
f 543 561 544
f 544 561 545
f 545 561 562
f 546 563 547
f 547 563 564
f 548 549 565
f 548 565 566
f 548 566 550
f 550 566 567
f 550 567 568
f 550 568 552
f 550 552 551
f 552 568 553
f 553 569 570
f 553 570 571
f 553 571 572
f 553 572 554
f 553 568 569
f 554 572 571
f 554 571 573
f 554 573 555
f 555 573 556
f 557 573 574
f 557 574 558
f 558 574 591
f 558 591 575
f 558 575 559
f 559 575 560
f 560 575 576
f 560 576 561
f 561 576 577
f 561 577 562
f 562 577 578
f 563 579 580
f 563 580 581
f 563 581 564
f 565 582 567
f 565 567 566
f 567 582 583
f 567 583 584
f 567 584 569
f 567 569 568
f 570 585 571
f 571 585 586
f 571 586 587
f 571 587 588
f 571 588 573
f 573 588 589
f 573 589 574
f 574 589 590
f 574 590 591
f 575 591 576
f 576 592 593
f 576 593 577
f 576 591 592
f 577 593 594
f 577 594 578
f 578 594 595
f 578 595 596
f 578 596 597
f 578 597 598
f 578 598 599
f 579 600 580
f 580 600 601
f 580 601 602
f 585 587 586
f 587 590 588
f 588 590 589
f 590 603 604
f 590 604 605
f 590 605 591
f 591 606 604
f 591 604 592
f 591 605 606
f 592 604 593
f 593 604 607
f 593 607 608
f 593 608 596
f 593 596 595
f 593 595 594
f 596 608 604
f 596 604 609
f 598 610 611
f 598 611 612
f 598 612 613
f 598 613 599
f 601 614 602
f 602 614 615
f 603 609 604
f 604 616 605
f 604 608 607
f 604 606 616
f 605 616 617
f 605 617 606
f 606 617 618
f 606 618 616
f 610 619 611
f 611 619 621
f 611 621 620
f 614 620 622
f 614 622 623
f 614 623 615
f 616 618 617
f 620 621 622

