# https://github.com/mikedh/trimesh
v -0.05862431 -0.00024329 -0.00554587 0.54509804 0.71372549 0.60000000
v -0.05852091 -0.00165434 -0.00554587 0.54509804 0.71372549 0.60000000
v -0.05845710 -0.00108118 -0.00393494 0.54509804 0.71372549 0.60000000
v -0.05847911 -0.00024329 -0.00367274 0.54509804 0.71372549 0.60000000
v -0.05848131 0.00085677 -0.00364400 0.54509804 0.71372549 0.60000000
v -0.05858691 0.00131427 -0.00554587 0.54509804 0.71372549 0.60000000
v -0.05843950 -0.00243825 -0.00554587 0.54509804 0.71372549 0.60000000
v -0.05782567 -0.00331984 0.00135761 0.54509804 0.71372549 0.60000000
v -0.05795327 -0.00024329 0.00289490 0.54509804 0.71372549 0.60000000
v -0.05798187 -0.00178285 0.00135761 0.54509804 0.71372549 0.60000000
v -0.05791147 0.00129113 0.00289490 0.54509804 0.71372549 0.60000000
v -0.05839990 0.00133740 -0.00318065 0.54509804 0.71372549 0.60000000
v -0.05843510 0.00188229 -0.00424204 0.54509804 0.71372549 0.60000000
v -0.05851871 0.00198252 -0.00554587 0.54509804 0.71372549 0.60000000
v -0.05831630 -0.00330699 -0.00554587 0.54509804 0.71372549 0.60000000
v -0.05794007 -0.00331984 -0.00017969 0.54509804 0.71372549 0.60000000
v -0.05768706 -0.00331984 0.00289490 0.54509804 0.71372549 0.60000000
v -0.05784987 -0.00178285 0.00289490 0.54509804 0.71372549 0.60000000
v -0.05758805 -0.00485683 -0.00017969 0.54509804 0.71372549 0.60000000
v -0.05746925 -0.00485683 0.00135761 0.54509804 0.71372549 0.60000000
v -0.05733284 -0.00485683 0.00289490 0.54509804 0.71372549 0.60000000
v -0.05780366 -0.00024329 0.00443041 0.54509804 0.71372549 0.60000000
v -0.05776186 0.00129113 0.00443041 0.54509804 0.71372549 0.60000000
v -0.05775306 0.00282813 0.00289490 0.54509804 0.71372549 0.60000000
v -0.05788507 0.00282813 0.00135761 0.54509804 0.71372549 0.60000000
v -0.05847251 0.00222669 -0.00526570 0.54509804 0.71372549 0.60000000
v -0.05812488 0.00282813 -0.00171699 0.54509804 0.71372549 0.60000000
v -0.05848350 0.00230380 -0.00554587 0.54509804 0.71372549 0.60000000
v -0.05795767 -0.00485683 -0.00554587 0.54509804 0.71372549 0.60000000
v -0.05790707 -0.00485683 -0.00479338 0.54509804 0.71372549 0.60000000
v -0.05769586 -0.00485683 -0.00171699 0.54509804 0.71372549 0.60000000
v -0.05751985 -0.00331984 0.00443041 0.54509804 0.71372549 0.60000000
v -0.05768706 -0.00178285 0.00443041 0.54509804 0.71372549 0.60000000
v -0.05708202 -0.00457411 0.00596950 0.54509804 0.71372549 0.60000000
v -0.05706222 -0.00595946 0.00135761 0.54509804 0.71372549 0.60000000
v -0.05699181 -0.00580781 0.00289490 0.54509804 0.71372549 0.60000000
v -0.05693901 -0.00568701 0.00387188 0.54509804 0.71372549 0.60000000
v -0.05713703 -0.00494936 0.00440347 0.54509804 0.71372549 0.60000000
v -0.05763645 -0.00024329 0.00596950 0.54509804 0.71372549 0.60000000
v -0.05759685 0.00129113 0.00596950 0.54509804 0.71372549 0.60000000
v -0.05743404 0.00282813 0.00596950 0.54509804 0.71372549 0.60000000
v -0.05759685 0.00282813 0.00443041 0.54509804 0.71372549 0.60000000
v -0.05750665 0.00436769 0.00289490 0.54509804 0.71372549 0.60000000
v -0.05764305 0.00436769 0.00135761 0.54509804 0.71372549 0.60000000
v -0.05824369 0.00282813 -0.00325608 0.54509804 0.71372549 0.60000000
v -0.05845710 0.00250428 -0.00554587 0.54509804 0.71372549 0.60000000
v -0.05766946 -0.00560991 -0.00554587 0.54509804 0.71372549 0.60000000
v -0.05717663 -0.00621134 -0.00171699 0.54509804 0.71372549 0.60000000
v -0.05733504 -0.00331984 0.00596950 0.54509804 0.71372549 0.60000000
v -0.05750885 -0.00178285 0.00596950 0.54509804 0.71372549 0.60000000
v -0.05699401 -0.00432223 0.00700753 0.54509804 0.71372549 0.60000000
v -0.05687521 -0.00552509 0.00489734 0.54509804 0.71372549 0.60000000
v -0.05680920 -0.00534260 0.00596950 0.54509804 0.71372549 0.60000000
v -0.05717003 -0.00650177 -0.00339257 0.54509804 0.71372549 0.60000000
v -0.05691481 -0.00716746 -0.00399600 0.54509804 0.71372549 0.60000000
v -0.05671460 -0.00672795 0.00135761 0.54509804 0.71372549 0.60000000
v -0.05665740 -0.00657631 0.00289490 0.54509804 0.71372549 0.60000000
v -0.05662439 -0.00627816 0.00440347 0.54509804 0.71372549 0.60000000
v -0.05637798 -0.00639382 0.00596950 0.54509804 0.71372549 0.60000000
v -0.05732844 -0.00024329 0.00750680 0.54509804 0.71372549 0.60000000
v -0.05729543 0.00129113 0.00750680 0.54509804 0.71372549 0.60000000
v -0.05710402 0.00280756 0.00759659 0.54509804 0.71372549 0.60000000
v -0.05701382 0.00436769 0.00707757 0.54509804 0.71372549 0.60000000
v -0.05719203 0.00436769 0.00596950 0.54509804 0.71372549 0.60000000
v -0.05692801 0.00517474 0.00678305 0.54509804 0.71372549 0.60000000
v -0.05697201 0.00530839 0.00596950 0.54509804 0.71372549 0.60000000
v -0.05712602 0.00577874 0.00289490 0.54509804 0.71372549 0.60000000
v -0.05775966 0.00436769 -0.00017969 0.54509804 0.71372549 0.60000000
v -0.05838670 0.00303117 -0.00554587 0.54509804 0.71372549 0.60000000
v -0.05716343 0.00605375 0.00149948 0.54509804 0.71372549 0.60000000
v -0.05733944 0.00590468 -0.00017969 0.54509804 0.71372549 0.60000000
v -0.05736584 -0.00639382 -0.00554587 0.54509804 0.71372549 0.60000000
v -0.05731523 -0.00639382 -0.00479338 0.54509804 0.71372549 0.60000000
v -0.05707762 -0.00331984 0.00728949 0.54509804 0.71372549 0.60000000
v -0.05602376 -0.00639382 0.00750680 0.54509804 0.71372549 0.60000000
v -0.05664200 -0.00484398 0.00751398 0.54509804 0.71372549 0.60000000
v -0.05684441 -0.00331984 0.00805814 0.54509804 0.71372549 0.60000000
v -0.05694341 -0.00721886 -0.00479338 0.54509804 0.71372549 0.60000000
v -0.05605016 -0.00793339 0.00135761 0.54509804 0.71372549 0.60000000
v -0.05592475 -0.00793339 0.00289490 0.54509804 0.71372549 0.60000000
v -0.05571574 -0.00773548 0.00596950 0.54509804 0.71372549 0.60000000
v -0.05553533 -0.00743733 0.00750680 0.54509804 0.71372549 0.60000000
v -0.05714363 -0.00186253 0.00763251 0.54509804 0.71372549 0.60000000
v -0.05696102 -0.00140246 0.00838140 0.54509804 0.71372549 0.60000000
v -0.05701162 -0.00024329 0.00849455 0.54509804 0.71372549 0.60000000
v -0.05699401 0.00129113 0.00845863 0.54509804 0.71372549 0.60000000
v -0.05693901 0.00228067 0.00833291 0.54509804 0.71372549 0.60000000
v -0.05687961 0.00330619 0.00816949 0.54509804 0.71372549 0.60000000
v -0.05676960 0.00436769 0.00784622 0.54509804 0.71372549 0.60000000
v -0.05575094 0.00593809 0.00909797 0.54509804 0.71372549 0.60000000
v -0.05649019 0.00577360 0.00737929 0.54509804 0.71372549 0.60000000
v -0.05572234 0.00748536 0.00751937 0.54509804 0.71372549 0.60000000
v -0.05547592 0.00836952 0.00701472 0.54509804 0.71372549 0.60000000
v -0.05611396 0.00744167 0.00596950 0.54509804 0.71372549 0.60000000
v -0.05669040 0.00607688 0.00596950 0.54509804 0.71372549 0.60000000
v -0.05678940 0.00631077 0.00443041 0.54509804 0.71372549 0.60000000
v -0.05687081 0.00654723 0.00289490 0.54509804 0.71372549 0.60000000
v -0.05691261 0.00666803 0.00210650 0.54509804 0.71372549 0.60000000
v -0.05787187 0.00436769 -0.00171699 0.54509804 0.71372549 0.60000000
v -0.05824809 0.00384079 -0.00554587 0.54509804 0.71372549 0.60000000
v -0.05745384 0.00590468 -0.00171699 0.54509804 0.71372549 0.60000000
v -0.05696761 -0.00726770 -0.00554587 0.54509804 0.71372549 0.60000000
v -0.05689721 -0.00242797 0.00822875 0.54509804 0.71372549 0.60000000
v -0.05539232 -0.00719573 0.00831136 0.54509804 0.71372549 0.60000000
v -0.05557053 -0.00639382 0.00867414 0.54509804 0.71372549 0.60000000
v -0.05588735 -0.00499819 0.00918777 0.54509804 0.71372549 0.60000000
v -0.05640438 -0.00331984 0.00904409 0.54509804 0.71372549 0.60000000
v -0.05649899 -0.00803619 -0.00554587 0.54509804 0.71372549 0.60000000
v -0.05647259 -0.00798993 -0.00479338 0.54509804 0.71372549 0.60000000
v -0.05548033 -0.00883039 0.00135761 0.54509804 0.71372549 0.60000000
v -0.05541212 -0.00874814 0.00289490 0.54509804 0.71372549 0.60000000
v -0.05572454 -0.00803619 0.00427955 0.54509804 0.71372549 0.60000000
v -0.05537692 -0.00870188 0.00366535 0.54509804 0.71372549 0.60000000
v -0.05531311 -0.00861706 0.00469081 0.54509804 0.71372549 0.60000000
v -0.05523391 -0.00850397 0.00596950 0.54509804 0.71372549 0.60000000
v -0.05503810 -0.00820840 0.00750680 0.54509804 0.71372549 0.60000000
v -0.05664420 -0.00024329 0.00926320 0.54509804 0.71372549 0.60000000
v -0.05663319 -0.00186253 0.00895430 0.54509804 0.71372549 0.60000000
v -0.05662879 0.00129113 0.00922728 0.54509804 0.71372549 0.60000000
v -0.05659579 0.00280756 0.00892556 0.54509804 0.71372549 0.60000000
v -0.05626577 0.00436769 0.00904409 0.54509804 0.71372549 0.60000000
v -0.05527571 0.00647527 0.00964572 0.54509804 0.71372549 0.60000000
v -0.05552873 0.00700216 0.00862026 0.54509804 0.71372549 0.60000000
v -0.05549353 0.00544975 0.00995282 0.54509804 0.71372549 0.60000000
v -0.05528232 0.00802768 0.00804018 0.54509804 0.71372549 0.60000000
v -0.05488849 0.00891955 0.00751937 0.54509804 0.71372549 0.60000000
v -0.05406784 0.00997848 0.00750680 0.54509804 0.71372549 0.60000000
v -0.05504470 0.00928195 0.00596950 0.54509804 0.71372549 0.60000000
v -0.05556833 0.00851345 0.00596950 0.54509804 0.71372549 0.60000000
v -0.05630537 0.00744167 0.00443041 0.54509804 0.71372549 0.60000000
v -0.05695221 0.00677341 0.00108104 0.54509804 0.71372549 0.60000000
v -0.05647919 0.00744167 0.00289490 0.54509804 0.71372549 0.60000000
v -0.05666620 0.00734657 0.00149948 0.54509804 0.71372549 0.60000000
v -0.05667500 0.00766271 -0.00017969 0.54509804 0.71372549 0.60000000
v -0.05686861 0.00810479 -0.00479338 0.54509804 0.71372549 0.60000000
v -0.05809628 0.00436769 -0.00479338 0.54509804 0.71372549 0.60000000
v -0.05773326 0.00590468 -0.00554587 0.54509804 0.71372549 0.60000000
v -0.05814909 0.00436769 -0.00554587 0.54509804 0.71372549 0.60000000
v -0.05402604 -0.00891264 0.00860050 0.54509804 0.71372549 0.60000000
v -0.05456727 -0.00787427 0.00896867 0.54509804 0.71372549 0.60000000
v -0.05516791 -0.00639382 0.00944279 0.54509804 0.71372549 0.60000000
v -0.05536592 -0.00560477 0.00979658 0.54509804 0.71372549 0.60000000
v -0.05555513 -0.00457925 0.01001388 0.54509804 0.71372549 0.60000000
v -0.05570474 -0.00331984 0.01018809 0.54509804 0.71372549 0.60000000
v -0.05573114 -0.00910541 -0.00554587 0.54509804 0.71372549 0.60000000
v -0.05553753 -0.00889465 -0.00017969 0.54509804 0.71372549 0.60000000
v -0.05481148 -0.00959889 0.00135761 0.54509804 0.71372549 0.60000000
v -0.05473888 -0.00951664 0.00289490 0.54509804 0.71372549 0.60000000
v -0.05389843 -0.01029542 0.00413767 0.54509804 0.71372549 0.60000000
v -0.05383243 -0.01023373 0.00516314 0.54509804 0.71372549 0.60000000
v -0.05446606 -0.00940098 0.00596950 0.54509804 0.71372549 0.60000000
v -0.05426806 -0.00917994 0.00750680 0.54509804 0.71372549 0.60000000
v -0.05580595 -0.00178285 0.01029944 0.54509804 0.71372549 0.60000000
v -0.05587415 -0.00024329 0.01036948 0.54509804 0.71372549 0.60000000
v -0.05585875 0.00129113 0.01035511 0.54509804 0.71372549 0.60000000
v -0.05577294 0.00282813 0.01026172 0.54509804 0.71372549 0.60000000
v -0.05564093 0.00436769 0.01011625 0.54509804 0.71372549 0.60000000
v -0.05424165 0.00744167 0.01018090 0.54509804 0.71372549 0.60000000
v -0.05396443 0.00836952 0.00993846 0.54509804 0.71372549 0.60000000
v -0.05502710 0.00748536 0.00909797 0.54509804 0.71372549 0.60000000
v -0.05390063 0.00526984 0.01139314 0.54509804 0.71372549 0.60000000
v -0.05458707 0.00587127 0.01057780 0.54509804 0.71372549 0.60000000
v -0.05480489 0.00436769 0.01088490 0.54509804 0.71372549 0.60000000
v -0.05419105 0.00891955 0.00893454 0.54509804 0.71372549 0.60000000
v -0.05388303 0.00979342 0.00834908 0.54509804 0.71372549 0.60000000
v -0.05427685 0.01018667 0.00596950 0.54509804 0.71372549 0.60000000
v -0.05301838 0.01081123 0.00754631 0.54509804 0.71372549 0.60000000
v -0.05247055 0.01139210 0.00706141 0.54509804 0.71372549 0.60000000
v -0.05339900 0.01095516 0.00596950 0.54509804 0.71372549 0.60000000
v -0.05513710 0.00941560 0.00443041 0.54509804 0.71372549 0.60000000
v -0.05575314 0.00877562 0.00289490 0.54509804 0.71372549 0.60000000
v -0.05700062 0.00689421 -0.00017969 0.54509804 0.71372549 0.60000000
v -0.05689941 0.00817675 -0.00554587 0.54509804 0.71372549 0.60000000
v -0.05583675 0.00890413 0.00135761 0.54509804 0.71372549 0.60000000
v -0.05705782 0.00703815 -0.00171699 0.54509804 0.71372549 0.60000000
v -0.05717443 0.00746480 -0.00554587 0.54509804 0.71372549 0.60000000
v -0.05352221 -0.00994844 0.00750680 0.54509804 0.71372549 0.60000000
v -0.05247935 -0.01036738 0.00851789 0.54509804 0.71372549 0.60000000
v -0.05308218 -0.00947809 0.00907103 0.54509804 0.71372549 0.60000000
v -0.05368502 -0.00855024 0.00962597 0.54509804 0.71372549 0.60000000
v -0.05408324 -0.00752472 0.01004262 0.54509804 0.71372549 0.60000000
v -0.05439786 -0.00639382 0.01031380 0.54509804 0.71372549 0.60000000
v -0.05465968 -0.00498277 0.01064605 0.54509804 0.71372549 0.60000000
v -0.05395343 -0.00436335 0.01142367 0.54509804 0.71372549 0.60000000
v -0.05485989 -0.00331984 0.01095674 0.54509804 0.71372549 0.60000000
v -0.05499850 -0.00178285 0.01106808 0.54509804 0.71372549 0.60000000
v -0.05538352 -0.00949865 -0.00554587 0.54509804 0.71372549 0.60000000
v -0.05486869 -0.00966314 -0.00017969 0.54509804 0.71372549 0.60000000
v -0.05404144 -0.01042650 0.00135761 0.54509804 0.71372549 0.60000000
v -0.05396884 -0.01035967 0.00289490 0.54509804 0.71372549 0.60000000
v -0.05322079 -0.01078119 0.00456330 0.54509804 0.71372549 0.60000000
v -0.05376862 -0.01016948 0.00596950 0.54509804 0.71372549 0.60000000
v -0.05299858 -0.01079147 0.00596950 0.54509804 0.71372549 0.60000000
v -0.05510410 -0.00024329 0.01113812 0.54509804 0.71372549 0.60000000
v -0.05509310 0.00129113 0.01112555 0.54509804 0.71372549 0.60000000
v -0.05497429 0.00282813 0.01103037 0.54509804 0.71372549 0.60000000
v -0.05361901 0.00629278 0.01120457 0.54509804 0.71372549 0.60000000
v -0.05309098 0.00755990 0.01101421 0.54509804 0.71372549 0.60000000
v -0.05299858 0.00891955 0.01024017 0.54509804 0.71372549 0.60000000
v -0.05243974 0.00986282 0.00991331 0.54509804 0.71372549 0.60000000
v -0.05346281 0.00939247 0.00937274 0.54509804 0.71372549 0.60000000
v -0.05223513 0.00815105 0.01132310 0.54509804 0.71372549 0.60000000
v -0.05309098 0.00583014 0.01163918 0.54509804 0.71372549 0.60000000
v -0.05259375 0.00712553 0.01150449 0.54509804 0.71372549 0.60000000
v -0.05403484 0.00436769 0.01148833 0.54509804 0.71372549 0.60000000
v -0.05306898 0.00436769 0.01196424 0.54509804 0.71372549 0.60000000
v -0.05299858 0.01010956 0.00893454 0.54509804 0.71372549 0.60000000
v -0.05215813 0.01121475 0.00808688 0.54509804 0.71372549 0.60000000
v -0.05537032 0.00974202 0.00054586 0.54509804 0.71372549 0.60000000
v -0.05353541 0.01105283 0.00443041 0.54509804 0.71372549 0.60000000
v -0.05384783 0.01129443 0.00065720 0.54509804 0.71372549 0.60000000
v -0.05159929 0.01162599 0.00754631 0.54509804 0.71372549 0.60000000
v -0.05153109 0.01198325 0.00596950 0.54509804 0.71372549 0.60000000
v -0.05262895 0.01149491 0.00596950 0.54509804 0.71372549 0.60000000
v -0.05276756 0.01159258 0.00443041 0.54509804 0.71372549 0.60000000
v -0.05694121 0.00806880 -0.00554587 0.54509804 0.71372549 0.60000000
v -0.05606996 0.00897866 -0.00171699 0.54509804 0.71372549 0.60000000
v -0.05682021 0.00830269 -0.00554587 0.54509804 0.71372549 0.60000000
v -0.05582795 0.00913031 -0.00005218 0.54509804 0.71372549 0.60000000
v -0.05275436 -0.01058585 0.00750680 0.54509804 0.71372549 0.60000000
v -0.05149809 -0.01137748 0.00751937 0.54509804 0.71372549 0.60000000
v -0.05151349 -0.01063212 0.00903511 0.54509804 0.71372549 0.60000000
v -0.05201512 -0.01004097 0.00954336 0.54509804 0.71372549 0.60000000
v -0.05265976 -0.00901545 0.01003903 0.54509804 0.71372549 0.60000000
v -0.05301398 -0.00787941 0.01055266 0.54509804 0.71372549 0.60000000
v -0.05234294 -0.00720601 0.01137159 0.54509804 0.71372549 0.60000000
v -0.05339020 -0.00639382 0.01108245 0.54509804 0.71372549 0.60000000
v -0.05371142 -0.00538887 0.01127641 0.54509804 0.71372549 0.60000000
v -0.05306898 -0.00331984 0.01201273 0.54509804 0.71372549 0.60000000
v -0.05409204 -0.00331984 0.01150988 0.54509804 0.71372549 0.60000000
v -0.05314599 -0.00486711 0.01168767 0.54509804 0.71372549 0.60000000
v -0.05423065 -0.00178285 0.01160147 0.54509804 0.71372549 0.60000000
v -0.05504910 -0.00987390 -0.00554587 0.54509804 0.71372549 0.60000000
v -0.05410084 -0.01048304 -0.00017969 0.54509804 0.71372549 0.60000000
v -0.05336160 -0.01142888 -0.00554587 0.54509804 0.71372549 0.60000000
v -0.05325379 -0.01135435 -0.00325608 0.54509804 0.71372549 0.60000000
v -0.05318119 -0.01130294 -0.00171699 0.54509804 0.71372549 0.60000000
v -0.05310858 -0.01125154 -0.00017969 0.54509804 0.71372549 0.60000000
v -0.05306898 -0.01105620 0.00289490 0.54509804 0.71372549 0.60000000
v -0.05206792 -0.01164478 0.00443041 0.54509804 0.71372549 0.60000000
v -0.05192051 -0.01155997 0.00596950 0.54509804 0.71372549 0.60000000
v -0.05433406 -0.00024329 0.01166971 0.54509804 0.71372549 0.60000000
v -0.05432526 0.00129113 0.01166612 0.54509804 0.71372549 0.60000000
v -0.05420425 0.00282813 0.01159788 0.54509804 0.71372549 0.60000000
v -0.05164550 0.00899408 0.01100163 0.54509804 0.71372549 0.60000000
v -0.05153109 0.01015582 0.01016654 0.54509804 0.71372549 0.60000000
v -0.05050583 0.01120190 0.00967266 0.54509804 0.71372549 0.60000000
v -0.05159929 0.01095516 0.00911413 0.54509804 0.71372549 0.60000000
v -0.05164550 0.00755990 0.01170024 0.54509804 0.71372549 0.60000000
v -0.05120987 0.00849289 0.01149371 0.54509804 0.71372549 0.60000000
v -0.05153109 0.00590468 0.01217795 0.54509804 0.71372549 0.60000000
v -0.05306898 0.00282813 0.01215461 0.54509804 0.71372549 0.60000000
v -0.05153109 0.00436769 0.01241681 0.54509804 0.71372549 0.60000000
v -0.05113286 0.01145378 0.00864720 0.54509804 0.71372549 0.60000000
v -0.05480049 0.01039999 -0.00005218 0.54509804 0.71372549 0.60000000
v -0.05542312 0.00980884 -0.00047961 0.54509804 0.71372549 0.60000000
v -0.05491269 0.01082665 -0.00554587 0.54509804 0.71372549 0.60000000
v -0.05487969 0.01079324 -0.00479338 0.54509804 0.71372549 0.60000000
v -0.05480928 0.01072641 -0.00325608 0.54509804 0.71372549 0.60000000
v -0.05473448 0.01064931 -0.00171699 0.54509804 0.71372549 0.60000000
v -0.05289297 0.01166197 0.00289490 0.54509804 0.71372549 0.60000000
v -0.05317679 0.01163113 0.00124446 0.54509804 0.71372549 0.60000000
v -0.05306898 0.01179562 -0.00017969 0.54509804 0.71372549 0.60000000
v -0.05396664 0.01138182 -0.00171699 0.54509804 0.71372549 0.60000000
v -0.04999320 0.01218887 0.00750680 0.54509804 0.71372549 0.60000000
v -0.04999320 0.01244075 0.00596950 0.54509804 0.71372549 0.60000000
v -0.05153109 0.01215288 0.00443041 0.54509804 0.71372549 0.60000000
v -0.05619537 0.00897866 -0.00325608 0.54509804 0.71372549 0.60000000
v -0.05641318 0.00891698 -0.00554587 0.54509804 0.71372549 0.60000000
v -0.05096566 -0.01188124 0.00701651 0.54509804 0.71372549 0.60000000
v -0.05046402 -0.01167306 0.00804198 0.54509804 0.71372549 0.60000000
v -0.05098986 -0.01035453 0.00992230 0.54509804 0.71372549 0.60000000
v -0.05151349 -0.00950379 0.01026711 0.54509804 0.71372549 0.60000000
v -0.05153109 -0.00820840 0.01106808 0.54509804 0.71372549 0.60000000
v -0.05040022 -0.00851426 0.01125845 0.54509804 0.71372549 0.60000000
v -0.05153109 -0.00743990 0.01147216 0.54509804 0.71372549 0.60000000
v -0.05153109 -0.00639382 0.01182237 0.54509804 0.71372549 0.60000000
v -0.05262016 -0.00639382 0.01150449 0.54509804 0.71372549 0.60000000
v -0.05153109 -0.00485683 0.01220489 0.54509804 0.71372549 0.60000000
v -0.05153109 -0.00331984 0.01243657 0.54509804 0.71372549 0.60000000
v -0.05306898 -0.00178285 0.01217257 0.54509804 0.71372549 0.60000000
v -0.05428125 -0.01066039 -0.00554587 0.54509804 0.71372549 0.60000000
v -0.05415365 -0.01053445 -0.00171699 0.54509804 0.71372549 0.60000000
v -0.05259375 -0.01196606 -0.00554587 0.54509804 0.71372549 0.60000000
v -0.05248595 -0.01189923 -0.00325608 0.54509804 0.71372549 0.60000000
v -0.05234074 -0.01180414 -0.00017969 0.54509804 0.71372549 0.60000000
v -0.05230333 -0.01177843 0.00061590 0.54509804 0.71372549 0.60000000
v -0.05291717 -0.01129266 0.00122112 0.54509804 0.71372549 0.60000000
v -0.05217353 -0.01170133 0.00289490 0.54509804 0.71372549 0.60000000
v -0.05130008 -0.01204574 0.00443041 0.54509804 0.71372549 0.60000000
v -0.05115047 -0.01197120 0.00596950 0.54509804 0.71372549 0.60000000
v -0.05306898 -0.00024329 0.01228212 0.54509804 0.71372549 0.60000000
v -0.05306898 0.00129113 0.01227134 0.54509804 0.71372549 0.60000000
v -0.04999320 0.00957495 0.01124408 0.54509804 0.71372549 0.60000000
v -0.04999320 0.01062103 0.01039103 0.54509804 0.71372549 0.60000000
v -0.04948057 0.01135098 0.00989356 0.54509804 0.71372549 0.60000000
v -0.04999320 0.01161571 0.00911413 0.54509804 0.71372549 0.60000000
v -0.04999320 0.00744167 0.01210791 0.54509804 0.71372549 0.60000000
v -0.04999320 0.00880646 0.01162661 0.54509804 0.71372549 0.60000000
v -0.04922095 0.00974716 0.01135004 0.54509804 0.71372549 0.60000000
v -0.04999320 0.00590468 0.01243118 0.54509804 0.71372549 0.60000000
v -0.05153109 0.00282813 0.01253355 0.54509804 0.71372549 0.60000000
v -0.04999320 0.00436769 0.01258742 0.54509804 0.71372549 0.60000000
v -0.05547592 0.00988081 -0.00171699 0.54509804 0.71372549 0.60000000
v -0.05452107 0.01117877 -0.00554587 0.54509804 0.71372549 0.60000000
v -0.05527571 0.01043341 -0.00554587 0.54509804 0.71372549 0.60000000
v -0.05553533 0.00995792 -0.00325608 0.54509804 0.71372549 0.60000000
v -0.05153109 0.01227883 0.00289490 0.54509804 0.71372549 0.60000000
v -0.05306898 0.01189586 -0.00171699 0.54509804 0.71372549 0.60000000
v -0.05414484 0.01151290 -0.00554587 0.54509804 0.71372549 0.60000000
v -0.05306898 0.01199610 -0.00325608 0.54509804 0.71372549 0.60000000
v -0.05306898 0.01214260 -0.00554587 0.54509804 0.71372549 0.60000000
v -0.05360141 0.01183161 -0.00554587 0.54509804 0.71372549 0.60000000
v -0.04845531 0.01197040 0.00904409 0.54509804 0.71372549 0.60000000
v -0.04845531 0.01250243 0.00750680 0.54509804 0.71372549 0.60000000
v -0.04835850 0.01272861 0.00590125 0.54509804 0.71372549 0.60000000
v -0.04919015 0.01282114 0.00360968 0.54509804 0.71372549 0.60000000
v -0.04999320 0.01258211 0.00443041 0.54509804 0.71372549 0.60000000
v -0.05606556 0.00941817 -0.00554587 0.54509804 0.71372549 0.60000000
v -0.04999320 -0.01240557 0.00596950 0.54509804 0.71372549 0.60000000
v -0.04996900 -0.01203546 0.00751937 0.54509804 0.71372549 0.60000000
v -0.04943877 -0.01184269 0.00840295 0.54509804 0.71372549 0.60000000
v -0.04996900 -0.01133636 0.00896687 0.54509804 0.71372549 0.60000000
v -0.04999320 -0.01053188 0.01007674 0.54509804 0.71372549 0.60000000
v -0.04992940 -0.00935215 0.01089209 0.54509804 0.71372549 0.60000000
v -0.04937496 -0.00876357 0.01138416 0.54509804 0.71372549 0.60000000
v -0.04992940 -0.00797451 0.01157453 0.54509804 0.71372549 0.60000000
v -0.04999320 -0.00639382 0.01206122 0.54509804 0.71372549 0.60000000
v -0.04999320 -0.00485683 0.01237910 0.54509804 0.71372549 0.60000000
v -0.04999320 -0.00331984 0.01256048 0.54509804 0.71372549 0.60000000
v -0.05153109 -0.00178285 0.01256407 0.54509804 0.71372549 0.60000000
v -0.05207012 -0.01222308 -0.00554587 0.54509804 0.71372549 0.60000000
v -0.05153109 -0.01236701 -0.00325608 0.54509804 0.71372549 0.60000000
v -0.05153109 -0.01228477 -0.00171699 0.54509804 0.71372549 0.60000000
v -0.05140568 -0.01209714 0.00289490 0.54509804 0.71372549 0.60000000
v -0.05224393 -0.01174502 0.00164136 0.54509804 0.71372549 0.60000000
v -0.04999320 -0.01264460 0.00289490 0.54509804 0.71372549 0.60000000
v -0.04999320 -0.01254693 0.00443041 0.54509804 0.71372549 0.60000000
v -0.05153109 -0.00024329 0.01264848 0.54509804 0.71372549 0.60000000
v -0.05153109 0.00129113 0.01263052 0.54509804 0.71372549 0.60000000
v -0.04845531 0.01144093 0.01000131 0.54509804 0.71372549 0.60000000
v -0.04860711 0.01044626 0.01088490 0.54509804 0.71372549 0.60000000
v -0.04845531 0.00744167 0.01227853 0.54509804 0.71372549 0.60000000
v -0.04860711 0.00913288 0.01170204 0.54509804 0.71372549 0.60000000
v -0.04819569 0.00988595 0.01144163 0.54509804 0.71372549 0.60000000
v -0.04845531 0.00590468 0.01254612 0.54509804 0.71372549 0.60000000
v -0.04999320 0.00129113 0.01274905 0.54509804 0.71372549 0.60000000
v -0.04845531 0.00436769 0.01266644 0.54509804 0.71372549 0.60000000
v -0.05561673 0.01005558 -0.00554587 0.54509804 0.71372549 0.60000000
v -0.05559033 0.01002474 -0.00479338 0.54509804 0.71372549 0.60000000
v -0.05153109 0.01237392 0.00135761 0.54509804 0.71372549 0.60000000
v -0.04989639 0.01270034 0.00301523 0.54509804 0.71372549 0.60000000
v -0.05043103 0.01276203 -0.00017969 0.54509804 0.71372549 0.60000000
v -0.05064224 0.01280315 -0.00171699 0.54509804 0.71372549 0.60000000
v -0.05247715 0.01239448 -0.00554587 0.54509804 0.71372549 0.60000000
v -0.04692181 0.01210405 0.00904409 0.54509804 0.71372549 0.60000000
v -0.04692181 0.01262066 0.00750680 0.54509804 0.71372549 0.60000000
v -0.04692181 0.01279801 0.00624607 0.54509804 0.71372549 0.60000000
v -0.04778207 0.01283399 0.00534273 0.54509804 0.71372549 0.60000000
v -0.05075004 0.01282114 -0.00253592 0.54509804 0.71372549 0.60000000
v -0.04811649 0.01285455 0.00443041 0.54509804 0.71372549 0.60000000
v -0.04858952 0.01288026 0.00301523 0.54509804 0.71372549 0.60000000
v -0.04999320 0.01305503 -0.00554587 0.54509804 0.71372549 0.60000000
v -0.04966098 0.01290082 -0.00017969 0.54509804 0.71372549 0.60000000
v -0.04845531 -0.01277054 0.00596950 0.54509804 0.71372549 0.60000000
v -0.04845531 -0.01242099 0.00750680 0.54509804 0.71372549 0.60000000
v -0.04845531 -0.01195835 0.00859512 0.54509804 0.71372549 0.60000000
v -0.04845531 -0.01148029 0.00936377 0.54509804 0.71372549 0.60000000
v -0.04845531 -0.01071179 0.01021143 0.54509804 0.71372549 0.60000000
v -0.04845531 -0.00959375 0.01098008 0.54509804 0.71372549 0.60000000
v -0.04845531 -0.00882525 0.01141469 0.54509804 0.71372549 0.60000000
v -0.04845531 -0.00793339 0.01172539 0.54509804 0.71372549 0.60000000
v -0.04845531 -0.00639382 0.01215640 0.54509804 0.71372549 0.60000000
v -0.04845531 -0.00485683 0.01244734 0.54509804 0.71372549 0.60000000
v -0.04845531 -0.00331984 0.01260359 0.54509804 0.71372549 0.60000000
v -0.04999320 -0.00178285 0.01267004 0.54509804 0.71372549 0.60000000
v -0.04999320 -0.00024329 0.01275624 0.54509804 0.71372549 0.60000000
v -0.05153109 -0.01248267 -0.00554587 0.54509804 0.71372549 0.60000000
v -0.05153109 -0.01244669 -0.00479338 0.54509804 0.71372549 0.60000000
v -0.04999320 -0.01277825 -0.00017969 0.54509804 0.71372549 0.60000000
v -0.04845531 -0.01296845 0.00289490 0.54509804 0.71372549 0.60000000
v -0.04845531 -0.01288620 0.00443041 0.54509804 0.71372549 0.60000000
v -0.04692181 0.01072898 0.01085796 0.54509804 0.71372549 0.60000000
v -0.04692181 0.01151033 0.01008931 0.54509804 0.71372549 0.60000000
v -0.04692181 0.00744167 0.01233061 0.54509804 0.71372549 0.60000000
v -0.04692181 0.00897866 0.01189600 0.54509804 0.71372549 0.60000000
v -0.04692181 0.00996049 0.01148833 0.54509804 0.71372549 0.60000000
v -0.04692181 0.00590468 0.01257844 0.54509804 0.71372549 0.60000000
v -0.04845531 0.00129113 0.01280114 0.54509804 0.71372549 0.60000000
v -0.04845531 0.00282813 0.01274187 0.54509804 0.71372549 0.60000000
v -0.04692181 0.00436769 0.01269338 0.54509804 0.71372549 0.60000000
v -0.05153109 0.01246388 -0.00017969 0.54509804 0.71372549 0.60000000
v -0.05178411 0.01268492 -0.00554587 0.54509804 0.71372549 0.60000000
v -0.04538392 0.01153346 0.01011625 0.54509804 0.71372549 0.60000000
v -0.04538392 0.01212975 0.00904409 0.54509804 0.71372549 0.60000000
v -0.04538392 0.01263609 0.00750680 0.54509804 0.71372549 0.60000000
v -0.03923236 0.01275432 0.00596950 0.54509804 0.71372549 0.60000000
v -0.04537732 0.01280829 0.00594975 0.54509804 0.71372549 0.60000000
v -0.04692181 0.01283656 0.00547742 0.54509804 0.71372549 0.60000000
v -0.04384603 0.01263352 0.00750680 0.54509804 0.71372549 0.60000000
v -0.04077025 0.01262323 0.00750680 0.54509804 0.71372549 0.60000000
v -0.03614777 0.01259239 0.00750680 0.54509804 0.71372549 0.60000000
v -0.04692181 0.01287255 0.00443041 0.54509804 0.71372549 0.60000000
v -0.04845531 0.01293937 0.00135761 0.54509804 0.71372549 0.60000000
v -0.05139028 0.01279030 -0.00554587 0.54509804 0.71372549 0.60000000
v -0.05171370 0.01266436 -0.00479338 0.54509804 0.71372549 0.60000000
v -0.05153109 0.01254870 -0.00171699 0.54509804 0.71372549 0.60000000
v -0.04999320 0.01302676 -0.00479338 0.54509804 0.71372549 0.60000000
v -0.05083805 0.01284427 -0.00356139 0.54509804 0.71372549 0.60000000
v -0.04845531 0.01297536 -0.00017969 0.54509804 0.71372549 0.60000000
v -0.04845531 0.01308844 -0.00554587 0.54509804 0.71372549 0.60000000
v -0.05047943 0.01297536 -0.00554587 0.54509804 0.71372549 0.60000000
v -0.04692181 -0.01289648 0.00596950 0.54509804 0.71372549 0.60000000
v -0.04692181 -0.01257263 0.00750680 0.54509804 0.71372549 0.60000000
v -0.04692181 -0.01204060 0.00873161 0.54509804 0.71372549 0.60000000
v -0.04692181 -0.01155225 0.00950025 0.54509804 0.71372549 0.60000000
v -0.04692181 -0.01078119 0.01025813 0.54509804 0.71372549 0.60000000
v -0.04692181 -0.00965286 0.01102678 0.54509804 0.71372549 0.60000000
v -0.04692181 -0.00888437 0.01144522 0.54509804 0.71372549 0.60000000
v -0.04692181 -0.00793339 0.01177028 0.54509804 0.71372549 0.60000000
v -0.04538392 -0.00893577 0.01147396 0.54509804 0.71372549 0.60000000
v -0.04538392 -0.00793339 0.01181518 0.54509804 0.71372549 0.60000000
v -0.04692181 -0.00639382 0.01218693 0.54509804 0.71372549 0.60000000
v -0.04692181 -0.00485683 0.01246171 0.54509804 0.71372549 0.60000000
v -0.04538392 -0.00639382 0.01220310 0.54509804 0.71372549 0.60000000
v -0.04692181 -0.00331984 0.01259820 0.54509804 0.71372549 0.60000000
v -0.04845531 -0.00178285 0.01269877 0.54509804 0.71372549 0.60000000
v -0.04538392 -0.00485683 0.01245991 0.54509804 0.71372549 0.60000000
v -0.04845531 -0.00024329 0.01278318 0.54509804 0.71372549 0.60000000
v -0.05074564 -0.01274227 -0.00554587 0.54509804 0.71372549 0.60000000
v -0.04999320 -0.01283994 -0.00171699 0.54509804 0.71372549 0.60000000
v -0.04999320 -0.01289905 -0.00325608 0.54509804 0.71372549 0.60000000
v -0.04999320 -0.01295303 -0.00479338 0.54509804 0.71372549 0.60000000
v -0.04999320 -0.01297873 -0.00554587 0.54509804 0.71372549 0.60000000
v -0.04845531 -0.01301985 0.00135761 0.54509804 0.71372549 0.60000000
v -0.04692181 -0.01303527 0.00289490 0.54509804 0.71372549 0.60000000
v -0.04692181 -0.01298387 0.00443041 0.54509804 0.71372549 0.60000000
v -0.04538392 0.01073412 0.01088490 0.54509804 0.71372549 0.60000000
v -0.04538392 0.00744167 0.01233240 0.54509804 0.71372549 0.60000000
v -0.04538392 0.00897866 0.01189959 0.54509804 0.71372549 0.60000000
v -0.04538392 0.00996563 0.01148653 0.54509804 0.71372549 0.60000000
v -0.04538392 0.00590468 0.01258024 0.54509804 0.71372549 0.60000000
v -0.04538392 0.00436769 0.01269697 0.54509804 0.71372549 0.60000000
v -0.04692181 0.00129113 0.01279036 0.54509804 0.71372549 0.60000000
v -0.04692181 0.00282813 0.01275085 0.54509804 0.71372549 0.60000000
v -0.04384603 0.01153346 0.01011805 0.54509804 0.71372549 0.60000000
v -0.04384603 0.01212975 0.00904409 0.54509804 0.71372549 0.60000000
v -0.03614777 0.01272347 0.00596950 0.54509804 0.71372549 0.60000000
v -0.04588555 0.01283142 0.00542534 0.54509804 0.71372549 0.60000000
v -0.04230814 0.01211690 0.00904409 0.54509804 0.71372549 0.60000000
v -0.04077025 0.01210148 0.00904409 0.54509804 0.71372549 0.60000000
v -0.03614777 0.01205522 0.00903511 0.54509804 0.71372549 0.60000000
v -0.05101406 0.01288540 -0.00554587 0.54509804 0.71372549 0.60000000
v -0.03614777 0.01272347 0.00596052 0.54509804 0.71372549 0.60000000
v -0.03614777 0.01256155 0.00443041 0.54509804 0.71372549 0.60000000
v -0.04730904 0.01291624 -0.00554587 0.54509804 0.71372549 0.60000000
v -0.04538392 -0.01257520 0.00750680 0.54509804 0.71372549 0.60000000
v -0.04538392 -0.01288620 0.00596950 0.54509804 0.71372549 0.60000000
v -0.03614777 -0.01255207 0.00750680 0.54509804 0.71372549 0.60000000
v -0.04384603 -0.01204060 0.00877471 0.54509804 0.71372549 0.60000000
v -0.04384603 -0.01159338 0.00954336 0.54509804 0.71372549 0.60000000
v -0.04538392 -0.01157539 0.00952360 0.54509804 0.71372549 0.60000000
v -0.04538392 -0.01080689 0.01027968 0.54509804 0.71372549 0.60000000
v -0.04538392 -0.00970427 0.01104833 0.54509804 0.71372549 0.60000000
v -0.04384603 -0.00895376 0.01148474 0.54509804 0.71372549 0.60000000
v -0.04384603 -0.00793339 0.01183314 0.54509804 0.71372549 0.60000000
v -0.04384603 -0.00639382 0.01220669 0.54509804 0.71372549 0.60000000
v -0.04230814 -0.00331984 0.01257126 0.54509804 0.71372549 0.60000000
v -0.03923236 -0.00331984 0.01254971 0.54509804 0.71372549 0.60000000
v -0.04538392 -0.00178285 0.01267722 0.54509804 0.71372549 0.60000000
v -0.04384603 -0.00485683 0.01245093 0.54509804 0.71372549 0.60000000
v -0.04538392 -0.00024329 0.01275444 0.54509804 0.71372549 0.60000000
v -0.03614777 -0.00331984 0.01252097 0.54509804 0.71372549 0.60000000
v -0.04920775 -0.01308154 -0.00554587 0.54509804 0.71372549 0.60000000
v -0.04845531 -0.01309182 -0.00171699 0.54509804 0.71372549 0.60000000
v -0.04845531 -0.01316892 -0.00554587 0.54509804 0.71372549 0.60000000
v -0.04692181 -0.01305583 0.00135761 0.54509804 0.71372549 0.60000000
v -0.03614777 -0.01280652 0.00597668 0.54509804 0.71372549 0.60000000
v -0.04384603 0.01073412 0.01088670 0.54509804 0.71372549 0.60000000
v -0.04384603 0.00744167 0.01232881 0.54509804 0.71372549 0.60000000
v -0.04384603 0.00897866 0.01189779 0.54509804 0.71372549 0.60000000
v -0.04384603 0.00996563 0.01148653 0.54509804 0.71372549 0.60000000
v -0.04384603 0.00590468 0.01257485 0.54509804 0.71372549 0.60000000
v -0.04538392 0.00282813 0.01273648 0.54509804 0.71372549 0.60000000
v -0.04384603 0.00436769 0.01268081 0.54509804 0.71372549 0.60000000
v -0.04384603 0.00129113 0.01274905 0.54509804 0.71372549 0.60000000
v -0.04384603 -0.00024329 0.01273648 0.54509804 0.71372549 0.60000000
v -0.03614777 -0.00024329 0.01263771 0.54509804 0.71372549 0.60000000
v -0.04230814 0.01073155 0.01087772 0.54509804 0.71372549 0.60000000
v -0.04230814 0.01152318 0.01010907 0.54509804 0.71372549 0.60000000
v -0.03769446 0.01206807 0.00904409 0.54509804 0.71372549 0.60000000
v -0.03615657 0.01147692 0.01005340 0.54509804 0.71372549 0.60000000
v -0.03614777 0.01147949 0.01004801 0.54509804 0.71372549 0.60000000
v -0.03614777 0.01255898 0.00442322 0.54509804 0.71372549 0.60000000
v -0.04538392 0.01235336 -0.00554587 0.54509804 0.71372549 0.60000000
v -0.04653899 0.01272604 -0.00554587 0.54509804 0.71372549 0.60000000
v -0.04691522 0.01282371 -0.00554587 0.54509804 0.71372549 0.60000000
v -0.03614777 -0.01203803 0.00875316 0.54509804 0.71372549 0.60000000
v -0.04077025 -0.01203803 0.00877471 0.54509804 0.71372549 0.60000000
v -0.04230814 -0.01203803 0.00878009 0.54509804 0.71372549 0.60000000
v -0.04230814 -0.01159852 0.00954875 0.54509804 0.71372549 0.60000000
v -0.04384603 -0.01082488 0.01028507 0.54509804 0.71372549 0.60000000
v -0.04384603 -0.00972226 0.01105372 0.54509804 0.71372549 0.60000000
v -0.04230814 -0.00971198 0.01105192 0.54509804 0.71372549 0.60000000
v -0.04077025 -0.00969913 0.01104833 0.54509804 0.71372549 0.60000000
v -0.03769446 -0.00967085 0.01104115 0.54509804 0.71372549 0.60000000
v -0.03614777 -0.00965543 0.01103755 0.54509804 0.71372549 0.60000000
v -0.04230814 -0.00894348 0.01147755 0.54509804 0.71372549 0.60000000
v -0.04230814 -0.00793339 0.01182416 0.54509804 0.71372549 0.60000000
v -0.04230814 -0.00639382 0.01219771 0.54509804 0.71372549 0.60000000
v -0.04077025 -0.00485683 0.01243118 0.54509804 0.71372549 0.60000000
v -0.03614777 -0.00485683 0.01239885 0.54509804 0.71372549 0.60000000
v -0.03614777 -0.00178285 0.01258024 0.54509804 0.71372549 0.60000000
v -0.04766986 -0.01311752 -0.00554587 0.54509804 0.71372549 0.60000000
v -0.03614777 -0.01275512 0.00443041 0.54509804 0.71372549 0.60000000
v -0.03614777 -0.01280652 0.00596950 0.54509804 0.71372549 0.60000000
v -0.04230814 0.00996306 0.01148474 0.54509804 0.71372549 0.60000000
v -0.03923236 0.00590468 0.01250661 0.54509804 0.71372549 0.60000000
v -0.04230814 0.00744167 0.01230546 0.54509804 0.71372549 0.60000000
v -0.04230814 0.00897866 0.01188702 0.54509804 0.71372549 0.60000000
v -0.03615657 0.00129113 0.01264309 0.54509804 0.71372549 0.60000000
v -0.03614777 0.00437540 0.01256587 0.54509804 0.71372549 0.60000000
v -0.03614777 0.00129113 0.01264130 0.54509804 0.71372549 0.60000000
v -0.04077025 0.01071613 0.01086514 0.54509804 0.71372549 0.60000000
v -0.04077025 0.01151033 0.01009650 0.54509804 0.71372549 0.60000000
v -0.04077025 0.00994764 0.01147575 0.54509804 0.71372549 0.60000000
v -0.03923236 0.01068529 0.01085257 0.54509804 0.71372549 0.60000000
v -0.03769446 0.01064674 0.01083641 0.54509804 0.71372549 0.60000000
v -0.03614777 0.01060304 0.01082204 0.54509804 0.71372549 0.60000000
v -0.03614777 0.01200381 0.00289131 0.54509804 0.71372549 0.60000000
v -0.03615657 0.01200895 0.00289490 0.54509804 0.71372549 0.60000000
v -0.04407044 0.01168253 -0.00554587 0.54509804 0.71372549 0.60000000
v -0.03614777 -0.01157282 0.00952181 0.54509804 0.71372549 0.60000000
v -0.03923236 -0.01158824 0.00953617 0.54509804 0.71372549 0.60000000
v -0.04077025 -0.01159338 0.00954336 0.54509804 0.71372549 0.60000000
v -0.03769446 -0.01081203 0.01027250 0.54509804 0.71372549 0.60000000
v -0.04077025 -0.01082488 0.01027968 0.54509804 0.71372549 0.60000000
v -0.04230814 -0.01083002 0.01028327 0.54509804 0.71372549 0.60000000
v -0.03614777 -0.01080432 0.01026890 0.54509804 0.71372549 0.60000000
v -0.03614777 -0.00888694 0.01144343 0.54509804 0.71372549 0.60000000
v -0.03769446 -0.00890236 0.01145241 0.54509804 0.71372549 0.60000000
v -0.03614777 -0.00793339 0.01177208 0.54509804 0.71372549 0.60000000
v -0.03614777 -0.00639382 0.01215640 0.54509804 0.71372549 0.60000000
v -0.03769446 -0.00639382 0.01216718 0.54509804 0.71372549 0.60000000
v -0.04692181 -0.01305583 -0.00554587 0.54509804 0.71372549 0.60000000
v -0.04613417 -0.01288620 -0.00554587 0.54509804 0.71372549 0.60000000
v -0.04538392 -0.01270628 -0.00554587 0.54509804 0.71372549 0.60000000
v -0.03614777 -0.01231561 0.00289490 0.54509804 0.71372549 0.60000000
v -0.03769446 0.00590468 0.01248326 0.54509804 0.71372549 0.60000000
v -0.03614777 0.00590468 0.01245812 0.54509804 0.71372549 0.60000000
v -0.03923236 0.00744167 0.01225518 0.54509804 0.71372549 0.60000000
v -0.04077025 0.00897866 0.01186367 0.54509804 0.71372549 0.60000000
v -0.03614777 0.00129885 0.01264130 0.54509804 0.71372549 0.60000000
v -0.03923236 0.00991679 0.01145420 0.54509804 0.71372549 0.60000000
v -0.03769446 0.00987824 0.01142906 0.54509804 0.71372549 0.60000000
v -0.03614777 0.00983969 0.01139853 0.54509804 0.71372549 0.60000000
v -0.03614777 0.01143322 0.00195026 0.54509804 0.71372549 0.60000000
v -0.04367662 0.01137925 -0.00554587 0.54509804 0.71372549 0.60000000
v -0.04462488 -0.01241328 -0.00554587 0.54509804 0.71372549 0.60000000
v -0.04394724 -0.01213055 -0.00554587 0.54509804 0.71372549 0.60000000
v -0.04317719 -0.01171161 -0.00554587 0.54509804 0.71372549 0.60000000
v -0.03614777 -0.01185297 0.00201311 0.54509804 0.71372549 0.60000000
v -0.03614777 0.00744167 0.01219053 0.54509804 0.71372549 0.60000000
v -0.03769446 0.00744167 0.01222465 0.54509804 0.71372549 0.60000000
v -0.03923236 0.00897866 0.01182416 0.54509804 0.71372549 0.60000000
v -0.03615657 0.00983455 0.01140212 0.54509804 0.71372549 0.60000000
v -0.03614777 0.00897866 0.01173437 0.54509804 0.71372549 0.60000000
v -0.03614777 0.01047967 0.00107924 0.54509804 0.71372549 0.60000000
v -0.04330260 0.01107339 -0.00554587 0.54509804 0.71372549 0.60000000
v -0.04272616 -0.01127724 -0.00554587 0.54509804 0.71372549 0.60000000
v -0.03614777 -0.01120528 0.00123908 0.54509804 0.71372549 0.60000000
v -0.03614777 0.01035887 0.00097328 0.54509804 0.71372549 0.60000000
v -0.04260736 0.01030490 -0.00554587 0.54509804 0.71372549 0.60000000
v -0.04233894 -0.01088400 -0.00554587 0.54509804 0.71372549 0.60000000
v -0.03614777 -0.01043678 0.00043451 0.54509804 0.71372549 0.60000000
v -0.03614777 0.00982426 0.00052251 0.54509804 0.71372549 0.60000000
v -0.04221353 0.00978057 -0.00554587 0.54509804 0.71372549 0.60000000
v -0.04164590 -0.01006410 -0.00554587 0.54509804 0.71372549 0.60000000
v -0.04145669 -0.00976081 -0.00554587 0.54509804 0.71372549 0.60000000
v -0.04123007 -0.00936757 -0.00554587 0.54509804 0.71372549 0.60000000
v -0.03614777 -0.00947552 -0.00010965 0.54509804 0.71372549 0.60000000
v -0.03614777 0.00908918 0.00011124 0.54509804 0.71372549 0.60000000
v -0.04180431 0.00914059 -0.00554587 0.54509804 0.71372549 0.60000000
v -0.04051063 -0.00788198 -0.00554587 0.54509804 0.71372549 0.60000000
v -0.03614777 -0.00798479 -0.00077953 0.54509804 0.71372549 0.60000000
v -0.03614777 0.00741854 -0.00062867 0.54509804 0.71372549 0.60000000
v -0.04121248 0.00798656 -0.00554587 0.54509804 0.71372549 0.60000000
v -0.04141269 0.00843635 -0.00554587 0.54509804 0.71372549 0.60000000
v -0.04011681 -0.00656089 -0.00554587 0.54509804 0.71372549 0.60000000
v -0.03614777 -0.00790768 -0.00080467 0.54509804 0.71372549 0.60000000
v -0.03614777 0.00650868 -0.00092499 0.54509804 0.71372549 0.60000000
v -0.04046003 0.00585842 -0.00554587 0.54509804 0.71372549 0.60000000
v -0.04072404 0.00665518 -0.00554587 0.54509804 0.71372549 0.60000000
v -0.04101226 0.00750850 -0.00554587 0.54509804 0.71372549 0.60000000
v -0.03614777 -0.00655832 -0.00117103 0.54509804 0.71372549 0.60000000
v -0.04005080 -0.00627302 -0.00554587 0.54509804 0.71372549 0.60000000
v -0.03614777 -0.00637326 -0.00121952 0.54509804 0.71372549 0.60000000
v -0.03614777 0.00574790 -0.00111716 0.54509804 0.71372549 0.60000000
v -0.04016521 0.00436769 -0.00554587 0.54509804 0.71372549 0.60000000
v -0.03992980 -0.00541714 -0.00554587 0.54509804 0.71372549 0.60000000
v -0.03983959 -0.00477716 -0.00554587 0.54509804 0.71372549 0.60000000
v -0.03614777 -0.00631158 -0.00122850 0.54509804 0.71372549 0.60000000
v -0.03614777 0.00436769 -0.00133446 0.54509804 0.71372549 0.60000000
v -0.03979779 0.00126029 -0.00554587 0.54509804 0.71372549 0.60000000
v -0.03971858 -0.00331984 -0.00554587 0.54509804 0.71372549 0.60000000
v -0.03614777 -0.00485683 -0.00138475 0.54509804 0.71372549 0.60000000
v -0.03614777 0.00282042 -0.00147993 0.54509804 0.71372549 0.60000000
v -0.03614777 0.00129113 -0.00161642 0.54509804 0.71372549 0.60000000
v -0.03974939 0.00048666 -0.00554587 0.54509804 0.71372549 0.60000000
v -0.03970318 -0.00256677 -0.00554587 0.54509804 0.71372549 0.60000000
v -0.03614777 -0.00025100 -0.00166132 0.54509804 0.71372549 0.60000000
v -0.03614777 -0.00179056 -0.00160205 0.54509804 0.71372549 0.60000000
v -0.03614777 -0.00332755 -0.00150866 0.54509804 0.71372549 0.60000000
v -0.03614777 -0.00024329 -0.00166132 0.54509804 0.71372549 0.60000000
v -0.03970538 -0.00024329 -0.00554587 0.54509804 0.71372549 0.60000000
v -0.03968778 -0.00178285 -0.00554587 0.54509804 0.71372549 0.60000000
v -0.03969438 -0.00102977 -0.00554587 0.54509804 0.71372549 0.60000000
f 1 2 3
f 1 3 4
f 1 4 5
f 1 5 6
f 1 6 14
f 1 14 28
f 1 28 46
f 1 46 69
f 1 69 100
f 1 100 138
f 1 138 137
f 1 137 176
f 1 176 216
f 1 216 173
f 1 173 218
f 1 218 269
f 1 269 319
f 1 319 349
f 1 349 306
f 1 306 257
f 1 257 305
f 1 305 310
f 1 310 313
f 1 313 312
f 1 312 355
f 1 355 393
f 1 393 405
f 1 405 453
f 1 453 412
f 1 412 363
f 1 363 411
f 1 411 456
f 1 456 497
f 1 497 496
f 1 496 495
f 1 495 532
f 1 532 558
f 1 558 569
f 1 569 573
f 1 573 577
f 1 577 583
f 1 583 588
f 1 588 587
f 1 587 594
f 1 594 593
f 1 593 592
f 1 592 599
f 1 599 604
f 1 604 609
f 1 609 615
f 1 615 617
f 1 617 616
f 1 616 610
f 1 610 605
f 1 605 601
f 1 601 600
f 1 600 596
f 1 596 589
f 1 589 584
f 1 584 580
f 1 580 579
f 1 579 578
f 1 578 574
f 1 574 570
f 1 570 561
f 1 561 560
f 1 560 559
f 1 559 547
f 1 547 546
f 1 546 545
f 1 545 514
f 1 514 476
f 1 476 474
f 1 474 434
f 1 434 430
f 1 430 378
f 1 378 332
f 1 332 284
f 1 284 235
f 1 235 282
f 1 282 233
f 1 233 187
f 1 187 145
f 1 145 108
f 1 108 102
f 1 102 72
f 1 72 47
f 1 47 29
f 1 29 15
f 1 15 7
f 1 7 2
f 2 7 8
f 2 8 3
f 3 9 4
f 3 8 10
f 3 10 9
f 4 9 5
f 5 11 12
f 5 12 13
f 5 13 6
f 5 9 11
f 6 13 14
f 7 15 16
f 7 16 8
f 8 17 18
f 8 18 10
f 8 16 19
f 8 19 20
f 8 20 21
f 8 21 17
f 9 22 23
f 9 23 11
f 9 10 18
f 9 18 22
f 11 23 24
f 11 24 25
f 11 25 13
f 11 13 12
f 13 26 14
f 13 25 27
f 13 27 26
f 14 26 28
f 15 29 30
f 15 30 31
f 15 31 16
f 16 31 19
f 17 32 33
f 17 33 18
f 17 21 34
f 17 34 32
f 18 33 22
f 19 31 35
f 19 35 20
f 20 35 36
f 20 36 21
f 21 36 37
f 21 37 38
f 21 38 34
f 22 39 40
f 22 40 23
f 22 33 39
f 23 40 41
f 23 41 42
f 23 42 24
f 24 42 43
f 24 43 44
f 24 44 25
f 25 44 27
f 26 27 45
f 26 45 28
f 27 44 45
f 28 45 46
f 29 47 30
f 30 47 48
f 30 48 35
f 30 35 31
f 32 34 49
f 32 49 50
f 32 50 33
f 33 50 39
f 34 51 49
f 34 38 52
f 34 52 53
f 34 53 51
f 35 48 54
f 35 54 55
f 35 55 56
f 35 56 57
f 35 57 36
f 36 57 37
f 37 57 58
f 37 58 59
f 37 59 52
f 37 52 38
f 39 60 61
f 39 61 40
f 39 50 60
f 40 61 41
f 41 61 62
f 41 62 63
f 41 63 64
f 41 64 42
f 42 64 43
f 43 64 65
f 43 65 66
f 43 66 67
f 43 67 44
f 44 68 69
f 44 69 45
f 44 67 70
f 44 70 71
f 44 71 68
f 45 69 46
f 47 72 73
f 47 73 48
f 48 73 54
f 49 74 50
f 49 51 74
f 50 74 60
f 51 53 59
f 51 59 75
f 51 75 76
f 51 76 77
f 51 77 74
f 52 59 53
f 54 73 55
f 55 73 72
f 55 72 78
f 55 78 79
f 55 79 80
f 55 80 56
f 56 80 57
f 57 80 81
f 57 81 58
f 58 81 59
f 59 81 82
f 59 82 75
f 60 74 83
f 60 83 84
f 60 84 85
f 60 85 86
f 60 86 61
f 61 86 87
f 61 87 88
f 61 88 62
f 62 88 63
f 63 89 65
f 63 65 64
f 63 88 89
f 65 89 90
f 65 90 91
f 65 91 92
f 65 92 93
f 65 93 94
f 65 94 95
f 65 95 96
f 65 96 66
f 66 96 97
f 66 97 98
f 66 98 67
f 67 98 70
f 68 99 100
f 68 100 69
f 68 71 101
f 68 101 99
f 70 98 71
f 71 98 101
f 72 102 78
f 74 77 103
f 74 103 83
f 75 82 104
f 75 104 76
f 76 104 105
f 76 105 106
f 76 106 77
f 77 107 103
f 77 106 107
f 78 102 108
f 78 108 109
f 78 109 79
f 79 109 110
f 79 110 111
f 79 111 80
f 80 112 81
f 80 111 113
f 80 113 112
f 81 112 114
f 81 114 115
f 81 115 82
f 82 115 116
f 82 116 104
f 83 103 84
f 84 117 85
f 84 103 107
f 84 107 118
f 84 118 117
f 85 117 119
f 85 119 86
f 86 119 87
f 87 119 120
f 87 120 88
f 88 121 89
f 88 120 121
f 89 121 90
f 90 122 123
f 90 123 91
f 90 121 124
f 90 124 122
f 91 123 92
f 92 125 93
f 92 123 125
f 93 125 126
f 93 126 127
f 93 127 128
f 93 128 129
f 93 129 94
f 94 129 130
f 94 130 96
f 94 96 95
f 96 130 97
f 97 130 98
f 98 131 101
f 98 130 132
f 98 132 133
f 98 133 134
f 98 134 135
f 98 135 131
f 99 136 100
f 99 101 137
f 99 137 136
f 100 136 138
f 101 131 137
f 104 116 139
f 104 139 140
f 104 140 141
f 104 141 142
f 104 142 105
f 105 142 106
f 106 142 143
f 106 143 107
f 107 143 144
f 107 144 117
f 107 117 118
f 108 145 146
f 108 146 110
f 108 110 109
f 110 146 188
f 110 188 147
f 110 147 111
f 111 147 148
f 111 148 113
f 112 113 114
f 113 148 149
f 113 149 150
f 113 150 151
f 113 151 114
f 114 151 115
f 115 151 152
f 115 152 116
f 116 152 139
f 117 144 153
f 117 153 154
f 117 154 155
f 117 155 119
f 119 155 156
f 119 156 157
f 119 157 120
f 120 157 121
f 121 157 124
f 122 158 159
f 122 159 160
f 122 160 123
f 122 124 158
f 123 160 125
f 124 161 162
f 124 162 158
f 124 157 163
f 124 163 161
f 125 160 164
f 125 164 165
f 125 165 126
f 126 165 127
f 127 166 128
f 127 165 167
f 127 167 168
f 127 168 169
f 127 169 166
f 128 166 170
f 128 170 129
f 129 171 132
f 129 132 130
f 129 170 171
f 131 172 137
f 131 135 173
f 131 173 172
f 132 171 134
f 132 134 133
f 134 171 174
f 134 174 135
f 135 174 173
f 136 137 138
f 137 172 175
f 137 175 176
f 139 152 177
f 139 177 178
f 139 178 179
f 139 179 180
f 139 180 140
f 140 180 181
f 140 181 141
f 141 181 142
f 142 181 182
f 142 182 183
f 142 183 143
f 143 184 185
f 143 185 144
f 143 183 184
f 144 185 186
f 144 186 153
f 145 187 188
f 145 188 146
f 147 188 189
f 147 189 190
f 147 190 148
f 148 190 149
f 149 190 191
f 149 191 150
f 150 192 151
f 150 191 193
f 150 193 192
f 151 192 152
f 152 192 177
f 153 186 194
f 153 194 154
f 154 194 195
f 154 195 155
f 155 195 156
f 156 195 196
f 156 196 157
f 157 196 163
f 158 162 197
f 158 197 198
f 158 198 159
f 159 199 200
f 159 200 201
f 159 201 165
f 159 165 164
f 159 164 160
f 159 198 202
f 159 202 199
f 161 203 204
f 161 204 197
f 161 197 162
f 161 163 205
f 161 205 206
f 161 206 203
f 163 196 205
f 165 201 200
f 165 200 207
f 165 207 208
f 165 208 167
f 166 209 170
f 166 169 210
f 166 210 211
f 166 211 209
f 167 208 168
f 168 212 213
f 168 213 214
f 168 214 169
f 168 208 212
f 169 214 215
f 169 215 210
f 170 209 171
f 171 209 174
f 172 173 216
f 172 216 176
f 172 176 175
f 173 174 217
f 173 217 218
f 174 209 219
f 174 219 217
f 177 192 220
f 177 220 178
f 178 220 221
f 178 221 222
f 178 222 223
f 178 223 179
f 179 223 180
f 180 223 224
f 180 224 181
f 181 224 225
f 181 225 226
f 181 226 227
f 181 227 182
f 182 227 228
f 182 228 183
f 183 228 184
f 184 229 230
f 184 230 185
f 184 228 231
f 184 231 229
f 185 230 186
f 186 230 232
f 186 232 194
f 187 233 188
f 188 233 234
f 188 234 189
f 189 234 235
f 189 235 236
f 189 236 237
f 189 237 238
f 189 238 239
f 189 239 190
f 190 239 191
f 191 239 240
f 191 240 193
f 192 193 220
f 193 240 241
f 193 241 220
f 194 232 242
f 194 242 243
f 194 243 195
f 195 243 244
f 195 244 196
f 196 244 205
f 197 204 202
f 197 202 198
f 199 202 200
f 200 202 245
f 200 245 246
f 200 246 247
f 200 247 248
f 200 248 207
f 202 204 249
f 202 249 250
f 202 250 245
f 203 206 251
f 203 251 204
f 204 251 249
f 205 244 206
f 206 244 252
f 206 252 253
f 206 253 251
f 207 248 208
f 208 248 254
f 208 254 212
f 209 255 256
f 209 256 219
f 209 211 255
f 210 215 211
f 211 257 258
f 211 258 259
f 211 259 260
f 211 260 255
f 211 215 261
f 211 261 262
f 211 262 263
f 211 263 264
f 211 264 257
f 212 254 265
f 212 265 213
f 213 265 266
f 213 266 267
f 213 267 214
f 214 267 215
f 215 267 261
f 217 268 218
f 217 219 256
f 217 256 268
f 218 268 269
f 220 241 270
f 220 270 221
f 221 270 271
f 221 271 222
f 222 272 223
f 222 271 272
f 223 272 224
f 224 272 273
f 224 273 226
f 224 226 225
f 226 273 274
f 226 274 275
f 226 275 276
f 226 276 277
f 226 277 278
f 226 278 228
f 226 228 227
f 228 278 231
f 229 231 279
f 229 279 280
f 229 280 281
f 229 281 230
f 230 281 232
f 231 278 279
f 232 281 242
f 233 282 283
f 233 283 234
f 234 283 235
f 235 283 282
f 235 284 285
f 235 285 286
f 235 286 287
f 235 287 236
f 236 287 237
f 237 287 238
f 238 287 288
f 238 288 239
f 239 288 289
f 239 289 240
f 240 289 290
f 240 290 291
f 240 291 241
f 241 291 270
f 242 292 243
f 242 281 292
f 243 293 252
f 243 252 244
f 243 292 293
f 245 294 246
f 245 250 294
f 246 294 295
f 246 295 247
f 247 296 297
f 247 297 254
f 247 254 248
f 247 295 296
f 249 298 250
f 249 251 298
f 250 298 299
f 250 299 300
f 250 300 294
f 251 301 298
f 251 253 301
f 252 293 253
f 253 293 302
f 253 302 303
f 253 303 301
f 254 297 265
f 255 260 256
f 256 304 268
f 256 260 304
f 257 264 305
f 257 306 307
f 257 307 258
f 258 307 304
f 258 304 259
f 259 304 260
f 261 267 308
f 261 308 263
f 261 263 262
f 263 308 309
f 263 309 264
f 264 310 305
f 264 309 311
f 264 311 312
f 264 312 313
f 264 313 310
f 265 297 314
f 265 314 315
f 265 315 266
f 266 315 316
f 266 316 317
f 266 317 318
f 266 318 267
f 267 318 308
f 268 304 269
f 269 304 307
f 269 307 319
f 270 291 320
f 270 320 321
f 270 321 271
f 271 321 322
f 271 322 323
f 271 323 272
f 272 323 324
f 272 324 325
f 272 325 275
f 272 275 274
f 272 274 273
f 275 325 326
f 275 326 276
f 276 326 327
f 276 327 277
f 277 327 328
f 277 328 279
f 277 279 278
f 279 328 329
f 279 329 280
f 280 330 331
f 280 331 281
f 280 329 330
f 281 331 292
f 284 332 285
f 285 332 333
f 285 333 334
f 285 334 335
f 285 335 286
f 286 335 287
f 287 335 336
f 287 336 288
f 288 336 289
f 289 336 335
f 289 335 290
f 290 335 337
f 290 337 338
f 290 338 291
f 291 338 320
f 292 331 339
f 292 339 293
f 293 340 302
f 293 339 340
f 294 300 295
f 295 300 296
f 296 341 314
f 296 314 297
f 296 300 342
f 296 342 341
f 298 343 344
f 298 344 299
f 298 301 343
f 299 344 300
f 300 344 345
f 300 345 342
f 301 346 343
f 301 303 346
f 302 340 303
f 303 340 347
f 303 347 348
f 303 348 346
f 306 349 350
f 306 350 307
f 307 350 319
f 308 351 312
f 308 312 311
f 308 311 309
f 308 318 352
f 308 352 353
f 308 353 354
f 308 354 351
f 312 351 355
f 314 356 315
f 314 341 356
f 315 356 357
f 315 357 358
f 315 358 316
f 316 358 359
f 316 359 317
f 317 360 354
f 317 354 352
f 317 352 318
f 317 359 361
f 317 361 362
f 317 362 363
f 317 363 364
f 317 364 360
f 319 350 349
f 320 338 365
f 320 365 366
f 320 366 321
f 321 366 322
f 322 366 367
f 322 367 368
f 322 368 323
f 323 368 324
f 324 368 369
f 324 369 370
f 324 370 325
f 325 370 326
f 326 370 371
f 326 371 372
f 326 372 328
f 326 328 327
f 328 372 373
f 328 373 329
f 329 374 330
f 329 373 374
f 330 375 376
f 330 376 331
f 330 374 375
f 331 376 377
f 331 377 339
f 332 378 379
f 332 379 333
f 333 379 335
f 333 335 334
f 335 379 337
f 337 380 381
f 337 381 382
f 337 382 338
f 337 379 378
f 337 378 380
f 338 382 365
f 339 377 347
f 339 347 340
f 341 342 383
f 341 383 384
f 341 384 356
f 342 345 383
f 343 346 385
f 343 385 386
f 343 386 344
f 344 386 345
f 345 386 387
f 345 387 383
f 346 388 385
f 346 348 388
f 347 389 390
f 347 390 348
f 347 377 389
f 348 390 391
f 348 391 388
f 351 392 393
f 351 393 355
f 351 354 360
f 351 360 392
f 352 354 353
f 356 384 394
f 356 394 395
f 356 395 357
f 357 395 396
f 357 396 358
f 358 397 398
f 358 398 399
f 358 399 359
f 358 396 400
f 358 400 401
f 358 401 402
f 358 402 397
f 359 399 403
f 359 403 404
f 359 404 361
f 360 405 393
f 360 393 406
f 360 406 407
f 360 407 392
f 360 364 408
f 360 408 363
f 360 363 409
f 360 409 405
f 361 404 362
f 362 404 363
f 363 404 410
f 363 410 411
f 363 412 409
f 363 408 364
f 365 382 413
f 365 413 414
f 365 414 366
f 366 414 367
f 367 414 415
f 367 415 368
f 368 416 369
f 368 415 416
f 369 416 417
f 369 417 370
f 370 418 371
f 370 417 418
f 371 418 419
f 371 419 372
f 372 420 373
f 372 419 421
f 372 421 420
f 373 420 422
f 373 422 423
f 373 423 374
f 374 424 375
f 374 423 425
f 374 425 424
f 375 426 427
f 375 427 376
f 375 424 428
f 375 428 426
f 376 427 377
f 377 427 429
f 377 429 389
f 378 430 431
f 378 431 380
f 380 431 381
f 381 431 432
f 381 432 433
f 381 433 434
f 381 434 435
f 381 435 436
f 381 436 437
f 381 437 382
f 382 437 413
f 383 438 394
f 383 394 384
f 383 387 438
f 385 388 442
f 385 442 439
f 385 439 440
f 385 440 386
f 386 440 387
f 387 441 438
f 387 440 441
f 388 391 443
f 388 443 442
f 389 444 445
f 389 445 391
f 389 391 390
f 389 429 444
f 391 445 443
f 392 407 406
f 392 406 393
f 394 438 479
f 394 479 446
f 394 446 395
f 395 446 447
f 395 447 396
f 396 447 400
f 397 448 403
f 397 403 449
f 397 449 398
f 397 402 448
f 398 449 399
f 399 449 403
f 400 447 401
f 401 447 402
f 402 447 450
f 402 450 451
f 402 451 452
f 402 452 493
f 402 493 529
f 402 529 556
f 402 556 567
f 402 567 563
f 402 563 550
f 402 550 522
f 402 522 553
f 402 553 523
f 402 523 488
f 402 488 513
f 402 513 473
f 402 473 512
f 402 512 543
f 402 543 542
f 402 542 540
f 402 540 507
f 402 507 539
f 402 539 533
f 402 533 498
f 402 498 459
f 402 459 478
f 402 478 516
f 402 516 515
f 402 515 548
f 402 548 562
f 402 562 571
f 402 571 575
f 402 575 581
f 402 581 585
f 402 585 590
f 402 590 595
f 402 595 597
f 402 597 602
f 402 602 606
f 402 606 613
f 402 613 612
f 402 612 611
f 402 611 614
f 402 614 608
f 402 608 607
f 402 607 603
f 402 603 598
f 402 598 591
f 402 591 586
f 402 586 582
f 402 582 576
f 402 576 572
f 402 572 568
f 402 568 557
f 402 557 530
f 402 530 494
f 402 494 455
f 402 455 454
f 402 454 448
f 403 411 410
f 403 410 404
f 403 448 411
f 405 409 453
f 409 412 453
f 411 454 455
f 411 455 456
f 411 448 454
f 413 457 414
f 413 437 458
f 413 458 459
f 413 459 457
f 414 457 460
f 414 460 415
f 415 460 461
f 415 461 462
f 415 462 416
f 416 462 463
f 416 463 417
f 417 463 464
f 417 464 418
f 418 464 421
f 418 421 419
f 420 421 422
f 421 464 465
f 421 465 466
f 421 466 422
f 422 466 423
f 423 466 425
f 424 425 467
f 424 467 428
f 425 466 467
f 426 468 427
f 426 428 471
f 426 471 468
f 427 468 469
f 427 469 470
f 427 470 429
f 428 467 510
f 428 510 471
f 429 472 444
f 429 470 469
f 429 469 473
f 429 473 472
f 430 434 433
f 430 433 432
f 430 432 431
f 434 474 475
f 434 475 435
f 435 475 436
f 436 475 476
f 436 476 477
f 436 477 478
f 436 478 437
f 437 478 458
f 438 441 479
f 439 442 480
f 439 480 481
f 439 481 440
f 440 481 482
f 440 482 441
f 441 482 479
f 442 483 480
f 442 443 483
f 443 445 444
f 443 444 484
f 443 484 485
f 443 485 483
f 444 486 484
f 444 472 487
f 444 487 488
f 444 488 486
f 446 479 489
f 446 489 490
f 446 490 450
f 446 450 447
f 450 490 451
f 451 490 491
f 451 491 452
f 452 491 490
f 452 490 492
f 452 492 493
f 455 494 495
f 455 495 496
f 455 496 497
f 455 497 456
f 457 459 498
f 457 498 499
f 457 499 500
f 457 500 460
f 458 478 459
f 460 500 501
f 460 501 461
f 461 501 502
f 461 502 463
f 461 463 462
f 463 502 503
f 463 503 464
f 464 503 465
f 465 503 504
f 465 504 505
f 465 505 506
f 465 506 507
f 465 507 508
f 465 508 509
f 465 509 466
f 466 509 510
f 466 510 467
f 468 471 511
f 468 511 512
f 468 512 469
f 469 512 473
f 471 510 511
f 472 473 487
f 473 513 487
f 474 476 475
f 476 514 515
f 476 515 516
f 476 516 478
f 476 478 477
f 479 482 517
f 479 517 489
f 480 483 518
f 480 518 549
f 480 549 519
f 480 519 552
f 480 552 520
f 480 520 481
f 481 520 517
f 481 517 482
f 483 485 518
f 484 486 521
f 484 521 485
f 485 522 518
f 485 521 522
f 486 488 521
f 487 513 488
f 488 523 521
f 489 524 492
f 489 492 525
f 489 525 490
f 489 517 526
f 489 526 524
f 490 525 492
f 492 524 527
f 492 527 528
f 492 528 529
f 492 529 493
f 494 530 531
f 494 531 495
f 495 531 530
f 495 530 532
f 498 533 534
f 498 534 535
f 498 535 501
f 498 501 499
f 499 501 500
f 501 535 536
f 501 536 537
f 501 537 538
f 501 538 502
f 502 538 503
f 503 538 537
f 503 537 536
f 503 536 539
f 503 539 504
f 504 539 505
f 505 539 506
f 506 539 507
f 507 540 541
f 507 541 508
f 508 541 542
f 508 542 509
f 509 542 543
f 509 543 544
f 509 544 510
f 510 544 511
f 511 544 543
f 511 543 512
f 514 545 515
f 515 545 546
f 515 546 547
f 515 547 548
f 517 520 526
f 518 522 549
f 519 549 550
f 519 550 551
f 519 551 552
f 520 552 526
f 521 523 553
f 521 553 522
f 522 550 549
f 524 526 527
f 526 554 527
f 526 552 554
f 527 554 528
f 528 554 529
f 529 554 555
f 529 555 556
f 530 557 532
f 532 557 558
f 533 539 534
f 534 539 535
f 535 539 536
f 540 542 541
f 547 559 548
f 548 559 560
f 548 560 561
f 548 561 562
f 550 563 564
f 550 564 551
f 551 564 552
f 552 565 554
f 552 564 563
f 552 563 565
f 554 565 555
f 555 566 556
f 555 565 566
f 556 566 567
f 557 568 569
f 557 569 558
f 561 570 571
f 561 571 562
f 563 567 565
f 565 567 566
f 568 572 573
f 568 573 569
f 570 574 575
f 570 575 571
f 572 576 573
f 573 576 577
f 574 578 575
f 575 578 579
f 575 579 580
f 575 580 581
f 576 582 583
f 576 583 577
f 580 584 581
f 581 584 585
f 582 586 587
f 582 587 588
f 582 588 583
f 584 589 590
f 584 590 585
f 586 591 592
f 586 592 593
f 586 593 594
f 586 594 587
f 589 595 590
f 589 596 597
f 589 597 595
f 591 598 592
f 592 598 599
f 596 600 597
f 597 600 601
f 597 601 602
f 598 603 599
f 599 603 604
f 601 605 606
f 601 606 602
f 603 607 604
f 604 607 608
f 604 608 609
f 605 610 611
f 605 611 612
f 605 612 613
f 605 613 606
f 608 614 615
f 608 615 609
f 610 616 611
f 611 616 614
f 614 616 617
f 614 617 615

