# https://github.com/mikedh/trimesh
v 0.02743831 0.03223099 -0.05144094 0.43529412 0.98823529 0.10196078
v 0.02687578 0.03222424 -0.05144094 0.43529412 0.98823529 0.10196078
v 0.02844029 0.03221074 -0.05144094 0.43529412 0.98823529 0.10196078
v 0.02798697 0.03293282 -0.05289020 0.43529412 0.98823529 0.10196078
v 0.02734297 0.03293282 -0.05289020 0.43529412 0.98823529 0.10196078
v 0.02688792 0.03449845 -0.05744959 0.43529412 0.98823529 0.10196078
v 0.02611043 0.03435673 -0.05781442 0.43529412 0.98823529 0.10196078
v 0.02626298 0.03185308 -0.05144094 0.43529412 0.98823529 0.10196078
v 0.02924724 0.03439722 -0.05771500 0.43529412 0.98823529 0.10196078
v 0.02940846 0.03156290 -0.05144094 0.43529412 0.98823529 0.10196078
v 0.02842469 0.03453219 -0.05737480 0.43529412 0.98823529 0.10196078
v 0.02842469 0.03494385 -0.05861156 0.43529412 0.98823529 0.10196078
v 0.02688792 0.03484937 -0.05861156 0.43529412 0.98823529 0.10196078
v 0.02603676 0.03443771 -0.05861156 0.43529412 0.98823529 0.10196078
v 0.02348674 0.03053714 -0.05854589 0.43529412 0.98823529 0.10196078
v 0.02348674 0.02794575 -0.05144094 0.43529412 0.98823529 0.10196078
v 0.02591454 0.03156964 -0.05144094 0.43529412 0.98823529 0.10196078
v 0.02937726 0.03453894 -0.05861156 0.43529412 0.98823529 0.10196078
v 0.03234159 0.02934942 -0.05144094 0.43529412 0.98823529 0.10196078
v 0.02938419 0.03454569 -0.05962759 0.43529412 0.98823529 0.10196078
v 0.02842469 0.03476839 -0.05984101 0.43529412 0.98823529 0.10196078
v 0.02688792 0.03470090 -0.05977535 0.43529412 0.98823529 0.10196078
v 0.02601856 0.03446471 -0.05953912 0.43529412 0.98823529 0.10196078
v 0.02348674 0.03048990 -0.05994681 0.43529412 0.98823529 0.10196078
v 0.02348674 -0.03141997 -0.05144094 0.43529412 0.98823529 0.10196078
v 0.03234159 0.03081382 -0.05799683 0.43529412 0.98823529 0.10196078
v 0.03234159 0.03094204 -0.05861156 0.43529412 0.98823529 0.10196078
v 0.03234159 -0.03098807 -0.05144094 0.43529412 0.98823529 0.10196078
v 0.02842469 0.03358067 -0.06046213 0.43529412 0.98823529 0.10196078
v 0.03234159 0.03079358 -0.05921808 0.43529412 0.98823529 0.10196078
v 0.03234159 0.03057088 -0.06009001 0.43529412 0.98823529 0.10196078
v 0.02688792 0.03358067 -0.06036910 0.43529412 0.98823529 0.10196078
v 0.02348674 0.02928868 -0.06049131 0.43529412 0.98823529 0.10196078
v 0.02348674 -0.03353222 -0.05710757 0.43529412 0.98823529 0.10196078
v 0.03063580 -0.03181138 -0.05154947 0.43529412 0.98823529 0.10196078
v 0.03078748 -0.03172365 -0.05144094 0.43529412 0.98823529 0.10196078
v 0.03158750 -0.03141997 -0.05144094 0.43529412 0.98823529 0.10196078
v 0.03234159 -0.03109605 -0.05170543 0.43529412 0.98823529 0.10196078
v 0.02842469 0.03204203 -0.06064363 0.43529412 0.98823529 0.10196078
v 0.02688792 0.03204203 -0.06061262 0.43529412 0.98823529 0.10196078
v 0.03234159 0.02971383 -0.06042473 0.43529412 0.98823529 0.10196078
v 0.03234159 0.02896476 -0.06069470 0.43529412 0.98823529 0.10196078
v 0.02348674 0.02896476 -0.06061535 0.43529412 0.98823529 0.10196078
v 0.02348674 -0.03356596 -0.05719877 0.43529412 0.98823529 0.10196078
v 0.03057079 -0.03338376 -0.05607694 0.43529412 0.98823529 0.10196078
v 0.03085422 -0.03181138 -0.05154947 0.43529412 0.98823529 0.10196078
v 0.03096343 -0.03172365 -0.05144094 0.43529412 0.98823529 0.10196078
v 0.03202349 -0.03320830 -0.05652841 0.43529412 0.98823529 0.10196078
v 0.03234159 -0.03342424 -0.05749976 0.43529412 0.98823529 0.10196078
v 0.02842469 0.03050339 -0.06067920 0.43529412 0.98823529 0.10196078
v 0.02688792 0.03050339 -0.06067464 0.43529412 0.98823529 0.10196078
v 0.02348674 0.02742612 -0.06072754 0.43529412 0.98823529 0.10196078
v 0.02348674 0.02775679 -0.06070747 0.43529412 0.98823529 0.10196078
v 0.03234159 0.02742612 -0.06072571 0.43529412 0.98823529 0.10196078
v 0.02348674 -0.03398436 -0.05854407 0.43529412 0.98823529 0.10196078
v 0.03099811 -0.03338376 -0.05607694 0.43529412 0.98823529 0.10196078
v 0.03150690 -0.03354572 -0.05705376 0.43529412 0.98823529 0.10196078
v 0.03234159 -0.03347148 -0.05766666 0.43529412 0.98823529 0.10196078
v 0.02842469 0.02896476 -0.06071021 0.43529412 0.98823529 0.10196078
v 0.02688792 0.02896476 -0.06070838 0.43529412 0.98823529 0.10196078
v 0.02535028 0.02742612 -0.06072845 0.43529412 0.98823529 0.10196078
v 0.02348674 0.02589423 -0.06073392 0.43529412 0.98823529 0.10196078
v 0.03234159 0.02658932 -0.06072754 0.43529412 0.98823529 0.10196078
v 0.02996232 0.02742612 -0.06072845 0.43529412 0.98823529 0.10196078
v 0.02348674 -0.03380891 -0.05991398 0.43529412 0.98823529 0.10196078
v 0.03149996 -0.03397087 -0.05861156 0.43529412 0.98823529 0.10196078
v 0.03234159 -0.03368743 -0.05861156 0.43529412 0.98823529 0.10196078
v 0.02535028 0.02589423 -0.06073483 0.43529412 0.98823529 0.10196078
v 0.02535028 0.02281696 -0.06074213 0.43529412 0.98823529 0.10196078
v 0.02348674 0.02467952 -0.06073666 0.43529412 0.98823529 0.10196078
v 0.03234159 0.01666242 -0.06074122 0.43529412 0.98823529 0.10196078
v 0.02842469 0.01513053 -0.06075125 0.43529412 0.98823529 0.10196078
v 0.02688792 0.01666242 -0.06075216 0.43529412 0.98823529 0.10196078
v 0.02842469 0.02127833 -0.06074213 0.43529412 0.98823529 0.10196078
v 0.02842469 0.02435560 -0.06073666 0.43529412 0.98823529 0.10196078
v 0.02688792 0.02589423 -0.06073483 0.43529412 0.98823529 0.10196078
v 0.02348674 -0.03253346 -0.06053965 0.43529412 0.98823529 0.10196078
v 0.03149996 -0.03253346 -0.06053236 0.43529412 0.98823529 0.10196078
v 0.03149996 -0.03372792 -0.05990486 0.43529412 0.98823529 0.10196078
v 0.03234159 -0.03358621 -0.05976805 0.43529412 0.98823529 0.10196078
v 0.02535028 0.01973969 -0.06074851 0.43529412 0.98823529 0.10196078
v 0.02381264 0.01973969 -0.06074760 0.43529412 0.98823529 0.10196078
v 0.02348674 0.01699309 -0.06075308 0.43529412 0.98823529 0.10196078
v 0.03234159 0.01513053 -0.06074304 0.43529412 0.98823529 0.10196078
v 0.03149996 0.01513053 -0.06074487 0.43529412 0.98823529 0.10196078
v 0.03234159 0.01359189 -0.06074487 0.43529412 0.98823529 0.10196078
v 0.02996232 0.01359189 -0.06074943 0.43529412 0.98823529 0.10196078
v 0.02688792 0.01513053 -0.06075399 0.43529412 0.98823529 0.10196078
v 0.02535028 0.01513053 -0.06075672 0.43529412 0.98823529 0.10196078
v 0.02688792 0.02281696 -0.06074122 0.43529412 0.98823529 0.10196078
v 0.02996232 -0.03099482 -0.06064910 0.43529412 0.98823529 0.10196078
v 0.02348674 -0.03099482 -0.06063359 0.43529412 0.98823529 0.10196078
v 0.03234159 -0.03260094 -0.06029340 0.43529412 0.98823529 0.10196078
v 0.03149996 -0.03099482 -0.06064728 0.43529412 0.98823529 0.10196078
v 0.03234159 -0.03099482 -0.06063542 0.43529412 0.98823529 0.10196078
v 0.02348674 0.01513053 -0.06075672 0.43529412 0.98823529 0.10196078
v 0.02381264 0.01666242 -0.06075399 0.43529412 0.98823529 0.10196078
v 0.03234159 0.01274834 -0.06074395 0.43529412 0.98823529 0.10196078
v 0.03149996 0.01205326 -0.06074487 0.43529412 0.98823529 0.10196078
v 0.02688792 0.01359189 -0.06075490 0.43529412 0.98823529 0.10196078
v 0.02535028 0.01359189 -0.06075764 0.43529412 0.98823529 0.10196078
v 0.02381264 0.01359189 -0.06075855 0.43529412 0.98823529 0.10196078
v 0.03149996 -0.02945618 -0.06066552 0.43529412 0.98823529 0.10196078
v 0.03234159 -0.02945618 -0.06066643 0.43529412 0.98823529 0.10196078
v 0.03234159 -0.02791755 -0.06067737 0.43529412 0.98823529 0.10196078
v 0.02348674 -0.02484702 -0.06065457 0.43529412 0.98823529 0.10196078
v 0.02381264 -0.02484702 -0.06065640 0.43529412 0.98823529 0.10196078
v 0.03234159 -0.02722246 -0.06068011 0.43529412 0.98823529 0.10196078
v 0.02348674 0.01391582 -0.06075764 0.43529412 0.98823529 0.10196078
v 0.03234159 0.01205326 -0.06074304 0.43529412 0.98823529 0.10196078
v 0.02688792 0.01205326 -0.06075308 0.43529412 0.98823529 0.10196078
v 0.03234159 -0.00485150 -0.06071842 0.43529412 0.98823529 0.10196078
v 0.03234159 -0.02414519 -0.06068650 0.43529412 0.98823529 0.10196078
v 0.02381264 0.01205326 -0.06075490 0.43529412 0.98823529 0.10196078
v 0.02348674 0.01237718 -0.06075490 0.43529412 0.98823529 0.10196078
v 0.02348674 0.01359189 -0.06075764 0.43529412 0.98823529 0.10196078
v 0.03234159 -0.02568382 -0.06068376 0.43529412 0.98823529 0.10196078
v 0.02348674 -0.02330839 -0.06065913 0.43529412 0.98823529 0.10196078
v 0.02348674 -0.02297772 -0.06066005 0.43529412 0.98823529 0.10196078
v 0.02842469 -0.02484702 -0.06067281 0.43529412 0.98823529 0.10196078
v 0.02996232 -0.02484702 -0.06067829 0.43529412 0.98823529 0.10196078
f 1 2 8
f 1 8 17
f 1 17 16
f 1 16 25
f 1 25 36
f 1 36 47
f 1 47 37
f 1 37 28
f 1 28 19
f 1 19 10
f 1 10 3
f 1 3 4
f 1 4 5
f 1 5 2
f 2 5 6
f 2 6 7
f 2 7 8
f 3 9 4
f 3 10 9
f 4 9 11
f 4 11 5
f 5 11 6
f 6 11 12
f 6 12 13
f 6 13 7
f 7 13 14
f 7 14 15
f 7 15 16
f 7 16 17
f 7 17 8
f 9 18 12
f 9 12 11
f 9 10 19
f 9 19 18
f 12 18 20
f 12 20 21
f 12 21 22
f 12 22 13
f 13 22 23
f 13 23 14
f 14 23 15
f 15 23 24
f 15 24 33
f 15 33 43
f 15 43 53
f 15 53 52
f 15 52 62
f 15 62 70
f 15 70 83
f 15 83 96
f 15 96 109
f 15 109 116
f 15 116 115
f 15 115 119
f 15 119 118
f 15 118 106
f 15 106 92
f 15 92 77
f 15 77 65
f 15 65 55
f 15 55 44
f 15 44 34
f 15 34 25
f 15 25 16
f 18 26 27
f 18 27 20
f 18 19 26
f 19 28 38
f 19 38 49
f 19 49 58
f 19 58 67
f 19 67 80
f 19 80 93
f 19 93 95
f 19 95 104
f 19 104 105
f 19 105 108
f 19 108 117
f 19 117 113
f 19 113 112
f 19 112 110
f 19 110 98
f 19 98 86
f 19 86 84
f 19 84 71
f 19 71 63
f 19 63 54
f 19 54 42
f 19 42 41
f 19 41 31
f 19 31 30
f 19 30 27
f 19 27 26
f 20 29 21
f 20 27 30
f 20 30 31
f 20 31 29
f 21 29 32
f 21 32 22
f 22 32 23
f 23 32 33
f 23 33 24
f 25 34 35
f 25 35 36
f 28 37 38
f 29 39 40
f 29 40 32
f 29 31 41
f 29 41 42
f 29 42 39
f 32 40 43
f 32 43 33
f 34 44 35
f 35 44 45
f 35 45 56
f 35 56 46
f 35 46 47
f 35 47 36
f 37 47 48
f 37 48 49
f 37 49 38
f 39 50 51
f 39 51 40
f 39 42 50
f 40 51 52
f 40 52 53
f 40 53 43
f 42 54 59
f 42 59 50
f 44 55 45
f 45 55 56
f 46 56 48
f 46 48 47
f 48 56 57
f 48 57 49
f 49 57 58
f 50 59 60
f 50 60 51
f 51 60 52
f 52 60 59
f 52 59 61
f 52 61 68
f 52 68 62
f 54 63 64
f 54 64 59
f 55 65 66
f 55 66 56
f 56 66 57
f 57 66 58
f 58 66 67
f 59 64 61
f 61 64 76
f 61 76 68
f 62 68 69
f 62 69 70
f 63 71 72
f 63 72 73
f 63 73 74
f 63 74 75
f 63 75 64
f 64 75 76
f 65 77 78
f 65 78 79
f 65 79 66
f 66 79 80
f 66 80 67
f 68 76 69
f 69 76 90
f 69 90 81
f 69 81 97
f 69 97 82
f 69 82 70
f 70 82 83
f 71 84 85
f 71 85 72
f 72 85 86
f 72 86 87
f 72 87 88
f 72 88 73
f 73 88 89
f 73 89 74
f 74 89 75
f 75 89 90
f 75 90 76
f 77 91 78
f 77 92 91
f 78 93 79
f 78 91 94
f 78 94 95
f 78 95 93
f 79 93 80
f 81 90 89
f 81 89 96
f 81 96 97
f 82 97 83
f 83 97 96
f 84 86 85
f 86 98 99
f 86 99 87
f 87 99 100
f 87 100 88
f 88 100 101
f 88 101 89
f 89 101 102
f 89 102 96
f 91 92 103
f 91 103 104
f 91 104 94
f 92 105 103
f 92 106 107
f 92 107 108
f 92 108 105
f 94 104 95
f 96 102 109
f 98 110 99
f 99 111 100
f 99 110 112
f 99 112 111
f 100 111 101
f 101 111 112
f 101 112 113
f 101 113 102
f 102 114 115
f 102 115 116
f 102 116 109
f 102 113 117
f 102 117 108
f 102 108 114
f 103 105 104
f 106 118 107
f 107 118 119
f 107 119 115
f 107 115 120
f 107 120 108
f 108 120 121
f 108 121 115
f 108 115 114
f 115 121 120

