# https://github.com/mikedh/trimesh
v -0.01002565 -0.03296375 -0.03708558 0.13725490 0.19607843 0.36862745
v 0.00074666 -0.03293224 -0.03554818 0.13725490 0.19607843 0.36862745
v -0.00079105 -0.03293750 -0.03554818 0.13725490 0.19607843 0.36862745
v -0.00847799 -0.03294975 -0.03554818 0.13725490 0.19607843 0.36862745
v -0.01002565 -0.03295150 -0.03555864 0.13725490 0.19607843 0.36862745
v -0.01002565 -0.03293750 -0.03862194 0.13725490 0.19607843 0.36862745
v -0.01001571 -0.03293750 -0.03862194 0.13725490 0.19607843 0.36862745
v 0.00382210 -0.03290249 -0.03708558 0.13725490 0.19607843 0.36862745
v 0.00689920 -0.03288849 -0.03708558 0.13725490 0.19607843 0.36862745
v 0.00689920 -0.03290424 -0.03554818 0.13725490 0.19607843 0.36862745
v 0.00689920 -0.03248944 -0.03400973 0.13725490 0.19607843 0.36862745
v 0.00382210 -0.03249994 -0.03400973 0.13725490 0.19607843 0.36862745
v 0.00074666 -0.03250694 -0.03400973 0.13725490 0.19607843 0.36862745
v -0.00079105 -0.03250869 -0.03400973 0.13725490 0.19607843 0.36862745
v -0.01002565 -0.03294975 -0.03554818 0.13725490 0.19607843 0.36862745
v -0.01002565 -0.03293399 -0.03863345 0.13725490 0.19607843 0.36862745
v 0.00689920 -0.03285874 -0.03862194 0.13725490 0.19607843 0.36862745
v 0.00689920 -0.03191887 -0.03312852 0.13725490 0.19607843 0.36862745
v 0.00535982 -0.03192062 -0.03312747 0.13725490 0.19607843 0.36862745
v 0.00228438 -0.03192237 -0.03312747 0.13725490 0.19607843 0.36862745
v -0.00694027 -0.03250869 -0.03400973 0.13725490 0.19607843 0.36862745
v -0.01002565 -0.03251044 -0.03402124 0.13725490 0.19607843 0.36862745
v -0.01002565 -0.03237218 -0.04016563 0.13725490 0.19607843 0.36862745
v -0.01001571 -0.03237743 -0.04015935 0.13725490 0.19607843 0.36862745
v 0.00689920 -0.03236343 -0.04015935 0.13725490 0.19607843 0.36862745
v 0.00689920 -0.03099826 -0.03288362 0.13725490 0.19607843 0.36862745
v 0.00382210 -0.03099826 -0.03288048 0.13725490 0.19607843 0.36862745
v 0.00074666 -0.03099826 -0.03287839 0.13725490 0.19607843 0.36862745
v -0.00386483 -0.03192237 -0.03312747 0.13725490 0.19607843 0.36862745
v -0.00540255 -0.03192237 -0.03312852 0.13725490 0.19607843 0.36862745
v -0.01002565 -0.03250694 -0.03400973 0.13725490 0.19607843 0.36862745
v -0.01002565 -0.03180511 -0.04095264 0.13725490 0.19607843 0.36862745
v -0.00694027 -0.03180861 -0.04095788 0.13725490 0.19607843 0.36862745
v 0.00382210 -0.03182086 -0.04096834 0.13725490 0.19607843 0.36862745
v 0.00535982 -0.03182436 -0.04096625 0.13725490 0.19607843 0.36862745
v 0.00689754 -0.03182611 -0.04096625 0.13725490 0.19607843 0.36862745
v 0.00689920 -0.03182611 -0.04096416 0.13725490 0.19607843 0.36862745
v 0.00689920 -0.02945982 -0.03274443 0.13725490 0.19607843 0.36862745
v 0.00202589 -0.02611516 -0.03211440 0.13725490 0.19607843 0.36862745
v 0.00074666 -0.02640745 -0.03211440 0.13725490 0.19607843 0.36862745
v -0.00079105 -0.02650371 -0.03211440 0.13725490 0.19607843 0.36862745
v -0.00386483 -0.03099826 -0.03288048 0.13725490 0.19607843 0.36862745
v -0.00215810 -0.02650021 -0.03211440 0.13725490 0.19607843 0.36862745
v -0.00694027 -0.03192062 -0.03312852 0.13725490 0.19607843 0.36862745
v -0.01001571 -0.03192062 -0.03313061 0.13725490 0.19607843 0.36862745
v -0.01002565 -0.03192412 -0.03313689 0.13725490 0.19607843 0.36862745
v -0.01002565 -0.02813316 -0.04280507 0.13725490 0.19607843 0.36862745
v -0.00835206 -0.02926555 -0.04280507 0.13725490 0.19607843 0.36862745
v -0.00690216 -0.02994988 -0.04280507 0.13725490 0.19607843 0.36862745
v 0.00380719 -0.03002339 -0.04280507 0.13725490 0.19607843 0.36862745
v 0.00440869 -0.02982561 -0.04280507 0.13725490 0.19607843 0.36862745
v 0.00545758 -0.02929180 -0.04280507 0.13725490 0.19607843 0.36862745
v 0.00689920 -0.02834318 -0.04280507 0.13725490 0.19607843 0.36862745
v 0.00689920 -0.02792138 -0.03273710 0.13725490 0.19607843 0.36862745
v 0.00526703 -0.01716106 -0.03211440 0.13725490 0.19607843 0.36862745
v 0.00524549 -0.01869775 -0.03211440 0.13725490 0.19607843 0.36862745
v 0.00520737 -0.02011193 -0.03211440 0.13725490 0.19607843 0.36862745
v 0.00491408 -0.02177288 -0.03211440 0.13725490 0.19607843 0.36862745
v 0.00361332 -0.02465548 -0.03211440 0.13725490 0.19607843 0.36862745
v -0.00694027 -0.03099826 -0.03288258 0.13725490 0.19607843 0.36862745
v -0.00232712 -0.02649846 -0.03211440 0.13725490 0.19607843 0.36862745
v -0.01001571 -0.03099826 -0.03288571 0.13725490 0.19607843 0.36862745
v -0.01002565 -0.03100351 -0.03288781 0.13725490 0.19607843 0.36862745
v -0.01002565 -0.01508356 -0.04280507 0.13725490 0.19607843 0.36862745
v 0.00689920 -0.01508356 -0.04280507 0.13725490 0.19607843 0.36862745
v 0.00689920 -0.02023619 -0.03272454 0.13725490 0.19607843 0.36862745
v 0.00689920 -0.01716106 -0.03272036 0.13725490 0.19607843 0.36862745
v 0.00689920 -0.01562263 -0.03271931 0.13725490 0.19607843 0.36862745
v 0.00526868 -0.01586941 -0.03211440 0.13725490 0.19607843 0.36862745
v -0.00368753 -0.02645295 -0.03211440 0.13725490 0.19607843 0.36862745
v -0.01002565 -0.02945982 -0.03274861 0.13725490 0.19607843 0.36862745
v -0.00519874 -0.02636719 -0.03211440 0.13725490 0.19607843 0.36862745
v -0.00540255 -0.02633919 -0.03211440 0.13725490 0.19607843 0.36862745
v -0.00664532 -0.02608541 -0.03211440 0.13725490 0.19607843 0.36862745
v -0.00750532 -0.02540107 -0.03211440 0.13725490 0.19607843 0.36862745
v -0.01002565 -0.01508356 -0.03269943 0.13725490 0.19607843 0.36862745
v 0.00689920 -0.01508356 -0.03317561 0.13725490 0.19607843 0.36862745
v 0.00526868 -0.01562263 -0.03211440 0.13725490 0.19607843 0.36862745
v 0.00689754 -0.01508356 -0.03272036 0.13725490 0.19607843 0.36862745
v 0.00526537 -0.01508356 -0.03211440 0.13725490 0.19607843 0.36862745
v -0.00817475 -0.02454522 -0.03211440 0.13725490 0.19607843 0.36862745
v -0.00843491 -0.02331132 -0.03211440 0.13725490 0.19607843 0.36862745
v -0.00845810 -0.02312229 -0.03211440 0.13725490 0.19607843 0.36862745
v -0.00852439 -0.02177288 -0.03211440 0.13725490 0.19607843 0.36862745
v -0.00853101 -0.02159786 -0.03211440 0.13725490 0.19607843 0.36862745
v -0.01002565 -0.02332182 -0.03271199 0.13725490 0.19607843 0.36862745
v -0.00859232 -0.01508356 -0.03211440 0.13725490 0.19607843 0.36862745
v -0.01002565 -0.01563488 -0.03269943 0.13725490 0.19607843 0.36862745
v -0.00859398 -0.01547211 -0.03211440 0.13725490 0.19607843 0.36862745
v -0.00855090 -0.02006292 -0.03211440 0.13725490 0.19607843 0.36862745
v -0.00858072 -0.01700355 -0.03211440 0.13725490 0.19607843 0.36862745
v -0.00859398 -0.01562263 -0.03211440 0.13725490 0.19607843 0.36862745
v -0.01002565 -0.02178513 -0.03270885 0.13725490 0.19607843 0.36862745
f 1 2 3
f 1 3 4
f 1 4 5
f 1 5 15
f 1 15 22
f 1 22 31
f 1 31 46
f 1 46 63
f 1 63 71
f 1 71 86
f 1 86 93
f 1 93 88
f 1 88 76
f 1 76 64
f 1 64 47
f 1 47 32
f 1 32 23
f 1 23 16
f 1 16 6
f 1 6 7
f 1 7 8
f 1 8 2
f 2 8 9
f 2 9 10
f 2 10 11
f 2 11 3
f 3 11 12
f 3 12 13
f 3 13 4
f 4 13 14
f 4 14 21
f 4 21 15
f 4 15 5
f 6 16 7
f 7 16 17
f 7 17 9
f 7 9 8
f 9 17 25
f 9 25 37
f 9 37 53
f 9 53 65
f 9 65 77
f 9 77 68
f 9 68 67
f 9 67 66
f 9 66 54
f 9 54 38
f 9 38 26
f 9 26 18
f 9 18 11
f 9 11 10
f 11 18 12
f 12 18 13
f 13 18 19
f 13 19 14
f 14 19 20
f 14 20 29
f 14 29 21
f 15 21 22
f 16 23 24
f 16 24 25
f 16 25 17
f 18 26 27
f 18 27 19
f 19 27 28
f 19 28 20
f 20 28 29
f 21 29 30
f 21 30 31
f 21 31 22
f 23 32 24
f 24 32 33
f 24 33 34
f 24 34 35
f 24 35 36
f 24 36 25
f 25 36 37
f 26 38 39
f 26 39 40
f 26 40 41
f 26 41 27
f 27 41 28
f 28 42 29
f 28 41 43
f 28 43 42
f 29 42 44
f 29 44 45
f 29 45 30
f 30 45 31
f 31 45 46
f 32 47 48
f 32 48 49
f 32 49 50
f 32 50 33
f 33 50 34
f 34 36 35
f 34 50 36
f 36 50 51
f 36 51 52
f 36 52 53
f 36 53 37
f 38 54 55
f 38 55 56
f 38 56 57
f 38 57 58
f 38 58 59
f 38 59 39
f 39 59 58
f 39 58 57
f 39 57 56
f 39 56 55
f 39 55 69
f 39 69 78
f 39 78 80
f 39 80 87
f 39 87 89
f 39 89 92
f 39 92 91
f 39 91 90
f 39 90 85
f 39 85 84
f 39 84 83
f 39 83 82
f 39 82 81
f 39 81 75
f 39 75 74
f 39 74 73
f 39 73 72
f 39 72 70
f 39 70 61
f 39 61 43
f 39 43 41
f 39 41 40
f 42 43 60
f 42 60 45
f 42 45 44
f 43 61 62
f 43 62 60
f 45 60 62
f 45 62 63
f 45 63 46
f 47 64 65
f 47 65 53
f 47 53 52
f 47 52 51
f 47 51 50
f 47 50 49
f 47 49 48
f 54 66 55
f 55 66 67
f 55 67 68
f 55 68 69
f 61 70 62
f 62 71 63
f 62 70 72
f 62 72 73
f 62 73 74
f 62 74 75
f 62 75 71
f 64 76 87
f 64 87 80
f 64 80 79
f 64 79 77
f 64 77 65
f 68 78 69
f 68 77 79
f 68 79 80
f 68 80 78
f 71 75 81
f 71 81 82
f 71 82 83
f 71 83 84
f 71 84 85
f 71 85 86
f 76 88 92
f 76 92 89
f 76 89 87
f 85 90 86
f 86 90 91
f 86 91 92
f 86 92 93
f 88 93 92

