# https://github.com/mikedh/trimesh
v -0.03614777 0.01272527 0.00596950 0.43529412 0.89019608 0.96078431
v -0.03614777 0.01256281 0.00443231 0.43529412 0.89019608 0.96078431
v -0.03614777 0.01259280 0.00750670 0.43529412 0.89019608 0.96078431
v -0.01770003 0.01269528 0.00596950 0.43529412 0.89019608 0.96078431
v 0.03572947 0.01253532 0.00443231 0.43529412 0.89019608 0.96078431
v -0.03614777 0.01200546 0.00289065 0.43529412 0.89019608 0.96078431
v 0.03572947 0.01237036 0.00327866 0.43529412 0.89019608 0.96078431
v 0.03572947 0.01230038 0.00289511 0.43529412 0.89019608 0.96078431
v -0.01616623 0.01269278 0.00596950 0.43529412 0.89019608 0.96078431
v -0.03614777 0.01205045 0.00904390 0.43529412 0.89019608 0.96078431
v 0.03572947 0.01245284 0.00750670 0.43529412 0.89019608 0.96078431
v 0.03572947 0.01260280 0.00596950 0.43529412 0.89019608 0.96078431
v 0.03572947 0.01255281 0.00481735 0.43529412 0.89019608 0.96078431
v -0.03614777 0.01143311 0.00194960 0.43529412 0.89019608 0.96078431
v 0.03572947 0.01184550 0.00184554 0.43529412 0.89019608 0.96078431
v 0.03572947 0.01169554 0.00153631 0.43529412 0.89019608 0.96078431
v -0.03614777 0.01147810 0.01004739 0.43529412 0.89019608 0.96078431
v 0.03572947 0.01184050 0.00904390 0.43529412 0.89019608 0.96078431
v -0.03614777 0.01047836 0.00107991 0.43529412 0.89019608 0.96078431
v 0.03572947 0.01128815 0.00095949 0.43529412 0.89019608 0.96078431
v 0.03572947 0.01112319 0.00076771 0.43529412 0.89019608 0.96078431
v 0.03572947 0.01054834 0.00021468 0.43529412 0.89019608 0.96078431
v -0.03614777 0.01060333 0.01082193 0.43529412 0.89019608 0.96078431
v 0.03572947 0.01134563 0.00988088 0.43529412 0.89019608 0.96078431
v -0.03614777 0.01035839 0.00097287 0.43529412 0.89019608 0.96078431
v 0.03572947 0.01035589 0.00004371 0.43529412 0.89019608 0.96078431
v -0.03614777 0.00983853 0.01139875 0.43529412 0.89019608 0.96078431
v 0.03572947 0.01051835 0.01045919 0.43529412 0.89019608 0.96078431
v -0.03614777 0.00982603 0.00052242 0.43529412 0.89019608 0.96078431
v 0.03572947 0.00961109 -0.00053311 0.43529412 0.89019608 0.96078431
v -0.03614777 0.00897876 0.01173325 0.43529412 0.89019608 0.96078431
v 0.03572947 0.00907373 0.01116089 0.43529412 0.89019608 0.96078431
v -0.03614777 0.00909123 0.00011061 0.43529412 0.89019608 0.96078431
v 0.03572947 0.00927868 -0.00073232 0.43529412 0.89019608 0.96078431
v -0.03614777 0.00744916 0.01218816 0.43529412 0.89019608 0.96078431
v 0.03572947 0.00888378 0.01121441 0.43529412 0.89019608 0.96078431
v -0.03614777 0.00741917 -0.00062825 0.43529412 0.89019608 0.96078431
v 0.03572947 0.00870383 -0.00103559 0.43529412 0.89019608 0.96078431
v 0.03572947 0.00778907 -0.00146970 0.43529412 0.89019608 0.96078431
v 0.03572947 0.00744916 -0.00162134 0.43529412 0.89019608 0.96078431
v -0.03614777 0.00744166 0.01218965 0.43529412 0.89019608 0.96078431
v 0.03572947 0.00744166 0.01156525 0.43529412 0.89019608 0.96078431
v 0.03572947 0.00809149 0.01142402 0.43529412 0.89019608 0.96078431
v 0.03572947 0.00830643 0.01137645 0.43529412 0.89019608 0.96078431
v -0.03614777 0.00650941 -0.00092558 0.43529412 0.89019608 0.96078431
v 0.03572947 0.00637944 -0.00201232 0.43529412 0.89019608 0.96078431
v -0.03614777 0.00590457 0.01245873 0.43529412 0.89019608 0.96078431
v 0.03572947 0.00590457 0.01181501 0.43529412 0.89019608 0.96078431
v -0.03614777 0.00580209 -0.00110398 0.43529412 0.89019608 0.96078431
v 0.03572947 0.00599954 -0.00213274 0.43529412 0.89019608 0.96078431
v -0.03614777 0.00437497 0.01256577 0.43529412 0.89019608 0.96078431
v 0.03572947 0.00551967 0.01184177 0.43529412 0.89019608 0.96078431
v -0.03614777 0.00574711 -0.00111587 0.43529412 0.89019608 0.96078431
v 0.03572947 0.00436747 -0.00239291 0.43529412 0.89019608 0.96078431
v -0.03614777 0.00129078 0.01264308 0.43529412 0.89019608 0.96078431
v 0.03572947 0.00436747 0.01191759 0.43529412 0.89019608 0.96078431
v -0.03614777 0.00436747 -0.00133441 0.43529412 0.89019608 0.96078431
v 0.03572947 0.00415253 -0.00240629 0.43529412 0.89019608 0.96078431
v -0.03614777 0.00129078 -0.00161687 0.43529412 0.89019608 0.96078431
v -0.03614777 0.00282038 -0.00148010 0.43529412 0.89019608 0.96078431
v -0.03614777 0.00435747 -0.00133590 0.43529412 0.89019608 0.96078431
v -0.03614777 -0.00024381 0.01263713 0.43529412 0.89019608 0.96078431
v 0.03572947 -0.00024381 0.01198003 0.43529412 0.89019608 0.96078431
v 0.03572947 0.00129078 0.01197260 0.43529412 0.89019608 0.96078431
v 0.03572947 0.00398257 0.01192502 0.43529412 0.89019608 0.96078431
v 0.03572947 0.00245548 -0.00249251 0.43529412 0.89019608 0.96078431
v -0.03614777 -0.00024381 -0.00166147 0.43529412 0.89019608 0.96078431
v 0.03572947 0.00129078 -0.00254454 0.43529412 0.89019608 0.96078431
v -0.03614777 -0.00178091 0.01258064 0.43529412 0.89019608 0.96078431
v 0.03572947 -0.00332050 0.01192354 0.43529412 0.89019608 0.96078431
v 0.03572947 -0.00216581 0.01194881 0.43529412 0.89019608 0.96078431
v 0.03572947 -0.00178091 0.01195624 0.43529412 0.89019608 0.96078431
v 0.03572947 -0.00062871 0.01197408 0.43529412 0.89019608 0.96078431
v -0.03614777 -0.00025131 -0.00166147 0.43529412 0.89019608 0.96078431
v 0.03572947 0.00082841 -0.00254306 0.43529412 0.89019608 0.96078431
v -0.03614777 -0.00332050 0.01252117 0.43529412 0.89019608 0.96078431
v 0.03572947 -0.00485760 0.01186110 0.43529412 0.89019608 0.96078431
v -0.03614777 -0.00179090 -0.00160201 0.43529412 0.89019608 0.96078431
v 0.03572947 -0.00024381 -0.00253414 0.43529412 0.89019608 0.96078431
v -0.03614777 -0.00485760 0.01239926 0.43529412 0.89019608 0.96078431
v 0.03572947 -0.00639469 0.01171094 0.43529412 0.89019608 0.96078431
v -0.03614777 -0.00332800 -0.00150835 0.43529412 0.89019608 0.96078431
v 0.03572947 -0.00178091 -0.00243899 0.43529412 0.89019608 0.96078431
v -0.03614777 -0.00638719 0.01215694 0.43529412 0.89019608 0.96078431
v 0.03572947 -0.00672960 0.01165445 0.43529412 0.89019608 0.96078431
v -0.03614777 -0.00485760 -0.00138496 0.43529412 0.89019608 0.96078431
v 0.03572947 -0.00332050 -0.00233939 0.43529412 0.89019608 0.96078431
v -0.03614777 -0.00639469 0.01215545 0.43529412 0.89019608 0.96078431
v 0.03572947 -0.00775183 0.01147903 0.43529412 0.89019608 0.96078431
v -0.03614777 -0.00631221 -0.00122737 0.43529412 0.89019608 0.96078431
v 0.03572947 -0.00465265 -0.00216842 0.43529412 0.89019608 0.96078431
v -0.03614777 -0.00793178 0.01177190 0.43529412 0.89019608 0.96078431
v 0.03572947 -0.00852163 0.01130955 0.43529412 0.89019608 0.96078431
v -0.03614777 -0.00637470 -0.00121845 0.43529412 0.89019608 0.96078431
v 0.03572947 -0.00485760 -0.00214166 0.43529412 0.89019608 0.96078431
v -0.03614777 -0.00888653 0.01144335 0.43529412 0.89019608 0.96078431
v 0.03572947 -0.00876157 0.01122630 0.43529412 0.89019608 0.96078431
v -0.03614777 -0.00655715 -0.00117088 0.43529412 0.89019608 0.96078431
v 0.03572947 -0.00631721 -0.00174919 0.43529412 0.89019608 0.96078431
v -0.03614777 -0.00965633 0.01103749 0.43529412 0.89019608 0.96078431
v 0.03572947 -0.00946888 0.01097803 0.43529412 0.89019608 0.96078431
v -0.03614777 -0.00790679 -0.00080516 0.43529412 0.89019608 0.96078431
v 0.03572947 -0.00834418 -0.00094491 0.43529412 0.89019608 0.96078431
v -0.03614777 -0.00798427 -0.00077840 0.43529412 0.89019608 0.96078431
v -0.03614777 -0.01080353 0.01026890 0.43529412 0.89019608 0.96078431
v 0.03572947 -0.01081103 0.01024957 0.43529412 0.89019608 0.96078431
v 0.03572947 -0.00980379 0.01079666 0.43529412 0.89019608 0.96078431
v 0.03572947 -0.00849914 -0.00087801 0.43529412 0.89019608 0.96078431
v -0.03614777 -0.00947638 -0.00011090 0.43529412 0.89019608 0.96078431
v -0.03614777 -0.01157333 0.00952111 0.43529412 0.89019608 0.96078431
v 0.03572947 -0.01157832 0.00953598 0.43529412 0.89019608 0.96078431
v 0.03572947 -0.01100348 0.01007117 0.43529412 0.89019608 0.96078431
v 0.03572947 -0.00943639 -0.00028037 0.43529412 0.89019608 0.96078431
v -0.03614777 -0.01043862 0.00043322 0.43529412 0.89019608 0.96078431
v -0.03614777 -0.01203570 0.00875251 0.43529412 0.89019608 0.96078431
v 0.03457561 -0.01205070 0.00876589 0.43529412 0.89019608 0.96078431
v 0.03572947 -0.01169829 0.00934420 0.43529412 0.89019608 0.96078431
v 0.03572947 -0.01036864 0.00046295 0.43529412 0.89019608 0.96078431
v -0.03614777 -0.01120592 0.00123898 0.43529412 0.89019608 0.96078431
v 0.03572947 -0.01110345 0.00116168 0.43529412 0.89019608 0.96078431
v 0.03572947 -0.01190574 0.00196001 0.43529412 0.89019608 0.96078431
v -0.03614777 -0.01255307 0.00750670 0.43529412 0.89019608 0.96078431
v 0.03149395 -0.01205320 0.00875995 0.43529412 0.89019608 0.96078431
v 0.03457561 -0.01250558 0.00750670 0.43529412 0.89019608 0.96078431
v 0.03572947 -0.01216317 0.00845221 0.43529412 0.89019608 0.96078431
v 0.03572947 -0.01204820 0.00876738 0.43529412 0.89019608 0.96078431
v -0.03614777 -0.01185075 0.00201353 0.43529412 0.89019608 0.96078431
v 0.03572947 -0.01224815 0.00289511 0.43529412 0.89019608 0.96078431
v -0.03614777 -0.01231563 0.00289511 0.43529412 0.89019608 0.96078431
v -0.03614777 -0.01280800 0.00596950 0.43529412 0.89019608 0.96078431
v 0.03572947 -0.01250308 0.00750670 0.43529412 0.89019608 0.96078431
v -0.03461398 -0.01280550 0.00596950 0.43529412 0.89019608 0.96078431
v 0.03572947 -0.01253807 0.00443231 0.43529412 0.89019608 0.96078431
v -0.03614777 -0.01275551 0.00443231 0.43529412 0.89019608 0.96078431
v -0.03614777 -0.01231813 0.00290254 0.43529412 0.89019608 0.96078431
v 0.03572947 -0.01254057 0.00712166 0.43529412 0.89019608 0.96078431
v 0.03572947 -0.01265054 0.00596950 0.43529412 0.89019608 0.96078431
f 1 2 6
f 1 6 14
f 1 14 19
f 1 19 25
f 1 25 29
f 1 29 33
f 1 33 37
f 1 37 45
f 1 45 49
f 1 49 53
f 1 53 57
f 1 57 61
f 1 61 60
f 1 60 59
f 1 59 67
f 1 67 74
f 1 74 78
f 1 78 82
f 1 82 86
f 1 86 90
f 1 90 94
f 1 94 98
f 1 98 102
f 1 102 104
f 1 104 109
f 1 109 114
f 1 114 119
f 1 119 127
f 1 127 129
f 1 129 135
f 1 135 134
f 1 134 130
f 1 130 122
f 1 122 115
f 1 115 110
f 1 110 105
f 1 105 100
f 1 100 96
f 1 96 92
f 1 92 88
f 1 88 84
f 1 84 80
f 1 80 76
f 1 76 69
f 1 69 62
f 1 62 55
f 1 55 51
f 1 51 47
f 1 47 41
f 1 41 35
f 1 35 31
f 1 31 27
f 1 27 23
f 1 23 17
f 1 17 10
f 1 10 3
f 1 3 4
f 1 4 5
f 1 5 2
f 2 5 7
f 2 7 8
f 2 8 6
f 3 9 4
f 3 10 11
f 3 11 12
f 3 12 9
f 4 9 5
f 5 13 12
f 5 12 11
f 5 11 18
f 5 18 24
f 5 24 28
f 5 28 32
f 5 32 36
f 5 36 44
f 5 44 43
f 5 43 42
f 5 42 48
f 5 48 52
f 5 52 56
f 5 56 65
f 5 65 64
f 5 64 63
f 5 63 73
f 5 73 72
f 5 72 71
f 5 71 70
f 5 70 77
f 5 77 81
f 5 81 85
f 5 85 89
f 5 89 93
f 5 93 97
f 5 97 101
f 5 101 107
f 5 107 106
f 5 106 112
f 5 112 111
f 5 111 117
f 5 117 126
f 5 126 125
f 5 125 131
f 5 131 136
f 5 136 137
f 5 137 133
f 5 133 128
f 5 128 121
f 5 121 120
f 5 120 118
f 5 118 113
f 5 113 108
f 5 108 103
f 5 103 99
f 5 99 95
f 5 95 91
f 5 91 87
f 5 87 83
f 5 83 79
f 5 79 75
f 5 75 68
f 5 68 66
f 5 66 58
f 5 58 54
f 5 54 50
f 5 50 46
f 5 46 40
f 5 40 39
f 5 39 38
f 5 38 34
f 5 34 30
f 5 30 26
f 5 26 22
f 5 22 21
f 5 21 20
f 5 20 16
f 5 16 15
f 5 15 8
f 5 8 7
f 5 9 13
f 6 8 15
f 6 15 16
f 6 16 14
f 9 12 13
f 10 17 18
f 10 18 11
f 14 16 20
f 14 20 21
f 14 21 22
f 14 22 19
f 17 23 24
f 17 24 18
f 19 22 25
f 22 26 25
f 23 27 24
f 24 27 28
f 25 26 29
f 26 30 29
f 27 31 32
f 27 32 28
f 29 30 34
f 29 34 33
f 31 35 32
f 32 35 36
f 33 34 38
f 33 38 39
f 33 39 40
f 33 40 37
f 35 41 42
f 35 42 43
f 35 43 44
f 35 44 36
f 37 40 46
f 37 46 45
f 41 47 42
f 42 47 48
f 45 46 50
f 45 50 49
f 47 51 48
f 48 51 52
f 49 50 53
f 50 54 53
f 51 55 56
f 51 56 52
f 53 54 57
f 54 58 59
f 54 59 60
f 54 60 61
f 54 61 57
f 55 62 63
f 55 63 64
f 55 64 65
f 55 65 56
f 58 66 59
f 59 66 68
f 59 68 67
f 62 69 70
f 62 70 71
f 62 71 72
f 62 72 73
f 62 73 63
f 67 68 74
f 68 75 74
f 69 76 70
f 70 76 77
f 74 75 79
f 74 79 78
f 76 80 77
f 77 80 81
f 78 79 82
f 79 83 82
f 80 84 81
f 81 84 85
f 82 83 87
f 82 87 86
f 84 88 89
f 84 89 85
f 86 87 90
f 87 91 90
f 88 92 93
f 88 93 89
f 90 91 95
f 90 95 94
f 92 96 93
f 93 96 97
f 94 95 98
f 95 99 98
f 96 100 101
f 96 101 97
f 98 99 102
f 99 103 104
f 99 104 102
f 100 105 106
f 100 106 107
f 100 107 101
f 103 108 104
f 104 108 109
f 105 110 111
f 105 111 112
f 105 112 106
f 108 113 114
f 108 114 109
f 110 115 116
f 110 116 117
f 110 117 111
f 113 118 114
f 114 118 120
f 114 120 121
f 114 121 119
f 115 122 123
f 115 123 116
f 116 124 125
f 116 125 126
f 116 126 117
f 116 123 122
f 116 122 124
f 119 121 127
f 121 128 129
f 121 129 127
f 122 130 124
f 124 131 125
f 124 130 132
f 124 132 131
f 128 133 134
f 128 134 135
f 128 135 129
f 130 134 132
f 131 132 136
f 132 137 136
f 132 134 137
f 133 137 134

