# https://github.com/mikedh/trimesh
v 0.00074793 -0.00617019 -0.03211440 0.56470588 0.92549020 0.07058824
v 0.00062188 -0.00617019 -0.03211440 0.56470588 0.92549020 0.07058824
v 0.00215197 -0.00618359 -0.03211440 0.56470588 0.92549020 0.07058824
v -0.00114444 -0.00367664 -0.03271199 0.56470588 0.92549020 0.07058824
v -0.00162609 -0.00617689 -0.03211440 0.56470588 0.92549020 0.07058824
v -0.00162609 -0.00367664 -0.03271199 0.56470588 0.92549020 0.07058824
v 0.00228553 -0.00618694 -0.03211440 0.56470588 0.92549020 0.07058824
v 0.00690085 -0.00367664 -0.03273920 0.56470588 0.92549020 0.07058824
v 0.00346754 -0.00367664 -0.03272664 0.56470588 0.92549020 0.07058824
v -0.00078968 -0.00367664 -0.03271303 0.56470588 0.92549020 0.07058824
v -0.00162609 -0.01043704 -0.03211440 0.56470588 0.92549020 0.07058824
v -0.00162609 -0.00367664 -0.04280507 0.56470588 0.92549020 0.07058824
v 0.00371212 -0.00653646 -0.03211440 0.56470588 0.92549020 0.07058824
v 0.00690085 -0.00367664 -0.04280507 0.56470588 0.92549020 0.07058824
v 0.00457441 -0.00754371 -0.03211440 0.56470588 0.92549020 0.07058824
v 0.00492083 -0.00871400 -0.03211440 0.56470588 0.92549020 0.07058824
v 0.00504187 -0.00947111 -0.03211440 0.56470588 0.92549020 0.07058824
v 0.00509529 -0.00997808 -0.03211440 0.56470588 0.92549020 0.07058824
v 0.00517793 -0.01120532 -0.03211440 0.56470588 0.92549020 0.07058824
v 0.00523470 -0.01241469 -0.03211440 0.56470588 0.92549020 0.07058824
v 0.00525807 -0.01408301 -0.03211440 0.56470588 0.92549020 0.07058824
v 0.00526057 -0.01433650 -0.03211440 0.56470588 0.92549020 0.07058824
v 0.00526558 -0.01508356 -0.03211440 0.56470588 0.92549020 0.07058824
v 0.00689751 -0.01508356 -0.03272036 0.56470588 0.92549020 0.07058824
v 0.00690085 -0.01408301 -0.03272350 0.56470588 0.92549020 0.07058824
v -0.00162609 -0.01508356 -0.03836972 0.56470588 0.92549020 0.07058824
v 0.00086813 -0.01508356 -0.03211440 0.56470588 0.92549020 0.07058824
v -0.00162609 -0.01508356 -0.04280507 0.56470588 0.92549020 0.07058824
v 0.00690085 -0.01508356 -0.04280507 0.56470588 0.92549020 0.07058824
v 0.00690085 -0.01508356 -0.03317561 0.56470588 0.92549020 0.07058824
f 1 2 5
f 1 5 11
f 1 11 27
f 1 27 23
f 1 23 22
f 1 22 21
f 1 21 20
f 1 20 19
f 1 19 18
f 1 18 17
f 1 17 16
f 1 16 15
f 1 15 13
f 1 13 7
f 1 7 3
f 1 3 4
f 1 4 6
f 1 6 2
f 2 6 5
f 3 7 8
f 3 8 9
f 3 9 10
f 3 10 4
f 4 10 9
f 4 9 8
f 4 8 14
f 4 14 12
f 4 12 6
f 5 6 12
f 5 12 28
f 5 28 26
f 5 26 11
f 7 13 8
f 8 13 15
f 8 15 16
f 8 16 17
f 8 17 18
f 8 18 19
f 8 19 20
f 8 20 21
f 8 21 22
f 8 22 23
f 8 23 24
f 8 24 25
f 8 25 30
f 8 30 29
f 8 29 14
f 11 26 27
f 12 14 29
f 12 29 28
f 23 27 26
f 23 26 28
f 23 28 29
f 23 29 30
f 23 30 24
f 24 30 25

