# https://github.com/mikedh/trimesh
v -0.01616737 0.03538835 -0.05861144 0.79607843 0.45882353 0.78039216
v -0.03359663 0.03434372 -0.05631235 0.79607843 0.45882353 0.78039216
v -0.03308356 0.03291673 -0.05177661 0.79607843 0.45882353 0.78039216
v -0.01616737 0.03292356 -0.05177661 0.79607843 0.45882353 0.78039216
v -0.00694711 0.03267776 -0.05177661 0.79607843 0.45882353 0.78039216
v -0.00694711 0.03508793 -0.05861144 0.79607843 0.45882353 0.78039216
v -0.00694711 0.03485580 -0.05992457 0.79607843 0.45882353 0.78039216
v -0.01616737 0.03501966 -0.05997119 0.79607843 0.45882353 0.78039216
v -0.04230382 0.03473972 -0.05995184 0.79607843 0.45882353 0.78039216
v -0.04230382 0.03490359 -0.05861144 0.79607843 0.45882353 0.78039216
v -0.04230382 0.03451441 -0.05737746 0.79607843 0.45882353 0.78039216
v -0.04997002 0.03239100 -0.05177661 0.79607843 0.45882353 0.78039216
v -0.00606227 0.03239100 -0.05177661 0.79607843 0.45882353 0.78039216
v -0.00594329 0.03293722 -0.05285755 0.79607843 0.45882353 0.78039216
v -0.00576484 0.03451441 -0.05739505 0.79607843 0.45882353 0.78039216
v -0.00531126 0.03473972 -0.05853404 0.79607843 0.45882353 0.78039216
v -0.00540792 0.03471241 -0.05981639 0.79607843 0.45882353 0.78039216
v -0.00540792 0.03357902 -0.06042590 0.79607843 0.45882353 0.78039216
v -0.00694711 0.03357902 -0.06053496 0.79607843 0.45882353 0.78039216
v -0.01616737 0.03357902 -0.06060357 0.79607843 0.45882353 0.78039216
v -0.03308356 0.03357902 -0.06064754 0.79607843 0.45882353 0.78039216
v -0.04230382 0.03357902 -0.06063171 0.79607843 0.45882353 0.78039216
v -0.04999232 0.03357902 -0.06047076 0.79607843 0.45882353 0.78039216
v -0.04999232 0.03456220 -0.05980320 0.79607843 0.45882353 0.78039216
v -0.04999232 0.03456220 -0.05865365 0.79607843 0.45882353 0.78039216
v -0.04999232 0.03433689 -0.05788406 0.79607843 0.45882353 0.78039216
v -0.05712315 0.03290308 -0.05439321 0.79607843 0.45882353 0.78039216
v -0.05768083 0.03196768 -0.05177661 0.79607843 0.45882353 0.78039216
v -0.00536331 0.03214520 -0.05177661 0.79607843 0.45882353 0.78039216
v -0.00473871 0.03428910 -0.05796938 0.79607843 0.45882353 0.78039216
v -0.00449333 0.03448710 -0.05899403 0.79607843 0.45882353 0.78039216
v -0.00449333 0.03448710 -0.05959651 0.79607843 0.45882353 0.78039216
v -0.00279056 0.03318984 -0.05975218 0.79607843 0.45882353 0.78039216
v -0.00279056 0.03245928 -0.06019459 0.79607843 0.45882353 0.78039216
v -0.00279056 0.03204279 -0.06036434 0.79607843 0.45882353 0.78039216
v -0.00279056 0.03096401 -0.06058686 0.79607843 0.45882353 0.78039216
v -0.00279056 0.03050656 -0.06065634 0.79607843 0.45882353 0.78039216
v -0.00540792 0.03204279 -0.06063083 0.79607843 0.45882353 0.78039216
v -0.03308356 0.03204279 -0.06073902 0.79607843 0.45882353 0.78039216
v -0.04230382 0.03204279 -0.06074605 0.79607843 0.45882353 0.78039216
v -0.04999232 0.03204279 -0.06073198 0.79607843 0.45882353 0.78039216
v -0.05614164 0.03204279 -0.06071087 0.79607843 0.45882353 0.78039216
v -0.06690852 0.03204279 -0.06020162 0.79607843 0.45882353 0.78039216
v -0.05104819 0.03450758 -0.05969853 0.79607843 0.45882353 0.78039216
v -0.06690852 0.03287576 -0.05954550 0.79607843 0.45882353 0.78039216
v -0.05104819 0.03450758 -0.05887354 0.79607843 0.45882353 0.78039216
v -0.05614164 0.03396137 -0.05861144 0.79607843 0.45882353 0.78039216
v -0.06690852 0.03287576 -0.05914179 0.79607843 0.45882353 0.78039216
v -0.06616495 0.03128491 -0.05319265 0.79607843 0.45882353 0.78039216
v -0.06542882 0.03075918 -0.05177661 0.79607843 0.45882353 0.78039216
v -0.00453051 0.03143512 -0.05177661 0.79607843 0.45882353 0.78039216
v -0.00279056 0.03323763 -0.05864046 0.79607843 0.45882353 0.78039216
v -0.00279056 0.03323080 -0.05938014 0.79607843 0.45882353 0.78039216
v -0.00279056 0.02942778 -0.06067921 0.79607843 0.45882353 0.78039216
v -0.00540792 0.03050656 -0.06067129 0.79607843 0.45882353 0.78039216
v -0.00279056 0.02896350 -0.06068536 0.79607843 0.45882353 0.78039216
v -0.03308356 0.03050656 -0.06074341 0.79607843 0.45882353 0.78039216
v -0.05153151 0.03050656 -0.06075397 0.79607843 0.45882353 0.78039216
v -0.06536934 0.02896350 -0.06076188 0.79607843 0.45882353 0.78039216
v -0.06536934 0.03050656 -0.06074253 0.79607843 0.45882353 0.78039216
v -0.06690852 0.03050656 -0.06072142 0.79607843 0.45882353 0.78039216
v -0.07305784 0.02589104 -0.06068536 0.79607843 0.45882353 0.78039216
v -0.07414345 0.02698347 -0.05977945 0.79607843 0.45882353 0.78039216
v -0.06797926 0.03204279 -0.05970469 0.79607843 0.45882353 0.78039216
v -0.06767439 0.03281432 -0.05938718 0.79607843 0.45882353 0.78039216
v -0.06767439 0.03281432 -0.05937223 0.79607843 0.45882353 0.78039216
v -0.06760004 0.03121664 -0.05485760 0.79607843 0.45882353 0.78039216
v -0.06682673 0.03036317 -0.05177661 0.79607843 0.45882353 0.78039216
v -0.06609059 0.03058849 -0.05177661 0.79607843 0.45882353 0.78039216
v -0.00279056 0.02948240 -0.05177661 0.79607843 0.45882353 0.78039216
v -0.00279056 0.02435481 -0.06069064 0.79607843 0.45882353 0.78039216
v -0.00279056 0.02173981 -0.06069328 0.79607843 0.45882353 0.78039216
v -0.00279056 0.01973929 -0.06069504 0.79607843 0.45882353 0.78039216
v -0.00279056 0.01820306 -0.06069592 0.79607843 0.45882353 0.78039216
v -0.02693425 0.01358755 -0.06073814 0.79607843 0.45882353 0.78039216
v -0.07612877 -0.00793332 -0.06072142 0.79607843 0.45882353 0.78039216
v -0.07459702 0.01820306 -0.06072318 0.79607843 0.45882353 0.78039216
v -0.07151865 0.02589104 -0.06072934 0.79607843 0.45882353 0.78039216
v -0.06690852 0.02896350 -0.06075221 0.79607843 0.45882353 0.78039216
v -0.07305784 0.02435481 -0.06072055 0.79607843 0.45882353 0.78039216
v -0.07612877 0.01820306 -0.06066865 0.79607843 0.45882353 0.78039216
v -0.07443344 0.02589104 -0.06001252 0.79607843 0.45882353 0.78039216
v -0.07716977 0.01931598 -0.05976450 0.79607843 0.45882353 0.78039216
v -0.07484240 0.02589104 -0.05861144 0.79607843 0.45882353 0.78039216
v -0.07418806 0.02703126 -0.05861144 0.79607843 0.45882353 0.78039216
v -0.06782311 0.03143512 -0.05588226 0.79607843 0.45882353 0.78039216
v -0.07398730 0.02682644 -0.05744518 0.79607843 0.45882353 0.78039216
v -0.07374192 0.02657381 -0.05641965 0.79607843 0.45882353 0.78039216
v -0.07246298 0.02529703 -0.05177661 0.79607843 0.45882353 0.78039216
v -0.00279056 -0.02998676 -0.05177661 0.79607843 0.45882353 0.78039216
v -0.00279056 0.01666683 -0.06069416 0.79607843 0.45882353 0.78039216
v -0.02539506 0.01358755 -0.06073550 0.79607843 0.45882353 0.78039216
v -0.02539506 0.01205132 -0.06073286 0.79607843 0.45882353 0.78039216
v -0.02693425 0.01205132 -0.06073462 0.79607843 0.45882353 0.78039216
v -0.07305784 -0.01715753 -0.06070647 0.79607843 0.45882353 0.78039216
v -0.07459702 -0.01562130 -0.06070911 0.79607843 0.45882353 0.78039216
v -0.07612877 -0.01562130 -0.06066777 0.79607843 0.45882353 0.78039216
v -0.07766797 -0.00793332 -0.06055256 0.79607843 0.45882353 0.78039216
v -0.07612877 0.00897886 -0.06070823 0.79607843 0.45882353 0.78039216
v -0.07766797 0.00897886 -0.06037225 0.79607843 0.45882353 0.78039216
v -0.07742259 0.01820306 -0.05999757 0.79607843 0.45882353 0.78039216
v -0.07763822 0.01820306 -0.05861144 0.79607843 0.45882353 0.78039216
v -0.07387576 0.02520827 -0.05463332 0.79607843 0.45882353 0.78039216
v -0.07427729 0.02599346 -0.05698870 0.79607843 0.45882353 0.78039216
v -0.07261913 0.02495565 -0.05177661 0.79607843 0.45882353 0.78039216
v -0.00279056 -0.03034179 -0.05241163 0.79607843 0.45882353 0.78039216
v -0.00468666 -0.03172099 -0.05177661 0.79607843 0.45882353 0.78039216
v -0.00279056 0.01513061 -0.06069064 0.79607843 0.45882353 0.78039216
v -0.02693425 -0.03099725 -0.06060709 0.79607843 0.45882353 0.78039216
v -0.03154438 -0.02791796 -0.06062380 0.79607843 0.45882353 0.78039216
v -0.06690852 -0.02638174 -0.06067393 0.79607843 0.45882353 0.78039216
v -0.00279056 0.01358755 -0.06068624 0.79607843 0.45882353 0.78039216
v -0.00279056 0.00744263 -0.06066865 0.79607843 0.45882353 0.78039216
v -0.01309643 -0.02945420 -0.06058510 0.79607843 0.45882353 0.78039216
v -0.07151865 -0.02176622 -0.06068712 0.79607843 0.45882353 0.78039216
v -0.07151865 -0.02330928 -0.06067657 0.79607843 0.45882353 0.78039216
v -0.07305784 -0.02330928 -0.06060005 0.79607843 0.45882353 0.78039216
v -0.07305784 -0.02484550 -0.06041095 0.79607843 0.45882353 0.78039216
v -0.07612877 -0.01715753 -0.06047604 0.79607843 0.45882353 0.78039216
v -0.07754899 -0.01562130 -0.06000549 0.79607843 0.45882353 0.78039216
v -0.07870896 -0.00793332 -0.05987796 0.79607843 0.45882353 0.78039216
v -0.07857512 0.00897886 -0.05970645 0.79607843 0.45882353 0.78039216
v -0.07850820 0.00984597 -0.05955693 0.79607843 0.45882353 0.78039216
v -0.07850820 0.00984597 -0.05916290 0.79607843 0.45882353 0.78039216
v -0.07857512 0.00897886 -0.05896501 0.79607843 0.45882353 0.78039216
v -0.07693927 0.01754761 -0.05621032 0.79607843 0.45882353 0.78039216
v -0.07548187 0.01771147 -0.05289361 0.79607843 0.45882353 0.78039216
v -0.07287938 0.02436164 -0.05177661 0.79607843 0.45882353 0.78039216
v -0.00279056 -0.03243106 -0.05866685 0.79607843 0.45882353 0.78039216
v -0.00467923 -0.03172781 -0.05181004 0.79607843 0.45882353 0.78039216
v -0.00471640 -0.03174147 -0.05177661 0.79607843 0.45882353 0.78039216
v -0.01616737 -0.03099725 -0.06058334 0.79607843 0.45882353 0.78039216
v -0.00694711 -0.03253348 -0.06052617 0.79607843 0.45882353 0.78039216
v -0.02539506 -0.03253348 -0.06054112 0.79607843 0.45882353 0.78039216
v -0.04691395 -0.03099725 -0.06061500 0.79607843 0.45882353 0.78039216
v -0.06536934 -0.02791796 -0.06065634 0.79607843 0.45882353 0.78039216
v -0.06536934 -0.02945420 -0.06063171 0.79607843 0.45882353 0.78039216
v -0.00279056 0.00636385 -0.06066514 0.79607843 0.45882353 0.78039216
v -0.00279056 -0.02945420 -0.06054464 0.79607843 0.45882353 0.78039216
v -0.00540792 -0.03099725 -0.06054112 0.79607843 0.45882353 0.78039216
v -0.07151865 -0.02484550 -0.06062116 0.79607843 0.45882353 0.78039216
v -0.07391294 -0.02569214 -0.05954725 0.79607843 0.45882353 0.78039216
v -0.07414345 -0.02484550 -0.05980144 0.79607843 0.45882353 0.78039216
v -0.07734823 -0.01715753 -0.05984190 0.79607843 0.45882353 0.78039216
v -0.06536934 -0.03099725 -0.06050066 0.79607843 0.45882353 0.78039216
v -0.06639545 -0.03200775 -0.05967391 0.79607843 0.45882353 0.78039216
v -0.07797283 -0.01562130 -0.05861144 0.79607843 0.45882353 0.78039216
v -0.07875358 -0.00793332 -0.05861144 0.79607843 0.45882353 0.78039216
v -0.07844872 0.00054666 -0.05781722 0.79607843 0.45882353 0.78039216
v -0.07830744 0.00897886 -0.05819630 0.79607843 0.45882353 0.78039216
v -0.07588340 0.00897886 -0.05177661 0.79607843 0.45882353 0.78039216
v -0.07480523 0.01820989 -0.05177661 0.79607843 0.45882353 0.78039216
v -0.00279056 -0.03221941 -0.05980320 0.79607843 0.45882353 0.78039216
v -0.00450077 -0.03340060 -0.05748476 0.79607843 0.45882353 0.78039216
v -0.00428513 -0.03355763 -0.05861144 0.79607843 0.45882353 0.78039216
v -0.00430744 -0.03354398 -0.05970293 0.79607843 0.45882353 0.78039216
v -0.00473128 -0.03324356 -0.05646011 0.79607843 0.45882353 0.78039216
v -0.00542280 -0.03219210 -0.05177661 0.79607843 0.45882353 0.78039216
v -0.00386874 -0.03099725 -0.06051913 0.79607843 0.45882353 0.78039216
v -0.00540792 -0.03253348 -0.06049187 0.79607843 0.45882353 0.78039216
v -0.00694711 -0.03393316 -0.05994656 0.79607843 0.45882353 0.78039216
v -0.05614164 -0.03253348 -0.06051122 0.79607843 0.45882353 0.78039216
v -0.05614164 -0.03099725 -0.06060357 0.79607843 0.45882353 0.78039216
v -0.00279056 -0.03099725 -0.06036082 0.79607843 0.45882353 0.78039216
v -0.07391294 -0.02569214 -0.05907495 0.79607843 0.45882353 0.78039216
v -0.07423268 -0.02494792 -0.05858241 0.79607843 0.45882353 0.78039216
v -0.07746720 -0.01724629 -0.05862199 0.79607843 0.45882353 0.78039216
v -0.06646238 -0.03206920 -0.05861144 0.79607843 0.45882353 0.78039216
v -0.06536934 -0.03224672 -0.05988148 0.79607843 0.45882353 0.78039216
v -0.06536934 -0.03261541 -0.05861144 0.79607843 0.45882353 0.78039216
v -0.07844128 -0.00870485 -0.05783041 0.79607843 0.45882353 0.78039216
v -0.07725900 -0.01680249 -0.05707402 0.79607843 0.45882353 0.78039216
v -0.07702106 -0.01654304 -0.05603793 0.79607843 0.45882353 0.78039216
v -0.07847846 -0.00793332 -0.05775653 0.79607843 0.45882353 0.78039216
v -0.07848589 -0.00707986 -0.05773982 0.79607843 0.45882353 0.78039216
v -0.07704337 0.00082660 -0.05430614 0.79607843 0.45882353 0.78039216
v -0.07598750 0.00133185 -0.05177661 0.79607843 0.45882353 0.78039216
v -0.00382412 -0.03258810 -0.06001692 0.79607843 0.45882353 0.78039216
v -0.00540792 -0.03413799 -0.05861144 0.79607843 0.45882353 0.78039216
v -0.00540792 -0.03382391 -0.05991050 0.79607843 0.45882353 0.78039216
v -0.00605483 -0.03335280 -0.05456208 0.79607843 0.45882353 0.78039216
v -0.00635969 -0.03242424 -0.05177661 0.79607843 0.45882353 0.78039216
v -0.00694711 -0.03436330 -0.05861144 0.79607843 0.45882353 0.78039216
v -0.03462275 -0.03384440 -0.05990170 0.79607843 0.45882353 0.78039216
v -0.05614164 -0.03376247 -0.05990082 0.79607843 0.45882353 0.78039216
v -0.06631367 -0.03192582 -0.05707402 0.79607843 0.45882353 0.78039216
v -0.06619469 -0.03181657 -0.05611006 0.79607843 0.45882353 0.78039216
v -0.06623188 -0.03034179 -0.05177661 0.79607843 0.45882353 0.78039216
v -0.07370474 -0.02553510 -0.05805030 0.79607843 0.45882353 0.78039216
v -0.07395012 -0.02429246 -0.05584796 0.79607843 0.45882353 0.78039216
v -0.07411370 -0.02456557 -0.05707402 0.79607843 0.45882353 0.78039216
v -0.05768083 -0.03361909 -0.05971788 0.79607843 0.45882353 0.78039216
v -0.05614164 -0.03407654 -0.05861144 0.79607843 0.45882353 0.78039216
v -0.06536934 -0.03232865 -0.05707402 0.79607843 0.45882353 0.78039216
v -0.07551161 -0.01543695 -0.05177661 0.79607843 0.45882353 0.78039216
v -0.07534059 -0.01630407 -0.05177661 0.79607843 0.45882353 0.78039216
v -0.07535547 -0.01625627 -0.05177661 0.79607843 0.45882353 0.78039216
v -0.07287938 -0.02333659 -0.05177661 0.79607843 0.45882353 0.78039216
v -0.07607673 -0.00793332 -0.05177661 0.79607843 0.45882353 0.78039216
v -0.00694711 -0.03249252 -0.05177661 0.79607843 0.45882353 0.78039216
v -0.00657533 -0.03335280 -0.05456208 0.79607843 0.45882353 0.78039216
v -0.04617038 -0.03331867 -0.05471424 0.79607843 0.45882353 0.78039216
v -0.06536934 -0.03196678 -0.05557354 0.79607843 0.45882353 0.78039216
v -0.06588240 -0.03165271 -0.05508452 0.79607843 0.45882353 0.78039216
v -0.06537677 -0.03076511 -0.05177661 0.79607843 0.45882353 0.78039216
v -0.07250016 -0.02427198 -0.05177661 0.79607843 0.45882353 0.78039216
v -0.05614164 -0.03370785 -0.05707402 0.79607843 0.45882353 0.78039216
v -0.05702649 -0.03339377 -0.05604321 0.79607843 0.45882353 0.78039216
v -0.06486370 -0.03183706 -0.05448117 0.79607843 0.45882353 0.78039216
v -0.04533015 -0.03227403 -0.05177661 0.79607843 0.45882353 0.78039216
v -0.05611934 -0.03210334 -0.05177661 0.79607843 0.45882353 0.78039216
f 1 2 3
f 1 3 4
f 1 4 5
f 1 5 6
f 1 6 7
f 1 7 8
f 1 8 9
f 1 9 10
f 1 10 2
f 2 10 11
f 2 11 3
f 3 11 12
f 3 12 28
f 3 28 50
f 3 50 69
f 3 69 68
f 3 68 89
f 3 89 105
f 3 105 128
f 3 128 152
f 3 152 151
f 3 151 177
f 3 177 199
f 3 199 195
f 3 195 197
f 3 197 196
f 3 196 198
f 3 198 206
f 3 206 188
f 3 188 205
f 3 205 211
f 3 211 210
f 3 210 200
f 3 200 182
f 3 182 158
f 3 158 131
f 3 131 107
f 3 107 90
f 3 90 70
f 3 70 51
f 3 51 29
f 3 29 13
f 3 13 5
f 3 5 4
f 5 13 14
f 5 14 6
f 6 14 15
f 6 15 16
f 6 16 17
f 6 17 7
f 7 17 18
f 7 18 19
f 7 19 8
f 8 19 20
f 8 20 21
f 8 21 22
f 8 22 9
f 9 22 23
f 9 23 24
f 9 24 10
f 10 24 25
f 10 25 26
f 10 26 11
f 11 26 12
f 12 26 27
f 12 27 28
f 13 29 14
f 14 29 30
f 14 30 16
f 14 16 15
f 16 30 31
f 16 31 32
f 16 32 17
f 17 32 33
f 17 33 34
f 17 34 18
f 18 34 35
f 18 35 36
f 18 36 37
f 18 37 19
f 19 37 38
f 19 38 20
f 20 38 39
f 20 39 21
f 21 39 40
f 21 40 22
f 22 40 41
f 22 41 42
f 22 42 23
f 23 42 43
f 23 43 24
f 24 44 46
f 24 46 25
f 24 43 45
f 24 45 44
f 25 46 47
f 25 47 27
f 25 27 26
f 27 47 48
f 27 48 49
f 27 49 28
f 28 49 50
f 29 51 52
f 29 52 30
f 30 52 31
f 31 52 32
f 32 52 53
f 32 53 33
f 33 53 52
f 33 52 70
f 33 70 90
f 33 90 106
f 33 106 129
f 33 129 153
f 33 153 164
f 33 164 139
f 33 139 138
f 33 138 113
f 33 113 112
f 33 112 108
f 33 108 91
f 33 91 74
f 33 74 73
f 33 73 72
f 33 72 71
f 33 71 56
f 33 56 54
f 33 54 37
f 33 37 36
f 33 36 35
f 33 35 34
f 37 54 55
f 37 55 38
f 38 55 39
f 39 55 54
f 39 54 56
f 39 56 57
f 39 57 40
f 40 58 59
f 40 59 60
f 40 60 41
f 40 57 58
f 41 60 42
f 42 60 61
f 42 61 43
f 43 61 62
f 43 62 63
f 43 63 64
f 43 64 65
f 43 65 45
f 44 45 65
f 44 65 66
f 44 66 46
f 46 66 47
f 47 66 48
f 48 66 49
f 49 66 67
f 49 67 68
f 49 68 69
f 49 69 50
f 51 70 52
f 56 71 57
f 57 71 72
f 57 72 73
f 57 73 74
f 57 74 75
f 57 75 59
f 57 59 58
f 59 76 77
f 59 77 78
f 59 78 79
f 59 79 60
f 59 75 76
f 60 79 61
f 61 79 78
f 61 78 62
f 62 78 80
f 62 80 81
f 62 81 82
f 62 82 63
f 63 82 83
f 63 83 84
f 63 84 85
f 63 85 65
f 63 65 64
f 65 85 66
f 66 86 67
f 66 85 87
f 66 87 86
f 67 86 87
f 67 87 88
f 67 88 68
f 68 88 89
f 74 91 92
f 74 92 75
f 75 92 93
f 75 93 94
f 75 94 95
f 75 95 76
f 76 95 96
f 76 96 97
f 76 97 98
f 76 98 99
f 76 99 77
f 77 99 81
f 77 81 80
f 77 80 78
f 81 99 98
f 81 98 100
f 81 100 101
f 81 101 82
f 82 101 83
f 83 101 102
f 83 102 84
f 84 103 104
f 84 104 87
f 84 87 85
f 84 102 103
f 87 104 103
f 87 103 88
f 88 103 89
f 89 103 105
f 90 107 106
f 91 108 93
f 91 93 92
f 93 109 110
f 93 110 111
f 93 111 94
f 93 108 112
f 93 112 113
f 93 113 114
f 93 114 109
f 94 111 95
f 95 111 115
f 95 115 96
f 96 115 116
f 96 116 97
f 97 117 118
f 97 118 119
f 97 119 120
f 97 120 98
f 97 116 117
f 98 120 121
f 98 121 100
f 100 121 122
f 100 122 101
f 101 122 123
f 101 123 102
f 102 123 124
f 102 124 125
f 102 125 126
f 102 126 103
f 103 126 127
f 103 127 128
f 103 128 105
f 106 107 130
f 106 130 129
f 107 131 130
f 109 114 132
f 109 132 133
f 109 133 134
f 109 134 135
f 109 135 111
f 109 111 110
f 111 135 136
f 111 136 137
f 111 137 116
f 111 116 115
f 113 138 114
f 114 138 139
f 114 139 140
f 114 140 132
f 116 137 141
f 116 141 117
f 117 141 118
f 118 142 143
f 118 143 144
f 118 144 119
f 118 141 145
f 118 145 146
f 118 146 142
f 119 144 120
f 120 144 147
f 120 147 121
f 121 147 148
f 121 148 122
f 122 148 125
f 122 125 124
f 122 124 123
f 125 148 149
f 125 149 150
f 125 150 126
f 126 150 151
f 126 151 127
f 127 151 152
f 127 152 128
f 129 130 154
f 129 154 155
f 129 155 156
f 129 156 153
f 130 131 157
f 130 157 154
f 131 158 157
f 132 140 133
f 133 140 139
f 133 139 159
f 133 159 160
f 133 160 161
f 133 161 134
f 134 161 162
f 134 162 135
f 135 162 163
f 135 163 137
f 135 137 136
f 137 145 141
f 137 163 162
f 137 162 145
f 139 164 159
f 142 165 166
f 142 166 167
f 142 167 144
f 142 144 143
f 142 146 168
f 142 168 165
f 144 167 147
f 145 169 146
f 145 162 169
f 146 169 170
f 146 170 168
f 147 171 148
f 147 167 172
f 147 172 173
f 147 173 171
f 148 171 174
f 148 174 175
f 148 175 149
f 149 175 176
f 149 176 151
f 149 151 150
f 151 176 177
f 153 178 164
f 153 156 178
f 154 157 179
f 154 179 155
f 155 179 156
f 156 179 180
f 156 180 178
f 157 158 181
f 157 181 179
f 158 182 181
f 159 164 160
f 160 180 161
f 160 164 178
f 160 178 180
f 161 180 183
f 161 183 184
f 161 184 185
f 161 185 162
f 162 185 169
f 165 168 186
f 165 186 187
f 165 187 188
f 165 188 189
f 165 189 190
f 165 190 191
f 165 191 166
f 166 191 167
f 167 191 190
f 167 190 172
f 168 170 186
f 169 185 192
f 169 192 170
f 170 193 194
f 170 194 187
f 170 187 186
f 170 192 193
f 171 173 195
f 171 195 174
f 172 190 173
f 173 196 197
f 173 197 195
f 173 190 198
f 173 198 196
f 174 195 199
f 174 199 175
f 175 199 176
f 176 199 177
f 179 181 183
f 179 183 180
f 181 182 200
f 181 200 201
f 181 201 183
f 183 201 202
f 183 202 193
f 183 193 185
f 183 185 184
f 185 193 192
f 187 194 203
f 187 203 204
f 187 204 188
f 188 204 205
f 188 206 189
f 189 206 190
f 190 206 198
f 193 202 207
f 193 207 208
f 193 208 194
f 194 209 203
f 194 208 209
f 200 210 202
f 200 202 201
f 202 210 211
f 202 211 208
f 202 208 207
f 203 209 204
f 204 209 205
f 205 209 211
f 208 211 209

