# https://github.com/mikedh/trimesh
v 0.03305430 -0.03254945 -0.03706989 0.61176471 0.61568627 0.94117647
v 0.03305430 -0.03254302 -0.03554818 0.61176471 0.61568627 0.94117647
v 0.03305430 -0.03253658 -0.03862194 0.61176471 0.61568627 0.94117647
v 0.03457681 -0.03243357 -0.03708558 0.61176471 0.61568627 0.94117647
v 0.03457681 -0.03244001 -0.03554818 0.61176471 0.61568627 0.94117647
v 0.03611614 -0.03203443 -0.03411648 0.61176471 0.61568627 0.94117647
v 0.03305430 -0.03218250 -0.03400868 0.61176471 0.61568627 0.94117647
v 0.03305430 -0.03215031 -0.04009132 0.61176471 0.61568627 0.94117647
v 0.03457681 -0.03207950 -0.04003376 0.61176471 0.61568627 0.94117647
v 0.03611614 -0.03200868 -0.03992596 0.61176471 0.61568627 0.94117647
v 0.03457681 -0.03241426 -0.03862194 0.61176471 0.61568627 0.94117647
v 0.03611614 -0.03231126 -0.03708558 0.61176471 0.61568627 0.94117647
v 0.03611614 -0.03231126 -0.03554818 0.61176471 0.61568627 0.94117647
v 0.03765548 -0.03194430 -0.03428393 0.61176471 0.61568627 0.94117647
v 0.03452213 -0.03204087 -0.03387472 0.61176471 0.61568627 0.94117647
v 0.03611614 -0.03164173 -0.03334725 0.61176471 0.61568627 0.94117647
v 0.03499739 -0.03171898 -0.03327190 0.61176471 0.61568627 0.94117647
v 0.03397117 -0.03177049 -0.03323422 0.61176471 0.61568627 0.94117647
v 0.03305430 -0.03179624 -0.03321538 0.61176471 0.61568627 0.94117647
v 0.03305430 -0.03214388 -0.04010597 0.61176471 0.61568627 0.94117647
v 0.03911070 -0.02896363 -0.04280507 0.61176471 0.61568627 0.94117647
v 0.03765548 -0.03191856 -0.03975747 0.61176471 0.61568627 0.94117647
v 0.03611614 -0.03227907 -0.03862194 0.61176471 0.61568627 0.94117647
v 0.03765548 -0.03214388 -0.03708558 0.61176471 0.61568627 0.94117647
v 0.03765548 -0.03214388 -0.03554818 0.61176471 0.61568627 0.94117647
v 0.03919061 -0.03183486 -0.03456336 0.61176471 0.61568627 0.94117647
v 0.03919061 -0.03142285 -0.03379413 0.61176471 0.61568627 0.94117647
v 0.03765548 -0.03153229 -0.03351575 0.61176471 0.61568627 0.94117647
v 0.04342168 -0.03030912 -0.03317875 0.61176471 0.61568627 0.94117647
v 0.04226507 -0.03041856 -0.03310968 0.61176471 0.61568627 0.94117647
v 0.04072995 -0.03054731 -0.03305421 0.61176471 0.61568627 0.94117647
v 0.03919061 -0.03065032 -0.03303433 0.61176471 0.61568627 0.94117647
v 0.03305430 -0.03099796 -0.03300293 0.61176471 0.61568627 0.94117647
v 0.03765548 -0.03075976 -0.03303223 0.61176471 0.61568627 0.94117647
v 0.03305430 -0.03135204 -0.04087415 0.61176471 0.61568627 0.94117647
v 0.03305430 -0.02840355 -0.04280507 0.61176471 0.61568627 0.94117647
v 0.04885562 -0.02644004 -0.04280507 0.61176471 0.61568627 0.94117647
v 0.04380441 -0.03064388 -0.03998980 0.61176471 0.61568627 0.94117647
v 0.03887517 -0.03182843 -0.03956281 0.61176471 0.61568627 0.94117647
v 0.03765548 -0.03210525 -0.03862194 0.61176471 0.61568627 0.94117647
v 0.04006122 -0.03178336 -0.03818448 0.61176471 0.61568627 0.94117647
v 0.03919061 -0.03193143 -0.03708558 0.61176471 0.61568627 0.94117647
v 0.03919061 -0.03192499 -0.03554818 0.61176471 0.61568627 0.94117647
v 0.04001495 -0.03177049 -0.03474860 0.61176471 0.61568627 0.94117647
v 0.04226507 -0.03099796 -0.03400973 0.61176471 0.61568627 0.94117647
v 0.04444790 -0.03016749 -0.03328341 0.61176471 0.61568627 0.94117647
v 0.04841821 -0.02882200 -0.03315468 0.61176471 0.61568627 0.94117647
v 0.04687888 -0.02902801 -0.03305317 0.61176471 0.61568627 0.94117647
v 0.04226507 -0.02945934 -0.03289409 0.61176471 0.61568627 0.94117647
v 0.04072995 -0.02945934 -0.03284281 0.61176471 0.61568627 0.94117647
v 0.03919061 -0.02945934 -0.03282292 0.61176471 0.61568627 0.94117647
v 0.03765548 -0.02945934 -0.03281978 0.61176471 0.61568627 0.94117647
v 0.03305430 -0.02945934 -0.03281350 0.61176471 0.61568627 0.94117647
v 0.03305430 0.02880222 -0.04280507 0.61176471 0.61568627 0.94117647
v 0.04984399 -0.02616321 -0.04280507 0.61176471 0.61568627 0.94117647
v 0.04534374 -0.03041856 -0.03973026 0.61176471 0.61568627 0.94117647
v 0.03990139 -0.03175761 -0.03920907 0.61176471 0.61568627 0.94117647
v 0.04063321 -0.03166748 -0.03866694 0.61176471 0.61568627 0.94117647
v 0.04226507 -0.03139066 -0.03862194 0.61176471 0.61568627 0.94117647
v 0.04089818 -0.03166104 -0.03708558 0.61176471 0.61568627 0.94117647
v 0.04012851 -0.03178980 -0.03708558 0.61176471 0.61568627 0.94117647
v 0.04009486 -0.03178980 -0.03554818 0.61176471 0.61568627 0.94117647
v 0.04086453 -0.03165461 -0.03554818 0.61176471 0.61568627 0.94117647
v 0.04226507 -0.03139066 -0.03554818 0.61176471 0.61568627 0.94117647
v 0.04380441 -0.03104946 -0.03554818 0.61176471 0.61568627 0.94117647
v 0.04631109 -0.03028981 -0.03460104 0.61176471 0.61568627 0.94117647
v 0.04534374 -0.03043143 -0.03429230 0.61176471 0.61568627 0.94117647
v 0.04388432 -0.03060526 -0.03388100 0.61176471 0.61568627 0.94117647
v 0.04921732 -0.02869968 -0.03323108 0.61176471 0.61568627 0.94117647
v 0.05149267 -0.02737351 -0.03311387 0.61176471 0.61568627 0.94117647
v 0.04981875 -0.02792072 -0.03305421 0.61176471 0.61568627 0.94117647
v 0.04841821 -0.02792072 -0.03291188 0.61176471 0.61568627 0.94117647
v 0.04687888 -0.02792072 -0.03281560 0.61176471 0.61568627 0.94117647
v 0.04534374 -0.02792072 -0.03278734 0.61176471 0.61568627 0.94117647
v 0.04978931 -0.01388644 -0.03211440 0.61176471 0.61568627 0.94117647
v 0.04844765 -0.01393794 -0.03211440 0.61176471 0.61568627 0.94117647
v 0.04734993 -0.01372550 -0.03211440 0.61176471 0.61568627 0.94117647
v 0.04641623 -0.01342292 -0.03211440 0.61176471 0.61568627 0.94117647
v 0.04402732 -0.01245083 -0.03211440 0.61176471 0.61568627 0.94117647
v 0.04391797 -0.01239932 -0.03211440 0.61176471 0.61568627 0.94117647
v 0.04383385 -0.01233495 -0.03211440 0.61176471 0.61568627 0.94117647
v 0.04311045 -0.01174911 -0.03211440 0.61176471 0.61568627 0.94117647
v 0.04234078 -0.01095083 -0.03211440 0.61176471 0.61568627 0.94117647
v 0.04152064 -0.00981779 -0.03211440 0.61176471 0.61568627 0.94117647
v 0.04110847 -0.00906457 -0.03211440 0.61176471 0.61568627 0.94117647
v 0.04079303 -0.00803454 -0.03211440 0.61176471 0.61568627 0.94117647
v 0.04042712 -0.00639291 -0.03211440 0.61176471 0.61568627 0.94117647
v 0.04017057 -0.00500236 -0.03211440 0.61176471 0.61568627 0.94117647
v 0.03997710 -0.00366331 -0.03211440 0.61176471 0.61568627 0.94117647
v 0.03981728 -0.00231138 -0.03211440 0.61176471 0.61568627 0.94117647
v 0.03977101 -0.00177705 -0.03211440 0.61176471 0.61568627 0.94117647
v 0.03974578 -0.00087577 -0.03211440 0.61176471 0.61568627 0.94117647
v 0.03305430 0.03050178 -0.03268268 0.61176471 0.61568627 0.94117647
v 0.03305430 0.03204040 -0.04058635 0.61176471 0.61568627 0.94117647
v 0.03493851 0.03014127 -0.04280507 0.61176471 0.61568627 0.94117647
v 0.04995334 -0.02886706 -0.03969153 0.61176471 0.61568627 0.94117647
v 0.04841821 -0.02916320 -0.04003481 0.61176471 0.61568627 0.94117647
v 0.05613591 -0.02343361 -0.04280507 0.61176471 0.61568627 0.94117647
v 0.04626482 -0.03027693 -0.03949687 0.61176471 0.61568627 0.94117647
v 0.04380441 -0.03105590 -0.03862194 0.61176471 0.61568627 0.94117647
v 0.04226507 -0.03140353 -0.03708558 0.61176471 0.61568627 0.94117647
v 0.04380441 -0.03105590 -0.03708558 0.61176471 0.61568627 0.94117647
v 0.04534374 -0.03063744 -0.03554818 0.61176471 0.61568627 0.94117647
v 0.04640361 -0.03031555 -0.03554818 0.61176471 0.61568627 0.94117647
v 0.04717328 -0.03007092 -0.03554818 0.61176471 0.61568627 0.94117647
v 0.04841821 -0.02964603 -0.03554818 0.61176471 0.61568627 0.94117647
v 0.05073142 -0.02869325 -0.03476744 0.61176471 0.61568627 0.94117647
v 0.04981875 -0.02883488 -0.03415729 0.61176471 0.61568627 0.94117647
v 0.04841821 -0.02929839 -0.03400973 0.61176471 0.61568627 0.94117647
v 0.05235066 -0.02719325 -0.03321120 0.61176471 0.61568627 0.94117647
v 0.05456293 -0.02584777 -0.03310654 0.61176471 0.61568627 0.94117647
v 0.05293107 -0.02639497 -0.03302909 0.61176471 0.61568627 0.94117647
v 0.05149267 -0.02638210 -0.03285746 0.61176471 0.61568627 0.94117647
v 0.04995334 -0.02638210 -0.03276013 0.61176471 0.61568627 0.94117647
v 0.05315819 -0.01274052 -0.03211440 0.61176471 0.61568627 0.94117647
v 0.05303201 -0.02484348 -0.03272873 0.61176471 0.61568627 0.94117647
v 0.03973316 -0.00024487 -0.03211440 0.61176471 0.61568627 0.94117647
v 0.04006122 0.00282593 -0.03211440 0.61176471 0.61568627 0.94117647
v 0.04066686 0.00744823 -0.03211440 0.61176471 0.61568627 0.94117647
v 0.04097809 0.00873578 -0.03211440 0.61176471 0.61568627 0.94117647
v 0.04245013 0.01187740 -0.03211440 0.61176471 0.61568627 0.94117647
v 0.04393058 0.01345464 -0.03211440 0.61176471 0.61568627 0.94117647
v 0.04534374 0.01409842 -0.03211440 0.61176471 0.61568627 0.94117647
v 0.04711019 0.01488382 -0.03211440 0.61176471 0.61568627 0.94117647
v 0.04835092 0.01498039 -0.03211440 0.61176471 0.61568627 0.94117647
v 0.04953276 0.01483232 -0.03211440 0.61176471 0.61568627 0.94117647
v 0.03457681 0.03050178 -0.03269419 0.61176471 0.61568627 0.94117647
v 0.03305430 0.03051466 -0.03268477 0.61176471 0.61568627 0.94117647
v 0.03988457 0.00128731 -0.03211440 0.61176471 0.61568627 0.94117647
v 0.03305430 0.03302538 -0.03984538 0.61176471 0.61568627 0.94117647
v 0.03572080 0.03054041 -0.04280507 0.61176471 0.61568627 0.94117647
v 0.05074403 -0.02869968 -0.03941001 0.61176471 0.61568627 0.94117647
v 0.05709064 -0.02282203 -0.04280507 0.61176471 0.61568627 0.94117647
v 0.05857530 -0.02418039 -0.03958897 0.61176471 0.61568627 0.94117647
v 0.05570272 -0.02582845 -0.03972921 0.61176471 0.61568627 0.94117647
v 0.05275442 -0.02742501 -0.03978677 0.61176471 0.61568627 0.94117647
v 0.04841821 -0.02963959 -0.03862194 0.61176471 0.61568627 0.94117647
v 0.04635735 -0.03030912 -0.03862194 0.61176471 0.61568627 0.94117647
v 0.04534374 -0.03062457 -0.03862194 0.61176471 0.61568627 0.94117647
v 0.04534374 -0.03063100 -0.03708558 0.61176471 0.61568627 0.94117647
v 0.04638679 -0.03031555 -0.03708558 0.61176471 0.61568627 0.94117647
v 0.04715646 -0.03006448 -0.03708558 0.61176471 0.61568627 0.94117647
v 0.04841821 -0.02964603 -0.03708558 0.61176471 0.61568627 0.94117647
v 0.04995334 -0.02904732 -0.03708558 0.61176471 0.61568627 0.94117647
v 0.04995334 -0.02904089 -0.03554818 0.61176471 0.61568627 0.94117647
v 0.05074403 -0.02869968 -0.03708558 0.61176471 0.61568627 0.94117647
v 0.05150529 -0.02833917 -0.03554818 0.61176471 0.61568627 0.94117647
v 0.05382271 -0.02716750 -0.03473500 0.61176471 0.61568627 0.94117647
v 0.05293107 -0.02734776 -0.03413741 0.61176471 0.61568627 0.94117647
v 0.05337268 -0.02691643 -0.03370936 0.61176471 0.61568627 0.94117647
v 0.05538728 -0.02564820 -0.03321329 0.61176471 0.61568627 0.94117647
v 0.05719158 -0.02428339 -0.03310340 0.61176471 0.61568627 0.94117647
v 0.05598030 -0.02481129 -0.03303956 0.61176471 0.61568627 0.94117647
v 0.05456293 -0.02484348 -0.03284385 0.61176471 0.61568627 0.94117647
v 0.05456293 -0.01186499 -0.03211440 0.61176471 0.61568627 0.94117647
v 0.05610227 -0.02330486 -0.03273710 0.61176471 0.61568627 0.94117647
v 0.05763740 -0.02176624 -0.03270466 0.61176471 0.61568627 0.94117647
v 0.05055898 0.01458125 -0.03211440 0.61176471 0.61568627 0.94117647
v 0.04380441 0.02896960 -0.03271617 0.61176471 0.61568627 0.94117647
v 0.03611614 0.03050178 -0.03270780 0.61176471 0.61568627 0.94117647
v 0.03305430 0.03183439 -0.03296107 0.61176471 0.61568627 0.94117647
v 0.03305430 0.03321851 -0.03862194 0.61176471 0.61568627 0.94117647
v 0.03457681 0.03297387 -0.03978258 0.61176471 0.61568627 0.94117647
v 0.03765548 0.03054041 -0.04280507 0.61176471 0.61568627 0.94117647
v 0.03611614 0.03063697 -0.04280507 0.61176471 0.61568627 0.94117647
v 0.05377644 -0.02714175 -0.03911802 0.61176471 0.61568627 0.94117647
v 0.05317080 -0.02748939 -0.03861148 0.61176471 0.61568627 0.94117647
v 0.05151791 -0.02833917 -0.03862194 0.61176471 0.61568627 0.94117647
v 0.05074824 -0.02869968 -0.03862194 0.61176471 0.61568627 0.94117647
v 0.04995334 -0.02904732 -0.03862194 0.61176471 0.61568627 0.94117647
v 0.06615421 -0.01798084 -0.03947699 0.61176471 0.61568627 0.94117647
v 0.06460647 -0.01950659 -0.03946024 0.61176471 0.61568627 0.94117647
v 0.06302507 -0.02100015 -0.03939431 0.61176471 0.61568627 0.94117647
v 0.06033334 -0.02282203 -0.03975747 0.61176471 0.61568627 0.94117647
v 0.06327322 -0.01677699 -0.04280507 0.61176471 0.61568627 0.94117647
v 0.06053942 -0.02297009 -0.03862194 0.61176471 0.61568627 0.94117647
v 0.05943329 -0.02373618 -0.03862194 0.61176471 0.61568627 0.94117647
v 0.05866783 -0.02424477 -0.03862194 0.61176471 0.61568627 0.94117647
v 0.05668267 -0.02550013 -0.03862194 0.61176471 0.61568627 0.94117647
v 0.05151370 -0.02833917 -0.03708558 0.61176471 0.61568627 0.94117647
v 0.05303201 -0.02758595 -0.03554818 0.61176471 0.61568627 0.94117647
v 0.05383112 -0.02716750 -0.03554818 0.61176471 0.61568627 0.94117647
v 0.05459658 -0.02673617 -0.03554818 0.61176471 0.61568627 0.94117647
v 0.05593403 -0.02597008 -0.03554818 0.61176471 0.61568627 0.94117647
v 0.05670370 -0.02551300 -0.03554818 0.61176471 0.61568627 0.94117647
v 0.05860053 -0.02420614 -0.03447859 0.61176471 0.61568627 0.94117647
v 0.05567327 -0.02581557 -0.03400973 0.61176471 0.61568627 0.94117647
v 0.05821780 -0.02391644 -0.03345400 0.61176471 0.61568627 0.94117647
v 0.06001790 -0.02258383 -0.03320596 0.61176471 0.61568627 0.94117647
v 0.05917673 -0.02283490 -0.03308875 0.61176471 0.61568627 0.94117647
v 0.05767946 -0.02336280 -0.03295060 0.61176471 0.61568627 0.94117647
v 0.05917673 -0.02176624 -0.03282187 0.61176471 0.61568627 0.94117647
v 0.05594665 -0.01085427 -0.03211440 0.61176471 0.61568627 0.94117647
v 0.06071607 -0.02023406 -0.03276955 0.61176471 0.61568627 0.94117647
v 0.06225120 -0.01869543 -0.03273710 0.61176471 0.61568627 0.94117647
v 0.06379054 -0.01715681 -0.03271199 0.61176471 0.61568627 0.94117647
v 0.05169035 0.01416923 -0.03211440 0.61176471 0.61568627 0.94117647
v 0.04995334 0.02743098 -0.03273292 0.61176471 0.61568627 0.94117647
v 0.04841821 0.02743098 -0.03270780 0.61176471 0.61568627 0.94117647
v 0.04534374 0.02896960 -0.03274338 0.61176471 0.61568627 0.94117647
v 0.03765548 0.03050178 -0.03273920 0.61176471 0.61568627 0.94117647
v 0.03611614 0.03171208 -0.03297886 0.61176471 0.61568627 0.94117647
v 0.03457681 0.03177645 -0.03296839 0.61176471 0.61568627 0.94117647
v 0.03305430 0.03260048 -0.03359424 0.61176471 0.61568627 0.94117647
v 0.03305430 0.03316700 -0.03708558 0.61176471 0.61568627 0.94117647
v 0.03457681 0.03307044 -0.03708558 0.61176471 0.61568627 0.94117647
v 0.03457681 0.03311551 -0.03862194 0.61176471 0.61568627 0.94117647
v 0.03729798 0.03285799 -0.03949792 0.61176471 0.61568627 0.94117647
v 0.03611614 0.03291594 -0.03964653 0.61176471 0.61568627 0.94117647
v 0.04226507 0.03169277 -0.03997411 0.61176471 0.61568627 0.94117647
v 0.04698823 0.02885372 -0.04280507 0.61176471 0.61568627 0.94117647
v 0.05442414 -0.02680699 -0.03861148 0.61176471 0.61568627 0.94117647
v 0.05381850 -0.02716106 -0.03809238 0.61176471 0.61568627 0.94117647
v 0.05591301 -0.02595721 -0.03862194 0.61176471 0.61568627 0.94117647
v 0.05303201 -0.02758595 -0.03708558 0.61176471 0.61568627 0.94117647
v 0.06620048 -0.01803235 -0.03862194 0.61176471 0.61568627 0.94117647
v 0.06674724 -0.01700875 -0.03971351 0.61176471 0.61568627 0.94117647
v 0.06763887 -0.01639716 -0.03940268 0.61176471 0.61568627 0.94117647
v 0.06465273 -0.01955165 -0.03862194 0.61176471 0.61568627 0.94117647
v 0.06380736 -0.02031774 -0.03862194 0.61176471 0.61568627 0.94117647
v 0.06303769 -0.02101302 -0.03862194 0.61176471 0.61568627 0.94117647
v 0.06225120 -0.02165036 -0.03862194 0.61176471 0.61568627 0.94117647
v 0.06130909 -0.02240357 -0.03862194 0.61176471 0.61568627 0.94117647
v 0.06969553 -0.00934140 -0.04280507 0.61176471 0.61568627 0.94117647
v 0.06132171 -0.02241645 -0.03708558 0.61176471 0.61568627 0.94117647
v 0.06055625 -0.02297653 -0.03708558 0.61176471 0.61568627 0.94117647
v 0.05945012 -0.02374262 -0.03708558 0.61176471 0.61568627 0.94117647
v 0.05868045 -0.02425764 -0.03708558 0.61176471 0.61568627 0.94117647
v 0.05763740 -0.02492717 -0.03708558 0.61176471 0.61568627 0.94117647
v 0.05670791 -0.02551300 -0.03708558 0.61176471 0.61568627 0.94117647
v 0.05593824 -0.02597652 -0.03708558 0.61176471 0.61568627 0.94117647
v 0.05383112 -0.02716750 -0.03708558 0.61176471 0.61568627 0.94117647
v 0.05459237 -0.02674261 -0.03708558 0.61176471 0.61568627 0.94117647
v 0.05763740 -0.02493360 -0.03554818 0.61176471 0.61568627 0.94117647
v 0.05869306 -0.02426408 -0.03554818 0.61176471 0.61568627 0.94117647
v 0.05945852 -0.02374262 -0.03554818 0.61176471 0.61568627 0.94117647
v 0.06055625 -0.02297009 -0.03554818 0.61176471 0.61568627 0.94117647
v 0.06132592 -0.02241645 -0.03554818 0.61176471 0.61568627 0.94117647
v 0.06302928 -0.02100658 -0.03475174 0.61176471 0.61568627 0.94117647
v 0.06030390 -0.02278984 -0.03400973 0.61176471 0.61568627 0.94117647
v 0.06107356 -0.02221688 -0.03400973 0.61176471 0.61568627 0.94117647
v 0.06271804 -0.02074263 -0.03372715 0.61176471 0.61568627 0.94117647
v 0.06169182 -0.02116753 -0.03314631 0.61176471 0.61568627 0.94117647
v 0.06060251 -0.02171473 -0.03305840 0.61176471 0.61568627 0.94117647
v 0.06222176 -0.02022762 -0.03300084 0.61176471 0.61568627 0.94117647
v 0.06381577 -0.01874050 -0.03296316 0.61176471 0.61568627 0.94117647
v 0.05744814 -0.00928346 -0.03211440 0.61176471 0.61568627 0.94117647
v 0.06532566 -0.01561819 -0.03272664 0.61176471 0.61568627 0.94117647
v 0.06840433 -0.01100877 -0.03268896 0.61176471 0.61568627 0.94117647
v 0.06535931 -0.01717613 -0.03296002 0.61176471 0.61568627 0.94117647
v 0.05314977 0.01359627 -0.03211440 0.61176471 0.61568627 0.94117647
v 0.05149267 0.02743098 -0.03283548 0.61176471 0.61568627 0.94117647
v 0.04687888 0.02896960 -0.03281455 0.61176471 0.61568627 0.94117647
v 0.05412553 0.01317138 -0.03211440 0.61176471 0.61568627 0.94117647
v 0.05303201 0.02589236 -0.03272350 0.61176471 0.61568627 0.94117647
v 0.04072995 0.03050178 -0.03284176 0.61176471 0.61568627 0.94117647
v 0.03919061 0.03050178 -0.03278629 0.61176471 0.61568627 0.94117647
v 0.03765548 0.03163482 -0.03300816 0.61176471 0.61568627 0.94117647
v 0.03305430 0.03260692 -0.03360157 0.61176471 0.61568627 0.94117647
v 0.03919061 0.03153826 -0.03305421 0.61176471 0.61568627 0.94117647
v 0.03305430 0.03310263 -0.03556388 0.61176471 0.61568627 0.94117647
v 0.03457681 0.03301250 -0.03554818 0.61176471 0.61568627 0.94117647
v 0.03611614 0.03294812 -0.03708558 0.61176471 0.61568627 0.94117647
v 0.03611614 0.03299963 -0.03862194 0.61176471 0.61568627 0.94117647
v 0.03741995 0.03287087 -0.03862194 0.61176471 0.61568627 0.94117647
v 0.03818962 0.03278074 -0.03862194 0.61176471 0.61568627 0.94117647
v 0.03919061 0.03264555 -0.03862194 0.61176471 0.61568627 0.94117647
v 0.04072995 0.03240735 -0.03862194 0.61176471 0.61568627 0.94117647
v 0.04503251 0.03137732 -0.03958478 0.61176471 0.61568627 0.94117647
v 0.04380441 0.03151894 -0.03978886 0.61176471 0.61568627 0.94117647
v 0.04841821 0.03016058 -0.03997620 0.61176471 0.61568627 0.94117647
v 0.04995334 0.02990307 -0.03964862 0.61176471 0.61568627 0.94117647
v 0.05454191 0.02602755 -0.04280507 0.61176471 0.61568627 0.94117647
v 0.06697015 -0.01718256 -0.03862194 0.61176471 0.61568627 0.94117647
v 0.06620889 -0.01804522 -0.03708558 0.61176471 0.61568627 0.94117647
v 0.06544763 -0.01881131 -0.03708558 0.61176471 0.61568627 0.94117647
v 0.06467796 -0.01957741 -0.03708558 0.61176471 0.61568627 0.94117647
v 0.06966188 -0.01395082 -0.03862194 0.61176471 0.61568627 0.94117647
v 0.06906465 -0.01471691 -0.03862194 0.61176471 0.61568627 0.94117647
v 0.06909409 -0.01475554 -0.03708558 0.61176471 0.61568627 0.94117647
v 0.06765149 -0.01641004 -0.03862194 0.61176471 0.61568627 0.94117647
v 0.06795431 -0.01561819 -0.03970305 0.61176471 0.61568627 0.94117647
v 0.06948944 -0.01371262 -0.03975014 0.61176471 0.61568627 0.94117647
v 0.07088578 -0.01202594 -0.03963397 0.61176471 0.61568627 0.94117647
v 0.06381997 -0.02034350 -0.03708558 0.61176471 0.61568627 0.94117647
v 0.06305031 -0.02102590 -0.03708558 0.61176471 0.61568627 0.94117647
v 0.06225120 -0.02166967 -0.03708558 0.61176471 0.61568627 0.94117647
v 0.07261017 -0.00300022 -0.04280507 0.61176471 0.61568627 0.94117647
v 0.07404015 -0.00639291 -0.03972502 0.61176471 0.61568627 0.94117647
v 0.07384668 -0.00728132 -0.03949478 0.61176471 0.61568627 0.94117647
v 0.07253867 -0.00920620 -0.03974177 0.61176471 0.61568627 0.94117647
v 0.06225120 -0.02166967 -0.03554818 0.61176471 0.61568627 0.94117647
v 0.06222176 -0.02136710 -0.03414787 0.61176471 0.61568627 0.94117647
v 0.06304190 -0.02101946 -0.03554818 0.61176471 0.61568627 0.94117647
v 0.06381156 -0.02033706 -0.03554818 0.61176471 0.61568627 0.94117647
v 0.06466535 -0.01956453 -0.03554818 0.61176471 0.61568627 0.94117647
v 0.06461488 -0.01951946 -0.03460941 0.61176471 0.61568627 0.94117647
v 0.06434991 -0.01928127 -0.03358377 0.61176471 0.61568627 0.94117647
v 0.06332369 -0.01971904 -0.03311177 0.61176471 0.61568627 0.94117647
v 0.06487143 -0.01825767 -0.03308770 0.61176471 0.61568627 0.94117647
v 0.07147880 -0.00639291 -0.03269524 0.61176471 0.61568627 0.94117647
v 0.05907159 -0.00632853 -0.03211440 0.61176471 0.61568627 0.94117647
v 0.06686500 -0.01407957 -0.03275175 0.61176471 0.61568627 0.94117647
v 0.06993947 -0.00947015 -0.03271826 0.61176471 0.61568627 0.94117647
v 0.06686921 -0.01560532 -0.03298933 0.61176471 0.61568627 0.94117647
v 0.05294369 0.02743742 -0.03301654 0.61176471 0.61568627 0.94117647
v 0.05149267 0.02839664 -0.03310235 0.61176471 0.61568627 0.94117647
v 0.04995334 0.02867346 -0.03300398 0.61176471 0.61568627 0.94117647
v 0.05456293 0.02589236 -0.03284176 0.61176471 0.61568627 0.94117647
v 0.04687888 0.02996101 -0.03307828 0.61176471 0.61568627 0.94117647
v 0.04534374 0.03013483 -0.03301130 0.61176471 0.61568627 0.94117647
v 0.04226507 0.03050178 -0.03291711 0.61176471 0.61568627 0.94117647
v 0.05485314 0.01266924 -0.03211440 0.61176471 0.61568627 0.94117647
v 0.05610227 0.02435374 -0.03273815 0.61176471 0.61568627 0.94117647
v 0.03457681 0.03289662 -0.03449429 0.61176471 0.61568627 0.94117647
v 0.03305430 0.03293525 -0.03436242 0.61176471 0.61568627 0.94117647
v 0.04072995 0.03143525 -0.03310863 0.61176471 0.61568627 0.94117647
v 0.04226507 0.03133869 -0.03318085 0.61176471 0.61568627 0.94117647
v 0.03457681 0.03254254 -0.03372611 0.61176471 0.61568627 0.94117647
v 0.03571659 0.03285155 -0.03463557 0.61176471 0.61568627 0.94117647
v 0.03618344 0.03287731 -0.03558376 0.61176471 0.61568627 0.94117647
v 0.03717601 0.03284512 -0.03708558 0.61176471 0.61568627 0.94117647
v 0.03794568 0.03275499 -0.03708558 0.61176471 0.61568627 0.94117647
v 0.03919061 0.03258761 -0.03708558 0.61176471 0.61568627 0.94117647
v 0.04072995 0.03235585 -0.03708558 0.61176471 0.61568627 0.94117647
v 0.04226507 0.03207903 -0.03708558 0.61176471 0.61568627 0.94117647
v 0.04226507 0.03211122 -0.03862194 0.61176471 0.61568627 0.94117647
v 0.04380441 0.03177002 -0.03862194 0.61176471 0.61568627 0.94117647
v 0.04529328 0.03143525 -0.03862194 0.61176471 0.61568627 0.94117647
v 0.04605873 0.03126144 -0.03862194 0.61176471 0.61568627 0.94117647
v 0.04687888 0.03102968 -0.03862194 0.61176471 0.61568627 0.94117647
v 0.05075245 0.02974857 -0.03941629 0.61176471 0.61568627 0.94117647
v 0.05532419 0.02571854 -0.04280507 0.61176471 0.61568627 0.94117647
v 0.06697856 -0.01718900 -0.03708558 0.61176471 0.61568627 0.94117647
v 0.06765149 -0.01641004 -0.03554818 0.61176471 0.61568627 0.94117647
v 0.06696173 -0.01717613 -0.03554818 0.61176471 0.61568627 0.94117647
v 0.06619207 -0.01802591 -0.03554818 0.61176471 0.61568627 0.94117647
v 0.06543502 -0.01879844 -0.03554818 0.61176471 0.61568627 0.94117647
v 0.07043155 -0.01292722 -0.03862194 0.61176471 0.61568627 0.94117647
v 0.06834966 -0.01561819 -0.03708558 0.61176471 0.61568627 0.94117647
v 0.06967029 -0.01398301 -0.03708558 0.61176471 0.61568627 0.94117647
v 0.06965347 -0.01396369 -0.03554818 0.61176471 0.61568627 0.94117647
v 0.06907727 -0.01472979 -0.03554818 0.61176471 0.61568627 0.94117647
v 0.06832442 -0.01561819 -0.03554818 0.61176471 0.61568627 0.94117647
v 0.06765990 -0.01641647 -0.03708558 0.61176471 0.61568627 0.94117647
v 0.07224006 -0.01022980 -0.03912534 0.61176471 0.61568627 0.94117647
v 0.07291720 -0.00218263 -0.04280507 0.61176471 0.61568627 0.94117647
v 0.07543229 -0.00294228 -0.03956490 0.61176471 0.61568627 0.94117647
v 0.07388453 -0.00735857 -0.03862194 0.61176471 0.61568627 0.94117647
v 0.07346816 -0.00812466 -0.03862194 0.61176471 0.61568627 0.94117647
v 0.07527247 -0.00392082 -0.03862194 0.61176471 0.61568627 0.94117647
v 0.07492758 -0.00485429 -0.03862194 0.61176471 0.61568627 0.94117647
v 0.07431353 -0.00639291 -0.03862194 0.61176471 0.61568627 0.94117647
v 0.06615421 -0.01798728 -0.03462197 0.61176471 0.61568627 0.94117647
v 0.06525837 -0.01863106 -0.03410287 0.61176471 0.61568627 0.94117647
v 0.06589766 -0.01770402 -0.03359633 0.61176471 0.61568627 0.94117647
v 0.06635610 -0.01667398 -0.03310863 0.61176471 0.61568627 0.94117647
v 0.07147880 -0.00793153 -0.03280199 0.61176471 0.61568627 0.94117647
v 0.07301393 -0.00485429 -0.03279676 0.61176471 0.61568627 0.94117647
v 0.07301393 -0.00331567 -0.03269838 0.61176471 0.61568627 0.94117647
v 0.05946694 -0.00486073 -0.03211440 0.61176471 0.61568627 0.94117647
v 0.07301393 -0.00177705 -0.03267012 0.61176471 0.61568627 0.94117647
v 0.06840433 -0.01254095 -0.03280408 0.61176471 0.61568627 0.94117647
v 0.06781131 -0.01507742 -0.03313480 0.61176471 0.61568627 0.94117647
v 0.06835387 -0.01398945 -0.03304165 0.61176471 0.61568627 0.94117647
v 0.05237169 0.02824857 -0.03319864 0.61176471 0.61568627 0.94117647
v 0.05598871 0.02587948 -0.03303014 0.61176471 0.61568627 0.94117647
v 0.05456293 0.02689021 -0.03310235 0.61176471 0.61568627 0.94117647
v 0.04798080 0.02983226 -0.03316201 0.61176471 0.61568627 0.94117647
v 0.05917673 0.02281512 -0.03279780 0.61176471 0.61568627 0.94117647
v 0.05775095 0.02446962 -0.03294642 0.61176471 0.61568627 0.94117647
v 0.04309362 0.03128719 -0.03322794 0.61176471 0.61568627 0.94117647
v 0.05582889 0.01196109 -0.03211440 0.61176471 0.61568627 0.94117647
v 0.06225120 0.01973788 -0.03272454 0.61176471 0.61568627 0.94117647
v 0.06071607 0.02127650 -0.03274966 0.61176471 0.61568627 0.94117647
v 0.03765548 0.03233010 -0.03400973 0.61176471 0.61568627 0.94117647
v 0.03618344 0.03253611 -0.03407775 0.61176471 0.61568627 0.94117647
v 0.03674281 0.03279362 -0.03509502 0.61176471 0.61568627 0.94117647
v 0.03919061 0.03213697 -0.03400973 0.61176471 0.61568627 0.94117647
v 0.04072995 0.03192452 -0.03400973 0.61176471 0.61568627 0.94117647
v 0.04226507 0.03169277 -0.03400973 0.61176471 0.61568627 0.94117647
v 0.04072995 0.03229147 -0.03554818 0.61176471 0.61568627 0.94117647
v 0.03755034 0.03272280 -0.03558376 0.61176471 0.61568627 0.94117647
v 0.03919061 0.03251679 -0.03554818 0.61176471 0.61568627 0.94117647
v 0.04226507 0.03201465 -0.03554818 0.61176471 0.61568627 0.94117647
v 0.04380441 0.03170564 -0.03554818 0.61176471 0.61568627 0.94117647
v 0.04380441 0.03175714 -0.03708558 0.61176471 0.61568627 0.94117647
v 0.04524701 0.03142881 -0.03708558 0.61176471 0.61568627 0.94117647
v 0.04601668 0.03124856 -0.03708558 0.61176471 0.61568627 0.94117647
v 0.04687888 0.03099749 -0.03708558 0.61176471 0.61568627 0.94117647
v 0.04841821 0.03057260 -0.03862194 0.61176471 0.61568627 0.94117647
v 0.05010054 0.02998032 -0.03854345 0.61176471 0.61568627 0.94117647
v 0.05075245 0.02974857 -0.03900289 0.61176471 0.61568627 0.94117647
v 0.05303201 0.02877003 -0.03862194 0.61176471 0.61568627 0.94117647
v 0.05394047 0.02826789 -0.03952094 0.61176471 0.61568627 0.94117647
v 0.05566486 0.02555760 -0.04280507 0.61176471 0.61568627 0.94117647
v 0.06763887 -0.01639716 -0.03476011 0.61176471 0.61568627 0.94117647
v 0.07097410 -0.01215469 -0.03862194 0.61176471 0.61568627 0.94117647
v 0.07043996 -0.01291434 -0.03708558 0.61176471 0.61568627 0.94117647
v 0.07042314 -0.01289503 -0.03554818 0.61176471 0.61568627 0.94117647
v 0.07086054 -0.01200018 -0.03436347 0.61176471 0.61568627 0.94117647
v 0.07261017 -0.00961822 -0.03861671 0.61176471 0.61568627 0.94117647
v 0.07225267 -0.01024268 -0.03810075 0.61176471 0.61568627 0.94117647
v 0.07184050 -0.01085427 -0.03861671 0.61176471 0.61568627 0.94117647
v 0.07305599 -0.00177705 -0.04280507 0.61176471 0.61568627 0.94117647
v 0.07554164 -0.00177705 -0.03970723 0.61176471 0.61568627 0.94117647
v 0.07595381 -0.00024487 -0.03862194 0.61176471 0.61568627 0.94117647
v 0.07576034 -0.00177705 -0.03862194 0.61176471 0.61568627 0.94117647
v 0.07548696 -0.00315473 -0.03862194 0.61176471 0.61568627 0.94117647
v 0.07388874 -0.00735857 -0.03708558 0.61176471 0.61568627 0.94117647
v 0.07347236 -0.00812466 -0.03708558 0.61176471 0.61568627 0.94117647
v 0.07526405 -0.00388863 -0.03708558 0.61176471 0.61568627 0.94117647
v 0.07491917 -0.00485429 -0.03708558 0.61176471 0.61568627 0.94117647
v 0.07430933 -0.00639291 -0.03708558 0.61176471 0.61568627 0.94117647
v 0.06738232 -0.01610102 -0.03373553 0.61176471 0.61568627 0.94117647
v 0.07004882 -0.01110534 -0.03294432 0.61176471 0.61568627 0.94117647
v 0.07147459 -0.00939290 -0.03301863 0.61176471 0.61568627 0.94117647
v 0.07253026 -0.00793153 -0.03307828 0.61176471 0.61568627 0.94117647
v 0.07304757 -0.00634141 -0.03299665 0.61176471 0.61568627 0.94117647
v 0.07401071 -0.00485429 -0.03307514 0.61176471 0.61568627 0.94117647
v 0.07421680 -0.00331567 -0.03298619 0.61176471 0.61568627 0.94117647
v 0.07439765 -0.00177705 -0.03296211 0.61176471 0.61568627 0.94117647
v 0.07455326 0.00128731 -0.03291083 0.61176471 0.61568627 0.94117647
v 0.05986228 -0.00331567 -0.03211440 0.61176471 0.61568627 0.94117647
v 0.06021978 -0.00177705 -0.03211440 0.61176471 0.61568627 0.94117647
v 0.07301393 -0.00024487 -0.03266070 0.61176471 0.61568627 0.94117647
v 0.06048475 -0.00024487 -0.03211440 0.61176471 0.61568627 0.94117647
v 0.06924550 -0.01341005 -0.03318922 0.61176471 0.61568627 0.94117647
v 0.06955673 -0.01254095 -0.03307724 0.61176471 0.61568627 0.94117647
v 0.05381429 0.02820994 -0.03475070 0.61176471 0.61568627 0.94117647
v 0.05294369 0.02838377 -0.03414683 0.61176471 0.61568627 0.94117647
v 0.04957481 0.02988376 -0.03437812 0.61176471 0.61568627 0.94117647
v 0.04900703 0.02963912 -0.03335248 0.61176471 0.61568627 0.94117647
v 0.05539989 0.02669707 -0.03321120 0.61176471 0.61568627 0.94117647
v 0.05731355 0.02535803 -0.03309084 0.61176471 0.61568627 0.94117647
v 0.06230588 0.02134731 -0.03295793 0.61176471 0.61568627 0.94117647
v 0.06066560 0.02281512 -0.03301026 0.61176471 0.61568627 0.94117647
v 0.05917673 0.02400610 -0.03305631 0.61176471 0.61568627 0.94117647
v 0.04486849 0.03135156 -0.03454976 0.61176471 0.61568627 0.94117647
v 0.04368244 0.03144169 -0.03402647 0.61176471 0.61568627 0.94117647
v 0.04846447 0.03006402 -0.03392286 0.61176471 0.61568627 0.94117647
v 0.05592983 0.01188383 -0.03211440 0.61176471 0.61568627 0.94117647
v 0.06379054 0.01820570 -0.03272140 0.61176471 0.61568627 0.94117647
v 0.06686500 0.01666708 -0.03284804 0.61176471 0.61568627 0.94117647
v 0.06532566 0.01820570 -0.03285223 0.61176471 0.61568627 0.94117647
v 0.04509560 0.03140306 -0.03554818 0.61176471 0.61568627 0.94117647
v 0.04586106 0.03120349 -0.03554818 0.61176471 0.61568627 0.94117647
v 0.04687888 0.03091380 -0.03554818 0.61176471 0.61568627 0.94117647
v 0.04841821 0.03045028 -0.03554818 0.61176471 0.61568627 0.94117647
v 0.04841821 0.03052109 -0.03708558 0.61176471 0.61568627 0.94117647
v 0.04989866 0.03000607 -0.03708558 0.61176471 0.61568627 0.94117647
v 0.05066833 0.02971638 -0.03708558 0.61176471 0.61568627 0.94117647
v 0.05071460 0.02972925 -0.03797831 0.61176471 0.61568627 0.94117647
v 0.05149267 0.02938162 -0.03708558 0.61176471 0.61568627 0.94117647
v 0.05135809 0.02948462 -0.03854345 0.61176471 0.61568627 0.94117647
v 0.05401617 0.02830651 -0.03862194 0.61176471 0.61568627 0.94117647
v 0.05303201 0.02872497 -0.03708558 0.61176471 0.61568627 0.94117647
v 0.05397412 0.02828720 -0.03708558 0.61176471 0.61568627 0.94117647
v 0.05478164 0.02791381 -0.03862194 0.61176471 0.61568627 0.94117647
v 0.05695185 0.02670995 -0.03947803 0.61176471 0.61568627 0.94117647
v 0.06229746 0.02129581 -0.04280507 0.61176471 0.61568627 0.94117647
v 0.06946421 -0.01369975 -0.03400973 0.61176471 0.61568627 0.94117647
v 0.06886698 -0.01447228 -0.03400973 0.61176471 0.61568627 0.94117647
v 0.06800899 -0.01560532 -0.03415311 0.61176471 0.61568627 0.94117647
v 0.07225267 -0.01024268 -0.03769678 0.61176471 0.61568627 0.94117647
v 0.07096148 -0.01214825 -0.03708558 0.61176471 0.61568627 0.94117647
v 0.07094466 -0.01212894 -0.03554818 0.61176471 0.61568627 0.94117647
v 0.07123907 -0.01110534 -0.03391449 0.61176471 0.61568627 0.94117647
v 0.07063343 -0.01168473 -0.03333783 0.61176471 0.61568627 0.94117647
v 0.07028434 -0.01252808 -0.03391449 0.61176471 0.61568627 0.94117647
v 0.07168488 -0.01100877 -0.03554818 0.61176471 0.61568627 0.94117647
v 0.07221903 -0.01019118 -0.03554818 0.61176471 0.61568627 0.94117647
v 0.07383407 -0.00725557 -0.03462615 0.61176471 0.61568627 0.94117647
v 0.07251343 -0.00914826 -0.03400973 0.61176471 0.61568627 0.94117647
v 0.07566361 0.00128731 -0.03983596 0.61176471 0.61568627 0.94117647
v 0.07563837 -0.00024487 -0.03979724 0.61176471 0.61568627 0.94117647
v 0.07299290 0.00590317 -0.04280507 0.61176471 0.61568627 0.94117647
v 0.07600848 0.00128731 -0.03708558 0.61176471 0.61568627 0.94117647
v 0.07593698 -0.00024487 -0.03708558 0.61176471 0.61568627 0.94117647
v 0.07602110 0.00128731 -0.03862194 0.61176471 0.61568627 0.94117647
v 0.07574352 -0.00177705 -0.03708558 0.61176471 0.61568627 0.94117647
v 0.07547854 -0.00312254 -0.03708558 0.61176471 0.61568627 0.94117647
v 0.07386772 -0.00731995 -0.03554818 0.61176471 0.61568627 0.94117647
v 0.07345554 -0.00809247 -0.03554818 0.61176471 0.61568627 0.94117647
v 0.07269008 -0.00942509 -0.03554818 0.61176471 0.61568627 0.94117647
v 0.07261438 -0.00961178 -0.03714524 0.61176471 0.61568627 0.94117647
v 0.07546173 -0.00303241 -0.03554818 0.61176471 0.61568627 0.94117647
v 0.07523882 -0.00379850 -0.03554818 0.61176471 0.61568627 0.94117647
v 0.07486871 -0.00485429 -0.03554818 0.61176471 0.61568627 0.94117647
v 0.07426727 -0.00639291 -0.03554818 0.61176471 0.61568627 0.94117647
v 0.07096148 -0.01065470 -0.03310235 0.61176471 0.61568627 0.94117647
v 0.07231155 -0.00882638 -0.03318922 0.61176471 0.61568627 0.94117647
v 0.07385510 -0.00579420 -0.03317980 0.61176471 0.61568627 0.94117647
v 0.07527667 -0.00081139 -0.03329492 0.61176471 0.61568627 0.94117647
v 0.07535657 0.00021221 -0.03321015 0.61176471 0.61568627 0.94117647
v 0.07467944 -0.00027706 -0.03299246 0.61176471 0.61568627 0.94117647
v 0.07536499 0.00128731 -0.03319864 0.61176471 0.61568627 0.94117647
v 0.07455326 0.00282593 -0.03293386 0.61176471 0.61568627 0.94117647
v 0.07301393 0.00436455 -0.03267012 0.61176471 0.61568627 0.94117647
v 0.07301393 0.00282593 -0.03266384 0.61176471 0.61568627 0.94117647
v 0.07301393 0.00128731 -0.03266070 0.61176471 0.61568627 0.94117647
v 0.06046372 0.00082380 -0.03211440 0.61176471 0.61568627 0.94117647
v 0.05464285 0.02783656 -0.03554818 0.61176471 0.61568627 0.94117647
v 0.05387738 0.02823569 -0.03554818 0.61176471 0.61568627 0.94117647
v 0.05303201 0.02863484 -0.03554818 0.61176471 0.61568627 0.94117647
v 0.05149267 0.02931080 -0.03554818 0.61176471 0.61568627 0.94117647
v 0.05058421 0.02968419 -0.03554818 0.61176471 0.61568627 0.94117647
v 0.05571954 0.02687733 -0.03400973 0.61176471 0.61568627 0.94117647
v 0.05868886 0.02529365 -0.03433521 0.61176471 0.61568627 0.94117647
v 0.05680885 0.02662626 -0.03522479 0.61176471 0.61568627 0.94117647
v 0.04981875 0.02997389 -0.03554818 0.61176471 0.61568627 0.94117647
v 0.05833977 0.02506189 -0.03330957 0.61176471 0.61568627 0.94117647
v 0.06012305 0.02369065 -0.03316306 0.61176471 0.61568627 0.94117647
v 0.06393353 0.01988594 -0.03294118 0.61176471 0.61568627 0.94117647
v 0.06351715 0.02088380 -0.03307828 0.61176471 0.61568627 0.94117647
v 0.06183062 0.02230654 -0.03310549 0.61176471 0.61568627 0.94117647
v 0.05734720 0.01037097 -0.03211440 0.61176471 0.61568627 0.94117647
v 0.06840433 0.01358984 -0.03271826 0.61176471 0.61568627 0.94117647
v 0.06686500 0.01512846 -0.03271617 0.61176471 0.61568627 0.94117647
v 0.06532566 0.01666708 -0.03271826 0.61176471 0.61568627 0.94117647
v 0.06826554 0.01651901 -0.03312538 0.61176471 0.61568627 0.94117647
v 0.06672621 0.01807050 -0.03312015 0.61176471 0.61568627 0.94117647
v 0.06993947 0.01205122 -0.03272559 0.61176471 0.61568627 0.94117647
v 0.06840433 0.01512846 -0.03285955 0.61176471 0.61568627 0.94117647
v 0.06532566 0.01936449 -0.03310654 0.61176471 0.61568627 0.94117647
v 0.05473958 0.02788806 -0.03708558 0.61176471 0.61568627 0.94117647
v 0.05610227 0.02721210 -0.03862194 0.61176471 0.61568627 0.94117647
v 0.05697708 0.02672283 -0.03862194 0.61176471 0.61568627 0.94117647
v 0.05774675 0.02626575 -0.03862194 0.61176471 0.61568627 0.94117647
v 0.05897065 0.02549322 -0.03862194 0.61176471 0.61568627 0.94117647
v 0.05974032 0.02498464 -0.03862194 0.61176471 0.61568627 0.94117647
v 0.06157406 0.02364559 -0.03949582 0.61176471 0.61568627 0.94117647
v 0.06329425 0.02226147 -0.03966014 0.61176471 0.61568627 0.94117647
v 0.06491349 0.02081942 -0.03971456 0.61176471 0.61568627 0.94117647
v 0.06648647 0.01934518 -0.03974805 0.61176471 0.61568627 0.94117647
v 0.06802581 0.01783231 -0.03973549 0.61176471 0.61568627 0.94117647
v 0.06949785 0.01627437 -0.03969781 0.61176471 0.61568627 0.94117647
v 0.06806366 0.01478082 -0.04280507 0.61176471 0.61568627 0.94117647
v 0.07223585 -0.01022337 -0.03667324 0.61176471 0.61568627 0.94117647
v 0.07358172 -0.00682424 -0.03360157 0.61176471 0.61568627 0.94117647
v 0.07326208 -0.00783497 -0.03407252 0.61176471 0.61568627 0.94117647
v 0.07540705 -0.00283928 -0.03452673 0.61176471 0.61568627 0.94117647
v 0.07454065 -0.00485429 -0.03400973 0.61176471 0.61568627 0.94117647
v 0.07401071 -0.00634141 -0.03407252 0.61176471 0.61568627 0.94117647
v 0.07562155 0.00282593 -0.03981817 0.61176471 0.61568627 0.94117647
v 0.07271532 0.00757699 -0.04280507 0.61176471 0.61568627 0.94117647
v 0.07555425 0.00436455 -0.03973967 0.61176471 0.61568627 0.94117647
v 0.07595801 0.00128731 -0.03554818 0.61176471 0.61568627 0.94117647
v 0.07594540 0.00282593 -0.03708558 0.61176471 0.61568627 0.94117647
v 0.07588651 -0.00024487 -0.03554818 0.61176471 0.61568627 0.94117647
v 0.07570146 -0.00177705 -0.03554818 0.61176471 0.61568627 0.94117647
v 0.07594540 0.00282593 -0.03862194 0.61176471 0.61568627 0.94117647
v 0.07501170 -0.00334142 -0.03401287 0.61176471 0.61568627 0.94117647
v 0.07516311 -0.00177705 -0.03347702 0.61176471 0.61568627 0.94117647
v 0.07555425 -0.00027706 -0.03388832 0.61176471 0.61568627 0.94117647
v 0.07549958 -0.00177705 -0.03424625 0.61176471 0.61568627 0.94117647
v 0.07566781 0.00128731 -0.03400973 0.61176471 0.61568627 0.94117647
v 0.07534396 0.00282593 -0.03322166 0.61176471 0.61568627 0.94117647
v 0.07532293 0.00359846 -0.03324050 0.61176471 0.61568627 0.94117647
v 0.07462056 0.00421005 -0.03301444 0.61176471 0.61568627 0.94117647
v 0.07423783 0.00590317 -0.03298723 0.61176471 0.61568627 0.94117647
v 0.07301393 0.00590317 -0.03270257 0.61176471 0.61568627 0.94117647
v 0.07147880 0.00898041 -0.03269210 0.61176471 0.61568627 0.94117647
v 0.05905056 0.00735167 -0.03211440 0.61176471 0.61568627 0.94117647
v 0.05907159 0.00728729 -0.03211440 0.61176471 0.61568627 0.94117647
v 0.05980761 0.00460275 -0.03211440 0.61176471 0.61568627 0.94117647
v 0.06009781 0.00336670 -0.03211440 0.61176471 0.61568627 0.94117647
v 0.06033334 0.00213709 -0.03211440 0.61176471 0.61568627 0.94117647
v 0.06045110 0.00128731 -0.03211440 0.61176471 0.61568627 0.94117647
v 0.05621583 0.02698678 -0.03566121 0.61176471 0.61568627 0.94117647
v 0.05610227 0.02715416 -0.03708558 0.61176471 0.61568627 0.94117647
v 0.05775095 0.02565416 -0.03389774 0.61176471 0.61568627 0.94117647
v 0.05964779 0.02493313 -0.03554818 0.61176471 0.61568627 0.94117647
v 0.05887812 0.02542241 -0.03554818 0.61176471 0.61568627 0.94117647
v 0.05918935 0.02475932 -0.03389774 0.61176471 0.61568627 0.94117647
v 0.06149415 0.02359408 -0.03475070 0.61176471 0.61568627 0.94117647
v 0.05749020 0.02626575 -0.03566121 0.61176471 0.61568627 0.94117647
v 0.05688035 0.02666489 -0.03625042 0.61176471 0.61568627 0.94117647
v 0.06066560 0.02387735 -0.03414683 0.61176471 0.61568627 0.94117647
v 0.06114927 0.02333014 -0.03372506 0.61176471 0.61568627 0.94117647
v 0.06454338 0.02049753 -0.03325515 0.61176471 0.61568627 0.94117647
v 0.06285684 0.02190740 -0.03344249 0.61176471 0.61568627 0.94117647
v 0.05746496 0.01021002 -0.03211440 0.61176471 0.61568627 0.94117647
v 0.06947262 0.01512846 -0.03311491 0.61176471 0.61568627 0.94117647
v 0.06918242 0.01590742 -0.03323317 0.61176471 0.61568627 0.94117647
v 0.06766411 0.01746536 -0.03322062 0.61176471 0.61568627 0.94117647
v 0.06612056 0.01899754 -0.03322480 0.61176471 0.61568627 0.94117647
v 0.07147880 0.01051260 -0.03277269 0.61176471 0.61568627 0.94117647
v 0.07002358 0.01366709 -0.03294956 0.61176471 0.61568627 0.94117647
v 0.05692241 0.02669064 -0.03708558 0.61176471 0.61568627 0.94117647
v 0.05769207 0.02624643 -0.03708558 0.61176471 0.61568627 0.94117647
v 0.05895382 0.02548034 -0.03708558 0.61176471 0.61568627 0.94117647
v 0.06163294 0.02369065 -0.03862194 0.61176471 0.61568627 0.94117647
v 0.05971929 0.02497176 -0.03708558 0.61176471 0.61568627 0.94117647
v 0.06071607 0.02430224 -0.03708558 0.61176471 0.61568627 0.94117647
v 0.06162032 0.02368421 -0.03708558 0.61176471 0.61568627 0.94117647
v 0.06240261 0.02313701 -0.03862194 0.61176471 0.61568627 0.94117647
v 0.06342463 0.02237091 -0.03862194 0.61176471 0.61568627 0.94117647
v 0.06419430 0.02174645 -0.03862194 0.61176471 0.61568627 0.94117647
v 0.06509434 0.02098036 -0.03862194 0.61176471 0.61568627 0.94117647
v 0.06586401 0.02029796 -0.03862194 0.61176471 0.61568627 0.94117647
v 0.06668415 0.01953187 -0.03862194 0.61176471 0.61568627 0.94117647
v 0.06745382 0.01879797 -0.03862194 0.61176471 0.61568627 0.94117647
v 0.06821928 0.01803188 -0.03862194 0.61176471 0.61568627 0.94117647
v 0.06898895 0.01723360 -0.03862194 0.61176471 0.61568627 0.94117647
v 0.06966188 0.01646107 -0.03862194 0.61176471 0.61568627 0.94117647
v 0.07089419 0.01462631 -0.03961932 0.61176471 0.61568627 0.94117647
v 0.07227791 0.01286881 -0.03944140 0.61176471 0.61568627 0.94117647
v 0.07388874 0.00996539 -0.03956281 0.61176471 0.61568627 0.94117647
v 0.07412006 0.00898041 -0.03980142 0.61176471 0.61568627 0.94117647
v 0.07544911 0.00563923 -0.03958583 0.61176471 0.61568627 0.94117647
v 0.07580240 0.00436455 -0.03862194 0.61176471 0.61568627 0.94117647
v 0.07588651 0.00282593 -0.03554818 0.61176471 0.61568627 0.94117647
v 0.07560893 0.00282593 -0.03400973 0.61176471 0.61568627 0.94117647
v 0.07579399 0.00436455 -0.03708558 0.61176471 0.61568627 0.94117647
v 0.07546593 0.00421005 -0.03400240 0.61176471 0.61568627 0.94117647
v 0.07540284 0.00551047 -0.03450999 0.61176471 0.61568627 0.94117647
v 0.07517993 0.00462206 -0.03348540 0.61176471 0.61568627 0.94117647
v 0.07389295 0.00846539 -0.03315259 0.61176471 0.61568627 0.94117647
v 0.07404436 0.00744179 -0.03306154 0.61176471 0.61568627 0.94117647
v 0.07301393 0.00744179 -0.03278211 0.61176471 0.61568627 0.94117647
v 0.05902532 0.00740317 -0.03211440 0.61176471 0.61568627 0.94117647
v 0.06071607 0.02421211 -0.03554818 0.61176471 0.61568627 0.94117647
v 0.06317228 0.02217134 -0.03446812 0.61176471 0.61568627 0.94117647
v 0.06407233 0.02165632 -0.03554818 0.61176471 0.61568627 0.94117647
v 0.06330266 0.02227435 -0.03554818 0.61176471 0.61568627 0.94117647
v 0.06231849 0.02304688 -0.03554818 0.61176471 0.61568627 0.94117647
v 0.06154883 0.02363271 -0.03554818 0.61176471 0.61568627 0.94117647
v 0.06533828 0.02007908 -0.03386425 0.61176471 0.61568627 0.94117647
v 0.06482938 0.02073573 -0.03428079 0.61176471 0.61568627 0.94117647
v 0.07098672 0.01320357 -0.03309189 0.61176471 0.61568627 0.94117647
v 0.06935906 0.01611987 -0.03400973 0.61176471 0.61568627 0.94117647
v 0.06864827 0.01688596 -0.03400973 0.61176471 0.61568627 0.94117647
v 0.06787860 0.01768424 -0.03400973 0.61176471 0.61568627 0.94117647
v 0.07236203 0.01148470 -0.03315154 0.61176471 0.61568627 0.94117647
v 0.07059137 0.01423361 -0.03339749 0.61176471 0.61568627 0.94117647
v 0.07084792 0.01453618 -0.03442312 0.61176471 0.61568627 0.94117647
v 0.06710894 0.01845033 -0.03400973 0.61176471 0.61568627 0.94117647
v 0.06633927 0.01920998 -0.03400973 0.61176471 0.61568627 0.94117647
v 0.07306860 0.00897398 -0.03297363 0.61176471 0.61568627 0.94117647
v 0.07259335 0.01051260 -0.03304375 0.61176471 0.61568627 0.94117647
v 0.07149142 0.01201903 -0.03299246 0.61176471 0.61568627 0.94117647
v 0.06238999 0.02311769 -0.03708558 0.61176471 0.61568627 0.94117647
v 0.06338677 0.02234517 -0.03708558 0.61176471 0.61568627 0.94117647
v 0.06415644 0.02172070 -0.03708558 0.61176471 0.61568627 0.94117647
v 0.06507752 0.02095461 -0.03708558 0.61176471 0.61568627 0.94117647
v 0.06584719 0.02028509 -0.03708558 0.61176471 0.61568627 0.94117647
v 0.06667153 0.01951900 -0.03708558 0.61176471 0.61568627 0.94117647
v 0.06744120 0.01878509 -0.03708558 0.61176471 0.61568627 0.94117647
v 0.06895530 0.01719497 -0.03708558 0.61176471 0.61568627 0.94117647
v 0.06963665 0.01642888 -0.03708558 0.61176471 0.61568627 0.94117647
v 0.06818563 0.01801256 -0.03708558 0.61176471 0.61568627 0.94117647
v 0.07040631 0.01550828 -0.03708558 0.61176471 0.61568627 0.94117647
v 0.07043155 0.01553403 -0.03862194 0.61176471 0.61568627 0.94117647
v 0.07100354 0.01476794 -0.03862194 0.61176471 0.61568627 0.94117647
v 0.07177321 0.01367996 -0.03862194 0.61176471 0.61568627 0.94117647
v 0.07230735 0.01290744 -0.03862194 0.61176471 0.61568627 0.94117647
v 0.07286252 0.01205122 -0.03862194 0.61176471 0.61568627 0.94117647
v 0.07357330 0.01087311 -0.03862194 0.61176471 0.61568627 0.94117647
v 0.07396024 0.01010702 -0.03862194 0.61176471 0.61568627 0.94117647
v 0.07447756 0.00898041 -0.03862194 0.61176471 0.61568627 0.94117647
v 0.07506217 0.00744179 -0.03862194 0.61176471 0.61568627 0.94117647
v 0.07531452 0.00664351 -0.03862194 0.61176471 0.61568627 0.94117647
v 0.07551640 0.00587098 -0.03862194 0.61176471 0.61568627 0.94117647
v 0.07572669 0.00436455 -0.03554818 0.61176471 0.61568627 0.94117647
v 0.07550378 0.00582592 -0.03708558 0.61176471 0.61568627 0.94117647
v 0.07547014 0.00574867 -0.03554818 0.61176471 0.61568627 0.94117647
v 0.07528508 0.00651476 -0.03554818 0.61176471 0.61568627 0.94117647
v 0.07499908 0.00744179 -0.03554818 0.61176471 0.61568627 0.94117647
v 0.07464159 0.00744179 -0.03400973 0.61176471 0.61568627 0.94117647
v 0.07504955 0.00597399 -0.03400240 0.61176471 0.61568627 0.94117647
v 0.07409062 0.00897398 -0.03401496 0.61176471 0.61568627 0.94117647
v 0.07361957 0.00948899 -0.03350528 0.61176471 0.61568627 0.94117647
v 0.06501023 0.02088380 -0.03554818 0.61176471 0.61568627 0.94117647
v 0.06660003 0.01945462 -0.03554818 0.61176471 0.61568627 0.94117647
v 0.06577990 0.02022715 -0.03554818 0.61176471 0.61568627 0.94117647
v 0.06957356 0.01635806 -0.03554818 0.61176471 0.61568627 0.94117647
v 0.06888380 0.01713059 -0.03554818 0.61176471 0.61568627 0.94117647
v 0.06811834 0.01793531 -0.03554818 0.61176471 0.61568627 0.94117647
v 0.06736970 0.01870784 -0.03554818 0.61176471 0.61568627 0.94117647
v 0.07250923 0.01201903 -0.03415415 0.61176471 0.61568627 0.94117647
v 0.07201294 0.01251473 -0.03373657 0.61176471 0.61568627 0.94117647
v 0.07332937 0.01045466 -0.03401496 0.61176471 0.61568627 0.94117647
v 0.07142833 0.01353190 -0.03407985 0.61176471 0.61568627 0.94117647
v 0.07225267 0.01283018 -0.03476221 0.61176471 0.61568627 0.94117647
v 0.07034323 0.01543747 -0.03554818 0.61176471 0.61568627 0.94117647
v 0.07094466 0.01466494 -0.03554818 0.61176471 0.61568627 0.94117647
v 0.07099513 0.01474219 -0.03708558 0.61176471 0.61568627 0.94117647
v 0.07176479 0.01369284 -0.03708558 0.61176471 0.61568627 0.94117647
v 0.07231997 0.01292675 -0.03708558 0.61176471 0.61568627 0.94117647
v 0.07286252 0.01205122 -0.03708558 0.61176471 0.61568627 0.94117647
v 0.07356069 0.01086667 -0.03708558 0.61176471 0.61568627 0.94117647
v 0.07396445 0.01010058 -0.03708558 0.61176471 0.61568627 0.94117647
v 0.07447335 0.00898041 -0.03708558 0.61176471 0.61568627 0.94117647
v 0.07504114 0.00744179 -0.03708558 0.61176471 0.61568627 0.94117647
v 0.07530190 0.00659201 -0.03708558 0.61176471 0.61568627 0.94117647
v 0.07441447 0.00898041 -0.03554818 0.61176471 0.61568627 0.94117647
v 0.07386772 0.00990745 -0.03453092 0.61176471 0.61568627 0.94117647
v 0.07351863 0.01079586 -0.03554818 0.61176471 0.61568627 0.94117647
v 0.07279102 0.01205122 -0.03554818 0.61176471 0.61568627 0.94117647
v 0.07228632 0.01287525 -0.03554818 0.61176471 0.61568627 0.94117647
v 0.07171433 0.01364778 -0.03554818 0.61176471 0.61568627 0.94117647
v 0.07393080 0.01002977 -0.03554818 0.61176471 0.61568627 0.94117647
f 1 2 7
f 1 7 19
f 1 19 33
f 1 33 53
f 1 53 93
f 1 93 128
f 1 128 161
f 1 161 204
f 1 204 259
f 1 259 316
f 1 316 261
f 1 261 205
f 1 205 162
f 1 162 130
f 1 130 94
f 1 94 54
f 1 54 36
f 1 36 35
f 1 35 20
f 1 20 8
f 1 8 3
f 1 3 4
f 1 4 5
f 1 5 2
f 2 5 6
f 2 6 7
f 3 8 9
f 3 9 10
f 3 10 11
f 3 11 12
f 3 12 4
f 4 12 5
f 5 12 13
f 5 13 14
f 5 14 6
f 6 15 7
f 6 14 16
f 6 16 17
f 6 17 15
f 7 15 18
f 7 18 19
f 8 20 9
f 9 20 21
f 9 21 10
f 10 22 11
f 10 21 22
f 11 23 12
f 11 22 23
f 12 23 24
f 12 24 25
f 12 25 13
f 13 25 26
f 13 26 14
f 14 26 27
f 14 27 28
f 14 28 16
f 15 17 18
f 16 28 29
f 16 29 30
f 16 30 17
f 17 30 31
f 17 31 18
f 18 31 32
f 18 32 19
f 19 32 34
f 19 34 33
f 20 35 21
f 21 36 54
f 21 54 95
f 21 95 131
f 21 131 165
f 21 165 164
f 21 164 211
f 21 211 273
f 21 273 333
f 21 333 396
f 21 396 461
f 21 461 538
f 21 538 546
f 21 546 477
f 21 477 405
f 21 405 347
f 21 347 288
f 21 288 224
f 21 224 175
f 21 175 133
f 21 133 98
f 21 98 55
f 21 55 37
f 21 37 38
f 21 38 22
f 21 35 36
f 22 38 39
f 22 39 23
f 23 39 40
f 23 40 24
f 24 40 41
f 24 41 42
f 24 42 25
f 25 42 43
f 25 43 44
f 25 44 26
f 26 44 45
f 26 45 27
f 27 45 29
f 27 29 28
f 29 45 46
f 29 46 47
f 29 47 48
f 29 48 30
f 30 49 31
f 30 48 49
f 31 49 50
f 31 50 32
f 32 50 33
f 32 33 34
f 33 50 51
f 33 51 52
f 33 52 53
f 37 55 38
f 38 56 57
f 38 57 39
f 38 55 56
f 39 57 40
f 40 57 41
f 41 57 58
f 41 58 59
f 41 59 60
f 41 60 61
f 41 61 42
f 42 61 62
f 42 62 43
f 43 62 44
f 44 62 63
f 44 63 64
f 44 64 65
f 44 65 66
f 44 66 67
f 44 67 68
f 44 68 45
f 45 68 46
f 46 68 67
f 46 67 69
f 46 69 47
f 47 69 70
f 47 70 71
f 47 71 48
f 48 71 72
f 48 72 73
f 48 73 49
f 49 73 50
f 50 73 74
f 50 74 51
f 51 74 75
f 51 75 52
f 52 75 76
f 52 76 53
f 53 76 77
f 53 77 78
f 53 78 79
f 53 79 80
f 53 80 81
f 53 81 82
f 53 82 83
f 53 83 84
f 53 84 85
f 53 85 86
f 53 86 87
f 53 87 88
f 53 88 89
f 53 89 90
f 53 90 91
f 53 91 92
f 53 92 93
f 54 94 95
f 55 96 97
f 55 97 56
f 55 98 96
f 56 97 99
f 56 99 100
f 56 100 57
f 57 100 59
f 57 59 58
f 59 101 60
f 59 100 101
f 60 101 63
f 60 63 62
f 60 62 61
f 63 101 64
f 64 101 65
f 65 101 102
f 65 102 103
f 65 103 66
f 66 103 104
f 66 104 105
f 66 105 106
f 66 106 107
f 66 107 108
f 66 108 109
f 66 109 69
f 66 69 67
f 69 109 108
f 69 108 107
f 69 107 110
f 69 110 70
f 70 110 111
f 70 111 112
f 70 112 71
f 71 112 113
f 71 113 72
f 72 113 114
f 72 114 73
f 73 114 74
f 74 114 75
f 75 115 155
f 75 155 193
f 75 193 247
f 75 247 302
f 75 302 361
f 75 361 424
f 75 424 425
f 75 425 427
f 75 427 502
f 75 502 569
f 75 569 568
f 75 568 567
f 75 567 566
f 75 566 565
f 75 565 564
f 75 564 622
f 75 622 583
f 75 583 517
f 75 517 442
f 75 442 373
f 75 373 313
f 75 313 254
f 75 254 251
f 75 251 197
f 75 197 158
f 75 158 126
f 75 126 125
f 75 125 124
f 75 124 123
f 75 123 122
f 75 122 121
f 75 121 120
f 75 120 119
f 75 119 118
f 75 118 129
f 75 129 117
f 75 117 92
f 75 92 91
f 75 91 90
f 75 90 89
f 75 89 88
f 75 88 87
f 75 87 86
f 75 86 85
f 75 85 84
f 75 84 83
f 75 83 82
f 75 82 81
f 75 81 80
f 75 80 79
f 75 79 78
f 75 78 77
f 75 77 76
f 75 114 116
f 75 116 115
f 92 117 93
f 93 118 119
f 93 119 120
f 93 120 121
f 93 121 122
f 93 122 123
f 93 123 124
f 93 124 125
f 93 125 126
f 93 126 127
f 93 127 128
f 93 117 129
f 93 129 118
f 94 130 95
f 95 130 131
f 96 132 99
f 96 99 97
f 96 98 132
f 98 133 134
f 98 134 135
f 98 135 136
f 98 136 132
f 99 137 138
f 99 138 139
f 99 139 100
f 99 132 137
f 100 102 101
f 100 139 140
f 100 140 103
f 100 103 102
f 103 140 141
f 103 141 104
f 104 141 105
f 105 141 142
f 105 142 137
f 105 137 143
f 105 143 106
f 106 143 170
f 106 170 144
f 106 144 145
f 106 145 107
f 107 145 146
f 107 146 147
f 107 147 148
f 107 148 149
f 107 149 110
f 110 149 150
f 110 150 151
f 110 151 111
f 111 151 152
f 111 152 153
f 111 153 154
f 111 154 112
f 112 154 113
f 113 154 116
f 113 116 114
f 115 116 156
f 115 156 157
f 115 157 155
f 116 154 156
f 126 158 159
f 126 159 160
f 126 160 127
f 127 160 161
f 127 161 128
f 130 162 163
f 130 163 164
f 130 164 165
f 130 165 131
f 132 136 135
f 132 135 166
f 132 166 167
f 132 167 168
f 132 168 169
f 132 169 170
f 132 170 137
f 133 171 172
f 133 172 173
f 133 173 174
f 133 174 134
f 133 175 171
f 134 174 173
f 134 173 176
f 134 176 177
f 134 177 178
f 134 178 179
f 134 179 166
f 134 166 135
f 137 170 143
f 137 142 141
f 137 141 138
f 138 141 139
f 139 141 140
f 144 170 169
f 144 169 146
f 144 146 145
f 146 169 168
f 146 168 180
f 146 180 147
f 147 180 181
f 147 181 148
f 148 181 182
f 148 182 183
f 148 183 184
f 148 184 185
f 148 185 186
f 148 186 187
f 148 187 151
f 148 151 149
f 149 151 150
f 151 187 186
f 151 186 188
f 151 188 189
f 151 189 152
f 152 189 190
f 152 190 191
f 152 191 153
f 153 191 154
f 154 191 192
f 154 192 156
f 155 157 193
f 156 192 194
f 156 194 195
f 156 195 157
f 157 195 196
f 157 196 193
f 158 197 198
f 158 198 199
f 158 199 159
f 159 199 198
f 159 198 200
f 159 200 160
f 160 201 202
f 160 202 203
f 160 203 161
f 160 200 201
f 161 203 204
f 162 205 206
f 162 206 207
f 162 207 208
f 162 208 209
f 162 209 163
f 163 209 164
f 164 209 208
f 164 208 210
f 164 210 211
f 166 212 213
f 166 213 167
f 166 179 214
f 166 214 212
f 167 213 215
f 167 215 168
f 168 215 181
f 168 181 180
f 171 216 172
f 171 175 217
f 171 217 218
f 171 218 216
f 172 216 219
f 172 219 173
f 173 219 220
f 173 220 221
f 173 221 222
f 173 222 223
f 173 223 176
f 175 224 217
f 176 223 225
f 176 225 226
f 176 226 227
f 176 227 177
f 177 227 228
f 177 228 178
f 178 228 229
f 178 229 179
f 179 229 230
f 179 230 231
f 179 231 214
f 181 215 232
f 181 232 182
f 182 232 233
f 182 233 183
f 183 233 231
f 183 231 184
f 184 231 185
f 185 231 230
f 185 230 234
f 185 234 186
f 186 234 235
f 186 235 236
f 186 236 237
f 186 237 238
f 186 238 239
f 186 239 240
f 186 240 189
f 186 189 188
f 189 240 241
f 189 241 242
f 189 242 243
f 189 243 244
f 189 244 190
f 190 244 191
f 191 244 192
f 192 244 245
f 192 245 246
f 192 246 194
f 193 196 247
f 194 246 195
f 195 246 196
f 196 248 249
f 196 249 247
f 196 246 250
f 196 250 248
f 197 251 198
f 198 252 253
f 198 253 200
f 198 251 254
f 198 254 255
f 198 255 252
f 200 253 256
f 200 256 257
f 200 257 201
f 201 257 202
f 202 258 204
f 202 204 203
f 202 257 258
f 204 258 260
f 204 260 259
f 205 261 262
f 205 262 206
f 206 262 263
f 206 263 264
f 206 264 207
f 207 264 208
f 208 264 265
f 208 265 266
f 208 266 267
f 208 267 268
f 208 268 269
f 208 269 270
f 208 270 210
f 210 270 211
f 211 270 269
f 211 269 271
f 211 271 272
f 211 272 273
f 212 233 213
f 212 214 231
f 212 231 233
f 213 233 232
f 213 232 215
f 216 218 274
f 216 274 275
f 216 275 276
f 216 276 277
f 216 277 219
f 217 224 218
f 218 278 279
f 218 279 280
f 218 280 281
f 218 281 274
f 218 224 282
f 218 282 283
f 218 283 284
f 218 284 278
f 219 277 220
f 220 277 221
f 221 277 285
f 221 285 286
f 221 286 222
f 222 286 287
f 222 287 225
f 222 225 223
f 224 288 289
f 224 289 290
f 224 290 291
f 224 291 284
f 224 284 283
f 224 283 282
f 225 287 238
f 225 238 226
f 226 236 227
f 226 238 237
f 226 237 236
f 227 236 235
f 227 235 228
f 228 235 229
f 229 234 230
f 229 235 234
f 238 287 286
f 238 286 292
f 238 292 239
f 239 242 293
f 239 293 241
f 239 241 240
f 239 292 294
f 239 294 295
f 239 295 296
f 239 296 297
f 239 297 298
f 239 298 242
f 241 293 242
f 242 298 243
f 243 298 299
f 243 299 245
f 243 245 244
f 245 299 246
f 246 300 250
f 246 299 300
f 247 301 302
f 247 249 301
f 248 303 249
f 248 250 303
f 249 303 304
f 249 304 301
f 250 300 305
f 250 305 303
f 252 306 307
f 252 307 308
f 252 308 253
f 252 255 309
f 252 309 306
f 253 308 310
f 253 310 311
f 253 311 312
f 253 312 256
f 254 313 314
f 254 314 255
f 255 314 309
f 256 312 260
f 256 260 258
f 256 258 257
f 259 315 316
f 259 260 317
f 259 317 318
f 259 318 319
f 259 319 315
f 260 312 317
f 261 316 315
f 261 315 320
f 261 320 262
f 262 320 321
f 262 321 263
f 263 321 322
f 263 322 264
f 264 322 265
f 265 322 323
f 265 323 266
f 266 323 324
f 266 324 267
f 267 324 325
f 267 325 268
f 268 325 326
f 268 326 327
f 268 327 269
f 269 327 328
f 269 328 329
f 269 329 330
f 269 330 331
f 269 331 332
f 269 332 272
f 269 272 271
f 272 332 273
f 273 332 333
f 274 334 275
f 274 281 345
f 274 345 334
f 275 334 335
f 275 335 336
f 275 336 337
f 275 337 338
f 275 338 276
f 276 338 296
f 276 296 277
f 277 296 295
f 277 295 285
f 278 339 280
f 278 280 279
f 278 284 339
f 280 340 281
f 280 339 341
f 280 341 342
f 280 342 343
f 280 343 344
f 280 344 335
f 280 335 340
f 281 340 345
f 284 346 339
f 284 291 290
f 284 290 346
f 285 295 294
f 285 294 286
f 286 294 292
f 288 347 289
f 289 347 348
f 289 348 290
f 290 349 350
f 290 350 346
f 290 348 351
f 290 351 352
f 290 352 353
f 290 353 349
f 296 338 297
f 297 338 354
f 297 354 355
f 297 355 298
f 298 355 356
f 298 356 300
f 298 300 299
f 300 356 357
f 300 357 305
f 301 304 358
f 301 358 359
f 301 359 360
f 301 360 302
f 302 360 362
f 302 362 361
f 303 305 363
f 303 363 304
f 304 363 358
f 305 357 364
f 305 364 365
f 305 365 363
f 306 366 307
f 306 309 367
f 306 367 368
f 306 368 366
f 307 366 369
f 307 369 308
f 308 369 310
f 309 314 370
f 309 370 371
f 309 371 367
f 310 369 372
f 310 372 311
f 311 372 318
f 311 318 312
f 312 318 317
f 313 373 374
f 313 374 314
f 314 374 375
f 314 375 370
f 315 319 320
f 318 372 319
f 319 376 377
f 319 377 320
f 319 372 376
f 320 378 321
f 320 377 376
f 320 376 379
f 320 379 380
f 320 380 381
f 320 381 382
f 320 382 378
f 321 378 322
f 322 378 323
f 323 383 384
f 323 384 324
f 323 378 383
f 324 384 382
f 324 382 325
f 325 382 385
f 325 385 326
f 326 385 386
f 326 386 387
f 326 387 327
f 327 387 328
f 328 387 329
f 329 387 330
f 330 387 388
f 330 388 389
f 330 389 331
f 331 390 391
f 331 391 332
f 331 389 390
f 332 391 392
f 332 392 393
f 332 393 394
f 332 394 395
f 332 395 333
f 333 395 396
f 334 345 335
f 335 345 340
f 335 344 397
f 335 397 336
f 336 397 337
f 337 397 354
f 337 354 338
f 339 346 398
f 339 398 399
f 339 399 341
f 341 399 400
f 341 400 342
f 342 400 401
f 342 401 343
f 343 401 397
f 343 397 344
f 346 402 403
f 346 403 404
f 346 404 398
f 346 350 402
f 347 405 348
f 348 405 406
f 348 406 407
f 348 407 408
f 348 408 409
f 348 409 351
f 349 353 410
f 349 410 411
f 349 411 350
f 350 411 402
f 351 409 482
f 351 482 412
f 351 412 413
f 351 413 352
f 352 413 414
f 352 414 353
f 353 414 410
f 354 356 355
f 354 397 356
f 356 397 415
f 356 415 364
f 356 364 357
f 358 363 416
f 358 416 417
f 358 417 418
f 358 418 419
f 358 419 359
f 359 419 420
f 359 420 421
f 359 421 360
f 360 421 422
f 360 422 423
f 360 423 362
f 361 362 424
f 362 425 424
f 362 423 426
f 362 426 427
f 362 427 425
f 363 365 416
f 364 428 365
f 364 415 428
f 365 428 429
f 365 429 416
f 366 430 431
f 366 431 432
f 366 432 433
f 366 433 369
f 366 368 434
f 366 434 430
f 367 371 435
f 367 435 368
f 368 435 434
f 369 433 372
f 370 375 436
f 370 436 437
f 370 437 371
f 371 438 435
f 371 437 438
f 372 439 440
f 372 440 381
f 372 381 380
f 372 380 379
f 372 379 376
f 372 433 441
f 372 441 439
f 373 442 374
f 374 442 443
f 374 443 444
f 374 444 445
f 374 445 375
f 375 445 436
f 378 382 384
f 378 384 383
f 381 440 439
f 381 439 382
f 382 439 385
f 385 439 386
f 386 439 446
f 386 446 389
f 386 389 388
f 386 388 387
f 389 447 448
f 389 448 390
f 389 446 447
f 390 448 449
f 390 449 450
f 390 450 391
f 391 450 451
f 391 451 392
f 392 451 452
f 392 452 453
f 392 453 393
f 393 453 454
f 393 454 455
f 393 455 394
f 394 456 395
f 394 455 457
f 394 457 458
f 394 458 456
f 395 456 459
f 395 459 460
f 395 460 396
f 396 460 461
f 397 401 462
f 397 462 463
f 397 463 464
f 397 464 415
f 398 404 403
f 398 403 465
f 398 465 466
f 398 466 399
f 399 466 467
f 399 467 400
f 400 467 401
f 401 468 469
f 401 469 470
f 401 470 462
f 401 467 471
f 401 471 472
f 401 472 473
f 401 473 474
f 401 474 468
f 402 411 403
f 403 411 465
f 405 475 476
f 405 476 406
f 405 477 475
f 406 476 407
f 407 478 479
f 407 479 481
f 407 481 408
f 407 476 480
f 407 480 478
f 408 481 482
f 408 482 409
f 410 483 484
f 410 484 411
f 410 414 483
f 411 485 486
f 411 486 465
f 411 484 485
f 412 482 487
f 412 487 488
f 412 488 489
f 412 489 413
f 413 489 490
f 413 490 414
f 414 490 483
f 415 464 463
f 415 463 428
f 416 429 491
f 416 491 417
f 417 491 418
f 418 491 492
f 418 492 493
f 418 493 420
f 418 420 419
f 420 493 494
f 420 494 421
f 421 494 495
f 421 495 422
f 422 495 496
f 422 496 423
f 423 497 498
f 423 498 499
f 423 499 500
f 423 500 501
f 423 501 426
f 423 496 495
f 423 495 497
f 426 501 427
f 427 501 502
f 428 463 462
f 428 462 469
f 428 469 491
f 428 491 429
f 430 503 504
f 430 504 505
f 430 505 506
f 430 506 507
f 430 507 432
f 430 432 431
f 430 434 508
f 430 508 509
f 430 509 510
f 430 510 503
f 432 507 511
f 432 511 449
f 432 449 439
f 432 439 441
f 432 441 433
f 434 435 512
f 434 512 508
f 435 438 513
f 435 513 512
f 436 445 514
f 436 514 515
f 436 515 516
f 436 516 437
f 437 513 438
f 437 516 513
f 439 448 447
f 439 447 446
f 439 449 448
f 442 517 518
f 442 518 519
f 442 519 520
f 442 520 443
f 443 520 444
f 444 521 522
f 444 522 445
f 444 520 519
f 444 519 518
f 444 518 523
f 444 523 524
f 444 524 521
f 445 522 525
f 445 525 514
f 449 511 450
f 450 511 451
f 451 511 452
f 452 507 454
f 452 454 453
f 452 511 507
f 454 507 506
f 454 506 457
f 454 457 455
f 456 458 459
f 457 506 505
f 457 505 458
f 458 504 503
f 458 503 526
f 458 526 459
f 458 505 504
f 459 527 460
f 459 526 527
f 460 528 529
f 460 529 530
f 460 530 531
f 460 531 532
f 460 532 461
f 460 527 528
f 461 532 533
f 461 533 534
f 461 534 535
f 461 535 536
f 461 536 537
f 461 537 538
f 462 470 469
f 465 486 485
f 465 485 539
f 465 539 471
f 465 471 467
f 465 467 466
f 468 474 469
f 469 474 492
f 469 492 491
f 471 539 472
f 472 539 485
f 472 485 473
f 473 540 541
f 473 541 474
f 473 485 484
f 473 484 483
f 473 483 490
f 473 490 489
f 473 489 542
f 473 542 543
f 473 543 544
f 473 544 540
f 474 541 492
f 475 477 545
f 475 545 480
f 475 480 476
f 477 546 547
f 477 547 545
f 478 548 550
f 478 550 479
f 478 480 549
f 478 549 548
f 479 550 551
f 479 551 481
f 480 545 552
f 480 552 549
f 481 551 487
f 481 487 482
f 487 542 488
f 487 551 542
f 488 542 489
f 492 541 540
f 492 540 493
f 493 544 543
f 493 543 553
f 493 553 554
f 493 554 494
f 493 540 544
f 494 555 495
f 494 554 556
f 494 556 555
f 495 557 497
f 495 555 557
f 497 557 558
f 497 558 498
f 498 558 559
f 498 559 560
f 498 560 561
f 498 561 562
f 498 562 499
f 499 562 563
f 499 563 564
f 499 564 565
f 499 565 566
f 499 566 567
f 499 567 568
f 499 568 569
f 499 569 500
f 500 569 501
f 501 569 502
f 503 510 570
f 503 570 571
f 503 571 526
f 508 512 572
f 508 572 509
f 509 573 574
f 509 574 510
f 509 572 512
f 509 512 575
f 509 575 576
f 509 576 573
f 510 574 577
f 510 577 578
f 510 578 570
f 512 579 575
f 512 513 580
f 512 580 579
f 513 516 581
f 513 581 582
f 513 582 580
f 514 525 515
f 515 525 581
f 515 581 516
f 517 583 563
f 517 563 523
f 517 523 518
f 521 524 584
f 521 584 585
f 521 585 586
f 521 586 522
f 522 586 587
f 522 587 525
f 523 563 588
f 523 588 524
f 524 588 589
f 524 589 584
f 525 587 581
f 526 571 527
f 527 571 528
f 528 571 590
f 528 590 591
f 528 591 529
f 529 591 592
f 529 592 530
f 530 592 531
f 531 593 532
f 531 592 594
f 531 594 595
f 531 595 596
f 531 596 593
f 532 593 597
f 532 597 598
f 532 598 533
f 533 598 599
f 533 599 600
f 533 600 534
f 534 600 601
f 534 601 535
f 535 602 603
f 535 603 536
f 535 601 602
f 536 603 604
f 536 604 605
f 536 605 537
f 537 605 606
f 537 606 607
f 537 607 538
f 538 607 608
f 538 608 546
f 542 551 556
f 542 556 554
f 542 554 553
f 542 553 543
f 545 547 552
f 546 609 610
f 546 610 611
f 546 611 547
f 546 608 609
f 547 611 612
f 547 612 552
f 548 549 613
f 548 613 614
f 548 614 557
f 548 557 550
f 549 552 612
f 549 612 615
f 549 615 613
f 550 557 555
f 550 555 556
f 550 556 551
f 557 614 559
f 557 559 558
f 559 614 616
f 559 616 617
f 559 617 618
f 559 618 619
f 559 619 620
f 559 620 561
f 559 561 560
f 561 620 621
f 561 621 562
f 562 621 563
f 563 583 622
f 563 622 564
f 563 621 588
f 570 578 571
f 571 578 590
f 573 594 592
f 573 592 574
f 573 576 623
f 573 623 595
f 573 595 594
f 574 592 591
f 574 591 577
f 575 579 576
f 576 580 582
f 576 582 624
f 576 624 625
f 576 625 626
f 576 626 627
f 576 627 628
f 576 628 623
f 576 579 580
f 577 591 578
f 578 591 590
f 581 629 630
f 581 630 624
f 581 624 582
f 581 587 629
f 584 589 631
f 584 631 585
f 585 632 633
f 585 633 634
f 585 634 586
f 585 631 635
f 585 635 636
f 585 636 637
f 585 637 632
f 586 634 638
f 586 638 587
f 587 638 639
f 587 639 629
f 588 621 640
f 588 640 641
f 588 641 642
f 588 642 589
f 589 642 631
f 593 596 597
f 595 623 596
f 596 628 643
f 596 643 597
f 596 623 628
f 597 643 598
f 598 643 644
f 598 644 645
f 598 645 599
f 599 645 646
f 599 646 600
f 600 646 647
f 600 647 601
f 601 647 648
f 601 648 602
f 602 648 649
f 602 649 603
f 603 649 604
f 604 649 605
f 605 650 651
f 605 651 606
f 605 649 652
f 605 652 650
f 606 651 653
f 606 653 654
f 606 654 607
f 607 654 608
f 608 654 655
f 608 655 656
f 608 656 657
f 608 657 658
f 608 658 659
f 608 659 609
f 609 659 660
f 609 660 661
f 609 661 662
f 609 662 611
f 609 611 610
f 611 663 664
f 611 664 612
f 611 662 663
f 612 664 615
f 613 615 665
f 613 665 616
f 613 616 614
f 615 664 666
f 615 666 667
f 615 667 665
f 616 665 617
f 617 665 667
f 617 667 668
f 617 668 669
f 617 669 670
f 617 670 671
f 617 671 618
f 618 671 670
f 618 670 619
f 619 672 673
f 619 673 635
f 619 635 641
f 619 641 640
f 619 640 620
f 619 670 672
f 620 640 621
f 624 630 674
f 624 674 625
f 625 674 645
f 625 645 644
f 625 644 626
f 626 644 627
f 627 643 628
f 627 644 643
f 629 639 630
f 630 639 675
f 630 675 676
f 630 676 674
f 631 642 635
f 632 677 678
f 632 678 633
f 632 637 677
f 633 678 679
f 633 679 634
f 634 679 680
f 634 680 638
f 635 681 682
f 635 682 636
f 635 642 641
f 635 673 683
f 635 683 681
f 636 682 684
f 636 684 637
f 637 684 685
f 637 685 686
f 637 686 677
f 638 680 639
f 639 680 675
f 645 674 646
f 646 674 676
f 646 676 647
f 647 676 648
f 648 675 649
f 648 676 675
f 649 675 680
f 649 680 679
f 649 679 652
f 650 678 677
f 650 677 651
f 650 652 678
f 651 677 686
f 651 686 653
f 652 679 678
f 653 686 687
f 653 687 688
f 653 688 654
f 654 688 655
f 655 688 689
f 655 689 690
f 655 690 656
f 656 690 657
f 657 690 658
f 658 690 691
f 658 691 659
f 659 692 693
f 659 693 660
f 659 691 692
f 660 693 661
f 661 694 662
f 661 693 694
f 662 694 695
f 662 695 663
f 663 696 666
f 663 666 664
f 663 695 696
f 666 696 668
f 666 668 667
f 668 696 695
f 668 695 669
f 669 695 694
f 669 694 697
f 669 697 698
f 669 698 672
f 669 672 670
f 672 698 673
f 673 698 683
f 681 683 698
f 681 698 685
f 681 685 682
f 682 685 684
f 685 698 699
f 685 699 700
f 685 700 701
f 685 701 702
f 685 702 687
f 685 687 686
f 687 702 688
f 688 702 701
f 688 701 689
f 689 701 690
f 690 701 691
f 691 700 692
f 691 701 700
f 692 699 703
f 692 703 693
f 692 700 699
f 693 703 697
f 693 697 694
f 697 703 698
f 698 703 699

