# https://github.com/mikedh/trimesh
v 0.04224641 -0.03246935 -0.05875724 0.56470588 0.01568627 0.61568627
v 0.04224641 -0.03246279 -0.05872966 0.56470588 0.01568627 0.61568627
v 0.04224641 -0.03233814 -0.05970431 0.56470588 0.01568627 0.61568627
v 0.04995507 -0.03216757 -0.05987257 0.56470588 0.01568627 0.61568627
v 0.04995507 -0.03233158 -0.05861196 0.56470588 0.01568627 0.61568627
v 0.04924771 -0.03178706 -0.05624338 0.56470588 0.01568627 0.61568627
v 0.04912597 -0.03178706 -0.05624338 0.56470588 0.01568627 0.61568627
v 0.04913584 -0.03024535 -0.05164230 0.56470588 0.01568627 0.61568627
v 0.04224641 -0.03158369 -0.05646682 0.56470588 0.01568627 0.61568627
v 0.04841531 -0.03218069 -0.05989464 0.56470588 0.01568627 0.61568627
v 0.04224641 -0.03120318 -0.06029645 0.56470588 0.01568627 0.61568627
v 0.04841531 -0.03099324 -0.06055667 0.56470588 0.01568627 0.61568627
v 0.05091906 -0.03191171 -0.05963075 0.56470588 0.01568627 0.61568627
v 0.04995507 -0.03099324 -0.06053644 0.56470588 0.01568627 0.61568627
v 0.05738407 -0.02892014 -0.05977419 0.56470588 0.01568627 0.61568627
v 0.05074140 -0.03178050 -0.05780282 0.56470588 0.01568627 0.61568627
v 0.04983992 -0.03191171 -0.05720332 0.56470588 0.01568627 0.61568627
v 0.05740711 -0.02893326 -0.05861196 0.56470588 0.01568627 0.61568627
v 0.04922467 -0.03024535 -0.05164230 0.56470588 0.01568627 0.61568627
v 0.04893515 -0.03008790 -0.05144094 0.56470588 0.01568627 0.61568627
v 0.04224641 -0.02962867 -0.05144094 0.56470588 0.01568627 0.61568627
v 0.04224641 -0.03099324 -0.06039668 0.56470588 0.01568627 0.61568627
v 0.04224641 -0.02945810 -0.06068447 0.56470588 0.01568627 0.61568627
v 0.04841531 -0.02945810 -0.06071574 0.56470588 0.01568627 0.61568627
v 0.04995507 -0.02945810 -0.06072033 0.56470588 0.01568627 0.61568627
v 0.05610424 -0.02792295 -0.06066149 0.56470588 0.01568627 0.61568627
v 0.05779534 -0.02807384 -0.06014290 0.56470588 0.01568627 0.61568627
v 0.05872314 -0.02766052 -0.05980269 0.56470588 0.01568627 0.61568627
v 0.06609950 -0.02100821 -0.05938984 0.56470588 0.01568627 0.61568627
v 0.05817370 -0.02849370 -0.05861196 0.56470588 0.01568627 0.61568627
v 0.05707481 -0.02878893 -0.05753893 0.56470588 0.01568627 0.61568627
v 0.04943195 -0.03002229 -0.05144094 0.56470588 0.01568627 0.61568627
v 0.05692347 -0.02718817 -0.05313738 0.56470588 0.01568627 0.61568627
v 0.05673922 -0.02640748 -0.05144094 0.56470588 0.01568627 0.61568627
v 0.05610424 -0.02672238 -0.05144094 0.56470588 0.01568627 0.61568627
v 0.04224641 0.02841182 -0.05144094 0.56470588 0.01568627 0.61568627
v 0.04224641 -0.02792295 -0.06071482 0.56470588 0.01568627 0.61568627
v 0.04534238 -0.02792295 -0.06072769 0.56470588 0.01568627 0.61568627
v 0.04995507 -0.02792295 -0.06074516 0.56470588 0.01568627 0.61568627
v 0.05149154 -0.02792295 -0.06074792 0.56470588 0.01568627 0.61568627
v 0.05610424 -0.02638123 -0.06075435 0.56470588 0.01568627 0.61568627
v 0.05764399 -0.02638123 -0.06071482 0.56470588 0.01568627 0.61568627
v 0.06532633 -0.02023407 -0.06038932 0.56470588 0.01568627 0.61568627
v 0.06532633 -0.02135592 -0.05972362 0.56470588 0.01568627 0.61568627
v 0.06609950 -0.02100821 -0.05936318 0.56470588 0.01568627 0.61568627
v 0.06633310 -0.02023407 -0.05970523 0.56470588 0.01568627 0.61568627
v 0.07228156 -0.01182355 -0.05948087 0.56470588 0.01568627 0.61568627
v 0.05843690 -0.02718161 -0.05623051 0.56470588 0.01568627 0.61568627
v 0.05727550 -0.02611225 -0.05144094 0.56470588 0.01568627 0.61568627
v 0.06596790 -0.02082452 -0.05833796 0.56470588 0.01568627 0.61568627
v 0.06497100 -0.02132311 -0.05707367 0.56470588 0.01568627 0.61568627
v 0.06472425 -0.02112630 -0.05592524 0.56470588 0.01568627 0.61568627
v 0.06455645 -0.01945994 -0.05169839 0.56470588 0.01568627 0.61568627
v 0.04546740 0.03133122 -0.05144094 0.56470588 0.01568627 0.61568627
v 0.04224641 0.03076703 -0.05702586 0.56470588 0.01568627 0.61568627
v 0.04224641 -0.02638123 -0.06072309 0.56470588 0.01568627 0.61568627
v 0.04380262 -0.02638123 -0.06073045 0.56470588 0.01568627 0.61568627
v 0.04995507 -0.02638123 -0.06075803 0.56470588 0.01568627 0.61568627
v 0.05149154 -0.02638123 -0.06076355 0.56470588 0.01568627 0.61568627
v 0.05302801 -0.02638123 -0.06076631 0.56470588 0.01568627 0.61568627
v 0.05456776 -0.02638123 -0.06076355 0.56470588 0.01568627 0.61568627
v 0.05610424 -0.02484609 -0.06076998 0.56470588 0.01568627 0.61568627
v 0.06378986 -0.01869236 -0.06078561 0.56470588 0.01568627 0.61568627
v 0.06378986 -0.02023407 -0.06076079 0.56470588 0.01568627 0.61568627
v 0.06532633 -0.01869236 -0.06074240 0.56470588 0.01568627 0.61568627
v 0.07147878 -0.01100349 -0.06040955 0.56470588 0.01568627 0.61568627
v 0.07228156 -0.01182355 -0.05917377 0.56470588 0.01568627 0.61568627
v 0.07239013 -0.01100349 -0.05971534 0.56470588 0.01568627 0.61568627
v 0.07551900 -0.00299972 -0.05978522 0.56470588 0.01568627 0.61568627
v 0.07555519 -0.00308500 -0.05861196 0.56470588 0.01568627 0.61568627
v 0.06447749 -0.01938121 -0.05144094 0.56470588 0.01568627 0.61568627
v 0.06613898 -0.01953210 -0.05616982 0.56470588 0.01568627 0.61568627
v 0.06573759 -0.02053586 -0.05707367 0.56470588 0.01568627 0.61568627
v 0.07216641 -0.01156769 -0.05814855 0.56470588 0.01568627 0.61568627
v 0.07090302 -0.01048521 -0.05144094 0.56470588 0.01568627 0.61568627
v 0.06466502 -0.01912535 -0.05144094 0.56470588 0.01568627 0.61568627
v 0.04572403 0.03156084 -0.05144094 0.56470588 0.01568627 0.61568627
v 0.04516472 0.03387013 -0.05861196 0.56470588 0.01568627 0.61568627
v 0.04224641 0.03133122 -0.05861196 0.56470588 0.01568627 0.61568627
v 0.04224641 -0.02023407 -0.06073229 0.56470588 0.01568627 0.61568627
v 0.04534238 -0.02484609 -0.06073964 0.56470588 0.01568627 0.61568627
v 0.04534238 -0.02176922 -0.06074332 0.56470588 0.01568627 0.61568627
v 0.04995507 -0.02484609 -0.06075895 0.56470588 0.01568627 0.61568627
v 0.05456776 -0.02484609 -0.06077366 0.56470588 0.01568627 0.61568627
v 0.05610424 -0.02176922 -0.06078286 0.56470588 0.01568627 0.61568627
v 0.05610424 -0.02330437 -0.06078102 0.56470588 0.01568627 0.61568627
v 0.05764399 -0.02176922 -0.06078654 0.56470588 0.01568627 0.61568627
v 0.05917717 -0.02023407 -0.06079205 0.56470588 0.01568627 0.61568627
v 0.06225340 -0.01869236 -0.06079113 0.56470588 0.01568627 0.61568627
v 0.06378986 -0.01715721 -0.06079297 0.56470588 0.01568627 0.61568627
v 0.07301525 -0.00177947 -0.06082239 0.56470588 0.01568627 0.61568627
v 0.06993903 -0.01100349 -0.06077826 0.56470588 0.01568627 0.61568627
v 0.06532633 -0.01715721 -0.06077918 0.56470588 0.01568627 0.61568627
v 0.07147878 -0.00946834 -0.06063022 0.56470588 0.01568627 0.61568627
v 0.07455501 -0.00177947 -0.06074516 0.56470588 0.01568627 0.61568627
v 0.07565718 -0.00177947 -0.06002337 0.56470588 0.01568627 0.61568627
v 0.07542359 -0.00278322 -0.05707367 0.56470588 0.01568627 0.61568627
v 0.07534791 -0.00259953 -0.05619097 0.56470588 0.01568627 0.61568627
v 0.07585788 -0.00177947 -0.05861196 0.56470588 0.01568627 0.61568627
v 0.07405162 -0.00292099 -0.05144094 0.56470588 0.01568627 0.61568627
v 0.04618135 0.03169205 -0.05144094 0.56470588 0.01568627 0.61568627
v 0.04610897 0.03434904 -0.05784144 0.56470588 0.01568627 0.61568627
v 0.04593130 0.03444745 -0.05861196 0.56470588 0.01568627 0.61568627
v 0.04587208 0.03448025 -0.05962339 0.56470588 0.01568627 0.61568627
v 0.04426981 0.03311568 -0.05971166 0.56470588 0.01568627 0.61568627
v 0.04224641 0.03085887 -0.05999946 0.56470588 0.01568627 0.61568627
v 0.04257542 0.03157396 -0.05972637 0.56470588 0.01568627 0.61568627
v 0.04226615 -0.01869236 -0.06073321 0.56470588 0.01568627 0.61568627
v 0.04224641 0.01359171 -0.06074056 0.56470588 0.01568627 0.61568627
v 0.05764399 -0.02023407 -0.06078837 0.56470588 0.01568627 0.61568627
v 0.07301525 0.00282598 -0.06083343 0.56470588 0.01568627 0.61568627
v 0.07301525 0.00129083 -0.06083251 0.56470588 0.01568627 0.61568627
v 0.07301525 -0.00024432 -0.06082883 0.56470588 0.01568627 0.61568627
v 0.07455501 -0.00024432 -0.06077090 0.56470588 0.01568627 0.61568627
v 0.07301525 -0.00331462 -0.06080309 0.56470588 0.01568627 0.61568627
v 0.07565060 -0.00024432 -0.06004268 0.56470588 0.01568627 0.61568627
v 0.07557164 -0.00177947 -0.05707367 0.56470588 0.01568627 0.61568627
v 0.07537424 -0.00177947 -0.05606500 0.56470588 0.01568627 0.61568627
v 0.07438063 -0.00177947 -0.05144094 0.56470588 0.01568627 0.61568627
v 0.07419310 -0.00249456 -0.05144094 0.56470588 0.01568627 0.61568627
v 0.07560784 0.00590284 -0.06001509 0.56470588 0.01568627 0.61568627
v 0.07559139 0.00743799 -0.05996636 0.56470588 0.01568627 0.61568627
v 0.07572299 0.00743799 -0.05861196 0.56470588 0.01568627 0.61568627
v 0.04692491 0.03175765 -0.05144094 0.56470588 0.01568627 0.61568627
v 0.04611555 0.03434904 -0.05784144 0.56470588 0.01568627 0.61568627
v 0.04672750 0.03450649 -0.05852369 0.56470588 0.01568627 0.61568627
v 0.04687885 0.03455242 -0.05973741 0.56470588 0.01568627 0.61568627
v 0.04687885 0.03358147 -0.06036817 0.56470588 0.01568627 0.61568627
v 0.04535225 0.03360771 -0.05997739 0.56470588 0.01568627 0.61568627
v 0.04224641 0.03062926 -0.06011899 0.56470588 0.01568627 0.61568627
v 0.04224641 0.01361140 -0.06074056 0.56470588 0.01568627 0.61568627
v 0.06225340 0.02281574 -0.06080676 0.56470588 0.01568627 0.61568627
v 0.07301525 0.00743799 -0.06083435 0.56470588 0.01568627 0.61568627
v 0.07301525 0.00897970 -0.06083159 0.56470588 0.01568627 0.61568627
v 0.07455501 0.00590284 -0.06074884 0.56470588 0.01568627 0.61568627
v 0.07545320 0.00743799 -0.05721343 0.56470588 0.01568627 0.61568627
v 0.07536766 -0.00078884 -0.05609902 0.56470588 0.01568627 0.61568627
v 0.07429180 0.00743799 -0.05144094 0.56470588 0.01568627 0.61568627
v 0.07455501 0.00743799 -0.06070010 0.56470588 0.01568627 0.61568627
v 0.07547294 0.00861888 -0.05974017 0.56470588 0.01568627 0.61568627
v 0.07548610 0.00864512 -0.05861196 0.56470588 0.01568627 0.61568627
v 0.07539069 0.00838270 -0.05751318 0.56470588 0.01568627 0.61568627
v 0.04768163 0.03284013 -0.05469314 0.56470588 0.01568627 0.61568627
v 0.04714205 0.03430312 -0.05795270 0.56470588 0.01568627 0.61568627
v 0.04784942 0.03147556 -0.05144094 0.56470588 0.01568627 0.61568627
v 0.04786258 0.03448025 -0.05897792 0.56470588 0.01568627 0.61568627
v 0.04786258 0.03448025 -0.05961328 0.56470588 0.01568627 0.61568627
v 0.04687885 0.03203976 -0.06066149 0.56470588 0.01568627 0.61568627
v 0.04534238 0.03203976 -0.06059436 0.56470588 0.01568627 0.61568627
v 0.05610424 0.03050461 -0.06048495 0.56470588 0.01568627 0.61568627
v 0.04224641 0.02896946 -0.06066608 0.56470588 0.01568627 0.61568627
v 0.04224641 0.01514654 -0.06073964 0.56470588 0.01568627 0.61568627
v 0.04224641 0.01822341 -0.06073688 0.56470588 0.01568627 0.61568627
v 0.04224641 0.02129370 -0.06073412 0.56470588 0.01568627 0.61568627
v 0.04224641 0.02283542 -0.06073229 0.56470588 0.01568627 0.61568627
v 0.04224641 0.02437056 -0.06073045 0.56470588 0.01568627 0.61568627
v 0.05610424 0.02742775 -0.06076631 0.56470588 0.01568627 0.61568627
v 0.05610424 0.02896946 -0.06075895 0.56470588 0.01568627 0.61568627
v 0.06378986 0.02281574 -0.06079665 0.56470588 0.01568627 0.61568627
v 0.06993903 0.01666857 -0.06081320 0.56470588 0.01568627 0.61568627
v 0.06993903 0.01512686 -0.06082515 0.56470588 0.01568627 0.61568627
v 0.07147878 0.01359171 -0.06080492 0.56470588 0.01568627 0.61568627
v 0.07301525 0.01051485 -0.06078745 0.56470588 0.01568627 0.61568627
v 0.07396937 0.00850079 -0.05144094 0.56470588 0.01568627 0.61568627
v 0.07468332 0.00906499 -0.06018152 0.56470588 0.01568627 0.61568627
v 0.07147878 0.01512686 -0.06073596 0.56470588 0.01568627 0.61568627
v 0.07261386 0.01512686 -0.06001233 0.56470588 0.01568627 0.61568627
v 0.07429509 0.01051485 -0.06006750 0.56470588 0.01568627 0.61568627
v 0.07240987 0.01632743 -0.05976315 0.56470588 0.01568627 0.61568627
v 0.07209731 0.01700316 -0.05861196 0.56470588 0.01568627 0.61568627
v 0.05544622 0.02977639 -0.05309876 0.56470588 0.01568627 0.61568627
v 0.05503167 0.02909411 -0.05144094 0.56470588 0.01568627 0.61568627
v 0.05658129 0.03122626 -0.05797844 0.56470588 0.01568627 0.61568627
v 0.05709784 0.03139027 -0.05900366 0.56470588 0.01568627 0.61568627
v 0.05709784 0.03139027 -0.05963351 0.56470588 0.01568627 0.61568627
v 0.04534238 0.03050461 -0.06069091 0.56470588 0.01568627 0.61568627
v 0.05762425 0.03047180 -0.05993418 0.56470588 0.01568627 0.61568627
v 0.06378986 0.02435089 -0.06067896 0.56470588 0.01568627 0.61568627
v 0.04224641 0.02742775 -0.06071114 0.56470588 0.01568627 0.61568627
v 0.04224641 0.02591228 -0.06072309 0.56470588 0.01568627 0.61568627
v 0.05456776 0.02896946 -0.06075251 0.56470588 0.01568627 0.61568627
v 0.06993903 0.01820372 -0.06045276 0.56470588 0.01568627 0.61568627
v 0.07078128 0.01605189 -0.05296360 0.56470588 0.01568627 0.61568627
v 0.06980413 0.01653736 -0.05144094 0.56470588 0.01568627 0.61568627
v 0.07161368 0.01677354 -0.06017692 0.56470588 0.01568627 0.61568627
v 0.07111029 0.01820372 -0.05982384 0.56470588 0.01568627 0.61568627
v 0.07076154 0.01901066 -0.05950938 0.56470588 0.01568627 0.61568627
v 0.07076154 0.01901066 -0.05925100 0.56470588 0.01568627 0.61568627
v 0.07123861 0.01827589 -0.05868828 0.56470588 0.01568627 0.61568627
v 0.07110042 0.01785602 -0.05707367 0.56470588 0.01568627 0.61568627
v 0.07088657 0.01761984 -0.05583605 0.56470588 0.01568627 0.61568627
v 0.07068258 0.01740335 -0.05481083 0.56470588 0.01568627 0.61568627
v 0.05610753 0.02872672 -0.05144094 0.56470588 0.01568627 0.61568627
v 0.05693005 0.02978951 -0.05465084 0.56470588 0.01568627 0.61568627
v 0.06327990 0.02376700 -0.05144094 0.56470588 0.01568627 0.61568627
v 0.06460909 0.02515782 -0.05773662 0.56470588 0.01568627 0.61568627
v 0.06478676 0.02529559 -0.05861196 0.56470588 0.01568627 0.61568627
v 0.06481308 0.02532184 -0.05974660 0.56470588 0.01568627 0.61568627
v 0.06465187 0.02370796 -0.05446051 0.56470588 0.01568627 0.61568627
f 1 2 9
f 1 9 21
f 1 21 36
f 1 36 55
f 1 55 79
f 1 79 106
f 1 106 130
f 1 130 151
f 1 151 179
f 1 179 180
f 1 180 156
f 1 156 155
f 1 155 154
f 1 154 153
f 1 153 152
f 1 152 131
f 1 131 109
f 1 109 80
f 1 80 56
f 1 56 37
f 1 37 23
f 1 23 22
f 1 22 11
f 1 11 3
f 1 3 4
f 1 4 5
f 1 5 6
f 1 6 2
f 2 6 7
f 2 7 8
f 2 8 9
f 3 10 4
f 3 11 12
f 3 12 10
f 4 13 5
f 4 10 14
f 4 14 15
f 4 15 13
f 5 16 17
f 5 17 6
f 5 13 18
f 5 18 16
f 6 17 19
f 6 19 8
f 6 8 7
f 8 19 20
f 8 20 21
f 8 21 9
f 10 12 14
f 11 22 12
f 12 22 23
f 12 23 24
f 12 24 25
f 12 25 14
f 13 15 18
f 14 25 26
f 14 26 27
f 14 27 15
f 15 27 28
f 15 28 29
f 15 29 30
f 15 30 18
f 16 19 17
f 16 18 31
f 16 31 19
f 18 30 31
f 19 32 20
f 19 31 33
f 19 33 34
f 19 34 35
f 19 35 32
f 20 32 35
f 20 35 34
f 20 34 49
f 20 49 71
f 20 71 76
f 20 76 75
f 20 75 100
f 20 100 120
f 20 120 119
f 20 119 138
f 20 138 164
f 20 164 184
f 20 184 195
f 20 195 193
f 20 193 172
f 20 172 145
f 20 145 124
f 20 124 101
f 20 101 77
f 20 77 54
f 20 54 36
f 20 36 21
f 23 37 24
f 24 37 38
f 24 38 39
f 24 39 25
f 25 39 40
f 25 40 41
f 25 41 26
f 26 41 42
f 26 42 27
f 27 42 43
f 27 43 44
f 27 44 28
f 28 44 29
f 29 45 30
f 29 44 46
f 29 46 47
f 29 47 67
f 29 67 45
f 30 48 49
f 30 49 33
f 30 33 31
f 30 45 50
f 30 50 51
f 30 51 52
f 30 52 53
f 30 53 48
f 33 49 34
f 36 54 55
f 37 56 57
f 37 57 58
f 37 58 38
f 38 58 39
f 39 58 59
f 39 59 60
f 39 60 40
f 40 60 61
f 40 61 41
f 41 61 62
f 41 62 63
f 41 63 64
f 41 64 42
f 42 64 43
f 43 46 44
f 43 64 65
f 43 65 66
f 43 66 46
f 45 67 50
f 46 66 47
f 47 66 68
f 47 68 69
f 47 69 70
f 47 70 67
f 48 53 49
f 49 53 71
f 50 72 73
f 50 73 52
f 50 52 51
f 50 67 74
f 50 74 75
f 50 75 72
f 52 73 53
f 53 76 71
f 53 73 72
f 53 72 75
f 53 75 76
f 54 77 55
f 55 77 78
f 55 78 79
f 56 80 57
f 57 80 81
f 57 81 58
f 58 81 80
f 58 80 82
f 58 82 83
f 58 83 59
f 59 84 60
f 59 83 85
f 59 85 86
f 59 86 84
f 60 84 61
f 61 84 86
f 61 86 62
f 62 86 87
f 62 87 88
f 62 88 63
f 63 88 89
f 63 89 90
f 63 90 91
f 63 91 92
f 63 92 93
f 63 93 64
f 64 93 92
f 64 92 65
f 65 92 66
f 66 92 94
f 66 94 95
f 66 95 96
f 66 96 69
f 66 69 68
f 67 70 97
f 67 97 98
f 67 98 74
f 69 96 99
f 69 99 70
f 70 99 97
f 74 98 100
f 74 100 75
f 77 101 102
f 77 102 78
f 78 102 103
f 78 103 104
f 78 104 105
f 78 105 79
f 79 105 107
f 79 107 106
f 80 108 82
f 80 109 108
f 82 85 83
f 82 108 85
f 85 108 109
f 85 109 110
f 85 110 88
f 85 88 86
f 86 88 87
f 88 110 111
f 88 111 112
f 88 112 113
f 88 113 89
f 89 113 90
f 90 113 91
f 91 113 114
f 91 114 115
f 91 115 92
f 92 115 95
f 92 95 94
f 95 115 114
f 95 114 96
f 96 114 116
f 96 116 99
f 97 99 98
f 98 99 117
f 98 117 118
f 98 118 119
f 98 119 120
f 98 120 100
f 99 116 121
f 99 121 122
f 99 122 123
f 99 123 117
f 101 124 102
f 102 124 125
f 102 125 126
f 102 126 103
f 103 126 104
f 104 126 127
f 104 127 128
f 104 128 129
f 104 129 105
f 105 129 106
f 105 106 107
f 106 129 130
f 109 131 132
f 109 132 110
f 110 132 133
f 110 133 111
f 111 133 114
f 111 114 112
f 112 114 113
f 114 133 134
f 114 134 135
f 114 135 116
f 116 135 121
f 117 123 136
f 117 136 137
f 117 137 118
f 118 137 138
f 118 138 119
f 121 135 139
f 121 139 122
f 122 139 140
f 122 140 123
f 123 140 141
f 123 141 142
f 123 142 136
f 124 143 144
f 124 144 125
f 124 145 143
f 125 144 126
f 126 146 127
f 126 144 146
f 127 146 147
f 127 147 128
f 128 148 149
f 128 149 129
f 128 147 150
f 128 150 148
f 129 149 130
f 130 149 151
f 131 152 132
f 132 152 153
f 132 153 154
f 132 154 155
f 132 155 156
f 132 156 157
f 132 157 158
f 132 158 159
f 132 159 160
f 132 160 161
f 132 161 133
f 133 161 134
f 134 161 160
f 134 160 162
f 134 162 163
f 134 163 135
f 135 163 139
f 136 142 138
f 136 138 137
f 138 142 164
f 139 165 140
f 139 163 166
f 139 166 167
f 139 167 168
f 139 168 165
f 140 165 168
f 140 168 167
f 140 167 169
f 140 169 141
f 141 169 170
f 141 170 142
f 142 170 164
f 143 145 171
f 143 171 144
f 144 171 146
f 145 172 171
f 146 173 174
f 146 174 175
f 146 175 147
f 146 171 173
f 147 175 150
f 148 150 158
f 148 158 176
f 148 176 151
f 148 151 149
f 150 175 177
f 150 177 178
f 150 178 158
f 151 176 179
f 156 180 158
f 156 158 157
f 158 181 176
f 158 178 159
f 158 180 181
f 159 178 160
f 160 182 166
f 160 166 162
f 160 178 182
f 162 166 163
f 164 170 183
f 164 183 184
f 166 182 185
f 166 185 167
f 167 185 169
f 169 185 186
f 169 186 187
f 169 187 170
f 170 187 188
f 170 188 189
f 170 189 190
f 170 190 191
f 170 191 192
f 170 192 183
f 171 172 193
f 171 193 194
f 171 194 173
f 173 194 174
f 174 194 195
f 174 195 196
f 174 196 197
f 174 197 198
f 174 198 175
f 175 198 177
f 176 181 179
f 177 198 178
f 178 198 182
f 179 181 180
f 182 186 185
f 182 198 186
f 183 192 184
f 184 192 195
f 186 198 187
f 187 198 188
f 188 198 197
f 188 197 190
f 188 190 189
f 190 197 196
f 190 196 191
f 191 196 192
f 192 196 199
f 192 199 195
f 193 195 194
f 195 199 196

