# https://github.com/mikedh/trimesh
v -0.01616981 0.03292765 -0.05177661 0.67843137 0.35686275 0.43529412
v -0.01614829 0.03173014 -0.04741931 0.67843137 0.35686275 0.43529412
v -0.00694423 0.03170452 -0.04741931 0.67843137 0.35686275 0.43529412
v -0.00694423 0.03267791 -0.05177661 0.67843137 0.35686275 0.43529412
v -0.03308578 0.03291485 -0.05177661 0.67843137 0.35686275 0.43529412
v -0.03308578 0.03175575 -0.04741931 0.67843137 0.35686275 0.43529412
v -0.00578923 0.03148679 -0.04741931 0.67843137 0.35686275 0.43529412
v -0.00606184 0.03239614 -0.05177661 0.67843137 0.35686275 0.43529412
v -0.04997305 0.03238973 -0.05177661 0.67843137 0.35686275 0.43529412
v -0.05711822 0.03134591 -0.04741931 0.67843137 0.35686275 0.43529412
v -0.04995152 0.03152522 -0.04741931 0.67843137 0.35686275 0.43529412
v -0.00279056 0.02925826 -0.04741931 0.67843137 0.35686275 0.43529412
v -0.00535880 0.03214639 -0.05177661 0.67843137 0.35686275 0.43529412
v -0.05767777 0.03196708 -0.05177661 0.67843137 0.35686275 0.43529412
v -0.06543272 0.03076316 -0.05177661 0.67843137 0.35686275 0.43529412
v -0.06497359 0.02979618 -0.04741931 0.67843137 0.35686275 0.43529412
v -0.00279056 0.02948240 -0.05177661 0.67843137 0.35686275 0.43529412
v -0.00453381 0.03143556 -0.05177661 0.67843137 0.35686275 0.43529412
v -0.00279056 -0.02877322 -0.04741931 0.67843137 0.35686275 0.43529412
v -0.06609272 0.03059026 -0.05177661 0.67843137 0.35686275 0.43529412
v -0.06620750 0.02978338 -0.04844252 0.67843137 0.35686275 0.43529412
v -0.06571967 0.02957205 -0.04741931 0.67843137 0.35686275 0.43529412
v -0.00279056 -0.02998354 -0.05177661 0.67843137 0.35686275 0.43529412
v -0.00279773 -0.02890129 -0.04741931 0.67843137 0.35686275 0.43529412
v -0.00279056 -0.02890770 -0.04742613 0.67843137 0.35686275 0.43529412
v -0.06682445 0.03035972 -0.05177661 0.67843137 0.35686275 0.43529412
v -0.06646576 0.02888684 -0.04741931 0.67843137 0.35686275 0.43529412
v -0.06640837 0.02993066 -0.04938641 0.67843137 0.35686275 0.43529412
v -0.07246310 0.02530070 -0.05177661 0.67843137 0.35686275 0.43529412
v -0.07238419 0.02522385 -0.05146867 0.67843137 0.35686275 0.43529412
v -0.07129377 0.02413520 -0.04741931 0.67843137 0.35686275 0.43529412
v -0.00279056 -0.02941360 -0.04938641 0.67843137 0.35686275 0.43529412
v -0.00465577 -0.03169336 -0.05177661 0.67843137 0.35686275 0.43529412
v -0.00496424 -0.03053427 -0.04741931 0.67843137 0.35686275 0.43529412
v -0.00279056 -0.02905498 -0.04795501 0.67843137 0.35686275 0.43529412
v -0.00468446 -0.03171898 -0.05177661 0.67843137 0.35686275 0.43529412
v -0.06672402 0.03016761 -0.05092358 0.67843137 0.35686275 0.43529412
v -0.07262093 0.02495489 -0.05177661 0.67843137 0.35686275 0.43529412
v -0.07241289 0.02387905 -0.04967260 0.67843137 0.35686275 0.43529412
v -0.07173137 0.02312980 -0.04741931 0.67843137 0.35686275 0.43529412
v -0.00531576 -0.03078402 -0.04741931 0.67843137 0.35686275 0.43529412
v -0.00485663 -0.03157169 -0.05092358 0.67843137 0.35686275 0.43529412
v -0.00591836 -0.03191750 -0.04964658 0.67843137 0.35686275 0.43529412
v -0.00471315 -0.03173819 -0.05177661 0.67843137 0.35686275 0.43529412
v -0.07287919 0.02436574 -0.05177661 0.67843137 0.35686275 0.43529412
v -0.07186050 0.02281601 -0.04741931 0.67843137 0.35686275 0.43529412
v -0.07395527 0.01769936 -0.04815633 0.67843137 0.35686275 0.43529412
v -0.00655684 -0.03111702 -0.04741931 0.67843137 0.35686275 0.43529412
v -0.00694423 -0.03249384 -0.05177661 0.67843137 0.35686275 0.43529412
v -0.00635597 -0.03242340 -0.05177661 0.67843137 0.35686275 0.43529412
v -0.00562424 -0.03209680 -0.05092358 0.67843137 0.35686275 0.43529412
v -0.00694423 -0.03117465 -0.04741931 0.67843137 0.35686275 0.43529412
v -0.04538178 -0.03112342 -0.04741931 0.67843137 0.35686275 0.43529412
v -0.05559018 -0.03185346 -0.04978179 0.67843137 0.35686275 0.43529412
v -0.00542337 -0.03219286 -0.05177661 0.67843137 0.35686275 0.43529412
v -0.07480896 0.01821166 -0.05177661 0.67843137 0.35686275 0.43529412
v -0.07336701 0.01823728 -0.04741931 0.67843137 0.35686275 0.43529412
v -0.07587786 0.00897734 -0.05177661 0.67843137 0.35686275 0.43529412
v -0.07536852 0.00975221 -0.05013793 0.67843137 0.35686275 0.43529412
v -0.07471570 0.00897734 -0.04741931 0.67843137 0.35686275 0.43529412
v -0.07361092 0.01659149 -0.04741931 0.67843137 0.35686275 0.43529412
v -0.04533156 -0.03227611 -0.05177661 0.67843137 0.35686275 0.43529412
v -0.05457150 -0.03089929 -0.04741931 0.67843137 0.35686275 0.43529412
v -0.05622148 -0.03076481 -0.04741931 0.67843137 0.35686275 0.43529412
v -0.06537533 -0.02929833 -0.04741931 0.67843137 0.35686275 0.43529412
v -0.06490185 -0.03033575 -0.04979288 0.67843137 0.35686275 0.43529412
v -0.06538251 -0.03076481 -0.05177661 0.67843137 0.35686275 0.43529412
v -0.05611387 -0.03210321 -0.05177661 0.67843137 0.35686275 0.43529412
v -0.07598547 0.00133758 -0.05177661 0.67843137 0.35686275 0.43529412
v -0.07540439 0.00065237 -0.04845489 0.67843137 0.35686275 0.43529412
v -0.07491657 0.00123512 -0.04741931 0.67843137 0.35686275 0.43529412
v -0.06620750 -0.02878602 -0.04741931 0.67843137 0.35686275 0.43529412
v -0.06592054 -0.03009881 -0.05045825 0.67843137 0.35686275 0.43529412
v -0.06539685 -0.03049585 -0.05095216 0.67843137 0.35686275 0.43529412
v -0.06619315 -0.03029733 -0.05148360 0.67843137 0.35686275 0.43529412
v -0.06622902 -0.03034215 -0.05177661 0.67843137 0.35686275 0.43529412
v -0.07607873 -0.00792876 -0.05177661 0.67843137 0.35686275 0.43529412
v -0.07540439 0.00043464 -0.04845489 0.67843137 0.35686275 0.43529412
v -0.07487352 -0.00792876 -0.04741931 0.67843137 0.35686275 0.43529412
v -0.07138703 -0.02318268 -0.04741931 0.67843137 0.35686275 0.43529412
v -0.07214746 -0.02393833 -0.05031920 0.67843137 0.35686275 0.43529412
v -0.07242007 -0.02420088 -0.05134413 0.67843137 0.35686275 0.43529412
v -0.07249898 -0.02427133 -0.05177661 0.67843137 0.35686275 0.43529412
v -0.07551200 -0.01543404 -0.05177661 0.67843137 0.35686275 0.43529412
v -0.07543309 -0.01526755 -0.05144350 0.67843137 0.35686275 0.43529412
v -0.07409157 -0.01529316 -0.04741931 0.67843137 0.35686275 0.43529412
v -0.07230528 -0.02257431 -0.04855598 0.67843137 0.35686275 0.43529412
v -0.07287919 -0.02333637 -0.05177661 0.67843137 0.35686275 0.43529412
v -0.07535417 -0.01625373 -0.05177661 0.67843137 0.35686275 0.43529412
v -0.07533265 -0.01629216 -0.05173482 0.67843137 0.35686275 0.43529412
v -0.07533982 -0.01630497 -0.05177661 0.67843137 0.35686275 0.43529412
f 1 2 3
f 1 3 4
f 1 4 8
f 1 8 13
f 1 13 18
f 1 18 17
f 1 17 23
f 1 23 33
f 1 33 36
f 1 36 44
f 1 44 55
f 1 55 50
f 1 50 49
f 1 49 62
f 1 62 68
f 1 68 67
f 1 67 76
f 1 76 83
f 1 83 88
f 1 88 91
f 1 91 89
f 1 89 84
f 1 84 77
f 1 77 69
f 1 69 58
f 1 58 56
f 1 56 45
f 1 45 38
f 1 38 29
f 1 29 26
f 1 26 20
f 1 20 15
f 1 15 14
f 1 14 9
f 1 9 5
f 1 5 6
f 1 6 2
f 2 6 11
f 2 11 10
f 2 10 16
f 2 16 22
f 2 22 27
f 2 27 31
f 2 31 40
f 2 40 46
f 2 46 57
f 2 57 61
f 2 61 60
f 2 60 71
f 2 71 79
f 2 79 86
f 2 86 80
f 2 80 72
f 2 72 65
f 2 65 64
f 2 64 63
f 2 63 53
f 2 53 52
f 2 52 48
f 2 48 41
f 2 41 34
f 2 34 24
f 2 24 19
f 2 19 12
f 2 12 7
f 2 7 3
f 3 7 4
f 4 7 8
f 5 9 10
f 5 10 11
f 5 11 6
f 7 12 13
f 7 13 8
f 9 14 10
f 10 14 15
f 10 15 16
f 12 17 18
f 12 18 13
f 12 19 25
f 12 25 35
f 12 35 32
f 12 32 23
f 12 23 17
f 15 20 21
f 15 21 16
f 16 21 22
f 19 24 25
f 20 26 21
f 21 27 22
f 21 26 28
f 21 28 29
f 21 29 30
f 21 30 31
f 21 31 27
f 23 32 33
f 24 34 25
f 25 34 36
f 25 36 35
f 26 37 28
f 26 29 37
f 28 37 29
f 29 38 39
f 29 39 30
f 30 39 31
f 31 39 40
f 32 35 33
f 33 35 36
f 34 41 42
f 34 42 36
f 36 42 43
f 36 43 44
f 38 45 39
f 39 46 40
f 39 45 47
f 39 47 46
f 41 43 42
f 41 48 43
f 43 49 50
f 43 50 51
f 43 51 44
f 43 48 52
f 43 52 53
f 43 53 54
f 43 54 49
f 44 51 55
f 45 56 47
f 46 47 57
f 47 56 58
f 47 58 59
f 47 59 60
f 47 60 61
f 47 61 57
f 49 54 62
f 50 55 51
f 53 63 54
f 54 63 64
f 54 64 65
f 54 65 66
f 54 66 67
f 54 67 68
f 54 68 62
f 58 69 70
f 58 70 60
f 58 60 59
f 60 70 71
f 65 72 73
f 65 73 66
f 66 73 74
f 66 74 67
f 67 74 73
f 67 73 75
f 67 75 76
f 69 77 70
f 70 77 78
f 70 78 71
f 71 78 79
f 72 75 73
f 72 80 81
f 72 81 82
f 72 82 75
f 75 82 83
f 75 83 76
f 77 84 85
f 77 85 79
f 77 79 78
f 79 85 86
f 80 86 87
f 80 87 82
f 80 82 81
f 82 87 88
f 82 88 83
f 84 89 86
f 84 86 85
f 86 89 90
f 86 90 87
f 87 90 91
f 87 91 88
f 89 91 90

