# https://github.com/mikedh/trimesh
v -0.01003404 0.03363955 -0.03862194 0.11764706 0.63921569 0.14117647
v -0.01003404 0.03360695 -0.03707407 0.11764706 0.63921569 0.14117647
v -0.01003404 0.03322877 -0.03996992 0.11764706 0.63921569 0.14117647
v -0.01462895 0.03320269 -0.03995945 0.11764706 0.63921569 0.14117647
v -0.02693144 0.03311793 -0.03990085 0.11764706 0.63921569 0.14117647
v -0.01770794 0.03357435 -0.03862194 0.11764706 0.63921569 0.14117647
v -0.01924407 0.03355479 -0.03708558 0.11764706 0.63921569 0.14117647
v -0.01770794 0.03356783 -0.03708558 0.11764706 0.63921569 0.14117647
v -0.01462895 0.03358739 -0.03708558 0.11764706 0.63921569 0.14117647
v -0.01155669 0.03352871 -0.03554818 0.11764706 0.63921569 0.14117647
v -0.01003404 0.03352871 -0.03553667 0.11764706 0.63921569 0.14117647
v -0.01617181 0.03350915 -0.03554818 0.11764706 0.63921569 0.14117647
v -0.01003404 0.03322225 -0.03997934 0.11764706 0.63921569 0.14117647
v -0.01309282 0.03320921 -0.03996678 0.11764706 0.63921569 0.14117647
v -0.05002726 0.03080320 -0.04280507 0.11764706 0.63921569 0.14117647
v -0.02847431 0.03310488 -0.03989247 0.11764706 0.63921569 0.14117647
v -0.01924407 0.03355479 -0.03862194 0.11764706 0.63921569 0.14117647
v -0.02078020 0.03353523 -0.03708558 0.11764706 0.63921569 0.14117647
v -0.01770794 0.03349611 -0.03554818 0.11764706 0.63921569 0.14117647
v -0.01617181 0.03317009 -0.03400973 0.11764706 0.63921569 0.14117647
v -0.01309282 0.03317661 -0.03400973 0.11764706 0.63921569 0.14117647
v -0.01003404 0.03317661 -0.03400973 0.11764706 0.63921569 0.14117647
v -0.01003404 0.03225072 -0.04074333 0.11764706 0.63921569 0.14117647
v -0.01617181 0.03090101 -0.04280507 0.11764706 0.63921569 0.14117647
v -0.03308269 0.03092057 -0.04280507 0.11764706 0.63921569 0.14117647
v -0.05779548 0.03013813 -0.04280507 0.11764706 0.63921569 0.14117647
v -0.06229606 0.03151392 -0.03974700 0.11764706 0.63921569 0.14117647
v -0.06075320 0.03159216 -0.03982968 0.11764706 0.63921569 0.14117647
v -0.05921707 0.03166389 -0.03989143 0.11764706 0.63921569 0.14117647
v -0.04491357 0.03282451 -0.03941838 0.11764706 0.63921569 0.14117647
v -0.04384906 0.03285059 -0.03946443 0.11764706 0.63921569 0.14117647
v -0.04231293 0.03288319 -0.03952827 0.11764706 0.63921569 0.14117647
v -0.04077007 0.03291580 -0.03958583 0.11764706 0.63921569 0.14117647
v -0.03923394 0.03294188 -0.03963607 0.11764706 0.63921569 0.14117647
v -0.03769781 0.03296796 -0.03967688 0.11764706 0.63921569 0.14117647
v -0.03616168 0.03299404 -0.03971351 0.11764706 0.63921569 0.14117647
v -0.03154656 0.03306576 -0.03983387 0.11764706 0.63921569 0.14117647
v -0.03001043 0.03308533 -0.03987050 0.11764706 0.63921569 0.14117647
v -0.02539532 0.03346351 -0.03862194 0.11764706 0.63921569 0.14117647
v -0.02232306 0.03350915 -0.03862194 0.11764706 0.63921569 0.14117647
v -0.02078020 0.03345699 -0.03554818 0.11764706 0.63921569 0.14117647
v -0.02385919 0.03348959 -0.03708558 0.11764706 0.63921569 0.14117647
v -0.01770794 0.03315705 -0.03400973 0.11764706 0.63921569 0.14117647
v -0.01924407 0.03283103 -0.03322376 0.11764706 0.63921569 0.14117647
v -0.01770794 0.03283755 -0.03321643 0.11764706 0.63921569 0.14117647
v -0.01617181 0.03283755 -0.03321434 0.11764706 0.63921569 0.14117647
v -0.01462895 0.03283755 -0.03321329 0.11764706 0.63921569 0.14117647
v -0.01003404 0.03283755 -0.03321329 0.11764706 0.63921569 0.14117647
v -0.01003404 0.02949261 -0.04280507 0.11764706 0.63921569 0.14117647
v -0.06383219 0.02899055 -0.04280507 0.11764706 0.63921569 0.14117647
v -0.06624418 0.03128571 -0.03941629 0.11764706 0.63921569 0.14117647
v -0.06536832 0.03133787 -0.03950106 0.11764706 0.63921569 0.14117647
v -0.06383219 0.03142264 -0.03963711 0.11764706 0.63921569 0.14117647
v -0.05768094 0.03220508 -0.03862194 0.11764706 0.63921569 0.14117647
v -0.05614481 0.03231593 -0.03862194 0.11764706 0.63921569 0.14117647
v -0.04594439 0.03279843 -0.03922162 0.11764706 0.63921569 0.14117647
v -0.04384906 0.03292884 -0.03862194 0.11764706 0.63921569 0.14117647
v -0.04231293 0.03298752 -0.03862194 0.11764706 0.63921569 0.14117647
v -0.04077007 0.03304620 -0.03862194 0.11764706 0.63921569 0.14117647
v -0.03923394 0.03309837 -0.03862194 0.11764706 0.63921569 0.14117647
v -0.03616168 0.03319617 -0.03862194 0.11764706 0.63921569 0.14117647
v -0.03308269 0.03329397 -0.03862194 0.11764706 0.63921569 0.14117647
v -0.05460195 0.03242025 -0.03862194 0.11764706 0.63921569 0.14117647
v -0.05306582 0.03250501 -0.03862194 0.11764706 0.63921569 0.14117647
v -0.03001043 0.03337222 -0.03862194 0.11764706 0.63921569 0.14117647
v -0.02847431 0.03340482 -0.03862194 0.11764706 0.63921569 0.14117647
v -0.02693144 0.03343742 -0.03862194 0.11764706 0.63921569 0.14117647
v -0.02232306 0.03343090 -0.03554818 0.11764706 0.63921569 0.14117647
v -0.03001043 0.03302664 -0.03414473 0.11764706 0.63921569 0.14117647
v -0.02847431 0.03303968 -0.03410078 0.11764706 0.63921569 0.14117647
v -0.02693144 0.03305272 -0.03407043 0.11764706 0.63921569 0.14117647
v -0.02078020 0.03311793 -0.03400973 0.11764706 0.63921569 0.14117647
v -0.02539532 0.03346351 -0.03708558 0.11764706 0.63921569 0.14117647
v -0.02847431 0.03332658 -0.03554818 0.11764706 0.63921569 0.14117647
v -0.02385919 0.03279843 -0.03325829 0.11764706 0.63921569 0.14117647
v -0.02291595 0.03280495 -0.03324573 0.11764706 0.63921569 0.14117647
v -0.02188513 0.03281147 -0.03323736 0.11764706 0.63921569 0.14117647
v -0.03154656 0.03191818 -0.03292862 0.11764706 0.63921569 0.14117647
v -0.02847431 0.03197687 -0.03292967 0.11764706 0.63921569 0.14117647
v -0.01770794 0.03204207 -0.03290455 0.11764706 0.63921569 0.14117647
v -0.01617181 0.03204207 -0.03290141 0.11764706 0.63921569 0.14117647
v -0.02693144 0.03199643 -0.03292967 0.11764706 0.63921569 0.14117647
v -0.01003404 0.03204207 -0.03289932 0.11764706 0.63921569 0.14117647
v -0.01003404 -0.02812767 -0.04280507 0.11764706 0.63921569 0.14117647
v -0.06515272 0.02861237 -0.04280507 0.11764706 0.63921569 0.14117647
v -0.06998344 0.03011857 -0.03983701 0.11764706 0.63921569 0.14117647
v -0.06654736 0.03132483 -0.03862194 0.11764706 0.63921569 0.14117647
v -0.06536832 0.03146828 -0.03862194 0.11764706 0.63921569 0.14117647
v -0.06383219 0.03163781 -0.03862194 0.11764706 0.63921569 0.14117647
v -0.06229606 0.03179430 -0.03862194 0.11764706 0.63921569 0.14117647
v -0.06075320 0.03194427 -0.03862194 0.11764706 0.63921569 0.14117647
v -0.05921707 0.03208119 -0.03862194 0.11764706 0.63921569 0.14117647
v -0.07114901 0.02990340 -0.03962141 0.11764706 0.63921569 0.14117647
v -0.06998344 0.03062063 -0.03862194 0.11764706 0.63921569 0.14117647
v -0.06844057 0.03101838 -0.03862194 0.11764706 0.63921569 0.14117647
v -0.06731542 0.03121399 -0.03862194 0.11764706 0.63921569 0.14117647
v -0.05768094 0.03221812 -0.03708558 0.11764706 0.63921569 0.14117647
v -0.05614481 0.03233548 -0.03708558 0.11764706 0.63921569 0.14117647
v -0.04541213 0.03285711 -0.03867427 0.11764706 0.63921569 0.14117647
v -0.04999357 0.03264846 -0.03862194 0.11764706 0.63921569 0.14117647
v -0.04384906 0.03294840 -0.03708558 0.11764706 0.63921569 0.14117647
v -0.04654402 0.03283103 -0.03819704 0.11764706 0.63921569 0.14117647
v -0.04231293 0.03300708 -0.03708558 0.11764706 0.63921569 0.14117647
v -0.03616168 0.03320269 -0.03708558 0.11764706 0.63921569 0.14117647
v -0.03308269 0.03329397 -0.03708558 0.11764706 0.63921569 0.14117647
v -0.05460195 0.03243981 -0.03708558 0.11764706 0.63921569 0.14117647
v -0.05306582 0.03252457 -0.03708558 0.11764706 0.63921569 0.14117647
v -0.04999357 0.03268106 -0.03708558 0.11764706 0.63921569 0.14117647
v -0.04747378 0.03280495 -0.03708558 0.11764706 0.63921569 0.14117647
v -0.03154656 0.03333310 -0.03708558 0.11764706 0.63921569 0.14117647
v -0.02847431 0.03339830 -0.03708558 0.11764706 0.63921569 0.14117647
v -0.02847431 0.03274627 -0.03333155 0.11764706 0.63921569 0.14117647
v -0.02693144 0.03276583 -0.03330225 0.11764706 0.63921569 0.14117647
v -0.03461882 0.03297448 -0.03430172 0.11764706 0.63921569 0.14117647
v -0.03154656 0.03326137 -0.03554818 0.11764706 0.63921569 0.14117647
v -0.05152970 0.03159216 -0.03300084 0.11764706 0.63921569 0.14117647
v -0.04999357 0.03161825 -0.03299351 0.11764706 0.63921569 0.14117647
v -0.04845070 0.03164433 -0.03298723 0.11764706 0.63921569 0.14117647
v -0.03308269 0.03188558 -0.03293072 0.11764706 0.63921569 0.14117647
v -0.05152970 0.03050327 -0.03269001 0.11764706 0.63921569 0.14117647
v -0.04999357 0.03050327 -0.03268268 0.11764706 0.63921569 0.14117647
v -0.03308269 0.03050327 -0.03260942 0.11764706 0.63921569 0.14117647
v -0.03154656 0.03050327 -0.03260314 0.11764706 0.63921569 0.14117647
v -0.02847431 0.03050327 -0.03259372 0.11764706 0.63921569 0.14117647
v -0.02693144 0.03050327 -0.03259163 0.11764706 0.63921569 0.14117647
v -0.02539532 0.03050327 -0.03259058 0.11764706 0.63921569 0.14117647
v -0.01155669 0.03050327 -0.03259686 0.11764706 0.63921569 0.14117647
v -0.01003404 0.03050327 -0.03259896 0.11764706 0.63921569 0.14117647
v -0.01770794 0.03050327 -0.03259163 0.11764706 0.63921569 0.14117647
v -0.01462895 0.03050327 -0.03259268 0.11764706 0.63921569 0.14117647
v -0.01003404 -0.03180515 -0.04095264 0.11764706 0.63921569 0.14117647
v -0.01617181 -0.02984252 -0.04280507 0.11764706 0.63921569 0.14117647
v -0.07030683 0.02348086 -0.04280507 0.11764706 0.63921569 0.14117647
v -0.07305569 0.02743219 -0.04026191 0.11764706 0.63921569 0.14117647
v -0.07305569 0.02857325 -0.03969886 0.11764706 0.63921569 0.14117647
v -0.07160715 0.02908835 -0.03999399 0.11764706 0.63921569 0.14117647
v -0.06678317 0.03135743 -0.03708558 0.11764706 0.63921569 0.14117647
v -0.06536832 0.03153348 -0.03708558 0.11764706 0.63921569 0.14117647
v -0.06755123 0.03125311 -0.03708558 0.11764706 0.63921569 0.14117647
v -0.06383219 0.03168997 -0.03708558 0.11764706 0.63921569 0.14117647
v -0.06229606 0.03182690 -0.03708558 0.11764706 0.63921569 0.14117647
v -0.07386418 0.02824071 -0.03944140 0.11764706 0.63921569 0.14117647
v -0.07217309 0.02967518 -0.03891289 0.11764706 0.63921569 0.14117647
v -0.07160715 0.02999468 -0.03848903 0.11764706 0.63921569 0.14117647
v -0.07151956 0.03017073 -0.03708558 0.11764706 0.63921569 0.14117647
v -0.06998344 0.03076408 -0.03708558 0.11764706 0.63921569 0.14117647
v -0.06844057 0.03110966 -0.03708558 0.11764706 0.63921569 0.14117647
v -0.05768094 0.03215291 -0.03554818 0.11764706 0.63921569 0.14117647
v -0.06229606 0.03177473 -0.03554818 0.11764706 0.63921569 0.14117647
v -0.06075320 0.03190514 -0.03554818 0.11764706 0.63921569 0.14117647
v -0.05614481 0.03227028 -0.03554818 0.11764706 0.63921569 0.14117647
v -0.05460195 0.03238113 -0.03554818 0.11764706 0.63921569 0.14117647
v -0.04537845 0.03288971 -0.03708558 0.11764706 0.63921569 0.14117647
v -0.04649012 0.03282451 -0.03610286 0.11764706 0.63921569 0.14117647
v -0.03769781 0.03309185 -0.03554818 0.11764706 0.63921569 0.14117647
v -0.03616168 0.03313749 -0.03554818 0.11764706 0.63921569 0.14117647
v -0.03461882 0.03318313 -0.03554818 0.11764706 0.63921569 0.14117647
v -0.05306582 0.03247241 -0.03554818 0.11764706 0.63921569 0.14117647
v -0.04999357 0.03262890 -0.03554818 0.11764706 0.63921569 0.14117647
v -0.04845070 0.03270714 -0.03554818 0.11764706 0.63921569 0.14117647
v -0.03769781 0.03292884 -0.03442312 0.11764706 0.63921569 0.14117647
v -0.03154656 0.03268759 -0.03342679 0.11764706 0.63921569 0.14117647
v -0.05768094 0.03142916 -0.03310340 0.11764706 0.63921569 0.14117647
v -0.05306582 0.03155304 -0.03301968 0.11764706 0.63921569 0.14117647
v -0.04231293 0.03285059 -0.03465022 0.11764706 0.63921569 0.14117647
v -0.04077007 0.03287667 -0.03456859 0.11764706 0.63921569 0.14117647
v -0.03923394 0.03290276 -0.03449219 0.11764706 0.63921569 0.14117647
v -0.05921707 0.03050327 -0.03282187 0.11764706 0.63921569 0.14117647
v -0.05768094 0.03050327 -0.03279152 0.11764706 0.63921569 0.14117647
v -0.05614481 0.03050327 -0.03276222 0.11764706 0.63921569 0.14117647
v -0.05460195 0.03050327 -0.03273501 0.11764706 0.63921569 0.14117647
v -0.05306582 0.03050327 -0.03270885 0.11764706 0.63921569 0.14117647
v -0.06690445 0.02896446 -0.03264396 0.11764706 0.63921569 0.14117647
v -0.06383219 0.02896446 -0.03262721 0.11764706 0.63921569 0.14117647
v -0.06229606 0.02896446 -0.03262198 0.11764706 0.63921569 0.14117647
v -0.04999357 0.01519350 -0.03211440 0.11764706 0.63921569 0.14117647
v -0.01003404 0.02896446 -0.03258744 0.11764706 0.63921569 0.14117647
v -0.04849787 0.01499789 -0.03211440 0.11764706 0.63921569 0.14117647
v -0.04750073 0.01467187 -0.03211440 0.11764706 0.63921569 0.14117647
v -0.04659792 0.01429369 -0.03211440 0.11764706 0.63921569 0.14117647
v -0.04433415 0.01312655 -0.03211440 0.11764706 0.63921569 0.14117647
v -0.04357282 0.01235063 -0.03211440 0.11764706 0.63921569 0.14117647
v -0.04285192 0.01147038 -0.03211440 0.11764706 0.63921569 0.14117647
v -0.01003404 -0.03237241 -0.04016563 0.11764706 0.63921569 0.14117647
v -0.01155669 -0.03238545 -0.04015935 0.11764706 0.63921569 0.14117647
v -0.01309282 -0.03239198 -0.04015935 0.11764706 0.63921569 0.14117647
v -0.01462895 -0.03239198 -0.04015935 0.11764706 0.63921569 0.14117647
v -0.01462895 -0.03179862 -0.04094846 0.11764706 0.63921569 0.14117647
v -0.04533802 -0.03005769 -0.04280507 0.11764706 0.63921569 0.14117647
v -0.07067065 0.02308964 -0.04280507 0.11764706 0.63921569 0.14117647
v -0.07099405 0.02253541 -0.04280507 0.11764706 0.63921569 0.14117647
v -0.07465919 0.02583470 -0.03988724 0.11764706 0.63921569 0.14117647
v -0.07412694 0.02743219 -0.03968735 0.11764706 0.63921569 0.14117647
v -0.06744343 0.03124659 -0.03554818 0.11764706 0.63921569 0.14117647
v -0.06667537 0.03133787 -0.03554818 0.11764706 0.63921569 0.14117647
v -0.06536832 0.03148784 -0.03554818 0.11764706 0.63921569 0.14117647
v -0.06844057 0.03110966 -0.03554818 0.11764706 0.63921569 0.14117647
v -0.06383219 0.03163781 -0.03554818 0.11764706 0.63921569 0.14117647
v -0.07542052 0.02528047 -0.03947175 0.11764706 0.63921569 0.14117647
v -0.07517124 0.02619332 -0.03862194 0.11764706 0.63921569 0.14117647
v -0.07451097 0.02743219 -0.03862194 0.11764706 0.63921569 0.14117647
v -0.07393155 0.02831895 -0.03862194 0.11764706 0.63921569 0.14117647
v -0.07290747 0.02917964 -0.03848903 0.11764706 0.63921569 0.14117647
v -0.07229437 0.02974039 -0.03788830 0.11764706 0.63921569 0.14117647
v -0.07151956 0.03022941 -0.03554818 0.11764706 0.63921569 0.14117647
v -0.07233479 0.02976647 -0.03708558 0.11764706 0.63921569 0.14117647
v -0.07239543 0.02980559 -0.03554818 0.11764706 0.63921569 0.14117647
v -0.06998344 0.03079016 -0.03554818 0.11764706 0.63921569 0.14117647
v -0.06643283 0.03130527 -0.03463871 0.11764706 0.63921569 0.14117647
v -0.06536832 0.03135743 -0.03442940 0.11764706 0.63921569 0.14117647
v -0.06383219 0.03143568 -0.03418241 0.11764706 0.63921569 0.14117647
v -0.06075320 0.03163781 -0.03400973 0.11764706 0.63921569 0.14117647
v -0.05921707 0.03174865 -0.03400973 0.11764706 0.63921569 0.14117647
v -0.05614481 0.03194427 -0.03400973 0.11764706 0.63921569 0.14117647
v -0.05460195 0.03204207 -0.03400973 0.11764706 0.63921569 0.14117647
v -0.04458344 0.03281147 -0.03479361 0.11764706 0.63921569 0.14117647
v -0.04398381 0.03287016 -0.03540271 0.11764706 0.63921569 0.14117647
v -0.04231293 0.03293536 -0.03554818 0.11764706 0.63921569 0.14117647
v -0.04696847 0.03277235 -0.03557330 0.11764706 0.63921569 0.14117647
v -0.04845070 0.03233548 -0.03400973 0.11764706 0.63921569 0.14117647
v -0.03769781 0.03257022 -0.03365389 0.11764706 0.63921569 0.14117647
v -0.03616168 0.03259630 -0.03359005 0.11764706 0.63921569 0.14117647
v -0.04999357 0.03227680 -0.03400973 0.11764706 0.63921569 0.14117647
v -0.05921707 0.03138352 -0.03313480 0.11764706 0.63921569 0.14117647
v -0.06690445 0.03024246 -0.03295165 0.11764706 0.63921569 0.14117647
v -0.06075320 0.03050327 -0.03286164 0.11764706 0.63921569 0.14117647
v -0.05614481 0.03146828 -0.03307410 0.11764706 0.63921569 0.14117647
v -0.06844057 0.02896446 -0.03266803 0.11764706 0.63921569 0.14117647
v -0.05306582 0.01454798 -0.03211440 0.11764706 0.63921569 0.14117647
v -0.05152296 0.01501745 -0.03211440 0.11764706 0.63921569 0.14117647
v -0.06998344 0.02743219 -0.03263035 0.11764706 0.63921569 0.14117647
v -0.01003404 0.02895795 -0.03258744 0.11764706 0.63921569 0.14117647
v -0.04167961 0.00923390 -0.03211440 0.11764706 0.63921569 0.14117647
v -0.04126189 0.00839278 -0.03211440 0.11764706 0.63921569 0.14117647
v -0.04087787 0.00743429 -0.03211440 0.11764706 0.63921569 0.14117647
v -0.04087112 0.00741473 -0.03211440 0.11764706 0.63921569 0.14117647
v -0.04086439 0.00738865 -0.03211440 0.11764706 0.63921569 0.14117647
v -0.04056121 0.00590201 -0.03211440 0.11764706 0.63921569 0.14117647
v -0.04002895 0.00164422 -0.03211440 0.11764706 0.63921569 0.14117647
v -0.03999526 0.00129212 -0.03211440 0.11764706 0.63921569 0.14117647
v -0.03990094 0.00024887 -0.03211440 0.11764706 0.63921569 0.14117647
v -0.03987399 -0.00024016 -0.03211440 0.11764706 0.63921569 0.14117647
v -0.01003404 -0.03293316 -0.03863345 0.11764706 0.63921569 0.14117647
v -0.01155669 -0.03295273 -0.03862194 0.11764706 0.63921569 0.14117647
v -0.01309282 -0.03296576 -0.03862194 0.11764706 0.63921569 0.14117647
v -0.01617181 -0.03296576 -0.03862194 0.11764706 0.63921569 0.14117647
v -0.02232306 -0.03295273 -0.03862194 0.11764706 0.63921569 0.14117647
v -0.01617181 -0.03238545 -0.04015935 0.11764706 0.63921569 0.14117647
v -0.03013845 -0.03221593 -0.04031319 0.11764706 0.63921569 0.14117647
v -0.02971399 -0.03176602 -0.04092962 0.11764706 0.63921569 0.14117647
v -0.02693144 -0.03177254 -0.04093276 0.11764706 0.63921569 0.14117647
v -0.02385919 -0.03177906 -0.04093695 0.11764706 0.63921569 0.14117647
v -0.03616168 -0.03174646 -0.04091915 0.11764706 0.63921569 0.14117647
v -0.04537845 -0.03172690 -0.04088148 0.11764706 0.63921569 0.14117647
v -0.05461542 -0.02998597 -0.04280507 0.11764706 0.63921569 0.14117647
v -0.07249648 0.01779512 -0.04280507 0.11764706 0.63921569 0.14117647
v -0.07459182 0.02435458 -0.04022214 0.11764706 0.63921569 0.14117647
v -0.07552832 0.02435458 -0.03961304 0.11764706 0.63921569 0.14117647
v -0.06844057 0.03083581 -0.03400973 0.11764706 0.63921569 0.14117647
v -0.06998344 0.03053587 -0.03400973 0.11764706 0.63921569 0.14117647
v -0.07690275 0.01746910 -0.03939849 0.11764706 0.63921569 0.14117647
v -0.07637723 0.02127698 -0.03862194 0.11764706 0.63921569 0.14117647
v -0.07608079 0.02281578 -0.03862194 0.11764706 0.63921569 0.14117647
v -0.07575065 0.02435458 -0.03862194 0.11764706 0.63921569 0.14117647
v -0.07546768 0.02542392 -0.03862194 0.11764706 0.63921569 0.14117647
v -0.07519818 0.02623244 -0.03708558 0.11764706 0.63921569 0.14117647
v -0.07459182 0.02743219 -0.03708558 0.11764706 0.63921569 0.14117647
v -0.07398545 0.02838416 -0.03708558 0.11764706 0.63921569 0.14117647
v -0.07310285 0.02915356 -0.03708558 0.11764706 0.63921569 0.14117647
v -0.07237521 0.02979907 -0.03455813 0.11764706 0.63921569 0.14117647
v -0.07316349 0.02916660 -0.03554818 0.11764706 0.63921569 0.14117647
v -0.07153978 0.03001424 -0.03403171 0.11764706 0.63921569 0.14117647
v -0.06693140 0.03105098 -0.03407985 0.11764706 0.63921569 0.14117647
v -0.06383219 0.03118138 -0.03341318 0.11764706 0.63921569 0.14117647
v -0.06288895 0.03124659 -0.03328341 0.11764706 0.63921569 0.14117647
v -0.06234322 0.03148132 -0.03388205 0.11764706 0.63921569 0.14117647
v -0.06186487 0.03129875 -0.03321120 0.11764706 0.63921569 0.14117647
v -0.05306582 0.03212684 -0.03400973 0.11764706 0.63921569 0.14117647
v -0.05152970 0.03220508 -0.03400973 0.11764706 0.63921569 0.14117647
v -0.06075320 0.03133787 -0.03317352 0.11764706 0.63921569 0.14117647
v -0.06844057 0.03015769 -0.03297467 0.11764706 0.63921569 0.14117647
v -0.06998344 0.02896446 -0.03273710 0.11764706 0.63921569 0.14117647
v -0.07151956 0.02743219 -0.03265652 0.11764706 0.63921569 0.14117647
v -0.05471649 0.01382423 -0.03211440 0.11764706 0.63921569 0.14117647
v -0.05623240 0.01273533 -0.03211440 0.11764706 0.63921569 0.14117647
v -0.01003404 -0.02331565 -0.03271199 0.11764706 0.63921569 0.14117647
v -0.03994810 -0.00177896 -0.03211440 0.11764706 0.63921569 0.14117647
v -0.04014349 -0.00331776 -0.03211440 0.11764706 0.63921569 0.14117647
v -0.01003404 -0.03295925 -0.03709710 0.11764706 0.63921569 0.14117647
v -0.01617181 -0.03297228 -0.03708558 0.11764706 0.63921569 0.14117647
v -0.01155669 -0.03296576 -0.03708558 0.11764706 0.63921569 0.14117647
v -0.02385919 -0.03296576 -0.03708558 0.11764706 0.63921569 0.14117647
v -0.02847431 -0.03294621 -0.03708558 0.11764706 0.63921569 0.14117647
v -0.02693144 -0.03293316 -0.03862194 0.11764706 0.63921569 0.14117647
v -0.02847431 -0.03233329 -0.04015935 0.11764706 0.63921569 0.14117647
v -0.03154656 -0.03232025 -0.04015830 0.11764706 0.63921569 0.14117647
v -0.03308269 -0.03231373 -0.04015621 0.11764706 0.63921569 0.14117647
v -0.03616168 -0.03230069 -0.04015098 0.11764706 0.63921569 0.14117647
v -0.03769781 -0.03229417 -0.04014784 0.11764706 0.63921569 0.14117647
v -0.03923394 -0.03228113 -0.04014470 0.11764706 0.63921569 0.14117647
v -0.04231293 -0.03224853 -0.04013737 0.11764706 0.63921569 0.14117647
v -0.04537845 -0.03221593 -0.04011330 0.11764706 0.63921569 0.14117647
v -0.04691457 -0.03219636 -0.04009341 0.11764706 0.63921569 0.14117647
v -0.04845070 -0.03217681 -0.04006830 0.11764706 0.63921569 0.14117647
v -0.04999357 -0.03215072 -0.04003690 0.11764706 0.63921569 0.14117647
v -0.05152970 -0.03211812 -0.04000027 0.11764706 0.63921569 0.14117647
v -0.05460195 -0.03151825 -0.04065019 0.11764706 0.63921569 0.14117647
v -0.05921707 -0.03187035 -0.03960048 0.11764706 0.63921569 0.14117647
v -0.06075320 -0.03181167 -0.03949164 0.11764706 0.63921569 0.14117647
v -0.06160885 -0.03177254 -0.03941629 0.11764706 0.63921569 0.14117647
v -0.06536832 -0.03072277 -0.03998980 0.11764706 0.63921569 0.14117647
v -0.06690445 -0.03055324 -0.03986108 0.11764706 0.63921569 0.14117647
v -0.06547612 -0.02779513 -0.04280507 0.11764706 0.63921569 0.14117647
v -0.07404609 0.00886224 -0.04280507 0.11764706 0.63921569 0.14117647
v -0.07583150 0.02127698 -0.03988410 0.11764706 0.63921569 0.14117647
v -0.07568327 0.02281578 -0.03978049 0.11764706 0.63921569 0.14117647
v -0.06998344 0.03001424 -0.03304270 0.11764706 0.63921569 0.14117647
v -0.07104121 0.02985775 -0.03314108 0.11764706 0.63921569 0.14117647
v -0.07695665 0.01666710 -0.03947803 0.11764706 0.63921569 0.14117647
v -0.07843887 0.00364597 -0.03939745 0.11764706 0.63921569 0.14117647
v -0.07779882 0.01051189 -0.03862194 0.11764706 0.63921569 0.14117647
v -0.07762365 0.01205069 -0.03862194 0.11764706 0.63921569 0.14117647
v -0.07744174 0.01358949 -0.03862194 0.11764706 0.63921569 0.14117647
v -0.07692970 0.01763211 -0.03862194 0.11764706 0.63921569 0.14117647
v -0.07682190 0.01840151 -0.03862194 0.11764706 0.63921569 0.14117647
v -0.07663325 0.01973818 -0.03862194 0.11764706 0.63921569 0.14117647
v -0.07642440 0.02127698 -0.03708558 0.11764706 0.63921569 0.14117647
v -0.07612795 0.02281578 -0.03708558 0.11764706 0.63921569 0.14117647
v -0.07578434 0.02435458 -0.03708558 0.11764706 0.63921569 0.14117647
v -0.07548116 0.02546304 -0.03708558 0.11764706 0.63921569 0.14117647
v -0.07519818 0.02616072 -0.03554818 0.11764706 0.63921569 0.14117647
v -0.07459855 0.02743219 -0.03554818 0.11764706 0.63921569 0.14117647
v -0.07399219 0.02839720 -0.03554818 0.11764706 0.63921569 0.14117647
v -0.07306243 0.02895795 -0.03396263 0.11764706 0.63921569 0.14117647
v -0.07206529 0.02959694 -0.03353354 0.11764706 0.63921569 0.14117647
v -0.07393829 0.02832547 -0.03439277 0.11764706 0.63921569 0.14117647
v -0.07153978 0.02903619 -0.03295165 0.11764706 0.63921569 0.14117647
v -0.07317023 0.02752999 -0.03292653 0.11764706 0.63921569 0.14117647
v -0.07305569 0.02589338 -0.03269210 0.11764706 0.63921569 0.14117647
v -0.07305569 0.02435458 -0.03265233 0.11764706 0.63921569 0.14117647
v -0.05907558 0.00886224 -0.03211440 0.11764706 0.63921569 0.14117647
v -0.05795044 0.01063578 -0.03211440 0.11764706 0.63921569 0.14117647
v -0.05770116 0.01097484 -0.03211440 0.11764706 0.63921569 0.14117647
v -0.05683877 0.01213546 -0.03211440 0.11764706 0.63921569 0.14117647
v -0.01003404 -0.02945782 -0.03274861 0.11764706 0.63921569 0.14117647
v -0.04056794 -0.00639536 -0.03211440 0.11764706 0.63921569 0.14117647
v -0.04089808 -0.00784940 -0.03211440 0.11764706 0.63921569 0.14117647
v -0.01003404 -0.03295925 -0.03708558 0.11764706 0.63921569 0.14117647
v -0.01462895 -0.03295273 -0.03554818 0.11764706 0.63921569 0.14117647
v -0.02539532 -0.03295273 -0.03554818 0.11764706 0.63921569 0.14117647
v -0.01003404 -0.03294621 -0.03554818 0.11764706 0.63921569 0.14117647
v -0.02847431 -0.03293968 -0.03554818 0.11764706 0.63921569 0.14117647
v -0.03001043 -0.03293968 -0.03708558 0.11764706 0.63921569 0.14117647
v -0.03001043 -0.03291360 -0.03862194 0.11764706 0.63921569 0.14117647
v -0.03616168 -0.03286144 -0.03862194 0.11764706 0.63921569 0.14117647
v -0.03923394 -0.03280928 -0.03862194 0.11764706 0.63921569 0.14117647
v -0.04537845 -0.03268539 -0.03862194 0.11764706 0.63921569 0.14117647
v -0.04845070 -0.03261367 -0.03862194 0.11764706 0.63921569 0.14117647
v -0.04999357 -0.03256802 -0.03862194 0.11764706 0.63921569 0.14117647
v -0.05306582 -0.03207900 -0.03995527 0.11764706 0.63921569 0.14117647
v -0.05460195 -0.03202684 -0.03988096 0.11764706 0.63921569 0.14117647
v -0.05152970 -0.03251586 -0.03862194 0.11764706 0.63921569 0.14117647
v -0.05306582 -0.03243110 -0.03862194 0.11764706 0.63921569 0.14117647
v -0.05614481 -0.03223549 -0.03862194 0.11764706 0.63921569 0.14117647
v -0.05768094 -0.03213116 -0.03862194 0.11764706 0.63921569 0.14117647
v -0.05921707 -0.03202032 -0.03862194 0.11764706 0.63921569 0.14117647
v -0.06075320 -0.03188991 -0.03862194 0.11764706 0.63921569 0.14117647
v -0.06172338 -0.03179210 -0.03862194 0.11764706 0.63921569 0.14117647
v -0.06249145 -0.03168778 -0.03862194 0.11764706 0.63921569 0.14117647
v -0.06383219 -0.03150521 -0.03862194 0.11764706 0.63921569 0.14117647
v -0.06536832 -0.03125744 -0.03862194 0.11764706 0.63921569 0.14117647
v -0.06931643 -0.03026634 -0.03946129 0.11764706 0.63921569 0.14117647
v -0.06844057 -0.03037719 -0.03963502 0.11764706 0.63921569 0.14117647
v -0.06988911 -0.02950998 -0.03992387 0.11764706 0.63921569 0.14117647
v -0.07151956 -0.02900140 -0.03975328 0.11764706 0.63921569 0.14117647
v -0.07151956 -0.02791902 -0.04037703 0.11764706 0.63921569 0.14117647
v -0.06992280 -0.02284619 -0.04280507 0.11764706 0.63921569 0.14117647
v -0.07409325 0.00130517 -0.04280507 0.11764706 0.63921569 0.14117647
v -0.07857362 -0.00024016 -0.03959839 0.11764706 0.63921569 0.14117647
v -0.07853320 0.00129212 -0.03954083 0.11764706 0.63921569 0.14117647
v -0.07739458 0.00897961 -0.03991550 0.11764706 0.63921569 0.14117647
v -0.07730699 0.01051189 -0.03985794 0.11764706 0.63921569 0.14117647
v -0.07722614 0.01205069 -0.03979200 0.11764706 0.63921569 0.14117647
v -0.07713856 0.01358949 -0.03971560 0.11764706 0.63921569 0.14117647
v -0.07705097 0.01512830 -0.03961199 0.11764706 0.63921569 0.14117647
v -0.07272556 0.02856673 -0.03306154 0.11764706 0.63921569 0.14117647
v -0.07847256 0.00282441 -0.03944873 0.11764706 0.63921569 0.14117647
v -0.07870164 0.00129212 -0.03862194 0.11764706 0.63921569 0.14117647
v -0.07857362 0.00282441 -0.03862194 0.11764706 0.63921569 0.14117647
v -0.07847256 0.00398503 -0.03862194 0.11764706 0.63921569 0.14117647
v -0.07839845 0.00474791 -0.03862194 0.11764706 0.63921569 0.14117647
v -0.07828391 0.00590201 -0.03862194 0.11764706 0.63921569 0.14117647
v -0.07812895 0.00744081 -0.03862194 0.11764706 0.63921569 0.14117647
v -0.07796725 0.00897961 -0.03862194 0.11764706 0.63921569 0.14117647
v -0.07800768 0.00897961 -0.03708558 0.11764706 0.63921569 0.14117647
v -0.07783251 0.01051189 -0.03708558 0.11764706 0.63921569 0.14117647
v -0.07746195 0.01358949 -0.03708558 0.11764706 0.63921569 0.14117647
v -0.07765060 0.01205069 -0.03708558 0.11764706 0.63921569 0.14117647
v -0.07683537 0.01844063 -0.03708558 0.11764706 0.63921569 0.14117647
v -0.07666020 0.01973818 -0.03708558 0.11764706 0.63921569 0.14117647
v -0.07630986 0.02127698 -0.03554818 0.11764706 0.63921569 0.14117647
v -0.07604036 0.02281578 -0.03554818 0.11764706 0.63921569 0.14117647
v -0.07571023 0.02435458 -0.03554818 0.11764706 0.63921569 0.14117647
v -0.07544747 0.02539132 -0.03554818 0.11764706 0.63921569 0.14117647
v -0.07540705 0.02527395 -0.03459580 0.11764706 0.63921569 0.14117647
v -0.07426169 0.02752999 -0.03393228 0.11764706 0.63921569 0.14117647
v -0.07375638 0.02811030 -0.03336818 0.11764706 0.63921569 0.14117647
v -0.07403935 0.02708661 -0.03308980 0.11764706 0.63921569 0.14117647
v -0.07425495 0.02589338 -0.03298828 0.11764706 0.63921569 0.14117647
v -0.07444360 0.02435458 -0.03295479 0.11764706 0.63921569 0.14117647
v -0.07459182 0.02127698 -0.03284385 0.11764706 0.63921569 0.14117647
v -0.07459182 0.01973818 -0.03278106 0.11764706 0.63921569 0.14117647
v -0.07459182 0.01820590 -0.03274129 0.11764706 0.63921569 0.14117647
v -0.07459182 0.01358949 -0.03269838 0.11764706 0.63921569 0.14117647
v -0.07305569 0.02281578 -0.03264082 0.11764706 0.63921569 0.14117647
v -0.06061845 0.00430452 -0.03211440 0.11764706 0.63921569 0.14117647
v -0.01003404 -0.02947086 -0.03274966 0.11764706 0.63921569 0.14117647
v -0.04246789 -0.01086180 -0.03211440 0.11764706 0.63921569 0.14117647
v -0.04397033 -0.01240060 -0.03211440 0.11764706 0.63921569 0.14117647
v -0.04537845 -0.01323520 -0.03211440 0.11764706 0.63921569 0.14117647
v -0.04688089 -0.01397852 -0.03211440 0.11764706 0.63921569 0.14117647
v -0.04845070 -0.01426542 -0.03211440 0.11764706 0.63921569 0.14117647
v -0.04999357 -0.01429802 -0.03211440 0.11764706 0.63921569 0.14117647
v -0.05768094 -0.02945782 -0.03274234 0.11764706 0.63921569 0.14117647
v -0.01003404 -0.03250934 -0.03402124 0.11764706 0.63921569 0.14117647
v -0.02539532 -0.03250282 -0.03400973 0.11764706 0.63921569 0.14117647
v -0.02847431 -0.03249630 -0.03400973 0.11764706 0.63921569 0.14117647
v -0.03154656 -0.03292664 -0.03554818 0.11764706 0.63921569 0.14117647
v -0.03616168 -0.03288752 -0.03708558 0.11764706 0.63921569 0.14117647
v -0.03769781 -0.03286144 -0.03708558 0.11764706 0.63921569 0.14117647
v -0.04384906 -0.03273755 -0.03708558 0.11764706 0.63921569 0.14117647
v -0.04845070 -0.03263975 -0.03708558 0.11764706 0.63921569 0.14117647
v -0.04999357 -0.03259411 -0.03708558 0.11764706 0.63921569 0.14117647
v -0.05152970 -0.03254194 -0.03708558 0.11764706 0.63921569 0.14117647
v -0.05306582 -0.03247674 -0.03708558 0.11764706 0.63921569 0.14117647
v -0.05460195 -0.03238545 -0.03708558 0.11764706 0.63921569 0.14117647
v -0.05768094 -0.03218332 -0.03708558 0.11764706 0.63921569 0.14117647
v -0.05921707 -0.03207248 -0.03708558 0.11764706 0.63921569 0.14117647
v -0.06075320 -0.03193555 -0.03708558 0.11764706 0.63921569 0.14117647
v -0.06185139 -0.03180515 -0.03708558 0.11764706 0.63921569 0.14117647
v -0.06261946 -0.03170734 -0.03708558 0.11764706 0.63921569 0.14117647
v -0.06383219 -0.03153781 -0.03708558 0.11764706 0.63921569 0.14117647
v -0.06536832 -0.03130960 -0.03708558 0.11764706 0.63921569 0.14117647
v -0.06690445 -0.03100966 -0.03708558 0.11764706 0.63921569 0.14117647
v -0.06690445 -0.03094446 -0.03862194 0.11764706 0.63921569 0.14117647
v -0.06944445 -0.03030546 -0.03862194 0.11764706 0.63921569 0.14117647
v -0.07021251 -0.03001857 -0.03862194 0.11764706 0.63921569 0.14117647
v -0.07151956 -0.02939262 -0.03862194 0.11764706 0.63921569 0.14117647
v -0.07237521 -0.02876014 -0.03949373 0.11764706 0.63921569 0.14117647
v -0.06844057 -0.03057932 -0.03862194 0.11764706 0.63921569 0.14117647
v -0.07295463 -0.02779513 -0.03972398 0.11764706 0.63921569 0.14117647
v -0.07305569 -0.02638022 -0.04028389 0.11764706 0.63921569 0.14117647
v -0.07046853 -0.02177033 -0.04280507 0.11764706 0.63921569 0.14117647
v -0.07409325 0.00056185 -0.04280507 0.11764706 0.63921569 0.14117647
v -0.07857362 -0.00177896 -0.03960048 0.11764706 0.63921569 0.14117647
v -0.07878248 -0.00177896 -0.03862194 0.11764706 0.63921569 0.14117647
v -0.07877575 -0.00024016 -0.03862194 0.11764706 0.63921569 0.14117647
v -0.07874206 0.00129212 -0.03708558 0.11764706 0.63921569 0.14117647
v -0.07841866 0.00489135 -0.03708558 0.11764706 0.63921569 0.14117647
v -0.07860731 0.00282441 -0.03708558 0.11764706 0.63921569 0.14117647
v -0.07816938 0.00744081 -0.03708558 0.11764706 0.63921569 0.14117647
v -0.07806158 0.00744081 -0.03554818 0.11764706 0.63921569 0.14117647
v -0.07789314 0.00897961 -0.03554818 0.11764706 0.63921569 0.14117647
v -0.07771797 0.01051189 -0.03554818 0.11764706 0.63921569 0.14117647
v -0.07734068 0.01358949 -0.03554818 0.11764706 0.63921569 0.14117647
v -0.07690949 0.01751474 -0.03622112 0.11764706 0.63921569 0.14117647
v -0.07654567 0.01973818 -0.03554818 0.11764706 0.63921569 0.14117647
v -0.07692296 0.01606723 -0.03470569 0.11764706 0.63921569 0.14117647
v -0.07551484 0.02435458 -0.03430486 0.11764706 0.63921569 0.14117647
v -0.07521166 0.02435458 -0.03353563 0.11764706 0.63921569 0.14117647
v -0.07502301 0.02582818 -0.03405368 0.11764706 0.63921569 0.14117647
v -0.07531272 0.02338305 -0.03330434 0.11764706 0.63921569 0.14117647
v -0.07540705 0.02235936 -0.03320073 0.11764706 0.63921569 0.14117647
v -0.07547442 0.02127698 -0.03314212 0.11764706 0.63921569 0.14117647
v -0.07556874 0.01973818 -0.03307619 0.11764706 0.63921569 0.14117647
v -0.07565633 0.01820590 -0.03303433 0.11764706 0.63921569 0.14117647
v -0.07613469 0.00897961 -0.03287002 0.11764706 0.63921569 0.14117647
v -0.07613469 0.00744081 -0.03282815 0.11764706 0.63921569 0.14117647
v -0.07613469 0.00590201 -0.03280304 0.11764706 0.63921569 0.14117647
v -0.07613469 0.00282441 -0.03277164 0.11764706 0.63921569 0.14117647
v -0.07459182 0.01205069 -0.03268896 0.11764706 0.63921569 0.14117647
v -0.06093511 0.00129212 -0.03211440 0.11764706 0.63921569 0.14117647
v -0.06085426 0.00282441 -0.03211440 0.11764706 0.63921569 0.14117647
v -0.01003404 -0.03100314 -0.03288781 0.11764706 0.63921569 0.14117647
v -0.05140842 -0.01420021 -0.03211440 0.11764706 0.63921569 0.14117647
v -0.05921707 -0.02945782 -0.03274443 0.11764706 0.63921569 0.14117647
v -0.02847431 -0.03099662 -0.03290455 0.11764706 0.63921569 0.14117647
v -0.01617181 -0.03099662 -0.03289199 0.11764706 0.63921569 0.14117647
v -0.01309282 -0.03099662 -0.03288886 0.11764706 0.63921569 0.14117647
v -0.01155669 -0.03099662 -0.03288781 0.11764706 0.63921569 0.14117647
v -0.01003404 -0.03250282 -0.03400973 0.11764706 0.63921569 0.14117647
v -0.01003404 -0.03192251 -0.03313689 0.11764706 0.63921569 0.14117647
v -0.02078020 -0.03191599 -0.03313480 0.11764706 0.63921569 0.14117647
v -0.03001043 -0.03190947 -0.03313898 0.11764706 0.63921569 0.14117647
v -0.03154656 -0.03248326 -0.03400973 0.11764706 0.63921569 0.14117647
v -0.03461882 -0.03290056 -0.03554818 0.11764706 0.63921569 0.14117647
v -0.03616168 -0.03288100 -0.03554818 0.11764706 0.63921569 0.14117647
v -0.03923394 -0.03282884 -0.03554818 0.11764706 0.63921569 0.14117647
v -0.04231293 -0.03276364 -0.03554818 0.11764706 0.63921569 0.14117647
v -0.04691457 -0.03265931 -0.03554818 0.11764706 0.63921569 0.14117647
v -0.04845070 -0.03262019 -0.03554818 0.11764706 0.63921569 0.14117647
v -0.04999357 -0.03257455 -0.03554818 0.11764706 0.63921569 0.14117647
v -0.05152970 -0.03252890 -0.03554818 0.11764706 0.63921569 0.14117647
v -0.05306582 -0.03246370 -0.03554818 0.11764706 0.63921569 0.14117647
v -0.05614481 -0.03226809 -0.03554818 0.11764706 0.63921569 0.14117647
v -0.05921707 -0.03205944 -0.03554818 0.11764706 0.63921569 0.14117647
v -0.06075320 -0.03194207 -0.03554818 0.11764706 0.63921569 0.14117647
v -0.06195919 -0.03181818 -0.03554818 0.11764706 0.63921569 0.14117647
v -0.06272726 -0.03172038 -0.03554818 0.11764706 0.63921569 0.14117647
v -0.06383219 -0.03156389 -0.03554818 0.11764706 0.63921569 0.14117647
v -0.06536832 -0.03132264 -0.03554818 0.11764706 0.63921569 0.14117647
v -0.06690445 -0.03102270 -0.03554818 0.11764706 0.63921569 0.14117647
v -0.06844057 -0.03065104 -0.03554818 0.11764706 0.63921569 0.14117647
v -0.06844057 -0.03063148 -0.03708558 0.11764706 0.63921569 0.14117647
v -0.06952529 -0.03033155 -0.03708558 0.11764706 0.63921569 0.14117647
v -0.07029336 -0.03006421 -0.03708558 0.11764706 0.63921569 0.14117647
v -0.07151956 -0.02946434 -0.03708558 0.11764706 0.63921569 0.14117647
v -0.07245607 -0.02883187 -0.03862194 0.11764706 0.63921569 0.14117647
v -0.07385744 -0.02719526 -0.03943826 0.11764706 0.63921569 0.14117647
v -0.07406630 -0.02638022 -0.03966328 0.11764706 0.63921569 0.14117647
v -0.07461203 -0.02473057 -0.03984538 0.11764706 0.63921569 0.14117647
v -0.07459182 -0.02330913 -0.04021796 0.11764706 0.63921569 0.14117647
v -0.07277946 -0.01487833 -0.04280507 0.11764706 0.63921569 0.14117647
v -0.07378333 -0.00792764 -0.04280507 0.11764706 0.63921569 0.14117647
v -0.07767081 -0.00639536 -0.04013737 0.11764706 0.63921569 0.14117647
v -0.07852646 -0.00639536 -0.03953141 0.11764706 0.63921569 0.14117647
v -0.07872858 -0.00639536 -0.03862194 0.11764706 0.63921569 0.14117647
v -0.07874879 -0.00485656 -0.03862194 0.11764706 0.63921569 0.14117647
v -0.07885659 -0.00485656 -0.03708558 0.11764706 0.63921569 0.14117647
v -0.07884986 -0.00331776 -0.03708558 0.11764706 0.63921569 0.14117647
v -0.07883638 -0.00177896 -0.03708558 0.11764706 0.63921569 0.14117647
v -0.07881617 -0.00024016 -0.03708558 0.11764706 0.63921569 0.14117647
v -0.07871511 -0.00024016 -0.03554818 0.11764706 0.63921569 0.14117647
v -0.07863426 0.00129212 -0.03554818 0.11764706 0.63921569 0.14117647
v -0.07845909 0.00382854 -0.03608402 0.11764706 0.63921569 0.14117647
v -0.07822328 0.00590201 -0.03554818 0.11764706 0.63921569 0.14117647
v -0.07841193 0.00330039 -0.03505839 0.11764706 0.63921569 0.14117647
v -0.07845235 0.00227018 -0.03472244 0.11764706 0.63921569 0.14117647
v -0.07685559 0.01709092 -0.03519653 0.11764706 0.63921569 0.14117647
v -0.07714530 0.01512830 -0.03554818 0.11764706 0.63921569 0.14117647
v -0.07677474 0.01810157 -0.03564446 0.11764706 0.63921569 0.14117647
v -0.07698360 0.01512830 -0.03451522 0.11764706 0.63921569 0.14117647
v -0.07591235 0.02127698 -0.03400973 0.11764706 0.63921569 0.14117647
v -0.07563612 0.02284838 -0.03389460 0.11764706 0.63921569 0.14117647
v -0.07708466 0.01358949 -0.03424206 0.11764706 0.63921569 0.14117647
v -0.07683537 0.01246800 -0.03331690 0.11764706 0.63921569 0.14117647
v -0.07691622 0.01143778 -0.03322794 0.11764706 0.63921569 0.14117647
v -0.07695665 0.01051189 -0.03319341 0.11764706 0.63921569 0.14117647
v -0.07702402 0.00897961 -0.03314003 0.11764706 0.63921569 0.14117647
v -0.07709140 0.00744081 -0.03309712 0.11764706 0.63921569 0.14117647
v -0.07715877 0.00590201 -0.03306991 0.11764706 0.63921569 0.14117647
v -0.07720593 0.00436321 -0.03305107 0.11764706 0.63921569 0.14117647
v -0.07725983 0.00282441 -0.03303537 0.11764706 0.63921569 0.14117647
v -0.07731373 0.00129212 -0.03302596 0.11764706 0.63921569 0.14117647
v -0.07734068 -0.00024016 -0.03302177 0.11764706 0.63921569 0.14117647
v -0.07613469 0.00129212 -0.03276327 0.11764706 0.63921569 0.14117647
v -0.07613469 -0.00024016 -0.03276013 0.11764706 0.63921569 0.14117647
v -0.07613469 -0.00177896 -0.03275699 0.11764706 0.63921569 0.14117647
v -0.07613469 -0.00485656 -0.03275489 0.11764706 0.63921569 0.14117647
v -0.06094858 -0.00024016 -0.03211440 0.11764706 0.63921569 0.14117647
v -0.01924407 -0.03191599 -0.03313375 0.11764706 0.63921569 0.14117647
v -0.01462895 -0.03191599 -0.03313166 0.11764706 0.63921569 0.14117647
v -0.01155669 -0.03191599 -0.03313061 0.11764706 0.63921569 0.14117647
v -0.02847431 -0.03190947 -0.03313794 0.11764706 0.63921569 0.14117647
v -0.02693144 -0.03190947 -0.03313689 0.11764706 0.63921569 0.14117647
v -0.05153643 -0.01418717 -0.03211440 0.11764706 0.63921569 0.14117647
v -0.06075320 -0.02945782 -0.03275280 0.11764706 0.63921569 0.14117647
v -0.05152970 -0.03099662 -0.03295165 0.11764706 0.63921569 0.14117647
v -0.04999357 -0.03099662 -0.03294432 0.11764706 0.63921569 0.14117647
v -0.03001043 -0.03099662 -0.03290665 0.11764706 0.63921569 0.14117647
v -0.03154656 -0.03190295 -0.03314108 0.11764706 0.63921569 0.14117647
v -0.03308269 -0.03247022 -0.03400973 0.11764706 0.63921569 0.14117647
v -0.03308269 -0.03189643 -0.03314422 0.11764706 0.63921569 0.14117647
v -0.04999357 -0.03182470 -0.03318713 0.11764706 0.63921569 0.14117647
v -0.03616168 -0.03243762 -0.03400973 0.11764706 0.63921569 0.14117647
v -0.03923394 -0.03239850 -0.03400973 0.11764706 0.63921569 0.14117647
v -0.04999357 -0.03222896 -0.03400973 0.11764706 0.63921569 0.14117647
v -0.05152970 -0.03219636 -0.03400973 0.11764706 0.63921569 0.14117647
v -0.05306582 -0.03213116 -0.03400973 0.11764706 0.63921569 0.14117647
v -0.05768094 -0.03195511 -0.03418660 0.11764706 0.63921569 0.14117647
v -0.05921707 -0.03190295 -0.03429858 0.11764706 0.63921569 0.14117647
v -0.06075320 -0.03185079 -0.03446498 0.11764706 0.63921569 0.14117647
v -0.06184465 -0.03180515 -0.03463767 0.11764706 0.63921569 0.14117647
v -0.06690445 -0.03073581 -0.03400973 0.11764706 0.63921569 0.14117647
v -0.06942423 -0.03030546 -0.03454034 0.11764706 0.63921569 0.14117647
v -0.06953203 -0.03033807 -0.03554818 0.11764706 0.63921569 0.14117647
v -0.07030010 -0.03005117 -0.03554818 0.11764706 0.63921569 0.14117647
v -0.07151956 -0.02946434 -0.03554818 0.11764706 0.63921569 0.14117647
v -0.07249648 -0.02886447 -0.03708558 0.11764706 0.63921569 0.14117647
v -0.07322413 -0.02800378 -0.03862194 0.11764706 0.63921569 0.14117647
v -0.07388439 -0.02723438 -0.03862194 0.11764706 0.63921569 0.14117647
v -0.07434927 -0.02638022 -0.03862194 0.11764706 0.63921569 0.14117647
v -0.07505670 -0.02499791 -0.03862194 0.11764706 0.63921569 0.14117647
v -0.07539357 -0.02414374 -0.03943826 0.11764706 0.63921569 0.14117647
v -0.07552832 -0.02330913 -0.03960781 0.11764706 0.63921569 0.14117647
v -0.07575739 -0.02177033 -0.03982654 0.11764706 0.63921569 0.14117647
v -0.07300179 -0.01408285 -0.04280507 0.11764706 0.63921569 0.14117647
v -0.07736089 -0.01408285 -0.03988515 0.11764706 0.63921569 0.14117647
v -0.07747543 -0.01254405 -0.03993748 0.11764706 0.63921569 0.14117647
v -0.07767081 -0.00792764 -0.04005992 0.11764706 0.63921569 0.14117647
v -0.07848604 -0.00792764 -0.03946024 0.11764706 0.63921569 0.14117647
v -0.07864100 -0.00792764 -0.03862194 0.11764706 0.63921569 0.14117647
v -0.07882291 -0.00639536 -0.03708558 0.11764706 0.63921569 0.14117647
v -0.07874206 -0.00639536 -0.03554818 0.11764706 0.63921569 0.14117647
v -0.07876901 -0.00485656 -0.03554818 0.11764706 0.63921569 0.14117647
v -0.07876227 -0.00331776 -0.03554818 0.11764706 0.63921569 0.14117647
v -0.07874206 -0.00177896 -0.03554818 0.11764706 0.63921569 0.14117647
v -0.07853994 -0.00024016 -0.03448801 0.11764706 0.63921569 0.14117647
v -0.07849951 0.00129212 -0.03460104 0.11764706 0.63921569 0.14117647
v -0.07837150 0.00435017 -0.03556178 0.11764706 0.63921569 0.14117647
v -0.07764386 0.00744081 -0.03400973 0.11764706 0.63921569 0.14117647
v -0.07732721 0.01051189 -0.03400973 0.11764706 0.63921569 0.14117647
v -0.07713182 0.01199201 -0.03390193 0.11764706 0.63921569 0.14117647
v -0.07808179 0.00129212 -0.03383181 0.11764706 0.63921569 0.14117647
v -0.07811548 -0.00024016 -0.03371983 0.11764706 0.63921569 0.14117647
v -0.07812222 -0.00177896 -0.03369052 0.11764706 0.63921569 0.14117647
v -0.07813569 -0.00331776 -0.03366959 0.11764706 0.63921569 0.14117647
v -0.07814243 -0.00485656 -0.03364971 0.11764706 0.63921569 0.14117647
v -0.07735415 -0.00177896 -0.03301758 0.11764706 0.63921569 0.14117647
v -0.07736763 -0.00331776 -0.03301549 0.11764706 0.63921569 0.14117647
v -0.07737437 -0.00485656 -0.03301340 0.11764706 0.63921569 0.14117647
v -0.07736089 -0.00639536 -0.03301340 0.11764706 0.63921569 0.14117647
v -0.07613469 -0.00639536 -0.03276117 0.11764706 0.63921569 0.14117647
v -0.06088121 -0.00177896 -0.03211440 0.11764706 0.63921569 0.14117647
v -0.06088795 -0.00169419 -0.03211440 0.11764706 0.63921569 0.14117647
v -0.05285696 -0.01391984 -0.03211440 0.11764706 0.63921569 0.14117647
v -0.06229606 -0.02945782 -0.03276641 0.11764706 0.63921569 0.14117647
v -0.06690445 -0.02791902 -0.03274861 0.11764706 0.63921569 0.14117647
v -0.05152970 -0.03181167 -0.03319550 0.11764706 0.63921569 0.14117647
v -0.05921707 -0.03080101 -0.03299665 0.11764706 0.63921569 0.14117647
v -0.05306582 -0.03178558 -0.03321957 0.11764706 0.63921569 0.14117647
v -0.05394169 -0.03176602 -0.03323736 0.11764706 0.63921569 0.14117647
v -0.05451436 -0.03200075 -0.03387681 0.11764706 0.63921569 0.14117647
v -0.05614481 -0.03200727 -0.03409973 0.11764706 0.63921569 0.14117647
v -0.05496577 -0.03172690 -0.03327608 0.11764706 0.63921569 0.14117647
v -0.05614481 -0.03168126 -0.03333155 0.11764706 0.63921569 0.14117647
v -0.05768094 -0.03162258 -0.03341842 0.11764706 0.63921569 0.14117647
v -0.05921707 -0.03157041 -0.03352935 0.11764706 0.63921569 0.14117647
v -0.06075320 -0.03149869 -0.03369576 0.11764706 0.63921569 0.14117647
v -0.06383219 -0.03122483 -0.03400973 0.11764706 0.63921569 0.14117647
v -0.06536832 -0.03100966 -0.03400973 0.11764706 0.63921569 0.14117647
v -0.06777357 -0.03025330 -0.03321852 0.11764706 0.63921569 0.14117647
v -0.06834624 -0.03041631 -0.03402124 0.11764706 0.63921569 0.14117647
v -0.06879766 -0.03003813 -0.03351575 0.11764706 0.63921569 0.14117647
v -0.06995649 -0.02983600 -0.03402124 0.11764706 0.63921569 0.14117647
v -0.07154651 -0.02909920 -0.03397624 0.11764706 0.63921569 0.14117647
v -0.07242911 -0.02880579 -0.03446603 0.11764706 0.63921569 0.14117647
v -0.07249648 -0.02886447 -0.03554818 0.11764706 0.63921569 0.14117647
v -0.07326455 -0.02802334 -0.03708558 0.11764706 0.63921569 0.14117647
v -0.07389787 -0.02725395 -0.03708558 0.11764706 0.63921569 0.14117647
v -0.07440991 -0.02638022 -0.03708558 0.11764706 0.63921569 0.14117647
v -0.07510386 -0.02505007 -0.03708558 0.11764706 0.63921569 0.14117647
v -0.07543399 -0.02422850 -0.03862194 0.11764706 0.63921569 0.14117647
v -0.07575739 -0.02330913 -0.03862194 0.11764706 0.63921569 0.14117647
v -0.07624249 -0.02177033 -0.03862194 0.11764706 0.63921569 0.14117647
v -0.07686906 -0.01935128 -0.03919127 0.11764706 0.63921569 0.14117647
v -0.07699707 -0.01832107 -0.03953769 0.11764706 0.63921569 0.14117647
v -0.07711161 -0.01715393 -0.03968107 0.11764706 0.63921569 0.14117647
v -0.07597298 -0.02023153 -0.03994062 0.11764706 0.63921569 0.14117647
v -0.07723288 -0.01562165 -0.03979933 0.11764706 0.63921569 0.14117647
v -0.07844561 -0.00877529 -0.03940163 0.11764706 0.63921569 0.14117647
v -0.07845909 -0.01045102 -0.03805366 0.11764706 0.63921569 0.14117647
v -0.07872185 -0.00792764 -0.03708558 0.11764706 0.63921569 0.14117647
v -0.07839171 -0.00980550 -0.03907825 0.11764706 0.63921569 0.14117647
v -0.07833781 -0.01097916 -0.03858845 0.11764706 0.63921569 0.14117647
v -0.07864100 -0.00792764 -0.03554818 0.11764706 0.63921569 0.14117647
v -0.07846582 -0.00899698 -0.03469941 0.11764706 0.63921569 0.14117647
v -0.07851298 -0.00792764 -0.03456336 0.11764706 0.63921569 0.14117647
v -0.07856015 -0.00639536 -0.03443777 0.11764706 0.63921569 0.14117647
v -0.07856688 -0.00485656 -0.03441893 0.11764706 0.63921569 0.14117647
v -0.07854667 -0.00177896 -0.03445870 0.11764706 0.63921569 0.14117647
v -0.07813569 -0.00639536 -0.03366959 0.11764706 0.63921569 0.14117647
v -0.07731373 -0.00792764 -0.03302281 0.11764706 0.63921569 0.14117647
v -0.07613469 -0.00792764 -0.03277792 0.11764706 0.63921569 0.14117647
v -0.07459182 -0.01869273 -0.03277373 0.11764706 0.63921569 0.14117647
v -0.07459182 -0.01715393 -0.03275803 0.11764706 0.63921569 0.14117647
v -0.06067235 -0.00342208 -0.03211440 0.11764706 0.63921569 0.14117647
v -0.05297150 -0.01388072 -0.03211440 0.11764706 0.63921569 0.14117647
v -0.06383219 -0.02945782 -0.03278524 0.11764706 0.63921569 0.14117647
v -0.06844057 -0.02791902 -0.03276850 0.11764706 0.63921569 0.14117647
v -0.06075320 -0.03072929 -0.03300502 0.11764706 0.63921569 0.14117647
v -0.06383219 -0.03054672 -0.03303537 0.11764706 0.63921569 0.14117647
v -0.06536832 -0.03046195 -0.03306886 0.11764706 0.63921569 0.14117647
v -0.06690445 -0.03033807 -0.03314840 0.11764706 0.63921569 0.14117647
v -0.06998344 -0.02906008 -0.03305317 0.11764706 0.63921569 0.14117647
v -0.07105468 -0.02885795 -0.03313689 0.11764706 0.63921569 0.14117647
v -0.07208551 -0.02850585 -0.03344144 0.11764706 0.63921569 0.14117647
v -0.07299506 -0.02786033 -0.03404740 0.11764706 0.63921569 0.14117647
v -0.07387092 -0.02721482 -0.03465336 0.11764706 0.63921569 0.14117647
v -0.07326455 -0.02802334 -0.03554818 0.11764706 0.63921569 0.14117647
v -0.07389787 -0.02725395 -0.03554818 0.11764706 0.63921569 0.14117647
v -0.07438970 -0.02638022 -0.03554818 0.11764706 0.63921569 0.14117647
v -0.07508365 -0.02501746 -0.03554818 0.11764706 0.63921569 0.14117647
v -0.07544073 -0.02424807 -0.03554818 0.11764706 0.63921569 0.14117647
v -0.07545421 -0.02428067 -0.03708558 0.11764706 0.63921569 0.14117647
v -0.07582477 -0.02330913 -0.03708558 0.11764706 0.63921569 0.14117647
v -0.07633680 -0.02177033 -0.03708558 0.11764706 0.63921569 0.14117647
v -0.07694317 -0.01961210 -0.03816669 0.11764706 0.63921569 0.14117647
v -0.07671410 -0.02016633 -0.03865648 0.11764706 0.63921569 0.14117647
v -0.07708466 -0.01877750 -0.03865648 0.11764706 0.63921569 0.14117647
v -0.07744174 -0.01715393 -0.03862194 0.11764706 0.63921569 0.14117647
v -0.07770450 -0.01562165 -0.03862194 0.11764706 0.63921569 0.14117647
v -0.07794031 -0.01408285 -0.03862194 0.11764706 0.63921569 0.14117647
v -0.07815590 -0.01254405 -0.03862194 0.11764706 0.63921569 0.14117647
v -0.07856688 -0.00946644 -0.03708558 0.11764706 0.63921569 0.14117647
v -0.07805485 -0.01408285 -0.03708558 0.11764706 0.63921569 0.14117647
v -0.07824349 -0.01254405 -0.03708558 0.11764706 0.63921569 0.14117647
v -0.07844561 -0.01031409 -0.03616775 0.11764706 0.63921569 0.14117647
v -0.07841866 -0.01002067 -0.03514211 0.11764706 0.63921569 0.14117647
v -0.07799421 -0.01408285 -0.03554818 0.11764706 0.63921569 0.14117647
v -0.07739458 -0.01562165 -0.03400973 0.11764706 0.63921569 0.14117647
v -0.07692970 -0.01654102 -0.03321643 0.11764706 0.63921569 0.14117647
v -0.07808179 -0.00792764 -0.03379413 0.11764706 0.63921569 0.14117647
v -0.07697686 -0.01562165 -0.03317561 0.11764706 0.63921569 0.14117647
v -0.07704423 -0.01408285 -0.03312852 0.11764706 0.63921569 0.14117647
v -0.07711161 -0.01254405 -0.03309189 0.11764706 0.63921569 0.14117647
v -0.07717898 -0.01100525 -0.03306363 0.11764706 0.63921569 0.14117647
v -0.07613469 -0.01254405 -0.03284804 0.11764706 0.63921569 0.14117647
v -0.07613469 -0.01100525 -0.03281873 0.11764706 0.63921569 0.14117647
v -0.07613469 -0.01408285 -0.03288676 0.11764706 0.63921569 0.14117647
v -0.07459182 -0.02023153 -0.03281455 0.11764706 0.63921569 0.14117647
v -0.07305569 -0.02330913 -0.03277583 0.11764706 0.63921569 0.14117647
v -0.07305569 -0.02177033 -0.03275594 0.11764706 0.63921569 0.14117647
v -0.06042980 -0.00449142 -0.03211440 0.11764706 0.63921569 0.14117647
v -0.05489166 -0.01273966 -0.03211440 0.11764706 0.63921569 0.14117647
v -0.06536832 -0.02945782 -0.03282083 0.11764706 0.63921569 0.14117647
v -0.06229606 -0.03063148 -0.03301758 0.11764706 0.63921569 0.14117647
v -0.05574731 -0.01215283 -0.03211440 0.11764706 0.63921569 0.14117647
v -0.05659622 -0.01146167 -0.03211440 0.11764706 0.63921569 0.14117647
v -0.06998344 -0.02638022 -0.03276327 0.11764706 0.63921569 0.14117647
v -0.07151956 -0.02638022 -0.03280199 0.11764706 0.63921569 0.14117647
v -0.06998344 -0.02791902 -0.03282083 0.11764706 0.63921569 0.14117647
v -0.06690445 -0.02945782 -0.03290665 0.11764706 0.63921569 0.14117647
v -0.07154651 -0.02796466 -0.03301340 0.11764706 0.63921569 0.14117647
v -0.07253691 -0.02748216 -0.03311596 0.11764706 0.63921569 0.14117647
v -0.07391808 -0.02578687 -0.03316933 0.11764706 0.63921569 0.14117647
v -0.07356100 -0.02681056 -0.03362773 0.11764706 0.63921569 0.14117647
v -0.07409325 -0.02633458 -0.03408822 0.11764706 0.63921569 0.14117647
v -0.07540705 -0.02416982 -0.03462825 0.11764706 0.63921569 0.14117647
v -0.07580455 -0.02330913 -0.03554818 0.11764706 0.63921569 0.14117647
v -0.07632333 -0.02177033 -0.03554818 0.11764706 0.63921569 0.14117647
v -0.07674105 -0.02046626 -0.03708558 0.11764706 0.63921569 0.14117647
v -0.07697012 -0.01969687 -0.03708558 0.11764706 0.63921569 0.14117647
v -0.07721267 -0.01869273 -0.03708558 0.11764706 0.63921569 0.14117647
v -0.07754280 -0.01715393 -0.03708558 0.11764706 0.63921569 0.14117647
v -0.07782577 -0.01562165 -0.03708558 0.11764706 0.63921569 0.14117647
v -0.07777187 -0.01562165 -0.03554818 0.11764706 0.63921569 0.14117647
v -0.07817612 -0.01254405 -0.03554818 0.11764706 0.63921569 0.14117647
v -0.07835803 -0.01089440 -0.03561202 0.11764706 0.63921569 0.14117647
v -0.07702402 -0.01869273 -0.03444196 0.11764706 0.63921569 0.14117647
v -0.07714530 -0.01709525 -0.03394170 0.11764706 0.63921569 0.14117647
v -0.07676800 -0.01756471 -0.03338388 0.11764706 0.63921569 0.14117647
v -0.07537336 -0.02257233 -0.03323213 0.11764706 0.63921569 0.14117647
v -0.07548789 -0.02177033 -0.03315468 0.11764706 0.63921569 0.14117647
v -0.07567654 -0.02023153 -0.03305631 0.11764706 0.63921569 0.14117647
v -0.07613469 -0.01562165 -0.03293700 0.11764706 0.63921569 0.14117647
v -0.07584498 -0.01869273 -0.03301968 0.11764706 0.63921569 0.14117647
v -0.07459182 -0.02177033 -0.03292130 0.11764706 0.63921569 0.14117647
v -0.07305569 -0.02484142 -0.03284909 0.11764706 0.63921569 0.14117647
v -0.07151956 -0.02484142 -0.03276222 0.11764706 0.63921569 0.14117647
v -0.05788306 -0.00975986 -0.03211440 0.11764706 0.63921569 0.14117647
v -0.05905537 -0.00790156 -0.03211440 0.11764706 0.63921569 0.14117647
v -0.05908906 -0.00784288 -0.03211440 0.11764706 0.63921569 0.14117647
v -0.05912275 -0.00776463 -0.03211440 0.11764706 0.63921569 0.14117647
v -0.06009967 -0.00532603 -0.03211440 0.11764706 0.63921569 0.14117647
v -0.05729017 -0.01060750 -0.03211440 0.11764706 0.63921569 0.14117647
v -0.07305569 -0.02633458 -0.03303328 0.11764706 0.63921569 0.14117647
v -0.07412020 -0.02484142 -0.03308142 0.11764706 0.63921569 0.14117647
v -0.07515102 -0.02360255 -0.03360366 0.11764706 0.63921569 0.14117647
v -0.07486132 -0.02475013 -0.03407357 0.11764706 0.63921569 0.14117647
v -0.07554179 -0.02317221 -0.03407357 0.11764706 0.63921569 0.14117647
v -0.07692296 -0.01955342 -0.03469941 0.11764706 0.63921569 0.14117647
v -0.07672758 -0.02042062 -0.03554818 0.11764706 0.63921569 0.14117647
v -0.07695665 -0.01965122 -0.03554818 0.11764706 0.63921569 0.14117647
v -0.07718572 -0.01869273 -0.03554818 0.11764706 0.63921569 0.14117647
v -0.07750238 -0.01715393 -0.03554818 0.11764706 0.63921569 0.14117647
v -0.07595951 -0.02177033 -0.03400973 0.11764706 0.63921569 0.14117647
f 1 2 11
f 1 11 22
f 1 22 48
f 1 48 83
f 1 83 128
f 1 128 177
f 1 177 232
f 1 232 286
f 1 286 345
f 1 345 417
f 1 417 484
f 1 484 492
f 1 492 491
f 1 491 425
f 1 425 351
f 1 351 348
f 1 348 289
f 1 289 243
f 1 243 184
f 1 184 131
f 1 131 84
f 1 84 49
f 1 49 23
f 1 23 13
f 1 13 3
f 1 3 4
f 1 4 5
f 1 5 6
f 1 6 7
f 1 7 8
f 1 8 9
f 1 9 2
f 2 10 11
f 2 9 12
f 2 12 10
f 3 13 14
f 3 14 4
f 4 14 15
f 4 15 5
f 5 16 6
f 5 15 16
f 6 16 17
f 6 17 18
f 6 18 7
f 7 18 41
f 7 41 19
f 7 19 12
f 7 12 8
f 8 12 9
f 10 12 20
f 10 20 21
f 10 21 11
f 11 21 22
f 12 19 43
f 12 43 20
f 13 23 24
f 13 24 25
f 13 25 15
f 13 15 14
f 15 26 27
f 15 27 28
f 15 28 29
f 15 29 30
f 15 30 31
f 15 31 32
f 15 32 33
f 15 33 34
f 15 34 35
f 15 35 36
f 15 36 37
f 15 37 38
f 15 38 16
f 15 25 24
f 15 24 49
f 15 49 84
f 15 84 132
f 15 132 189
f 15 189 255
f 15 255 313
f 15 313 377
f 15 377 453
f 15 453 523
f 15 523 597
f 15 597 524
f 15 524 454
f 15 454 378
f 15 378 314
f 15 314 256
f 15 256 191
f 15 191 190
f 15 190 133
f 15 133 85
f 15 85 50
f 15 50 26
f 16 38 39
f 16 39 40
f 16 40 17
f 17 40 42
f 17 42 18
f 18 42 41
f 19 41 72
f 19 72 43
f 20 43 44
f 20 44 45
f 20 45 21
f 21 45 46
f 21 46 47
f 21 47 48
f 21 48 22
f 23 49 24
f 26 50 51
f 26 51 52
f 26 52 53
f 26 53 27
f 27 53 54
f 27 54 55
f 27 55 30
f 27 30 28
f 28 30 29
f 30 56 57
f 30 57 58
f 30 58 59
f 30 59 60
f 30 60 61
f 30 61 62
f 30 62 31
f 30 55 63
f 30 63 64
f 30 64 56
f 31 62 32
f 32 62 33
f 33 62 65
f 33 65 34
f 34 65 35
f 35 65 36
f 36 65 37
f 37 65 66
f 37 66 67
f 37 67 38
f 38 67 39
f 39 67 73
f 39 73 42
f 39 42 40
f 41 42 68
f 41 68 69
f 41 69 70
f 41 70 71
f 41 71 72
f 42 73 74
f 42 74 68
f 43 72 75
f 43 75 76
f 43 76 77
f 43 77 44
f 44 77 78
f 44 78 79
f 44 79 45
f 45 80 81
f 45 81 46
f 45 79 82
f 45 82 80
f 46 81 47
f 47 81 83
f 47 83 48
f 50 85 86
f 50 86 51
f 51 87 88
f 51 88 89
f 51 89 90
f 51 90 91
f 51 91 92
f 51 92 52
f 51 86 93
f 51 93 94
f 51 94 95
f 51 95 96
f 51 96 87
f 52 92 54
f 52 54 53
f 54 97 98
f 54 98 55
f 54 92 97
f 55 98 106
f 55 106 63
f 56 99 57
f 56 64 100
f 56 100 99
f 57 101 103
f 57 103 58
f 57 99 102
f 57 102 101
f 58 103 59
f 59 103 60
f 60 103 61
f 61 104 62
f 61 103 104
f 62 104 105
f 62 105 110
f 62 110 65
f 63 106 107
f 63 107 64
f 64 107 108
f 64 108 109
f 64 109 102
f 64 102 100
f 65 110 111
f 65 111 66
f 66 111 73
f 66 73 67
f 68 74 69
f 69 112 113
f 69 113 70
f 69 74 114
f 69 114 112
f 70 113 75
f 70 75 71
f 71 75 72
f 73 111 74
f 74 111 110
f 74 110 115
f 74 115 114
f 75 113 116
f 75 116 76
f 76 116 117
f 76 117 118
f 76 118 77
f 77 118 78
f 78 119 120
f 78 120 121
f 78 121 122
f 78 122 123
f 78 123 79
f 78 118 119
f 79 123 80
f 79 80 82
f 80 123 124
f 80 124 81
f 81 124 125
f 81 125 126
f 81 126 83
f 83 127 128
f 83 126 129
f 83 129 130
f 83 130 127
f 84 131 132
f 85 133 134
f 85 134 135
f 85 135 136
f 85 136 93
f 85 93 86
f 87 137 138
f 87 138 88
f 87 96 139
f 87 139 137
f 88 138 89
f 89 138 140
f 89 140 90
f 90 140 91
f 91 140 141
f 91 141 92
f 92 141 97
f 93 136 135
f 93 135 142
f 93 142 143
f 93 143 94
f 94 143 144
f 94 144 145
f 94 145 146
f 94 146 95
f 95 146 147
f 95 147 96
f 96 147 139
f 97 148 151
f 97 151 98
f 97 141 149
f 97 149 150
f 97 150 148
f 98 151 152
f 98 152 106
f 99 100 102
f 101 102 153
f 101 153 154
f 101 154 103
f 102 109 153
f 103 154 155
f 103 155 104
f 104 155 156
f 104 156 105
f 105 156 157
f 105 157 115
f 105 115 110
f 106 152 158
f 106 158 107
f 107 158 159
f 107 159 108
f 108 159 160
f 108 160 154
f 108 154 109
f 109 154 153
f 112 114 161
f 112 161 162
f 112 162 163
f 112 163 164
f 112 164 116
f 112 116 113
f 114 115 161
f 115 157 165
f 115 165 166
f 115 166 167
f 115 167 161
f 116 164 168
f 116 168 169
f 116 169 170
f 116 170 171
f 116 171 172
f 116 172 120
f 116 120 117
f 117 120 118
f 118 120 119
f 120 172 173
f 120 173 174
f 120 174 121
f 121 174 122
f 122 174 123
f 123 174 175
f 123 175 124
f 124 175 176
f 124 176 125
f 125 176 126
f 126 176 129
f 127 130 176
f 127 176 128
f 128 176 178
f 128 178 179
f 128 179 180
f 128 180 181
f 128 181 182
f 128 182 183
f 128 183 177
f 129 176 130
f 131 184 185
f 131 185 186
f 131 186 187
f 131 187 188
f 131 188 189
f 131 189 132
f 133 190 134
f 134 190 191
f 134 191 192
f 134 192 193
f 134 193 142
f 134 142 135
f 137 139 194
f 137 194 138
f 138 194 195
f 138 195 196
f 138 196 140
f 139 147 197
f 139 197 194
f 140 196 198
f 140 198 149
f 140 149 141
f 142 193 199
f 142 199 200
f 142 200 201
f 142 201 202
f 142 202 203
f 142 203 143
f 143 203 204
f 143 204 144
f 144 204 145
f 145 205 146
f 145 204 206
f 145 206 207
f 145 207 205
f 146 208 147
f 146 205 208
f 147 208 197
f 148 150 209
f 148 209 210
f 148 210 211
f 148 211 151
f 149 198 209
f 149 209 150
f 151 211 212
f 151 212 213
f 151 213 152
f 152 214 215
f 152 215 216
f 152 216 158
f 152 213 214
f 154 216 217
f 154 217 218
f 154 218 155
f 154 160 219
f 154 219 216
f 155 218 217
f 155 217 216
f 155 216 156
f 156 216 157
f 157 216 165
f 158 216 159
f 159 216 160
f 160 216 219
f 161 167 220
f 161 220 221
f 161 221 222
f 161 222 162
f 162 222 163
f 163 223 224
f 163 224 225
f 163 225 226
f 163 226 227
f 163 227 164
f 163 222 223
f 164 227 226
f 164 226 168
f 165 216 223
f 165 223 166
f 166 223 167
f 167 223 220
f 168 226 225
f 168 225 228
f 168 228 169
f 169 228 170
f 170 228 171
f 171 228 172
f 172 228 173
f 173 229 230
f 173 230 174
f 173 228 231
f 173 231 229
f 174 230 176
f 174 176 175
f 176 230 229
f 176 229 284
f 176 284 285
f 176 285 344
f 176 344 343
f 176 343 342
f 176 342 341
f 176 341 416
f 176 416 483
f 176 483 482
f 176 482 560
f 176 560 625
f 176 625 624
f 176 624 677
f 176 677 724
f 176 724 765
f 176 765 764
f 176 764 763
f 176 763 762
f 176 762 761
f 176 761 766
f 176 766 729
f 176 729 728
f 176 728 725
f 176 725 678
f 176 678 626
f 176 626 566
f 176 566 485
f 176 485 423
f 176 423 422
f 176 422 421
f 176 421 420
f 176 420 419
f 176 419 418
f 176 418 347
f 176 347 346
f 176 346 288
f 176 288 287
f 176 287 242
f 176 242 241
f 176 241 240
f 176 240 239
f 176 239 238
f 176 238 237
f 176 237 236
f 176 236 235
f 176 235 234
f 176 234 233
f 176 233 183
f 176 183 182
f 176 182 181
f 176 181 180
f 176 180 179
f 176 179 178
f 177 183 233
f 177 233 234
f 177 234 235
f 177 235 236
f 177 236 237
f 177 237 238
f 177 238 239
f 177 239 240
f 177 240 241
f 177 241 242
f 177 242 232
f 184 243 244
f 184 244 245
f 184 245 185
f 185 245 186
f 186 245 246
f 186 246 187
f 187 246 247
f 187 247 248
f 187 248 249
f 187 249 250
f 187 250 251
f 187 251 252
f 187 252 188
f 188 252 189
f 189 252 251
f 189 251 250
f 189 250 253
f 189 253 254
f 189 254 255
f 191 256 257
f 191 257 192
f 192 258 199
f 192 199 193
f 192 257 258
f 194 197 209
f 194 209 195
f 195 209 196
f 196 209 198
f 197 259 209
f 197 208 260
f 197 260 259
f 199 258 261
f 199 261 262
f 199 262 263
f 199 263 264
f 199 264 265
f 199 265 200
f 200 265 266
f 200 266 267
f 200 267 201
f 201 267 268
f 201 268 202
f 202 268 269
f 202 269 203
f 203 269 204
f 204 269 206
f 205 207 270
f 205 270 208
f 206 269 207
f 207 269 271
f 207 271 270
f 208 270 272
f 208 272 260
f 209 259 273
f 209 273 210
f 210 273 274
f 210 274 275
f 210 275 211
f 211 275 276
f 211 276 212
f 212 276 277
f 212 277 213
f 213 277 214
f 214 277 215
f 215 277 278
f 215 278 216
f 216 278 279
f 216 279 223
f 220 223 221
f 221 223 222
f 223 279 280
f 223 280 224
f 224 280 225
f 225 280 281
f 225 281 228
f 228 281 282
f 228 282 283
f 228 283 231
f 229 231 284
f 231 283 285
f 231 285 284
f 232 242 287
f 232 287 288
f 232 288 286
f 243 289 244
f 244 289 245
f 245 290 246
f 245 289 291
f 245 291 290
f 246 290 292
f 246 292 247
f 247 292 293
f 247 293 353
f 247 353 294
f 247 294 295
f 247 295 248
f 248 295 249
f 249 295 296
f 249 296 254
f 249 254 253
f 249 253 250
f 254 296 297
f 254 297 298
f 254 298 299
f 254 299 300
f 254 300 301
f 254 301 302
f 254 302 303
f 254 303 304
f 254 304 305
f 254 305 306
f 254 306 255
f 255 306 307
f 255 307 308
f 255 308 309
f 255 309 310
f 255 310 311
f 255 311 312
f 255 312 313
f 256 314 315
f 256 315 316
f 256 316 258
f 256 258 257
f 258 316 261
f 259 260 317
f 259 317 274
f 259 274 273
f 260 318 317
f 260 272 318
f 261 319 320
f 261 320 321
f 261 321 322
f 261 322 323
f 261 323 324
f 261 324 325
f 261 325 326
f 261 326 262
f 261 316 319
f 262 326 327
f 262 327 328
f 262 328 263
f 263 328 264
f 264 328 329
f 264 329 265
f 265 330 266
f 265 329 330
f 266 330 331
f 266 331 332
f 266 332 267
f 267 333 268
f 267 332 333
f 268 333 271
f 268 271 269
f 270 334 335
f 270 335 272
f 270 271 333
f 270 333 336
f 270 336 334
f 272 335 318
f 274 317 275
f 275 277 276
f 275 317 281
f 275 281 277
f 277 280 278
f 277 281 280
f 278 280 279
f 281 317 282
f 282 317 337
f 282 337 283
f 283 337 338
f 283 338 339
f 283 339 340
f 283 340 341
f 283 341 342
f 283 342 343
f 283 343 344
f 283 344 285
f 286 288 346
f 286 346 347
f 286 347 345
f 289 348 291
f 290 291 349
f 290 349 350
f 290 350 292
f 291 348 351
f 291 351 349
f 292 350 352
f 292 352 293
f 293 352 428
f 293 428 353
f 294 353 354
f 294 354 299
f 294 299 298
f 294 298 297
f 294 297 296
f 294 296 295
f 299 354 355
f 299 355 300
f 300 355 301
f 301 355 302
f 302 355 356
f 302 356 303
f 303 356 304
f 304 356 357
f 304 357 305
f 305 357 358
f 305 358 306
f 306 358 359
f 306 359 360
f 306 360 307
f 307 360 361
f 307 361 308
f 308 361 362
f 308 362 309
f 309 362 363
f 309 363 310
f 310 363 364
f 310 364 365
f 310 365 366
f 310 366 367
f 310 367 368
f 310 368 369
f 310 369 370
f 310 370 371
f 310 371 372
f 310 372 373
f 310 373 312
f 310 312 311
f 312 373 313
f 313 373 372
f 313 372 374
f 313 374 375
f 313 375 376
f 313 376 377
f 314 378 379
f 314 379 380
f 314 380 381
f 314 381 382
f 314 382 383
f 314 383 384
f 314 384 385
f 314 385 315
f 315 385 319
f 315 319 316
f 317 318 337
f 318 335 386
f 318 386 337
f 319 385 320
f 320 387 388
f 320 388 389
f 320 389 390
f 320 390 391
f 320 391 392
f 320 392 393
f 320 393 394
f 320 394 321
f 320 385 384
f 320 384 383
f 320 383 387
f 321 394 395
f 321 395 322
f 322 395 396
f 322 396 398
f 322 398 323
f 323 397 324
f 323 398 397
f 324 399 400
f 324 400 325
f 324 397 399
f 325 400 326
f 326 400 327
f 327 401 402
f 327 402 328
f 327 400 467
f 327 467 401
f 328 402 403
f 328 403 329
f 329 403 404
f 329 404 330
f 330 404 331
f 331 404 405
f 331 405 406
f 331 406 332
f 332 406 336
f 332 336 333
f 334 407 335
f 334 336 407
f 335 407 386
f 336 406 407
f 337 386 338
f 338 386 408
f 338 408 409
f 338 409 339
f 339 409 410
f 339 410 411
f 339 411 412
f 339 412 413
f 339 413 340
f 340 413 414
f 340 414 415
f 340 415 416
f 340 416 341
f 345 347 418
f 345 418 419
f 345 419 420
f 345 420 421
f 345 421 422
f 345 422 423
f 345 423 424
f 345 424 417
f 349 351 425
f 349 425 350
f 350 425 426
f 350 426 427
f 350 427 352
f 352 427 495
f 352 495 428
f 353 428 429
f 353 429 355
f 353 355 354
f 355 429 430
f 355 430 356
f 356 430 431
f 356 431 357
f 357 431 432
f 357 432 358
f 358 432 433
f 358 433 359
f 359 433 434
f 359 434 362
f 359 362 360
f 360 362 361
f 362 434 435
f 362 435 363
f 363 435 436
f 363 436 364
f 364 436 437
f 364 437 365
f 365 437 438
f 365 438 366
f 366 438 367
f 367 439 368
f 367 438 439
f 368 439 440
f 368 440 441
f 368 441 369
f 369 441 370
f 370 441 442
f 370 442 443
f 370 443 371
f 371 443 444
f 371 444 445
f 371 445 372
f 372 446 447
f 372 447 448
f 372 448 449
f 372 449 375
f 372 375 374
f 372 445 450
f 372 450 446
f 375 449 376
f 376 449 451
f 376 451 452
f 376 452 377
f 377 452 453
f 378 454 455
f 378 455 379
f 379 455 456
f 379 456 457
f 379 457 380
f 380 457 388
f 380 388 387
f 380 387 383
f 380 383 382
f 380 382 381
f 386 407 408
f 388 457 532
f 388 532 458
f 388 458 389
f 389 458 390
f 390 459 391
f 390 458 460
f 390 460 459
f 391 461 392
f 391 459 461
f 392 461 393
f 393 461 395
f 393 395 394
f 395 461 536
f 395 536 462
f 395 462 463
f 395 463 464
f 395 464 396
f 396 464 398
f 397 465 466
f 397 466 399
f 397 398 464
f 397 464 465
f 399 466 400
f 400 466 467
f 401 467 468
f 401 468 469
f 401 469 402
f 402 469 405
f 402 405 403
f 403 405 404
f 405 469 470
f 405 470 471
f 405 471 406
f 406 471 407
f 407 471 408
f 408 471 470
f 408 470 472
f 408 472 409
f 409 472 473
f 409 473 474
f 409 474 410
f 410 474 475
f 410 475 411
f 411 475 476
f 411 476 412
f 412 476 477
f 412 477 478
f 412 478 413
f 413 478 479
f 413 479 480
f 413 480 414
f 414 480 481
f 414 481 415
f 415 481 482
f 415 482 483
f 415 483 416
f 417 424 484
f 423 485 486
f 423 486 424
f 424 486 570
f 424 570 487
f 424 487 488
f 424 488 489
f 424 489 490
f 424 490 484
f 425 491 426
f 426 491 492
f 426 492 493
f 426 493 494
f 426 494 427
f 427 494 495
f 428 495 572
f 428 572 496
f 428 496 429
f 429 496 497
f 429 497 498
f 429 498 430
f 430 498 431
f 431 498 499
f 431 499 432
f 432 499 500
f 432 500 501
f 432 501 502
f 432 502 433
f 433 502 503
f 433 503 434
f 434 503 504
f 434 504 435
f 435 504 436
f 436 504 505
f 436 505 437
f 437 505 506
f 437 506 438
f 438 506 507
f 438 507 439
f 439 507 508
f 439 508 440
f 440 508 509
f 440 509 441
f 441 509 442
f 442 509 510
f 442 510 443
f 443 510 511
f 443 511 512
f 443 512 444
f 444 512 513
f 444 513 514
f 444 514 450
f 444 450 445
f 446 450 514
f 446 514 515
f 446 515 516
f 446 516 447
f 447 516 448
f 448 517 518
f 448 518 449
f 448 516 517
f 449 518 519
f 449 519 451
f 451 519 452
f 452 519 520
f 452 520 521
f 452 521 522
f 452 522 453
f 453 522 523
f 454 524 525
f 454 525 455
f 455 525 526
f 455 526 527
f 455 527 528
f 455 528 456
f 456 529 530
f 456 530 457
f 456 528 529
f 457 530 531
f 457 531 532
f 458 532 533
f 458 533 534
f 458 534 535
f 458 535 460
f 459 460 535
f 459 535 536
f 459 536 461
f 462 536 537
f 462 537 463
f 463 537 538
f 463 538 468
f 463 468 464
f 464 468 465
f 465 468 539
f 465 539 540
f 465 540 466
f 466 541 467
f 466 540 541
f 467 541 539
f 467 539 468
f 468 538 542
f 468 542 543
f 468 543 544
f 468 544 469
f 469 544 472
f 469 472 470
f 472 544 543
f 472 543 545
f 472 545 546
f 472 546 473
f 473 546 547
f 473 547 474
f 474 547 475
f 475 547 548
f 475 548 549
f 475 549 476
f 476 549 550
f 476 550 477
f 477 550 551
f 477 551 478
f 478 551 552
f 478 552 553
f 478 553 479
f 479 553 554
f 479 554 480
f 480 554 555
f 480 555 556
f 480 556 481
f 481 556 557
f 481 557 558
f 481 558 559
f 481 559 560
f 481 560 482
f 484 561 562
f 484 562 563
f 484 563 492
f 484 490 489
f 484 489 494
f 484 494 564
f 484 564 565
f 484 565 561
f 485 566 486
f 486 567 568
f 486 568 569
f 486 569 570
f 486 566 567
f 487 570 494
f 487 494 488
f 488 494 489
f 492 563 562
f 492 562 561
f 492 561 493
f 493 561 564
f 493 564 494
f 494 571 495
f 494 570 569
f 494 569 571
f 495 571 573
f 495 573 574
f 495 574 572
f 496 572 575
f 496 575 497
f 497 575 576
f 497 576 577
f 497 577 498
f 498 577 499
f 499 577 578
f 499 578 500
f 500 578 501
f 501 578 502
f 502 578 503
f 503 578 579
f 503 579 504
f 504 579 580
f 504 580 581
f 504 581 582
f 504 582 583
f 504 583 505
f 505 583 506
f 506 583 507
f 507 583 508
f 508 583 509
f 509 583 510
f 510 583 511
f 511 583 584
f 511 584 512
f 512 584 585
f 512 585 513
f 513 585 586
f 513 586 515
f 513 515 514
f 515 586 516
f 516 586 587
f 516 587 588
f 516 588 517
f 517 588 648
f 517 648 589
f 517 589 518
f 518 589 590
f 518 590 519
f 519 591 592
f 519 592 593
f 519 593 594
f 519 594 520
f 519 590 591
f 520 594 521
f 521 594 595
f 521 595 522
f 522 595 596
f 522 596 523
f 523 596 597
f 524 598 599
f 524 599 600
f 524 600 525
f 524 597 598
f 525 600 526
f 526 601 527
f 526 600 599
f 526 599 601
f 527 601 602
f 527 602 603
f 527 603 529
f 527 529 528
f 529 603 604
f 529 604 605
f 529 605 606
f 529 606 530
f 530 606 531
f 531 606 607
f 531 607 532
f 532 607 533
f 533 607 608
f 533 608 609
f 533 609 534
f 534 609 538
f 534 538 537
f 534 537 610
f 534 610 535
f 535 610 536
f 536 610 537
f 538 609 611
f 538 611 612
f 538 612 545
f 538 545 542
f 539 541 540
f 542 545 543
f 545 612 613
f 545 613 546
f 546 613 547
f 547 613 611
f 547 611 609
f 547 609 614
f 547 614 615
f 547 615 548
f 548 615 549
f 549 615 550
f 550 615 551
f 551 615 553
f 551 553 552
f 553 615 554
f 554 615 616
f 554 616 617
f 554 617 555
f 555 617 618
f 555 618 619
f 555 619 556
f 556 619 620
f 556 620 621
f 556 621 557
f 557 621 558
f 558 621 559
f 559 621 622
f 559 622 623
f 559 623 624
f 559 624 625
f 559 625 560
f 561 565 564
f 566 626 567
f 567 627 568
f 567 626 628
f 567 628 627
f 568 629 574
f 568 574 569
f 568 627 630
f 568 630 629
f 569 574 573
f 569 573 571
f 572 574 575
f 574 629 575
f 575 629 576
f 576 629 577
f 577 629 578
f 578 629 631
f 578 631 632
f 578 632 579
f 579 632 633
f 579 633 634
f 579 634 580
f 580 634 635
f 580 635 636
f 580 636 637
f 580 637 638
f 580 638 581
f 581 638 582
f 582 638 639
f 582 639 583
f 583 639 640
f 583 640 641
f 583 641 584
f 584 642 643
f 584 643 585
f 584 641 642
f 585 644 645
f 585 645 646
f 585 646 647
f 585 647 588
f 585 588 587
f 585 587 586
f 585 643 642
f 585 642 644
f 588 647 648
f 589 648 690
f 589 690 649
f 589 649 590
f 590 649 591
f 591 649 650
f 591 650 651
f 591 651 592
f 592 651 652
f 592 652 593
f 593 652 653
f 593 653 594
f 594 653 654
f 594 654 655
f 594 655 656
f 594 656 657
f 594 657 595
f 595 657 596
f 596 657 658
f 596 658 659
f 596 659 597
f 597 659 658
f 597 658 660
f 597 660 598
f 598 660 661
f 598 661 601
f 598 601 599
f 601 661 602
f 602 662 663
f 602 663 603
f 602 661 664
f 602 664 665
f 602 665 662
f 603 663 666
f 603 666 604
f 604 666 667
f 604 667 668
f 604 668 669
f 604 669 605
f 605 669 670
f 605 670 606
f 606 670 608
f 606 608 607
f 608 670 671
f 608 671 617
f 608 617 615
f 608 615 614
f 608 614 609
f 611 613 612
f 615 617 616
f 617 671 670
f 617 670 618
f 618 670 669
f 618 669 672
f 618 672 622
f 618 622 621
f 618 621 620
f 618 620 619
f 622 672 673
f 622 673 674
f 622 674 623
f 623 674 675
f 623 675 676
f 623 676 677
f 623 677 624
f 626 678 628
f 627 679 630
f 627 628 679
f 628 680 679
f 628 678 680
f 629 630 631
f 630 679 681
f 630 681 631
f 631 681 632
f 632 635 634
f 632 634 633
f 632 681 682
f 632 682 683
f 632 683 635
f 635 683 636
f 636 683 637
f 637 683 638
f 638 683 684
f 638 684 639
f 639 641 640
f 639 684 642
f 639 642 641
f 642 684 685
f 642 685 686
f 642 686 644
f 644 686 645
f 645 686 646
f 646 687 647
f 646 686 687
f 647 687 688
f 647 688 689
f 647 689 690
f 647 690 648
f 649 690 691
f 649 691 650
f 650 691 651
f 651 691 692
f 651 692 652
f 652 692 693
f 652 693 694
f 652 694 695
f 652 695 653
f 653 695 696
f 653 696 654
f 654 696 697
f 654 697 655
f 655 697 698
f 655 698 699
f 655 699 656
f 656 699 698
f 656 698 700
f 656 700 701
f 656 701 657
f 657 701 702
f 657 702 703
f 657 703 661
f 657 661 658
f 658 661 660
f 661 703 704
f 661 704 664
f 662 705 663
f 662 665 704
f 662 704 706
f 662 706 707
f 662 707 705
f 663 705 708
f 663 708 666
f 664 704 665
f 666 708 709
f 666 709 667
f 667 709 710
f 667 710 711
f 667 711 712
f 667 712 668
f 668 713 672
f 668 672 669
f 668 712 713
f 672 713 712
f 672 712 714
f 672 714 715
f 672 715 716
f 672 716 717
f 672 717 673
f 673 717 718
f 673 718 719
f 673 719 674
f 674 719 675
f 675 719 718
f 675 718 720
f 675 720 721
f 675 721 722
f 675 722 723
f 675 723 724
f 675 724 676
f 676 724 677
f 678 725 680
f 679 726 727
f 679 727 681
f 679 680 726
f 680 725 728
f 680 728 729
f 680 729 730
f 680 730 731
f 680 731 732
f 680 732 726
f 681 727 682
f 682 727 726
f 682 726 683
f 683 726 733
f 683 733 684
f 684 733 685
f 685 732 686
f 685 733 732
f 686 732 734
f 686 734 735
f 686 735 687
f 687 735 736
f 687 736 737
f 687 737 688
f 688 737 689
f 689 738 739
f 689 739 693
f 689 693 692
f 689 692 691
f 689 691 690
f 689 737 738
f 693 739 694
f 694 739 740
f 694 740 695
f 695 740 696
f 696 740 741
f 696 741 697
f 697 741 742
f 697 742 698
f 698 742 743
f 698 743 744
f 698 744 701
f 698 701 700
f 701 744 745
f 701 745 746
f 701 746 702
f 702 746 703
f 703 746 706
f 703 706 704
f 705 707 708
f 706 746 747
f 706 747 710
f 706 710 707
f 707 710 748
f 707 748 708
f 708 748 749
f 708 749 709
f 709 749 748
f 709 748 710
f 710 747 711
f 711 750 751
f 711 751 712
f 711 747 750
f 712 751 750
f 712 750 752
f 712 752 753
f 712 753 754
f 712 754 755
f 712 755 714
f 714 756 715
f 714 755 757
f 714 757 756
f 715 756 716
f 716 756 720
f 716 720 717
f 717 720 718
f 720 756 721
f 721 756 757
f 721 757 755
f 721 755 758
f 721 758 759
f 721 759 722
f 722 759 731
f 722 731 760
f 722 760 761
f 722 761 762
f 722 762 763
f 722 763 764
f 722 764 765
f 722 765 724
f 722 724 723
f 726 732 733
f 729 766 760
f 729 760 730
f 730 760 731
f 731 759 767
f 731 767 734
f 731 734 732
f 734 767 735
f 735 767 736
f 736 768 753
f 736 753 769
f 736 769 770
f 736 770 738
f 736 738 737
f 736 767 768
f 738 770 739
f 739 770 769
f 739 769 771
f 739 771 772
f 739 772 741
f 739 741 740
f 741 772 773
f 741 773 742
f 742 773 774
f 742 774 743
f 743 774 744
f 744 774 775
f 744 775 745
f 745 775 776
f 745 776 746
f 746 776 747
f 747 776 772
f 747 772 750
f 750 772 753
f 750 753 752
f 753 772 777
f 753 777 771
f 753 771 769
f 753 768 754
f 754 768 755
f 755 768 758
f 758 768 759
f 759 768 767
f 760 766 761
f 771 777 772
f 772 776 775
f 772 775 774
f 772 774 773

