# https://github.com/mikedh/trimesh
v 0.00382577 0.03367109 -0.03862221 0.67058824 0.20784314 0.12549020
v 0.00382577 0.03323972 -0.03999749 0.67058824 0.20784314 0.12549020
v 0.00228654 0.03323972 -0.04001049 0.67058824 0.20784314 0.12549020
v 0.00075153 0.03323972 -0.04001249 0.67058824 0.20784314 0.12549020
v -0.00078770 0.03366743 -0.03862221 0.67058824 0.20784314 0.12549020
v -0.00078770 0.03364184 -0.03708489 0.67058824 0.20784314 0.12549020
v 0.00228654 0.03364184 -0.03708489 0.67058824 0.20784314 0.12549020
v 0.00382577 0.03363819 -0.03708489 0.67058824 0.20784314 0.12549020
v 0.00536079 0.03363088 -0.03708489 0.67058824 0.20784314 0.12549020
v 0.00536079 0.03366012 -0.03862221 0.67058824 0.20784314 0.12549020
v 0.02534970 0.03314832 -0.03994048 0.67058824 0.20784314 0.12549020
v 0.00536079 0.03323606 -0.03999249 0.67058824 0.20784314 0.12549020
v -0.00694041 0.03101340 -0.04280507 0.67058824 0.20784314 0.12549020
v -0.00386195 0.03323606 -0.03999949 0.67058824 0.20784314 0.12549020
v -0.00694041 0.03323241 -0.03998949 0.67058824 0.20784314 0.12549020
v -0.00232694 0.03366378 -0.03862221 0.67058824 0.20784314 0.12549020
v -0.00232694 0.03363819 -0.03708489 0.67058824 0.20784314 0.12549020
v -0.00694041 0.03354314 -0.03554758 0.67058824 0.20784314 0.12549020
v -0.00078770 0.03355045 -0.03554758 0.67058824 0.20784314 0.12549020
v 0.00228654 0.03355045 -0.03554758 0.67058824 0.20784314 0.12549020
v 0.00382577 0.03354679 -0.03554758 0.67058824 0.20784314 0.12549020
v 0.00536079 0.03354314 -0.03554758 0.67058824 0.20784314 0.12549020
v 0.00690002 0.03353583 -0.03554758 0.67058824 0.20784314 0.12549020
v 0.02381047 0.03339326 -0.03554758 0.67058824 0.20784314 0.12549020
v 0.02534970 0.03337863 -0.03554758 0.67058824 0.20784314 0.12549020
v 0.02688472 0.03336401 -0.03554758 0.67058824 0.20784314 0.12549020
v 0.02688472 0.03341154 -0.03708489 0.67058824 0.20784314 0.12549020
v 0.02534970 0.03346637 -0.03862221 0.67058824 0.20784314 0.12549020
v 0.02688472 0.03313736 -0.03993548 0.67058824 0.20784314 0.12549020
v -0.00748441 0.03093663 -0.04280507 0.67058824 0.20784314 0.12549020
v -0.01002731 0.03322509 -0.03997949 0.67058824 0.20784314 0.12549020
v -0.00847542 0.03322875 -0.03998549 0.67058824 0.20784314 0.12549020
v 0.02688472 0.03049429 -0.04280507 0.67058824 0.20784314 0.12549020
v -0.01002731 0.03322875 -0.03996948 0.67058824 0.20784314 0.12549020
v -0.00694041 0.03365281 -0.03862221 0.67058824 0.20784314 0.12549020
v -0.00694041 0.03362722 -0.03708489 0.67058824 0.20784314 0.12549020
v -0.00847542 0.03353949 -0.03554758 0.67058824 0.20784314 0.12549020
v -0.01002731 0.03317757 -0.03401026 0.67058824 0.20784314 0.12549020
v 0.00690002 0.03317757 -0.03401026 0.67058824 0.20784314 0.12549020
v 0.00997426 0.03316660 -0.03401026 0.67058824 0.20784314 0.12549020
v 0.01765777 0.03313736 -0.03401026 0.67058824 0.20784314 0.12549020
v 0.02227124 0.03311908 -0.03401026 0.67058824 0.20784314 0.12549020
v 0.02534970 0.03310446 -0.03401026 0.67058824 0.20784314 0.12549020
v 0.02688472 0.03309349 -0.03401026 0.67058824 0.20784314 0.12549020
v 0.02842395 0.03332380 -0.03554758 0.67058824 0.20784314 0.12549020
v 0.02842395 0.03337498 -0.03708489 0.67058824 0.20784314 0.12549020
v 0.02688472 0.03344809 -0.03862221 0.67058824 0.20784314 0.12549020
v 0.02842395 0.03311908 -0.03992348 0.67058824 0.20784314 0.12549020
v -0.00847542 0.03065880 -0.04280507 0.67058824 0.20784314 0.12549020
v -0.01002731 0.03224171 -0.04074865 0.67058824 0.20784314 0.12549020
v -0.00887183 0.03051257 -0.04280507 0.67058824 0.20784314 0.12549020
v -0.00955500 0.03006292 -0.04280507 0.67058824 0.20784314 0.12549020
v 0.02995896 0.03308983 -0.03990547 0.67058824 0.20784314 0.12549020
v 0.03149820 0.03306059 -0.03988247 0.67058824 0.20784314 0.12549020
v 0.02842395 0.03043580 -0.04280507 0.67058824 0.20784314 0.12549020
v -0.01002731 0.03363819 -0.03862221 0.67058824 0.20784314 0.12549020
v -0.01002731 0.03363819 -0.03861021 0.67058824 0.20784314 0.12549020
v -0.01001466 0.03361260 -0.03708489 0.67058824 0.20784314 0.12549020
v -0.01002731 0.03353217 -0.03553658 0.67058824 0.20784314 0.12549020
v -0.01002731 0.03284125 -0.03321310 0.67058824 0.20784314 0.12549020
v 0.00536079 0.03284125 -0.03321310 0.67058824 0.20784314 0.12549020
v 0.00843925 0.03284125 -0.03321410 0.67058824 0.20784314 0.12549020
v 0.01919700 0.03283759 -0.03321810 0.67058824 0.20784314 0.12549020
v 0.02534970 0.03283393 -0.03322210 0.67058824 0.20784314 0.12549020
v 0.02688472 0.03283028 -0.03322310 0.67058824 0.20784314 0.12549020
v 0.02795585 0.03282297 -0.03323010 0.67058824 0.20784314 0.12549020
v 0.02844925 0.03301306 -0.03387023 0.67058824 0.20784314 0.12549020
v 0.02995896 0.03301672 -0.03410728 0.67058824 0.20784314 0.12549020
v 0.03305429 0.03293995 -0.03436234 0.67058824 0.20784314 0.12549020
v 0.02995896 0.03325800 -0.03554758 0.67058824 0.20784314 0.12549020
v 0.02995896 0.03332014 -0.03708489 0.67058824 0.20784314 0.12549020
v 0.02842395 0.03341154 -0.03862221 0.67058824 0.20784314 0.12549020
v -0.01002731 0.02949263 -0.04280507 0.67058824 0.20784314 0.12549020
v 0.03305429 0.03302403 -0.03984546 0.67058824 0.20784314 0.12549020
v 0.03303742 0.03302403 -0.03984646 0.67058824 0.20784314 0.12549020
v 0.03305429 0.03301306 -0.03985446 0.67058824 0.20784314 0.12549020
v 0.03305429 0.03204430 -0.04058661 0.67058824 0.20784314 0.12549020
v 0.03305429 0.02880170 -0.04280507 0.67058824 0.20784314 0.12549020
v -0.01002731 0.03360894 -0.03707389 0.67058824 0.20784314 0.12549020
v -0.01002731 0.03204430 -0.03290004 0.67058824 0.20784314 0.12549020
v -0.00847542 0.03204430 -0.03289904 0.67058824 0.20784314 0.12549020
v -0.00540118 0.03204430 -0.03289804 0.67058824 0.20784314 0.12549020
v -0.00386195 0.03204430 -0.03289804 0.67058824 0.20784314 0.12549020
v 0.01458352 0.03204430 -0.03290504 0.67058824 0.20784314 0.12549020
v 0.01765777 0.03283759 -0.03321710 0.67058824 0.20784314 0.12549020
v 0.01612275 0.03204430 -0.03290604 0.67058824 0.20784314 0.12549020
v 0.01919700 0.03204430 -0.03290804 0.67058824 0.20784314 0.12549020
v 0.02073623 0.03204430 -0.03291004 0.67058824 0.20784314 0.12549020
v 0.02381047 0.03204430 -0.03291404 0.67058824 0.20784314 0.12549020
v 0.02534970 0.03204430 -0.03291704 0.67058824 0.20784314 0.12549020
v 0.02688472 0.03204430 -0.03292304 0.67058824 0.20784314 0.12549020
v 0.02898060 0.03279372 -0.03326411 0.67058824 0.20784314 0.12549020
v 0.02844925 0.03218688 -0.03299806 0.67058824 0.20784314 0.12549020
v 0.03305429 0.03183227 -0.03296105 0.67058824 0.20784314 0.12549020
v 0.03303742 0.03260362 -0.03359218 0.67058824 0.20784314 0.12549020
v 0.03305429 0.03260362 -0.03360218 0.67058824 0.20784314 0.12549020
v 0.03305429 0.03310080 -0.03554758 0.67058824 0.20784314 0.12549020
v 0.03149820 0.03318122 -0.03554758 0.67058824 0.20784314 0.12549020
v 0.03149820 0.03325068 -0.03708489 0.67058824 0.20784314 0.12549020
v 0.02995896 0.03335670 -0.03862221 0.67058824 0.20784314 0.12549020
v 0.03149820 0.03329455 -0.03862221 0.67058824 0.20784314 0.12549020
v -0.01002731 -0.00367552 -0.04280507 0.67058824 0.20784314 0.12549020
v 0.03305429 0.03321778 -0.03862221 0.67058824 0.20784314 0.12549020
v 0.03305429 -0.00367552 -0.04280507 0.67058824 0.20784314 0.12549020
v -0.01002731 0.03203334 -0.03289704 0.67058824 0.20784314 0.12549020
v -0.01002731 0.03050525 -0.03259897 0.67058824 0.20784314 0.12549020
v -0.01001466 0.03050525 -0.03259897 0.67058824 0.20784314 0.12549020
v 0.01919700 0.03050525 -0.03262098 0.67058824 0.20784314 0.12549020
v 0.02227124 0.03050525 -0.03262398 0.67058824 0.20784314 0.12549020
v 0.02534970 0.03050525 -0.03263298 0.67058824 0.20784314 0.12549020
v 0.02381047 0.03050525 -0.03262698 0.67058824 0.20784314 0.12549020
v 0.02995896 0.03197485 -0.03295105 0.67058824 0.20784314 0.12549020
v 0.03149820 0.03050525 -0.03267199 0.67058824 0.20784314 0.12549020
v 0.03305429 0.03050525 -0.03268199 0.67058824 0.20784314 0.12549020
v 0.03305429 0.03051988 -0.03268499 0.67058824 0.20784314 0.12549020
v 0.02995896 0.03274254 -0.03333813 0.67058824 0.20784314 0.12549020
v 0.03305429 0.03259997 -0.03359418 0.67058824 0.20784314 0.12549020
v 0.03305429 0.03316660 -0.03708489 0.67058824 0.20784314 0.12549020
v -0.01002731 -0.00367552 -0.03271600 0.67058824 0.20784314 0.12549020
v 0.03305429 -0.00367552 -0.03277501 0.67058824 0.20784314 0.12549020
v -0.01002731 0.02896986 -0.03258797 0.67058824 0.20784314 0.12549020
v -0.01001466 0.02896986 -0.03258797 0.67058824 0.20784314 0.12549020
v 0.02227124 0.02896986 -0.03262798 0.67058824 0.20784314 0.12549020
v -0.01002731 0.02895524 -0.03258797 0.67058824 0.20784314 0.12549020
v 0.03305429 -0.00331726 -0.03277401 0.67058824 0.20784314 0.12549020
v 0.02381047 0.02896986 -0.03263198 0.67058824 0.20784314 0.12549020
v -0.00232694 -0.00367552 -0.03271200 0.67058824 0.20784314 0.12549020
v 0.03149820 -0.00367552 -0.03277001 0.67058824 0.20784314 0.12549020
v 0.01919700 0.01512939 -0.03267399 0.67058824 0.20784314 0.12549020
v -0.00114194 -0.00367552 -0.03271200 0.67058824 0.20784314 0.12549020
v 0.01919700 0.01359400 -0.03267999 0.67058824 0.20784314 0.12549020
f 1 2 3
f 1 3 4
f 1 4 5
f 1 5 6
f 1 6 7
f 1 7 8
f 1 8 9
f 1 9 10
f 1 10 11
f 1 11 12
f 1 12 2
f 2 12 3
f 3 12 13
f 3 13 4
f 4 13 14
f 4 14 5
f 5 14 15
f 5 15 16
f 5 16 17
f 5 17 6
f 6 17 18
f 6 18 19
f 6 19 20
f 6 20 7
f 7 20 21
f 7 21 8
f 8 21 22
f 8 22 23
f 8 23 9
f 9 23 24
f 9 24 25
f 9 25 26
f 9 26 27
f 9 27 28
f 9 28 10
f 10 28 29
f 10 29 11
f 11 29 13
f 11 13 12
f 13 30 31
f 13 31 32
f 13 32 15
f 13 15 14
f 13 29 33
f 13 33 55
f 13 55 78
f 13 78 104
f 13 104 102
f 13 102 73
f 13 73 52
f 13 52 51
f 13 51 49
f 13 49 30
f 15 32 34
f 15 34 35
f 15 35 16
f 16 35 36
f 16 36 17
f 17 36 18
f 18 36 37
f 18 37 38
f 18 38 19
f 19 38 39
f 19 39 20
f 20 39 21
f 21 39 22
f 22 39 40
f 22 40 41
f 22 41 42
f 22 42 43
f 22 43 23
f 23 43 44
f 23 44 24
f 24 44 25
f 25 44 26
f 26 44 45
f 26 45 46
f 26 46 27
f 27 46 72
f 27 72 47
f 27 47 28
f 28 47 29
f 29 47 48
f 29 48 33
f 30 49 31
f 31 50 73
f 31 73 102
f 31 102 119
f 31 119 124
f 31 124 121
f 31 121 106
f 31 106 105
f 31 105 80
f 31 80 60
f 31 60 38
f 31 38 59
f 31 59 79
f 31 79 57
f 31 57 56
f 31 56 34
f 31 34 32
f 31 49 51
f 31 51 52
f 31 52 50
f 33 48 53
f 33 53 54
f 33 54 55
f 34 56 35
f 35 56 57
f 35 57 36
f 36 57 58
f 36 58 59
f 36 59 37
f 37 59 38
f 38 60 61
f 38 61 39
f 39 61 62
f 39 62 63
f 39 63 64
f 39 64 65
f 39 65 40
f 40 65 41
f 41 65 42
f 42 65 43
f 43 65 44
f 44 65 66
f 44 66 67
f 44 67 68
f 44 68 45
f 45 68 69
f 45 69 70
f 45 70 71
f 45 71 46
f 46 71 100
f 46 100 72
f 47 72 54
f 47 54 53
f 47 53 48
f 50 52 73
f 54 74 75
f 54 75 55
f 54 72 74
f 55 75 74
f 55 74 76
f 55 76 77
f 55 77 78
f 57 79 58
f 58 79 59
f 60 80 81
f 60 81 82
f 60 82 83
f 60 83 61
f 61 83 62
f 62 83 84
f 62 84 85
f 62 85 63
f 63 85 84
f 63 84 86
f 63 86 87
f 63 87 64
f 64 87 88
f 64 88 89
f 64 89 65
f 65 89 90
f 65 90 91
f 65 91 66
f 66 92 67
f 66 91 93
f 66 93 94
f 66 94 92
f 67 92 68
f 68 92 69
f 69 95 96
f 69 96 117
f 69 117 94
f 69 94 115
f 69 115 114
f 69 114 125
f 69 125 120
f 69 120 104
f 69 104 78
f 69 78 77
f 69 77 76
f 69 76 74
f 69 74 103
f 69 103 118
f 69 118 97
f 69 97 98
f 69 98 70
f 69 92 95
f 70 98 99
f 70 99 71
f 71 99 101
f 71 101 100
f 72 100 74
f 74 100 101
f 74 101 103
f 80 105 81
f 81 105 82
f 82 105 106
f 82 106 107
f 82 107 83
f 83 107 84
f 84 107 86
f 86 107 87
f 87 107 108
f 87 108 109
f 87 109 88
f 88 109 89
f 89 109 111
f 89 111 90
f 90 110 91
f 90 111 110
f 91 112 93
f 91 110 113
f 91 113 114
f 91 114 115
f 91 115 94
f 91 94 112
f 92 116 95
f 92 94 116
f 93 112 94
f 94 117 95
f 94 95 116
f 95 117 96
f 97 118 99
f 97 99 98
f 99 118 103
f 99 103 101
f 102 104 120
f 102 120 128
f 102 128 130
f 102 130 127
f 102 127 119
f 106 121 122
f 106 122 107
f 107 122 108
f 108 122 109
f 109 123 111
f 109 122 124
f 109 124 123
f 110 120 125
f 110 125 113
f 110 111 126
f 110 126 120
f 111 123 126
f 113 125 114
f 119 127 124
f 120 126 128
f 121 124 122
f 123 129 128
f 123 128 126
f 123 124 130
f 123 130 129
f 124 127 130
f 128 129 131
f 128 131 130
f 129 130 131

