# https://github.com/mikedh/trimesh
v 0.01766504 0.03206922 -0.05144094 0.20784314 0.16078431 0.65098039
v 0.01848292 0.03283459 -0.05316098 0.20784314 0.16078431 0.65098039
v 0.01818985 0.03283459 -0.05316098 0.20784314 0.16078431 0.65098039
v 0.01673894 0.03445340 -0.05757693 0.20784314 0.16078431 0.65098039
v 0.01716456 0.03276686 -0.05332059 0.20784314 0.16078431 0.65098039
v 0.01704914 0.03177797 -0.05144094 0.20784314 0.16078431 0.65098039
v 0.01922056 0.03183216 -0.05144094 0.20784314 0.16078431 0.65098039
v 0.01871738 0.03298361 -0.05399912 0.20784314 0.16078431 0.65098039
v 0.01846309 0.03436535 -0.05778761 0.20784314 0.16078431 0.65098039
v 0.01766233 0.03443985 -0.05760247 0.20784314 0.16078431 0.65098039
v 0.01672271 0.03297006 -0.05434568 0.20784314 0.16078431 0.65098039
v 0.01766233 0.03474465 -0.05861115 0.20784314 0.16078431 0.65098039
v 0.01652432 0.03461595 -0.05861115 0.20784314 0.16078431 0.65098039
v 0.01427535 0.02879098 -0.05144094 0.20784314 0.16078431 0.65098039
v 0.01669205 0.03156123 -0.05144094 0.20784314 0.16078431 0.65098039
v 0.01998885 0.03135126 -0.05144094 0.20784314 0.16078431 0.65098039
v 0.02002221 0.03133771 -0.05146465 0.20784314 0.16078431 0.65098039
v 0.01944690 0.03396572 -0.05861115 0.20784314 0.16078431 0.65098039
v 0.01867860 0.03447371 -0.05861115 0.20784314 0.16078431 0.65098039
v 0.01766233 0.03464982 -0.05982595 0.20784314 0.16078431 0.65098039
v 0.01655588 0.03459563 -0.05971833 0.20784314 0.16078431 0.65098039
v 0.01872910 0.03450081 -0.05963625 0.20784314 0.16078431 0.65098039
v 0.01529163 0.03297683 -0.05952863 0.20784314 0.16078431 0.65098039
v 0.01529163 0.03297683 -0.05911549 0.20784314 0.16078431 0.65098039
v 0.01571094 0.03352546 -0.05860659 0.20784314 0.16078431 0.65098039
v 0.01427535 0.02898740 -0.05214227 0.20784314 0.16078431 0.65098039
v 0.01427535 -0.03134175 -0.05144094 0.20784314 0.16078431 0.65098039
v 0.02001861 0.03133094 -0.05144094 0.20784314 0.16078431 0.65098039
v 0.02348674 0.02795110 -0.05144094 0.20784314 0.16078431 0.65098039
v 0.02348674 0.03053847 -0.05854549 0.20784314 0.16078431 0.65098039
v 0.02348674 0.03049106 -0.05994633 0.20784314 0.16078431 0.65098039
v 0.01766233 0.03357965 -0.06045341 0.20784314 0.16078431 0.65098039
v 0.01607615 0.03352546 -0.05992262 0.20784314 0.16078431 0.65098039
v 0.01922416 0.03364061 -0.05999467 0.20784314 0.16078431 0.65098039
v 0.01427535 0.03053170 -0.05850992 0.20784314 0.16078431 0.65098039
v 0.01427535 0.03046396 -0.05998281 0.20784314 0.16078431 0.65098039
v 0.01427535 -0.03340081 -0.05733069 0.20784314 0.16078431 0.65098039
v 0.02140821 -0.03335340 -0.05459922 0.20784314 0.16078431 0.65098039
v 0.02091404 -0.03209358 -0.05144094 0.20784314 0.16078431 0.65098039
v 0.02348674 -0.03141626 -0.05144094 0.20784314 0.16078431 0.65098039
v 0.02348674 0.02928542 -0.06049171 0.20784314 0.16078431 0.65098039
v 0.01612485 0.03204213 -0.06036859 0.20784314 0.16078431 0.65098039
v 0.02348674 0.02896708 -0.06061575 0.20784314 0.16078431 0.65098039
v 0.01919892 0.03204213 -0.06059568 0.20784314 0.16078431 0.65098039
v 0.01766233 0.03204213 -0.06064676 0.20784314 0.16078431 0.65098039
v 0.01427535 0.02896708 -0.06055282 0.20784314 0.16078431 0.65098039
v 0.01427535 0.02927188 -0.06044064 0.20784314 0.16078431 0.65098039
v 0.01427535 -0.03354305 -0.05774839 0.20784314 0.16078431 0.65098039
v 0.02227479 -0.03445066 -0.05861115 0.20784314 0.16078431 0.65098039
v 0.02169045 -0.03335340 -0.05459922 0.20784314 0.16078431 0.65098039
v 0.02230364 -0.03215453 -0.05144094 0.20784314 0.16078431 0.65098039
v 0.02320990 -0.03167364 -0.05144094 0.20784314 0.16078431 0.65098039
v 0.02348674 -0.03352950 -0.05710725 0.20784314 0.16078431 0.65098039
v 0.02348674 0.02775467 -0.06070786 0.20784314 0.16078431 0.65098039
v 0.02348674 0.02742956 -0.06072701 0.20784314 0.16078431 0.65098039
v 0.02073640 0.02896708 -0.06070695 0.20784314 0.16078431 0.65098039
v 0.01919892 0.02896708 -0.06070512 0.20784314 0.16078431 0.65098039
v 0.01766233 0.02896708 -0.06070239 0.20784314 0.16078431 0.65098039
v 0.01458736 0.02742956 -0.06072428 0.20784314 0.16078431 0.65098039
v 0.01427535 0.02742956 -0.06072337 0.20784314 0.16078431 0.65098039
v 0.01427535 0.02774113 -0.06069145 0.20784314 0.16078431 0.65098039
v 0.01427535 -0.03378011 -0.05871330 0.20784314 0.16078431 0.65098039
v 0.01427535 -0.03365142 -0.05974934 0.20784314 0.16078431 0.65098039
v 0.02227479 -0.03399685 -0.05998555 0.20784314 0.16078431 0.65098039
v 0.02348674 -0.03381398 -0.05991350 0.20784314 0.16078431 0.65098039
v 0.02348674 -0.03399008 -0.05854457 0.20784314 0.16078431 0.65098039
v 0.02314317 -0.03336694 -0.05611042 0.20784314 0.16078431 0.65098039
v 0.02271574 -0.03319084 -0.05508624 0.20784314 0.16078431 0.65098039
v 0.02297274 -0.03184297 -0.05144094 0.20784314 0.16078431 0.65098039
v 0.02309718 -0.03180910 -0.05152940 0.20784314 0.16078431 0.65098039
v 0.02348674 -0.03356337 -0.05719845 0.20784314 0.16078431 0.65098039
v 0.02348674 0.02589204 -0.06073431 0.20784314 0.16078431 0.65098039
v 0.01612485 0.02589204 -0.06072975 0.20784314 0.16078431 0.65098039
v 0.01458736 0.02589204 -0.06072792 0.20784314 0.16078431 0.65098039
v 0.01427535 0.02589204 -0.06072701 0.20784314 0.16078431 0.65098039
v 0.01427535 -0.03253384 -0.06036677 0.20784314 0.16078431 0.65098039
v 0.02227479 -0.03253384 -0.06061210 0.20784314 0.16078431 0.65098039
v 0.02348674 -0.03253384 -0.06054005 0.20784314 0.16078431 0.65098039
v 0.02344526 -0.03354305 -0.05707350 0.20784314 0.16078431 0.65098039
v 0.02348674 0.01545449 -0.06075620 0.20784314 0.16078431 0.65098039
v 0.01458736 0.01820442 -0.06073796 0.20784314 0.16078431 0.65098039
v 0.01427535 0.02127947 -0.06073340 0.20784314 0.16078431 0.65098039
v 0.01427535 0.02466608 -0.06072884 0.20784314 0.16078431 0.65098039
v 0.01427535 -0.03099631 -0.06061757 0.20784314 0.16078431 0.65098039
v 0.02348674 -0.03099631 -0.06063307 0.20784314 0.16078431 0.65098039
v 0.01458736 -0.03099631 -0.06061848 0.20784314 0.16078431 0.65098039
v 0.02073640 -0.03099631 -0.06063307 0.20784314 0.16078431 0.65098039
v 0.01458736 0.01512938 -0.06074160 0.20784314 0.16078431 0.65098039
v 0.02348674 0.01359185 -0.06075802 0.20784314 0.16078431 0.65098039
v 0.01427535 0.01544094 -0.06074069 0.20784314 0.16078431 0.65098039
v 0.01612485 -0.02945879 -0.06062852 0.20784314 0.16078431 0.65098039
v 0.01766233 -0.02945879 -0.06063399 0.20784314 0.16078431 0.65098039
v 0.01427535 0.01236590 -0.06073796 0.20784314 0.16078431 0.65098039
v 0.01458736 0.01205433 -0.06073887 0.20784314 0.16078431 0.65098039
v 0.02348674 -0.02484622 -0.06065496 0.20784314 0.16078431 0.65098039
v 0.01919892 0.01359185 -0.06075073 0.20784314 0.16078431 0.65098039
v 0.01612485 0.01359185 -0.06074525 0.20784314 0.16078431 0.65098039
v 0.01458736 0.01359185 -0.06074160 0.20784314 0.16078431 0.65098039
v 0.02348674 0.01205433 -0.06075437 0.20784314 0.16078431 0.65098039
v 0.01612485 0.01205433 -0.06074252 0.20784314 0.16078431 0.65098039
v 0.01427535 0.01359185 -0.06074069 0.20784314 0.16078431 0.65098039
v 0.02348674 -0.02452111 -0.06065588 0.20784314 0.16078431 0.65098039
f 1 2 3
f 1 3 4
f 1 4 5
f 1 5 6
f 1 6 15
f 1 15 14
f 1 14 27
f 1 27 39
f 1 39 51
f 1 51 69
f 1 69 52
f 1 52 40
f 1 40 29
f 1 29 28
f 1 28 16
f 1 16 7
f 1 7 2
f 2 8 9
f 2 9 10
f 2 10 4
f 2 4 3
f 2 7 8
f 4 11 5
f 4 10 12
f 4 12 13
f 4 13 14
f 4 14 11
f 5 11 15
f 5 15 6
f 7 16 8
f 8 16 17
f 8 17 9
f 9 18 19
f 9 19 12
f 9 12 10
f 9 17 18
f 11 14 15
f 12 20 21
f 12 21 13
f 12 19 22
f 12 22 20
f 13 21 23
f 13 23 24
f 13 24 25
f 13 25 14
f 14 25 24
f 14 24 26
f 14 26 35
f 14 35 36
f 14 36 47
f 14 47 46
f 14 46 61
f 14 61 60
f 14 60 75
f 14 75 83
f 14 83 82
f 14 82 90
f 14 90 101
f 14 101 93
f 14 93 84
f 14 84 76
f 14 76 63
f 14 63 62
f 14 62 48
f 14 48 37
f 14 37 27
f 16 28 17
f 17 28 29
f 17 29 30
f 17 30 18
f 18 22 19
f 18 30 31
f 18 31 22
f 20 22 32
f 20 32 21
f 21 32 33
f 21 33 23
f 22 34 32
f 22 31 34
f 23 35 24
f 23 33 36
f 23 36 35
f 24 35 26
f 27 37 38
f 27 38 39
f 29 40 53
f 29 53 71
f 29 71 66
f 29 66 65
f 29 65 78
f 29 78 85
f 29 85 95
f 29 95 102
f 29 102 99
f 29 99 89
f 29 89 80
f 29 80 72
f 29 72 55
f 29 55 54
f 29 54 43
f 29 43 41
f 29 41 31
f 29 31 30
f 31 41 34
f 32 42 33
f 32 34 43
f 32 43 44
f 32 44 45
f 32 45 46
f 32 46 42
f 33 42 46
f 33 46 47
f 33 47 36
f 34 41 43
f 37 48 38
f 38 48 49
f 38 49 50
f 38 50 51
f 38 51 39
f 40 52 53
f 43 54 44
f 44 54 45
f 45 54 55
f 45 55 56
f 45 56 57
f 45 57 58
f 45 58 59
f 45 59 60
f 45 60 61
f 45 61 46
f 48 62 49
f 49 62 63
f 49 63 64
f 49 64 65
f 49 65 66
f 49 66 67
f 49 67 68
f 49 68 50
f 50 68 51
f 51 68 67
f 51 67 69
f 52 69 70
f 52 70 53
f 53 70 71
f 55 59 56
f 55 72 59
f 56 59 57
f 57 59 58
f 59 72 73
f 59 73 74
f 59 74 75
f 59 75 60
f 63 76 64
f 64 77 78
f 64 78 65
f 64 76 77
f 66 71 79
f 66 79 67
f 67 79 70
f 67 70 69
f 70 79 71
f 72 80 73
f 73 80 74
f 74 80 81
f 74 81 82
f 74 82 83
f 74 83 75
f 76 84 77
f 77 85 78
f 77 84 86
f 77 86 87
f 77 87 85
f 80 88 81
f 80 89 88
f 81 88 90
f 81 90 82
f 84 91 92
f 84 92 86
f 84 93 94
f 84 94 91
f 85 87 95
f 86 92 87
f 87 92 95
f 88 89 96
f 88 96 97
f 88 97 98
f 88 98 101
f 88 101 90
f 89 99 100
f 89 100 96
f 91 94 92
f 92 102 95
f 92 94 100
f 92 100 99
f 92 99 102
f 93 101 94
f 94 101 98
f 94 98 97
f 94 97 100
f 96 100 97

