# https://github.com/mikedh/trimesh
v 0.03234159 -0.03368962 -0.05861116 0.25098039 0.46274510 0.24313725
v 0.03234159 -0.03358835 -0.05976780 0.25098039 0.46274510 0.24313725
v 0.03918848 -0.03387865 -0.05861116 0.25098039 0.46274510 0.24313725
v 0.03972173 -0.03335881 -0.05612212 0.25098039 0.46274510 0.24313725
v 0.03234159 -0.03346683 -0.05766673 0.25098039 0.46274510 0.24313725
v 0.03918848 -0.03368287 -0.05986342 0.25098039 0.46274510 0.24313725
v 0.03234159 -0.03260268 -0.06029329 0.25098039 0.46274510 0.24313725
v 0.03918848 -0.03253517 -0.06050276 0.25098039 0.46274510 0.24313725
v 0.04072617 -0.03356810 -0.05971497 0.25098039 0.46274510 0.24313725
v 0.04079695 -0.03362886 -0.05865579 0.25098039 0.46274510 0.24313725
v 0.04032284 -0.03348709 -0.05707384 0.25098039 0.46274510 0.24313725
v 0.04007077 -0.03335881 -0.05612212 0.25098039 0.46274510 0.24313725
v 0.03234159 -0.03342632 -0.05750006 0.25098039 0.46274510 0.24313725
v 0.03985940 -0.03178579 -0.05163765 0.25098039 0.46274510 0.24313725
v 0.04072617 -0.03253517 -0.06034611 0.25098039 0.46274510 0.24313725
v 0.03234159 -0.03099590 -0.06063573 0.25098039 0.46274510 0.24313725
v 0.03918848 -0.03099590 -0.06067398 0.25098039 0.46274510 0.24313725
v 0.04072617 -0.03099590 -0.06066578 0.25098039 0.46274510 0.24313725
v 0.04154835 -0.03334531 -0.05947181 0.25098039 0.46274510 0.24313725
v 0.04154835 -0.03334531 -0.05919767 0.25098039 0.46274510 0.24313725
v 0.04135637 -0.03319003 -0.05817310 0.25098039 0.46274510 0.24313725
v 0.04109169 -0.03298750 -0.05707384 0.25098039 0.46274510 0.24313725
v 0.04023365 -0.03194106 -0.05246187 0.25098039 0.46274510 0.24313725
v 0.03999902 -0.03178579 -0.05163765 0.25098039 0.46274510 0.24313725
v 0.03234159 -0.03109717 -0.05170596 0.25098039 0.46274510 0.24313725
v 0.03966841 -0.03164401 -0.05144094 0.25098039 0.46274510 0.24313725
v 0.03234159 -0.03098915 -0.05144094 0.25098039 0.46274510 0.24313725
v 0.04214170 -0.03240690 -0.05973410 0.25098039 0.46274510 0.24313725
v 0.04224641 -0.03099590 -0.06039711 0.25098039 0.46274510 0.24313725
v 0.04224641 -0.03120519 -0.06029693 0.25098039 0.46274510 0.24313725
v 0.03234159 -0.02945663 -0.06066669 0.25098039 0.46274510 0.24313725
v 0.03611407 -0.02945663 -0.06068491 0.25098039 0.46274510 0.24313725
v 0.03918848 -0.02945663 -0.06069310 0.25098039 0.46274510 0.24313725
v 0.04072617 -0.02945663 -0.06069675 0.25098039 0.46274510 0.24313725
v 0.04224641 -0.02945663 -0.06068400 0.25098039 0.46274510 0.24313725
v 0.04224641 -0.03233938 -0.05970404 0.25098039 0.46274510 0.24313725
v 0.04224641 -0.03246766 -0.05875688 0.25098039 0.46274510 0.24313725
v 0.04224641 -0.03246091 -0.05872956 0.25098039 0.46274510 0.24313725
v 0.04151732 -0.03179254 -0.05469773 0.25098039 0.46274510 0.24313725
v 0.04130887 -0.03157650 -0.05367315 0.25098039 0.46274510 0.24313725
v 0.04076787 -0.03215035 -0.05411121 0.25098039 0.46274510 0.24313725
v 0.04100249 -0.03134021 -0.05246187 0.25098039 0.46274510 0.24313725
v 0.04081149 -0.03108367 -0.05144094 0.25098039 0.46274510 0.24313725
v 0.04021038 -0.03154950 -0.05144094 0.25098039 0.46274510 0.24313725
v 0.03234159 0.02935286 -0.05144094 0.25098039 0.46274510 0.24313725
v 0.03234159 -0.02791736 -0.06067762 0.25098039 0.46274510 0.24313725
v 0.03303869 -0.02791736 -0.06068035 0.25098039 0.46274510 0.24313725
v 0.04224641 -0.02638485 -0.06072316 0.25098039 0.46274510 0.24313725
v 0.04224641 -0.02791736 -0.06071496 0.25098039 0.46274510 0.24313725
v 0.04224641 -0.03158325 -0.05646638 0.25098039 0.46274510 0.24313725
v 0.04224641 -0.02962541 -0.05144094 0.25098039 0.46274510 0.24313725
v 0.04170056 -0.03028703 -0.05144094 0.25098039 0.46274510 0.24313725
v 0.04161718 -0.03038154 -0.05144094 0.25098039 0.46274510 0.24313725
v 0.04153477 -0.03046931 -0.05144094 0.25098039 0.46274510 0.24313725
v 0.03529772 0.03191831 -0.05144094 0.25098039 0.46274510 0.24313725
v 0.03542570 0.03274195 -0.05346095 0.25098039 0.46274510 0.24313725
v 0.03527639 0.03443650 -0.05909385 0.25098039 0.46274510 0.24313725
v 0.03234159 0.03081112 -0.05799641 0.25098039 0.46274510 0.24313725
v 0.03234159 -0.02638485 -0.06068217 0.25098039 0.46274510 0.24313725
v 0.03234159 -0.02568273 -0.06068400 0.25098039 0.46274510 0.24313725
v 0.03234159 -0.02415021 -0.06068673 0.25098039 0.46274510 0.24313725
v 0.03234159 -0.00639462 -0.06071587 0.25098039 0.46274510 0.24313725
v 0.03234159 -0.00415998 -0.06071951 0.25098039 0.46274510 0.24313725
v 0.04224641 -0.02023452 -0.06073226 0.25098039 0.46274510 0.24313725
v 0.04224641 0.02841445 -0.05144094 0.25098039 0.46274510 0.24313725
v 0.03604717 0.03244490 -0.05144094 0.25098039 0.46274510 0.24313725
v 0.03602099 0.03475380 -0.05859295 0.25098039 0.46274510 0.24313725
v 0.03544606 0.03424071 -0.05806836 0.25098039 0.46274510 0.24313725
v 0.03527639 0.03443650 -0.05951188 0.25098039 0.46274510 0.24313725
v 0.03234159 0.03094614 -0.05861116 0.25098039 0.46274510 0.24313725
v 0.03234159 0.01204960 -0.06074319 0.25098039 0.46274510 0.24313725
v 0.03234159 0.01275172 -0.06074410 0.25098039 0.46274510 0.24313725
v 0.03234159 0.01358886 -0.06074502 0.25098039 0.46274510 0.24313725
v 0.04224641 0.01358886 -0.06074046 0.25098039 0.46274510 0.24313725
v 0.04224641 0.03076386 -0.05702557 0.25098039 0.46274510 0.24313725
v 0.03889665 0.03191831 -0.05144094 0.25098039 0.46274510 0.24313725
v 0.03666574 0.03276895 -0.05144094 0.25098039 0.46274510 0.24313725
v 0.03676948 0.03285672 -0.05154203 0.25098039 0.46274510 0.24313725
v 0.03647377 0.03300524 -0.05246187 0.25098039 0.46274510 0.24313725
v 0.03650383 0.03453777 -0.05707384 0.25098039 0.46274510 0.24313725
v 0.03765079 0.03509136 -0.05861116 0.25098039 0.46274510 0.24313725
v 0.03611407 0.03469304 -0.05975231 0.25098039 0.46274510 0.24313725
v 0.03611407 0.03357910 -0.06033154 0.25098039 0.46274510 0.24313725
v 0.03234159 0.03057482 -0.06009020 0.25098039 0.46274510 0.24313725
v 0.03234159 0.01512813 -0.06074319 0.25098039 0.46274510 0.24313725
v 0.04224641 0.02129871 -0.06073409 0.25098039 0.46274510 0.24313725
v 0.04224641 0.01514839 -0.06073955 0.25098039 0.46274510 0.24313725
v 0.04224641 0.01360912 -0.06074046 0.25098039 0.46274510 0.24313725
v 0.04224641 0.03133095 -0.05861116 0.25098039 0.46274510 0.24313725
v 0.03853210 0.03290398 -0.05291906 0.25098039 0.46274510 0.24313725
v 0.03813944 0.03273520 -0.05189448 0.25098039 0.46274510 0.24313725
v 0.03788833 0.03264068 -0.05144094 0.25098039 0.46274510 0.24313725
v 0.03721062 0.03280271 -0.05144094 0.25098039 0.46274510 0.24313725
v 0.03711561 0.03285672 -0.05154203 0.25098039 0.46274510 0.24313725
v 0.03678984 0.03438924 -0.05618314 0.25098039 0.46274510 0.24313725
v 0.03765079 0.03484157 -0.05987071 0.25098039 0.46274510 0.24313725
v 0.03715633 0.03438924 -0.05618314 0.25098039 0.46274510 0.24313725
v 0.03766049 0.03457152 -0.05699825 0.25098039 0.46274510 0.24313725
v 0.03818016 0.03430147 -0.05643632 0.25098039 0.46274510 0.24313725
v 0.03856313 0.03446350 -0.05746090 0.25098039 0.46274510 0.24313725
v 0.03875607 0.03464578 -0.05861116 0.25098039 0.46274510 0.24313725
v 0.03872504 0.03462553 -0.05967035 0.25098039 0.46274510 0.24313725
v 0.03765079 0.03357910 -0.06047544 0.25098039 0.46274510 0.24313725
v 0.03234159 0.02896804 -0.06069493 0.25098039 0.46274510 0.24313725
v 0.03234159 0.02971067 -0.06042444 0.25098039 0.46274510 0.24313725
v 0.03234159 0.01582350 -0.06074228 0.25098039 0.46274510 0.24313725
v 0.04224641 0.02437049 -0.06073044 0.25098039 0.46274510 0.24313725
v 0.04224641 0.03085837 -0.06000003 0.25098039 0.46274510 0.24313725
v 0.03763625 0.03270144 -0.05144094 0.25098039 0.46274510 0.24313725
v 0.04224641 0.03062883 -0.06011934 0.25098039 0.46274510 0.24313725
v 0.03611407 0.03203983 -0.06056196 0.25098039 0.46274510 0.24313725
v 0.04224641 0.02896804 -0.06066578 0.25098039 0.46274510 0.24313725
v 0.03457638 0.02896804 -0.06070859 0.25098039 0.46274510 0.24313725
v 0.03234159 0.02742877 -0.06072589 0.25098039 0.46274510 0.24313725
v 0.03457638 0.02588951 -0.06072862 0.25098039 0.46274510 0.24313725
v 0.03234159 0.02659163 -0.06072771 0.25098039 0.46274510 0.24313725
v 0.04224641 0.02590976 -0.06072316 0.25098039 0.46274510 0.24313725
v 0.04224641 0.02742877 -0.06071132 0.25098039 0.46274510 0.24313725
v 0.03457638 0.02742877 -0.06072316 0.25098039 0.46274510 0.24313725
f 1 2 3
f 1 3 4
f 1 4 5
f 1 5 13
f 1 13 25
f 1 25 27
f 1 27 45
f 1 45 58
f 1 58 70
f 1 70 84
f 1 84 105
f 1 105 104
f 1 104 114
f 1 114 116
f 1 116 106
f 1 106 85
f 1 85 73
f 1 73 72
f 1 72 71
f 1 71 63
f 1 63 62
f 1 62 61
f 1 61 60
f 1 60 59
f 1 59 46
f 1 46 31
f 1 31 16
f 1 16 7
f 1 7 2
f 2 6 3
f 2 7 8
f 2 8 6
f 3 6 9
f 3 9 10
f 3 10 11
f 3 11 12
f 3 12 4
f 4 13 5
f 4 12 24
f 4 24 14
f 4 14 13
f 6 8 15
f 6 15 9
f 7 16 8
f 8 16 17
f 8 17 18
f 8 18 15
f 9 15 19
f 9 19 10
f 10 19 20
f 10 20 21
f 10 21 11
f 11 21 12
f 12 21 22
f 12 22 23
f 12 23 24
f 13 14 25
f 14 24 26
f 14 26 27
f 14 27 25
f 15 28 19
f 15 18 29
f 15 29 30
f 15 30 28
f 16 31 17
f 17 31 32
f 17 32 33
f 17 33 34
f 17 34 18
f 18 34 49
f 18 49 35
f 18 35 29
f 19 28 36
f 19 36 37
f 19 37 20
f 20 37 38
f 20 38 21
f 21 38 39
f 21 39 40
f 21 40 41
f 21 41 22
f 22 41 23
f 23 41 40
f 23 40 42
f 23 42 43
f 23 43 44
f 23 44 24
f 24 44 26
f 26 44 43
f 26 43 54
f 26 54 53
f 26 53 52
f 26 52 51
f 26 51 65
f 26 65 76
f 26 76 92
f 26 92 109
f 26 109 93
f 26 93 77
f 26 77 66
f 26 66 55
f 26 55 45
f 26 45 27
f 28 30 36
f 29 35 49
f 29 49 48
f 29 48 64
f 29 64 74
f 29 74 88
f 29 88 87
f 29 87 86
f 29 86 107
f 29 107 117
f 29 117 118
f 29 118 112
f 29 112 110
f 29 110 108
f 29 108 89
f 29 89 75
f 29 75 65
f 29 65 51
f 29 51 50
f 29 50 38
f 29 38 37
f 29 37 36
f 29 36 30
f 31 46 32
f 32 46 47
f 32 47 48
f 32 48 49
f 32 49 33
f 33 49 34
f 38 50 39
f 39 50 51
f 39 51 52
f 39 52 53
f 39 53 54
f 39 54 40
f 40 54 42
f 42 54 43
f 45 55 56
f 45 56 57
f 45 57 58
f 46 59 48
f 46 48 47
f 48 59 60
f 48 60 61
f 48 61 62
f 48 62 63
f 48 63 64
f 55 66 56
f 56 66 67
f 56 67 68
f 56 68 57
f 57 68 67
f 57 67 69
f 57 69 70
f 57 70 58
f 63 71 64
f 64 71 72
f 64 72 73
f 64 73 74
f 65 75 76
f 66 77 78
f 66 78 79
f 66 79 80
f 66 80 67
f 67 81 82
f 67 82 69
f 67 80 81
f 69 82 83
f 69 83 84
f 69 84 70
f 73 85 86
f 73 86 87
f 73 87 88
f 73 88 74
f 75 89 90
f 75 90 76
f 76 90 91
f 76 91 92
f 77 93 78
f 78 93 94
f 78 94 97
f 78 97 95
f 78 95 80
f 78 80 79
f 80 95 81
f 81 96 82
f 81 95 97
f 81 97 98
f 81 98 99
f 81 99 100
f 81 100 101
f 81 101 102
f 81 102 96
f 82 96 83
f 83 96 103
f 83 103 104
f 83 104 105
f 83 105 84
f 85 106 107
f 85 107 86
f 89 108 102
f 89 102 101
f 89 101 100
f 89 100 90
f 90 100 99
f 90 99 91
f 91 99 92
f 92 99 109
f 93 99 94
f 93 109 99
f 94 99 97
f 96 102 103
f 97 99 98
f 102 108 110
f 102 110 103
f 103 111 104
f 103 110 112
f 103 112 111
f 104 113 114
f 104 111 113
f 106 115 107
f 106 116 115
f 107 115 116
f 107 116 114
f 107 114 117
f 111 112 113
f 112 118 113
f 113 118 119
f 113 119 114
f 114 119 117
f 117 119 118

