# https://github.com/mikedh/trimesh
v -0.04845918 0.01308687 -0.00554587 0.54117647 0.42352941 0.64313725
v -0.04999524 0.01305511 -0.00554587 0.54117647 0.42352941 0.64313725
v -0.04730817 0.01291652 -0.00554587 0.54117647 0.42352941 0.64313725
v -0.04850289 0.01500110 -0.03211321 0.54117647 0.42352941 0.64313725
v -0.04999733 0.01519455 -0.03211321 0.54117647 0.42352941 0.64313725
v -0.05101304 0.01288476 -0.00554587 0.54117647 0.42352941 0.64313725
v -0.05152298 0.01501554 -0.03211321 0.54117647 0.42352941 0.64313725
v -0.04691687 0.01282125 -0.00554587 0.54117647 0.42352941 0.64313725
v -0.04750590 0.01467196 -0.03211321 0.54117647 0.42352941 0.64313725
v -0.04654013 0.01272308 -0.00554587 0.54117647 0.42352941 0.64313725
v -0.04538288 0.01235351 -0.00554587 0.54117647 0.42352941 0.64313725
v -0.05138978 0.01278949 -0.00554587 0.54117647 0.42352941 0.64313725
v -0.05306738 0.01455070 -0.03211321 0.54117647 0.42352941 0.64313725
v -0.05178316 0.01268266 -0.00554587 0.54117647 0.42352941 0.64313725
v -0.04660257 0.01429373 -0.03211321 0.54117647 0.42352941 0.64313725
v -0.04407160 0.01168079 -0.00554587 0.54117647 0.42352941 0.64313725
v -0.05471584 0.01382889 -0.03211321 0.54117647 0.42352941 0.64313725
v -0.05306738 0.01214275 -0.00554587 0.54117647 0.42352941 0.64313725
v -0.05247626 0.01239394 -0.00554587 0.54117647 0.42352941 0.64313725
v -0.04433178 0.01312729 -0.03211321 0.54117647 0.42352941 0.64313725
v -0.04367822 0.01137763 -0.00554587 0.54117647 0.42352941 0.64313725
v -0.05623317 0.01273752 -0.03211321 0.54117647 0.42352941 0.64313725
v -0.05414346 0.01151044 -0.00554587 0.54117647 0.42352941 0.64313725
v -0.05360021 0.01183093 -0.00554587 0.54117647 0.42352941 0.64313725
v -0.04356999 0.01235063 -0.03211321 0.54117647 0.42352941 0.64313725
v -0.04330149 0.01107158 -0.00554587 0.54117647 0.42352941 0.64313725
v -0.05683886 0.01213697 -0.03211321 0.54117647 0.42352941 0.64313725
v -0.05491149 0.01082328 -0.00554587 0.54117647 0.42352941 0.64313725
v -0.05452019 0.01117841 -0.00554587 0.54117647 0.42352941 0.64313725
v -0.04260631 0.01030069 -0.00554587 0.54117647 0.42352941 0.64313725
v -0.04284983 0.01147291 -0.03211321 0.54117647 0.42352941 0.64313725
v -0.05770055 0.01097631 -0.03211321 0.54117647 0.42352941 0.64313725
v -0.05561500 0.01005528 -0.00554587 0.54117647 0.42352941 0.64313725
v -0.05527573 0.01043062 -0.00554587 0.54117647 0.42352941 0.64313725
v -0.04221500 0.00978099 -0.00554587 0.54117647 0.42352941 0.64313725
v -0.04180289 0.00913714 -0.00554587 0.54117647 0.42352941 0.64313725
v -0.04141367 0.00843554 -0.00554587 0.54117647 0.42352941 0.64313725
v -0.04167801 0.00923531 -0.03211321 0.54117647 0.42352941 0.64313725
v -0.05795240 0.01063561 -0.03211321 0.54117647 0.42352941 0.64313725
v -0.05606666 0.00941720 -0.00554587 0.54117647 0.42352941 0.64313725
v -0.04126173 0.00839512 -0.03211321 0.54117647 0.42352941 0.64313725
v -0.04121386 0.00798514 -0.00554587 0.54117647 0.42352941 0.64313725
v -0.05907635 0.00886285 -0.03211321 0.54117647 0.42352941 0.64313725
v -0.05682012 0.00830273 -0.00554587 0.54117647 0.42352941 0.64313725
v -0.05641217 0.00891482 -0.00554587 0.54117647 0.42352941 0.64313725
v -0.04101404 0.00750874 -0.00554587 0.54117647 0.42352941 0.64313725
v -0.04087042 0.00741635 -0.03211321 0.54117647 0.42352941 0.64313725
v -0.06061867 0.00430681 -0.03211321 0.54117647 0.42352941 0.64313725
v -0.05773178 0.00590344 -0.00554587 0.54117647 0.42352941 0.64313725
v -0.05746952 0.00663391 -0.00554587 0.54117647 0.42352941 0.64313725
v -0.05717188 0.00746255 -0.00554587 0.54117647 0.42352941 0.64313725
v -0.05694085 0.00806598 -0.00554587 0.54117647 0.42352941 0.64313725
v -0.05690338 0.00819013 -0.00567329 0.54117647 0.42352941 0.64313725
v -0.05689713 0.00817569 -0.00554587 0.54117647 0.42352941 0.64313725
v -0.04072681 0.00665412 -0.00554587 0.54117647 0.42352941 0.64313725
v -0.04046039 0.00585725 -0.00554587 0.54117647 0.42352941 0.64313725
v -0.04086210 0.00738748 -0.03211321 0.54117647 0.42352941 0.64313725
v -0.06085386 0.00282277 -0.03211321 0.54117647 0.42352941 0.64313725
v -0.05838533 0.00303065 -0.00554587 0.54117647 0.42352941 0.64313725
v -0.05824796 0.00383907 -0.00554587 0.54117647 0.42352941 0.64313725
v -0.05814805 0.00436455 -0.00554587 0.54117647 0.42352941 0.64313725
v -0.04016692 0.00436455 -0.00554587 0.54117647 0.42352941 0.64313725
v -0.04056238 0.00590344 -0.03211321 0.54117647 0.42352941 0.64313725
v -0.06094128 0.00128965 -0.03211321 0.54117647 0.42352941 0.64313725
v -0.05858515 0.00131275 -0.00554587 0.54117647 0.42352941 0.64313725
v -0.05848316 0.00230307 -0.00554587 0.54117647 0.42352941 0.64313725
v -0.04055197 0.00584570 -0.03211321 0.54117647 0.42352941 0.64313725
v -0.03979851 0.00125789 -0.00554587 0.54117647 0.42352941 0.64313725
v -0.04002538 0.00164478 -0.03211321 0.54117647 0.42352941 0.64313725
v -0.06094960 -0.00024347 -0.03211321 0.54117647 0.42352941 0.64313725
v -0.05862261 -0.00024058 -0.00554587 0.54117647 0.42352941 0.64313725
v -0.03974856 0.00048700 -0.00554587 0.54117647 0.42352941 0.64313725
v -0.03990258 0.00025025 -0.03211321 0.54117647 0.42352941 0.64313725
v -0.06088924 -0.00169286 -0.03211321 0.54117647 0.42352941 0.64313725
v -0.06088300 -0.00178236 -0.03211321 0.54117647 0.42352941 0.64313725
v -0.05851854 -0.00165244 -0.00554587 0.54117647 0.42352941 0.64313725
v -0.03970485 -0.00024058 -0.00554587 0.54117647 0.42352941 0.64313725
v -0.03987552 -0.00024347 -0.03211321 0.54117647 0.42352941 0.64313725
v -0.05843737 -0.00243488 -0.00554587 0.54117647 0.42352941 0.64313725
v -0.06067486 -0.00342520 -0.03211321 0.54117647 0.42352941 0.64313725
v -0.03969444 -0.00102591 -0.00554587 0.54117647 0.42352941 0.64313725
v -0.03968611 -0.00177947 -0.00554587 0.54117647 0.42352941 0.64313725
v -0.03971942 -0.00331837 -0.00554587 0.54117647 0.42352941 0.64313725
v -0.03994837 -0.00178236 -0.03211321 0.54117647 0.42352941 0.64313725
v -0.05831456 -0.00330393 -0.00554587 0.54117647 0.42352941 0.64313725
v -0.06043134 -0.00449636 -0.03211321 0.54117647 0.42352941 0.64313725
v -0.03984222 -0.00477353 -0.00554587 0.54117647 0.42352941 0.64313725
v -0.04014610 -0.00331837 -0.03211321 0.54117647 0.42352941 0.64313725
v -0.05795448 -0.00485726 -0.00554587 0.54117647 0.42352941 0.64313725
v -0.06010040 -0.00532788 -0.03211321 0.54117647 0.42352941 0.64313725
v -0.05736545 -0.00639327 -0.00554587 0.54117647 0.42352941 0.64313725
v -0.03993172 -0.00541738 -0.00554587 0.54117647 0.42352941 0.64313725
v -0.04056446 -0.00639327 -0.03211321 0.54117647 0.42352941 0.64313725
v -0.05909092 -0.00784266 -0.03211321 0.54117647 0.42352941 0.64313725
v -0.05696790 -0.00726521 -0.00554587 0.54117647 0.42352941 0.64313725
v -0.04005452 -0.00627200 -0.00554587 0.54117647 0.42352941 0.64313725
v -0.04011904 -0.00656073 -0.00554587 0.54117647 0.42352941 0.64313725
v -0.04089748 -0.00785421 -0.03211321 0.54117647 0.42352941 0.64313725
v -0.05905762 -0.00790040 -0.03211321 0.54117647 0.42352941 0.64313725
v -0.05649959 -0.00803321 -0.00554587 0.54117647 0.42352941 0.64313725
v -0.04051242 -0.00788019 -0.00554587 0.54117647 0.42352941 0.64313725
v -0.04123050 -0.00936711 -0.00554587 0.54117647 0.42352941 0.64313725
v -0.04246893 -0.01086270 -0.03211321 0.54117647 0.42352941 0.64313725
v -0.05788580 -0.00975978 -0.03211321 0.54117647 0.42352941 0.64313725
v -0.05729052 -0.01061151 -0.03211321 0.54117647 0.42352941 0.64313725
v -0.05572948 -0.00910438 -0.00554587 0.54117647 0.42352941 0.64313725
v -0.04145738 -0.00975978 -0.00554587 0.54117647 0.42352941 0.64313725
v -0.04164678 -0.01006294 -0.00554587 0.54117647 0.42352941 0.64313725
v -0.04234197 -0.01088002 -0.00554587 0.54117647 0.42352941 0.64313725
v -0.04397170 -0.01240159 -0.03211321 0.54117647 0.42352941 0.64313725
v -0.05659742 -0.01146324 -0.03211321 0.54117647 0.42352941 0.64313725
v -0.05504886 -0.00987238 -0.00554587 0.54117647 0.42352941 0.64313725
v -0.04272703 -0.01127269 -0.00554587 0.54117647 0.42352941 0.64313725
v -0.04317869 -0.01170866 -0.00554587 0.54117647 0.42352941 0.64313725
v -0.04538496 -0.01323600 -0.03211321 0.54117647 0.42352941 0.64313725
v -0.05575237 -0.01215618 -0.03211321 0.54117647 0.42352941 0.64313725
v -0.05336293 -0.01142571 -0.00554587 0.54117647 0.42352941 0.64313725
v -0.05428083 -0.01065771 -0.00554587 0.54117647 0.42352941 0.64313725
v -0.04394880 -0.01213019 -0.00554587 0.54117647 0.42352941 0.64313725
v -0.04688772 -0.01398091 -0.03211321 0.54117647 0.42352941 0.64313725
v -0.05259282 -0.01196562 -0.00554587 0.54117647 0.42352941 0.64313725
v -0.05489276 -0.01274229 -0.03211321 0.54117647 0.42352941 0.64313725
v -0.04462734 -0.01241025 -0.00554587 0.54117647 0.42352941 0.64313725
v -0.04845918 -0.01426674 -0.03211321 0.54117647 0.42352941 0.64313725
v -0.04538288 -0.01270475 -0.00554587 0.54117647 0.42352941 0.64313725
v -0.04613426 -0.01288665 -0.00554587 0.54117647 0.42352941 0.64313725
v -0.04692311 -0.01305411 -0.00554587 0.54117647 0.42352941 0.64313725
v -0.05297163 -0.01388274 -0.03211321 0.54117647 0.42352941 0.64313725
v -0.05206831 -0.01221970 -0.00554587 0.54117647 0.42352941 0.64313725
v -0.04999733 -0.01430139 -0.03211321 0.54117647 0.42352941 0.64313725
v -0.04767241 -0.01311474 -0.00554587 0.54117647 0.42352941 0.64313725
v -0.04845918 -0.01316671 -0.00554587 0.54117647 0.42352941 0.64313725
v -0.05285716 -0.01392316 -0.03211321 0.54117647 0.42352941 0.64313725
v -0.05153131 -0.01247955 -0.00554587 0.54117647 0.42352941 0.64313725
v -0.05141059 -0.01420611 -0.03211321 0.54117647 0.42352941 0.64313725
v -0.04921264 -0.01308009 -0.00554587 0.54117647 0.42352941 0.64313725
v -0.05153964 -0.01418879 -0.03211321 0.54117647 0.42352941 0.64313725
v -0.04999524 -0.01297615 -0.00554587 0.54117647 0.42352941 0.64313725
v -0.05074454 -0.01273940 -0.00554587 0.54117647 0.42352941 0.64313725
f 1 2 6
f 1 6 12
f 1 12 14
f 1 14 19
f 1 19 18
f 1 18 24
f 1 24 23
f 1 23 29
f 1 29 28
f 1 28 34
f 1 34 33
f 1 33 40
f 1 40 45
f 1 45 44
f 1 44 54
f 1 54 52
f 1 52 51
f 1 51 50
f 1 50 49
f 1 49 61
f 1 61 60
f 1 60 59
f 1 59 66
f 1 66 65
f 1 65 71
f 1 71 76
f 1 76 79
f 1 79 85
f 1 85 89
f 1 89 91
f 1 91 95
f 1 95 100
f 1 100 106
f 1 106 112
f 1 112 118
f 1 118 117
f 1 117 121
f 1 121 129
f 1 129 134
f 1 134 139
f 1 139 138
f 1 138 136
f 1 136 132
f 1 132 131
f 1 131 127
f 1 127 126
f 1 126 125
f 1 125 123
f 1 123 119
f 1 119 114
f 1 114 113
f 1 113 109
f 1 109 108
f 1 108 107
f 1 107 102
f 1 102 101
f 1 101 97
f 1 97 96
f 1 96 92
f 1 92 87
f 1 87 83
f 1 83 82
f 1 82 81
f 1 81 77
f 1 77 72
f 1 72 68
f 1 68 62
f 1 62 56
f 1 56 55
f 1 55 46
f 1 46 42
f 1 42 37
f 1 37 36
f 1 36 35
f 1 35 30
f 1 30 26
f 1 26 21
f 1 21 16
f 1 16 11
f 1 11 10
f 1 10 8
f 1 8 3
f 1 3 4
f 1 4 5
f 1 5 2
f 2 5 7
f 2 7 6
f 3 8 4
f 4 9 15
f 4 15 20
f 4 20 25
f 4 25 31
f 4 31 38
f 4 38 41
f 4 41 47
f 4 47 57
f 4 57 63
f 4 63 67
f 4 67 69
f 4 69 73
f 4 73 78
f 4 78 84
f 4 84 88
f 4 88 93
f 4 93 98
f 4 98 103
f 4 103 110
f 4 110 115
f 4 115 120
f 4 120 124
f 4 124 130
f 4 130 135
f 4 135 137
f 4 137 133
f 4 133 128
f 4 128 122
f 4 122 116
f 4 116 111
f 4 111 105
f 4 105 104
f 4 104 99
f 4 99 94
f 4 94 90
f 4 90 86
f 4 86 80
f 4 80 75
f 4 75 74
f 4 74 70
f 4 70 64
f 4 64 58
f 4 58 48
f 4 48 43
f 4 43 39
f 4 39 32
f 4 32 27
f 4 27 22
f 4 22 17
f 4 17 13
f 4 13 7
f 4 7 5
f 4 8 10
f 4 10 11
f 4 11 9
f 6 7 12
f 7 13 14
f 7 14 12
f 9 11 15
f 11 16 15
f 13 17 18
f 13 18 19
f 13 19 14
f 15 16 20
f 16 21 20
f 17 22 23
f 17 23 24
f 17 24 18
f 20 21 26
f 20 26 25
f 22 27 28
f 22 28 29
f 22 29 23
f 25 26 30
f 25 30 31
f 27 32 33
f 27 33 34
f 27 34 28
f 30 35 31
f 31 35 36
f 31 36 37
f 31 37 38
f 32 39 33
f 33 39 40
f 37 41 38
f 37 42 41
f 39 43 44
f 39 44 45
f 39 45 40
f 41 42 46
f 41 46 47
f 43 48 49
f 43 49 50
f 43 50 51
f 43 51 52
f 43 52 53
f 43 53 44
f 44 53 54
f 46 55 47
f 47 55 56
f 47 56 57
f 48 58 59
f 48 59 60
f 48 60 61
f 48 61 49
f 52 54 53
f 56 62 63
f 56 63 57
f 58 64 65
f 58 65 66
f 58 66 59
f 62 67 63
f 62 68 69
f 62 69 67
f 64 70 71
f 64 71 65
f 68 72 73
f 68 73 69
f 70 74 71
f 71 74 75
f 71 75 76
f 72 77 73
f 73 77 78
f 75 79 76
f 75 80 79
f 77 81 78
f 78 81 82
f 78 82 83
f 78 83 84
f 79 80 85
f 80 86 85
f 83 87 84
f 84 87 88
f 85 86 89
f 86 90 91
f 86 91 89
f 87 92 93
f 87 93 88
f 90 94 91
f 91 94 95
f 92 96 93
f 93 96 97
f 93 97 98
f 94 99 95
f 95 99 100
f 97 101 98
f 98 101 102
f 98 102 103
f 99 104 100
f 100 104 105
f 100 105 106
f 102 107 103
f 103 107 108
f 103 108 109
f 103 109 110
f 105 111 106
f 106 111 112
f 109 113 110
f 110 113 114
f 110 114 115
f 111 116 117
f 111 117 118
f 111 118 112
f 114 119 115
f 115 119 120
f 116 121 117
f 116 122 121
f 119 123 120
f 120 123 125
f 120 125 126
f 120 126 127
f 120 127 124
f 121 122 128
f 121 128 129
f 124 127 131
f 124 131 132
f 124 132 130
f 128 133 134
f 128 134 129
f 130 132 135
f 132 136 135
f 133 137 138
f 133 138 139
f 133 139 134
f 135 136 138
f 135 138 137

